<?xml version="1.0" encoding="UTF-8"?> <svg xmlns="http://www.w3.org/2000/svg" width="2459" height="643" viewBox="0 0 2459 643" fill="none"> <rect x="126" y="308.33" width="1637.84" height="14" fill="white"></rect> <rect width="64.0731" height="14.072" rx="7.036" transform="matrix(0.792018 0.610498 -0.620761 0.784 1725.34 274)" fill="white"></rect> <rect width="64.0731" height="14.072" rx="7.036" transform="matrix(0.791997 -0.610526 -0.620788 -0.783979 1725.35 356.148)" fill="white"></rect> <ellipse cx="826.5" cy="315.5" rx="89.5" ry="91.5" fill="#F9423A"></ellipse> <ellipse cx="133.5" cy="315.5" rx="89.5" ry="91.5" fill="#FBC633"></ellipse> <ellipse cx="1519.5" cy="315.5" rx="89.5" ry="91.5" fill="#72327A"></ellipse> <path d="M871.326 243L937.418 309.092C941.323 312.997 941.323 319.329 937.418 323.234L871.326 389.326L798.163 316.163L871.326 243Z" fill="#F9423A"></path> <path d="M178.326 243L244.418 309.092C248.323 312.997 248.323 319.329 244.418 323.234L178.326 389.326L105.163 316.163L178.326 243Z" fill="#FBC633"></path> <path d="M1564.33 243L1630.42 309.092C1634.32 312.997 1634.32 319.329 1630.42 323.234L1564.33 389.326L1491.16 316.163L1564.33 243Z" fill="#72327A"></path> <circle cx="826.5" cy="315.5" r="64.5" fill="#1E305C"></circle> <circle cx="133.5" cy="315.5" r="64.5" fill="#1E305C"></circle> <circle cx="1519.5" cy="315.5" r="64.5" fill="#1E305C"></circle> <path d="M851.125 350H803.322V341.846L827.004 316.016C830.422 312.207 832.847 309.033 834.279 306.494C835.744 303.923 836.477 301.351 836.477 298.779C836.477 295.394 835.516 292.66 833.596 290.576C831.708 288.493 829.152 287.451 825.93 287.451C822.089 287.451 819.11 288.623 816.994 290.967C814.878 293.311 813.82 296.517 813.82 300.586H801.955C801.955 296.257 802.932 292.367 804.885 288.916C806.87 285.433 809.686 282.731 813.332 280.811C817.01 278.89 821.242 277.93 826.027 277.93C832.928 277.93 838.365 279.671 842.336 283.154C846.34 286.605 848.342 291.39 848.342 297.51C848.342 301.058 847.333 304.785 845.314 308.691C843.329 312.565 840.057 316.976 835.5 321.924L818.117 340.527H851.125V350Z" fill="white"></path> <path d="M142.451 350H130.635V292.92L113.203 298.877V288.867L140.938 278.662H142.451V350Z" fill="white"></path> <path d="M1510.04 309.033H1517.27C1520.92 309.001 1523.8 308.057 1525.91 306.201C1528.06 304.346 1529.13 301.66 1529.13 298.145C1529.13 294.759 1528.24 292.139 1526.45 290.283C1524.69 288.395 1521.99 287.451 1518.34 287.451C1515.15 287.451 1512.53 288.379 1510.48 290.234C1508.43 292.057 1507.41 294.45 1507.41 297.412H1495.54C1495.54 293.766 1496.5 290.446 1498.42 287.451C1500.38 284.456 1503.08 282.129 1506.53 280.469C1510.01 278.776 1513.9 277.93 1518.2 277.93C1525.29 277.93 1530.86 279.72 1534.9 283.301C1538.97 286.849 1541 291.797 1541 298.145C1541 301.335 1539.97 304.346 1537.92 307.178C1535.91 309.977 1533.29 312.093 1530.06 313.525C1533.97 314.86 1536.93 316.96 1538.95 319.824C1541 322.689 1542.03 326.107 1542.03 330.078C1542.03 336.458 1539.83 341.536 1535.43 345.312C1531.07 349.089 1525.33 350.977 1518.2 350.977C1511.36 350.977 1505.76 349.154 1501.4 345.508C1497.04 341.862 1494.86 337.012 1494.86 330.957H1506.72C1506.72 334.082 1507.76 336.621 1509.85 338.574C1511.96 340.527 1514.8 341.504 1518.34 341.504C1522.02 341.504 1524.92 340.527 1527.04 338.574C1529.15 336.621 1530.21 333.789 1530.21 330.078C1530.21 326.335 1529.1 323.454 1526.89 321.436C1524.68 319.417 1521.39 318.408 1517.03 318.408H1510.04V309.033Z" fill="white"></path> <path d="M1887.16 248L1821.07 314.092C1817.16 317.997 1817.16 324.329 1821.07 328.234L1887.16 394.326L1960.33 321.163L1887.16 248Z" fill="#ED4644"></path> <circle cx="2135.5" cy="321.5" r="269.5" fill="#ED4644"></circle> </svg> 