<?xml version="1.0" encoding="UTF-8"?> <svg xmlns="http://www.w3.org/2000/svg" viewBox="0 0 196 153.71"> <defs> <style>.cls-1{fill:#052b5f;}</style> </defs> <title>3_1</title> <g id="Слой_2" data-name="Слой 2"> <g id="_052b5f" data-name="#052b5f"> <path class="cls-1" d="M167.36,5.22a6.81,6.81,0,0,0-7.08.31L122,30.73V11A11,11,0,0,0,111,0H11A11,11,0,0,0,0,11V52A11,11,0,0,0,11,63H29v3H26.71C23,66,20,68.69,20,72s3,6,6.71,6H29v4.71A12.92,12.92,0,0,0,41.9,95.62H58.05v45.9a12.67,12.67,0,0,0,25.33,0V101a7.17,7.17,0,0,0,12.37-4.73l65.09,34.6a6.85,6.85,0,0,0,3.25.82,7,7,0,0,0,3.56-1,6.86,6.86,0,0,0,3.35-5.93V11.31A6.83,6.83,0,0,0,167.36,5.22ZM95.76,50.4,132,26.54v86.74L95.76,94ZM134,113.82V25.23L160,8.11V128.17l-26.13-13.89A.91.91,0,0,0,134,113.82ZM2,52V11a9,9,0,0,1,9-9H111a9,9,0,0,1,9,9v21l-24.36,16a7.18,7.18,0,0,0-14.23.78H41.9A12.91,12.91,0,0,0,29,61H11A9,9,0,0,1,2,52Zm40.43-1.14H81.38V93.62H42.43ZM26.71,76C24.11,76,22,74.21,22,72s2.11-4,4.71-4H29v8ZM31,82.71V61.76A10.9,10.9,0,0,1,40.43,51V93.51A10.92,10.92,0,0,1,31,82.71Zm50.38,58.81a10.68,10.68,0,0,1-21.33,0V95.62H81.38v45.9ZM93.76,96.05a5.19,5.19,0,1,1-10.38,0V49.38a5.19,5.19,0,0,1,10.38,0ZM169,124.77a4.91,4.91,0,0,1-7,4.45V7a.5.5,0,0,0,0-.13,4.91,4.91,0,0,1,7,4.44Z"></path> <path class="cls-1" d="M195,71H176a1,1,0,0,0,0,2h19a1,1,0,0,0,0-2Z"></path> <path class="cls-1" d="M176.23,60.06a.9.9,0,0,0,.28,0l13.78-4.12a1,1,0,0,0-.58-1.92L175.94,58.1a1,1,0,0,0,.29,2Z"></path> <path class="cls-1" d="M190.29,88.1,176.51,84a1,1,0,0,0-.57,1.92L189.71,90a1,1,0,1,0,.58-1.92Z"></path> <path class="cls-1" d="M12,15h95a1,1,0,0,0,0-2H12a1,1,0,0,0,0,2Z"></path> <path class="cls-1" d="M12,26h95a1,1,0,0,0,0-2H12a1,1,0,0,0,0,2Z"></path> <path class="cls-1" d="M107,38a1,1,0,0,0,0-2H12a1,1,0,0,0,0,2Z"></path> </g> </g> </svg> 