<?xml version="1.0" encoding="UTF-8"?> <svg xmlns="http://www.w3.org/2000/svg" viewBox="0 0 145.9 182"> <defs> <style>.cls-1{fill:#052b5f;}</style> </defs> <title>5_1</title> <g id="Слой_2" data-name="Слой 2"> <g id="_052b5f" data-name="#052b5f"> <path class="cls-1" d="M73,109.63A23.32,23.32,0,1,1,96.28,86.31,23.34,23.34,0,0,1,73,109.63ZM73,65A21.32,21.32,0,1,0,94.28,86.31,21.33,21.33,0,0,0,73,65Z"></path> <path class="cls-1" d="M73.32,33.63A9.68,9.68,0,1,1,83,24,9.69,9.69,0,0,1,73.32,33.63Zm0-17.35A7.68,7.68,0,1,0,81,24,7.68,7.68,0,0,0,73.32,16.28Z"></path> <path class="cls-1" d="M102.83,28.63A5.18,5.18,0,1,1,108,23.45,5.18,5.18,0,0,1,102.83,28.63Zm0-8.35A3.18,3.18,0,1,0,106,23.45,3.17,3.17,0,0,0,102.83,20.28Z"></path> <path class="cls-1" d="M38.82,30.63A5.18,5.18,0,1,1,44,25.45,5.18,5.18,0,0,1,38.82,30.63Zm0-8.35A3.18,3.18,0,1,0,42,25.45,3.17,3.17,0,0,0,38.82,22.28Z"></path> <path class="cls-1" d="M97.18,182H48.75A8.76,8.76,0,0,1,40,173.25V135.13a27.54,27.54,0,0,1,27.5-27.5H78.43a27.54,27.54,0,0,1,27.5,27.5v38.12A8.76,8.76,0,0,1,97.18,182ZM67.5,109.63A25.53,25.53,0,0,0,42,135.13v38.12A6.76,6.76,0,0,0,48.75,180H97.18a6.76,6.76,0,0,0,6.75-6.75V135.13a25.53,25.53,0,0,0-25.5-25.5Z"></path> <path class="cls-1" d="M55.47,182a1,1,0,0,1-1-1V136.37a1,1,0,0,1,2,0V181A1,1,0,0,1,55.47,182Z"></path> <path class="cls-1" d="M90.45,182a1,1,0,0,1-1-1V136.37a1,1,0,0,1,2,0V181A1,1,0,0,1,90.45,182Z"></path> <path class="cls-1" d="M129.63,102.19a17,17,0,1,0-15.36,0,18.52,18.52,0,0,0-16,15.17,4.93,4.93,0,0,1,1.79,1.55A16.53,16.53,0,0,1,116.5,104h10.9a16.52,16.52,0,0,1,16.5,16.5v29.34a4.13,4.13,0,0,1-4.12,4.12H135.5V123a1,1,0,1,0-2,0v31H110.39V123a1,1,0,0,0-2,0v31h-3.28c.06.4.11.81.14,1.25a4.66,4.66,0,0,1,0,.75h34.54a6.13,6.13,0,0,0,6.12-6.12V120.54A18.52,18.52,0,0,0,129.63,102.19ZM122,102a15,15,0,1,1,15-15A15,15,0,0,1,122,102Z"></path> <path class="cls-1" d="M41.25,155.75c0-.58,0-1.17,0-1.75H37.5V123a1,1,0,1,0-2,0v31H12.39V123a1,1,0,0,0-2,0v31H6.12A4.13,4.13,0,0,1,2,149.88V120.54A16.52,16.52,0,0,1,18.5,104H29.4a16.51,16.51,0,0,1,16.46,15.77A4.44,4.44,0,0,1,47.71,118a18.53,18.53,0,0,0-16.08-15.83,17,17,0,1,0-15.36,0A18.52,18.52,0,0,0,0,120.54v29.34A6.12,6.12,0,0,0,6.12,156H41.26C41.26,155.92,41.25,155.84,41.25,155.75ZM8.93,87a15,15,0,1,1,15,15A15,15,0,0,1,8.93,87Z"></path> <path class="cls-1" d="M113,66a1,1,0,0,1-.77-.36L97.53,48H79.8l-6,9.53a1,1,0,0,1-1.7,0L66.2,48H47.47L32.77,65.64a1,1,0,0,1-1.11.3A1,1,0,0,1,31,65V48H27.33A11.34,11.34,0,0,1,16,36.67V11.33A11.34,11.34,0,0,1,27.33,0h90.34A11.34,11.34,0,0,1,129,11.33V36.67A11.34,11.34,0,0,1,117.67,48H114V65a1,1,0,0,1-.66.94A1,1,0,0,1,113,66ZM79.25,46H98a1,1,0,0,1,.77.36L112,62.24V47a1,1,0,0,1,1-1h4.67A9.35,9.35,0,0,0,127,36.67V11.33A9.35,9.35,0,0,0,117.67,2H27.33A9.35,9.35,0,0,0,18,11.33V36.67A9.35,9.35,0,0,0,27.33,46H32a1,1,0,0,1,1,1V62.24L46.23,46.36A1,1,0,0,1,47,46H66.75a1,1,0,0,1,.85.47L73,55.11l5.4-8.64A1,1,0,0,1,79.25,46Z"></path> </g> </g> </svg> 