<?xml version="1.0" encoding="UTF-8"?> <svg xmlns="http://www.w3.org/2000/svg" viewBox="0 0 174 183"> <defs> <style>.cls-1{fill:#052b5f;}</style> </defs> <title>8_1</title> <g id="Слой_2" data-name="Слой 2"> <g id="_052b5f" data-name="#052b5f"> <path class="cls-1" d="M35.54,56.68a10.26,10.26,0,0,0,7.86-3.94.82.82,0,0,0,.25.16c7.81,2.72,12.35,9.29,15,15.82a1,1,0,0,0,1.26.55h0A1,1,0,0,0,60.45,68c-2.73-6.63-7.53-13.8-15.91-16.87a15.86,15.86,0,0,0,2.27-8.29C46.81,35.21,41.75,29,35.54,29S24.26,35.21,24.26,42.84a16,16,0,0,0,2.25,8.26C20.1,53.45,15.79,58.21,12.9,63.29a1,1,0,0,0,.16,1.14h0a.93.93,0,0,0,1.48-.19c2.81-5,7-9.41,13.15-11.47A10.27,10.27,0,0,0,35.54,56.68Zm0-25.68c5.11,0,9.27,5.31,9.27,11.84s-4.16,11.84-9.27,11.84-9.28-5.31-9.28-11.84S30.42,31,35.54,31Z"></path> <path class="cls-1" d="M101.85,124.38a31.51,31.51,0,0,0,6.54-19.65c0-15.41-10.12-27.95-22.56-27.95s-22.57,12.54-22.57,28a31.49,31.49,0,0,0,6.55,19.66C46.06,133,38.19,160,35.76,172.84A8.6,8.6,0,0,0,44.22,183h83.21a8.63,8.63,0,0,0,6.64-3.12,8.53,8.53,0,0,0,1.82-7C133.46,160,125.6,133,101.85,124.38Zm-16-45.6c9.8,0,18,8.71,20.07,20.32-15.2,1.33-19.79-9-20-9.48a1,1,0,0,0-.85-.62,1,1,0,0,0-.93.49c-4.66,7.76-14.91,9.41-18.41,9.75C67.73,87.56,76,78.78,85.83,78.78Zm-20.38,22.5c3.13-.23,13.75-1.58,19.47-9.36,2.06,3.23,8.15,10.32,21.26,9.15a31.56,31.56,0,0,1,.21,3.66c0,14.31-9.22,26-20.56,26S65.26,119,65.26,104.73A32.64,32.64,0,0,1,65.45,101.28Zm67.08,77.33a6.62,6.62,0,0,1-5.1,2.39H44.22a6.59,6.59,0,0,1-6.49-7.79c2.93-15.49,11.06-39.77,33.46-47.23a19.34,19.34,0,0,0,29.28,0c22.4,7.46,30.53,31.75,33.45,47.24A6.52,6.52,0,0,1,132.53,178.61Z"></path> <path class="cls-1" d="M146.79,54.1A16,16,0,0,0,149,45.84C149,38.21,144,32,137.76,32s-11.27,6.21-11.27,13.84a15.94,15.94,0,0,0,2.26,8.29c-8.37,3.07-13.17,10.24-15.9,16.87a1,1,0,0,0,.53,1.26h0a1,1,0,0,0,1.26-.55c2.64-6.53,7.18-13.1,15-15.82a.82.82,0,0,0,.25-.16,9.81,9.81,0,0,0,15.69,0c6.18,2.06,10.34,6.5,13.15,11.47a.93.93,0,0,0,1.48.19h0a1,1,0,0,0,.16-1.14C157.5,61.21,153.2,56.45,146.79,54.1Zm-9,3.58c-5.11,0-9.27-5.31-9.27-11.84S132.65,34,137.76,34,147,39.31,147,45.84,142.88,57.68,137.76,57.68Z"></path> <path class="cls-1" d="M37.13,86l13.94,36.39A1,1,0,0,0,52,123a.92.92,0,0,0,.36-.07,1,1,0,0,0,.57-1.29L39.23,85.85A35.95,35.95,0,1,0,36,86C36.38,86,36.75,86,37.13,86ZM2,50A34,34,0,1,1,38.48,83.9l-3.55-9.26a1,1,0,1,0-1.86.72L36.37,84H36A34,34,0,0,1,2,50Z"></path> <path class="cls-1" d="M138,17a36,36,0,0,0-4.67,71.69l-14.26,34.93A1,1,0,0,0,120,125a1,1,0,0,0,.93-.62L135.41,88.9c.86.06,1.72.1,2.59.1a36,36,0,0,0,0-72Zm0,70c-.6,0-1.2,0-1.8,0l4.73-11.57a1,1,0,1,0-1.86-.76l-4.95,12.15A33.94,33.94,0,1,1,138,87Z"></path> <path class="cls-1" d="M86.5,23A11.5,11.5,0,1,0,75,11.5,11.51,11.51,0,0,0,86.5,23Zm0-21A9.5,9.5,0,1,1,77,11.5,9.51,9.51,0,0,1,86.5,2Z"></path> <path class="cls-1" d="M86.5,139a6.5,6.5,0,1,0,6.5,6.5A6.51,6.51,0,0,0,86.5,139Zm0,11a4.5,4.5,0,1,1,4.5-4.5A4.51,4.51,0,0,1,86.5,150Z"></path> <path class="cls-1" d="M86.5,160a6.5,6.5,0,1,0,6.5,6.5A6.51,6.51,0,0,0,86.5,160Zm0,11a4.5,4.5,0,1,1,4.5-4.5A4.51,4.51,0,0,1,86.5,171Z"></path> <path class="cls-1" d="M86,30V71a1,1,0,0,0,2,0V30a1,1,0,0,0-2,0Z"></path> <path class="cls-1" d="M147.65,131.06l-16,6A1,1,0,0,0,132,139a1,1,0,0,0,.35-.06l16-6a1,1,0,1,0-.7-1.88Z"></path> <path class="cls-1" d="M43,142a1,1,0,0,0,.54-1.84l-17-11a1,1,0,0,0-1.08,1.68l17,11A1,1,0,0,0,43,142Z"></path> </g> </g> </svg> 