<?xml version="1.0" encoding="UTF-8" standalone="no"?>
<svg
   xmlns:dc="http://purl.org/dc/elements/1.1/"
   xmlns:cc="http://creativecommons.org/ns#"
   xmlns:rdf="http://www.w3.org/1999/02/22-rdf-syntax-ns#"
   xmlns:svg="http://www.w3.org/2000/svg"
   xmlns="http://www.w3.org/2000/svg"
   xmlns:sodipodi="http://sodipodi.sourceforge.net/DTD/sodipodi-0.dtd"
   xmlns:inkscape="http://www.inkscape.org/namespaces/inkscape"
   viewBox="0 0 144 83"
   height="83"
   width="144"
   xml:space="preserve"
   version="1.1"
   id="svg2"
   inkscape:version="0.48.4 r9939"
   sodipodi:docname="beko.svg"><title
     id="title2990">Beko logo</title><sodipodi:namedview
     pagecolor="#ffffff"
     bordercolor="#666666"
     borderopacity="1"
     objecttolerance="10"
     gridtolerance="10"
     guidetolerance="10"
     inkscape:pageopacity="0"
     inkscape:pageshadow="2"
     inkscape:window-width="1600"
     inkscape:window-height="844"
     id="namedview13"
     showgrid="false"
     inkscape:showpageshadow="false"
     inkscape:zoom="1"
     inkscape:cx="91.024894"
     inkscape:cy="44.669539"
     inkscape:window-x="-4"
     inkscape:window-y="-4"
     inkscape:window-maximized="1"
     inkscape:current-layer="svg2" /><metadata
     id="metadata8"><rdf:RDF><cc:Work
         rdf:about=""><dc:format>image/svg+xml</dc:format><dc:type
           rdf:resource="http://purl.org/dc/dcmitype/StillImage" /><dc:title>Beko logo</dc:title></cc:Work></rdf:RDF></metadata><defs
     id="defs6" /><g
     transform="matrix(1.25,0,0,-1.25,-34.954604,135.14414)"
     id="g10"
     style="fill:#3771c8"><g
       transform="scale(0.1,0.1)"
       id="g12"
       style="fill:#3771c8"><path
         id="path16"
         style="fill:#3771c8;fill-opacity:1;fill-rule:nonzero;stroke:none"
         d="m 1154.82,986.563 -113.23,0 -76.863,-116.325 0,203.522 -87.176,0 0,-367.655 87.176,0 0,130.383 89.513,-130.383 112.97,0 -124.28,146.918 111.89,133.54"
         inkscape:connector-curvature="0" /><path
         id="path18"
         style="fill:#3771c8;fill-opacity:1;fill-rule:nonzero;stroke:none"
         d="m 676.746,878.168 c 2.289,23.516 17.192,56.785 53.914,56.785 40.137,0 49.313,-35.547 49.313,-56.785 l -103.227,0 z m 59.082,114.715 c -97.523,0 -141.68,-78.586 -141.68,-149.684 0,-87.75 54.504,-142.801 149.696,-142.801 37.836,0 72.84,5.704 101.511,17.192 l -11.468,59.055 c -23.528,-7.434 -47.625,-11.457 -77.426,-11.457 -40.723,0 -76.281,17.199 -79.133,53.339 l 180.645,0 c 1.144,6.301 2.875,19.508 2.875,34.414 0,69.403 -34.426,139.942 -125.02,139.942"
         inkscape:connector-curvature="0" /><path
         id="path20"
         style="fill:#3771c8;fill-opacity:1;fill-rule:nonzero;stroke:none"
         d="m 435.648,762.313 c -34.773,0 -54.57,31.453 -57.074,74.804 l 0,18.668 c 2.192,38.246 18.309,75.156 57.074,75.156 39.582,0 55.629,-42.441 55.629,-84.293 0,-50.476 -21.793,-84.335 -55.629,-84.335 z m 2.29,230.57 c -21.704,0 -41.59,-3.442 -59.364,-9.84 l 0,90.717 -90.308,0 0,-236.947 c 3.461,-86 65.418,-137.004 145.105,-137.004 75.121,0 147.953,47.035 147.953,149.695 0,84.297 -57.344,143.379 -143.386,143.379"
         inkscape:connector-curvature="0" /><path
         id="path22"
         style="fill:#3771c8;fill-opacity:1;fill-rule:nonzero;stroke:none"
         d="m 1276.45,762.313 c -37.29,0 -57.35,36.128 -57.35,84.335 0,41.282 15.47,84.293 57.35,84.293 39.56,0 55.62,-42.441 55.62,-84.293 0,-50.476 -21.8,-84.335 -55.62,-84.335 z m 2.29,230.57 c -90.04,0 -149.68,-57.93 -149.68,-148.547 0,-90.609 63.06,-144.527 145.09,-144.527 75.12,0 147.97,47.035 147.97,149.695 0,84.297 -57.36,143.379 -143.38,143.379"
         inkscape:connector-curvature="0" /><path
         id="path24"
         style="fill:#3771c8;fill-opacity:1;fill-rule:nonzero;stroke:none"
         d="m 288.262,515.703 0,-88.023 1101.808,154.847 0,88.016 -1101.808,-154.84"
         inkscape:connector-curvature="0" /></g></g></svg>