<?xml version="1.0" encoding="utf-8"?>
<!-- Generator: Adobe Illustrator 15.0.0, SVG Export Plug-In . SVG Version: 6.00 Build 0)  -->
<!DOCTYPE svg PUBLIC "-//W3C//DTD SVG 1.1//EN" "http://www.w3.org/Graphics/SVG/1.1/DTD/svg11.dtd">
<svg version="1.1" id="Layer_1" xmlns="http://www.w3.org/2000/svg" xmlns:xlink="http://www.w3.org/1999/xlink" x="0px" y="0px"
	 width="447.768px" height="113.391px" viewBox="0 0 447.768 113.391" enable-background="new 0 0 447.768 113.391"
	 xml:space="preserve">
<g>
	<g>
		<linearGradient id="SVGID_1_" gradientUnits="userSpaceOnUse" x1="47.7476" y1="113.3906" x2="47.7476" y2="60.3877">
			<stop  offset="0" style="stop-color:#74307B"/>
			<stop  offset="0.1641" style="stop-color:#7E347D"/>
			<stop  offset="0.4388" style="stop-color:#973D84"/>
			<stop  offset="0.788" style="stop-color:#C14C8F"/>
			<stop  offset="1" style="stop-color:#DE5796"/>
		</linearGradient>
		<path fill="url(#SVGID_1_)" d="M14.76,96.261l34.289-32.998c1.932-1.857,4.416-2.779,6.902-2.779c0.125,0,0.25,0,0.369,0.014
			c0.455-0.074,0.922-0.109,1.385-0.109c2.287,0,4.58,0.848,6.365,2.559l16.869,16.135c3.682,3.516,3.813,9.35,0.289,13.029
			c-3.518,3.678-9.35,3.813-13.029,0.287l-10.391-9.934L28.564,110.61c-3.959,3.813-10.266,3.688-14.078-0.271
			C10.674,106.378,10.801,100.073,14.76,96.261z"/>
		<linearGradient id="SVGID_2_" gradientUnits="userSpaceOnUse" x1="65.645" y1="58.3545" x2="65.645" y2="1.8338">
			<stop  offset="0" style="stop-color:#F39124"/>
			<stop  offset="0.4233" style="stop-color:#F1722B"/>
			<stop  offset="1" style="stop-color:#EF4137"/>
		</linearGradient>
		<path fill="url(#SVGID_2_)" d="M98.633,17.13L64.344,50.128c-1.932,1.858-4.416,2.78-6.902,2.78c-0.125,0-0.25,0-0.369-0.015
			c-0.455,0.073-0.922,0.111-1.385,0.111c-2.287,0-4.58-0.849-6.365-2.56L32.453,34.311c-3.68-3.518-3.813-9.351-0.289-13.03
			c3.518-3.678,9.35-3.812,13.029-0.286l10.391,9.932L84.828,2.78c3.961-3.813,10.266-3.687,14.078,0.273
			S102.592,13.318,98.633,17.13z"/>
		<linearGradient id="SVGID_3_" gradientUnits="userSpaceOnUse" x1="0" y1="47.7476" x2="53.0059" y2="47.7476">
			<stop  offset="0" style="stop-color:#161742"/>
			<stop  offset="0.1256" style="stop-color:#171D49"/>
			<stop  offset="0.3052" style="stop-color:#1A2E5C"/>
			<stop  offset="0.5172" style="stop-color:#1F4A7A"/>
			<stop  offset="0.754" style="stop-color:#2671A5"/>
			<stop  offset="1" style="stop-color:#2EA0DA"/>
		</linearGradient>
		<path fill="url(#SVGID_3_)" d="M17.131,14.76l32.998,34.288c1.857,1.933,2.779,4.418,2.779,6.902c0,0.126,0,0.251-0.014,0.369
			c0.072,0.457,0.111,0.922,0.111,1.386c0,2.288-0.85,4.579-2.561,6.364L34.311,80.94c-3.518,3.68-9.35,3.813-13.029,0.289
			c-3.678-3.518-3.813-9.352-0.287-13.029l9.932-10.391L2.779,28.564c-3.813-3.96-3.686-10.264,0.273-14.077
			C7.014,10.674,13.318,10.8,17.131,14.76z"/>
	</g>
	<circle fill="#FFFFFF" cx="56.44" cy="56.695" r="9.202"/>
</g>
<g>
	<path fill="#231F20" d="M132.852,76.483h-6.211V54.367c0-8.232-3.006-12.348-9.014-12.348c-3.105,0-5.676,1.168-7.707,3.504
		c-2.033,2.336-3.049,5.283-3.049,8.844v22.117h-6.211V37.703h6.211v6.438h0.15c2.93-4.898,7.172-7.348,12.727-7.348
		c4.24,0,7.486,1.371,9.732,4.109c2.248,2.74,3.371,6.697,3.371,11.873V76.483z"/>
	<path fill="#231F20" d="M183.949,76.483h-6.211v-6.061h-0.152c-2.701,4.646-6.678,6.969-11.93,6.969
		c-3.861,0-6.885-1.021-9.07-3.066c-2.184-2.047-3.275-4.76-3.275-8.143c0-7.246,4.268-11.462,12.801-12.65l11.627-1.629
		c0-6.59-2.664-9.885-7.99-9.885c-4.672,0-8.889,1.592-12.65,4.773v-6.363c3.813-2.424,8.205-3.637,13.18-3.637
		c9.115,0,13.672,4.824,13.672,14.469V76.483z M177.738,56.865l-9.354,1.289c-2.879,0.404-5.051,1.117-6.516,2.139
		c-1.463,1.023-2.195,2.834-2.195,5.436c0,1.893,0.674,3.439,2.025,4.639s3.15,1.799,5.396,1.799c3.08,0,5.625-1.078,7.631-3.238
		c2.008-2.158,3.012-4.891,3.012-8.199V56.865z"/>
	<path fill="#231F20" d="M213.648,70.878h-0.152v23.443h-6.211V37.703h6.211v6.816h0.152c3.055-5.15,7.523-7.727,13.406-7.727
		c4.998,0,8.9,1.736,11.701,5.209c2.803,3.471,4.205,8.123,4.205,13.955c0,6.488-1.578,11.683-4.734,15.583
		c-3.156,3.902-7.473,5.852-12.953,5.852C220.25,77.392,216.375,75.22,213.648,70.878z M213.496,55.238v5.416
		c0,3.205,1.041,5.926,3.125,8.16c2.082,2.234,4.727,3.352,7.934,3.352c3.762,0,6.709-1.439,8.844-4.316
		c2.133-2.879,3.199-6.881,3.199-12.005c0-4.318-0.996-7.701-2.992-10.15c-1.994-2.449-4.695-3.674-8.104-3.674
		c-3.611,0-6.514,1.256-8.711,3.77C214.594,48.3,213.496,51.451,213.496,55.238z"/>
	<path fill="#231F20" d="M284.742,43.99c-1.086-0.834-2.652-1.25-4.697-1.25c-2.65,0-4.865,1.25-6.646,3.748
		c-1.779,2.5-2.67,5.908-2.67,10.227v19.769h-6.211V37.703h6.211v7.99h0.152c0.883-2.727,2.234-4.854,4.053-6.381
		c1.816-1.527,3.85-2.291,6.098-2.291c1.615,0,2.852,0.176,3.711,0.529V43.99z"/>
	<path fill="#231F20" d="M318.303,77.392c-5.73,0-10.307-1.811-13.729-5.434s-5.131-8.428-5.131-14.41
		c0-6.516,1.779-11.602,5.34-15.264c3.559-3.66,8.369-5.492,14.428-5.492c5.783,0,10.295,1.781,13.541,5.342
		c3.244,3.559,4.865,8.496,4.865,14.807c0,6.185-1.748,11.14-5.244,14.865C328.875,75.53,324.186,77.392,318.303,77.392z
		 M318.758,42.019c-3.99,0-7.146,1.357-9.469,4.072s-3.484,6.457-3.484,11.229c0,4.595,1.174,8.218,3.523,10.869
		c2.348,2.652,5.49,3.977,9.43,3.977c4.014,0,7.102-1.299,9.26-3.9c2.158-2.6,3.238-6.299,3.238-11.095
		c0-4.848-1.08-8.586-3.238-11.211S322.771,42.019,318.758,42.019z"/>
	<path fill="#231F20" d="M365.537,70.878h-0.15v5.605h-6.211V19.07h6.211v25.449h0.15c3.057-5.15,7.525-7.727,13.408-7.727
		c4.973,0,8.867,1.736,11.684,5.209c2.814,3.471,4.223,8.123,4.223,13.955c0,6.488-1.578,11.683-4.734,15.583
		c-3.156,3.902-7.473,5.852-12.953,5.852C372.039,77.392,368.164,75.22,365.537,70.878z M365.387,55.238v5.416
		c0,3.205,1.041,5.926,3.125,8.16c2.082,2.234,4.727,3.352,7.934,3.352c3.762,0,6.709-1.439,8.844-4.316
		c2.133-2.879,3.199-6.881,3.199-12.005c0-4.318-0.996-7.701-2.992-10.15c-1.994-2.449-4.695-3.674-8.104-3.674
		c-3.611,0-6.514,1.256-8.711,3.77C366.484,48.3,365.387,51.451,365.387,55.238z"/>
	<path fill="#231F20" d="M447.768,76.483h-6.211v-6.135h-0.152c-2.574,4.695-6.564,7.043-11.967,7.043
		c-9.242,0-13.861-5.504-13.861-16.512V37.703h6.172v22.193c0,8.18,3.131,12.27,9.393,12.27c3.031,0,5.523-1.117,7.48-3.352
		s2.936-5.156,2.936-8.768V37.703h6.211V76.483z"/>
</g>
</svg>
