<?xml version="1.0" encoding="UTF-8"?>
<svg width="91px" height="53px" viewBox="0 0 91 53" version="1.1" xmlns="http://www.w3.org/2000/svg" xmlns:xlink="http://www.w3.org/1999/xlink">
    <!-- Generator: Sketch 43.1 (39012) - http://www.bohemiancoding.com/sketch -->
    <title>logo_Optimeal</title>
    <desc>Created with Sketch.</desc>
    <defs>
        <polygon id="path-1" points="45.1297955 0.403282895 0.0248181818 0.403282895 0.0248181818 30.7522895 90.2347727 30.7522895 90.2347727 0.403282895 45.1297955 0.403282895"></polygon>
    </defs>
    <g id="Page-1" stroke="none" stroke-width="1" fill="none" fill-rule="evenodd">
        <g id="Optimeal_homepage_concept-round4_1" transform="translate(-72.000000, -21.000000)">
            <g id="menu" transform="translate(72.000000, 21.000000)">
                <g id="logo_Optimeal">
                    <path d="M21.1359909,5.32308553 C21.9785682,5.76657237 22.7913636,6.30290132 23.5479045,6.95569737 C28.5698636,11.2869474 29.3818318,18.5874868 25.3654227,23.2635789 C21.8921182,27.3075987 15.9444409,28.0548947 11.1512227,25.3836118 C12.8996636,27.0199539 15.1593591,28.1597566 17.7280409,28.5228355 C24.2630818,29.4454539 30.2922455,24.9948355 31.1948,18.5820987 C32.0894955,12.2157829 27.5953364,6.31201974 21.1359909,5.32308553" id="Fill-1" fill="#0A4F45"></path>
                    <path d="M28.0553,48.1328289 C28.8118409,46.2556776 29.56135,44.4108553 30.303,42.5618882 C31.2547773,40.1973158 32.2032455,37.8319145 33.1422,35.4636118 C33.2423,35.2116118 33.3738364,35.1187697 33.6451818,35.1249868 C34.3409182,35.1436382 35.0412045,35.1324474 35.7778909,35.1324474 C36.3491227,40.8327039 36.9170455,46.5080921 37.48745,52.2187105 L34.3578773,52.2187105 C33.9674045,47.9289079 33.5761045,43.6295724 33.1843909,39.3302368 C33.1513,39.3252632 33.1186227,39.319875 33.0834636,39.3157303 C32.7595864,40.0961842 32.4348818,40.8758092 32.1143136,41.6575066 C30.70795,45.0827171 29.3007591,48.5070987 27.9014273,51.9335526 C27.8096,52.1569539 27.7024682,52.2817105 27.4336045,52.2564276 C27.1370273,52.2290724 26.8363136,52.2502105 26.4929955,52.2502105 C24.6783727,47.8704671 22.8620955,43.4878224 21.0466455,39.1035197 C21.0234818,39.1093224 20.9990773,39.1126382 20.9755,39.1163684 C20.4683818,43.4816053 19.9587818,47.8464276 19.4475273,52.2290724 L18.07715,52.2290724 C18.6310091,46.5284013 19.5563136,40.8836842 19.9629182,35.1332763 C20.81625,35.1332763 21.7266636,35.1229145 22.6379045,35.1486118 C22.7446227,35.1527566 22.8893955,35.3454868 22.9406864,35.4806053 C23.6364227,37.2707171 24.2941045,39.0778224 25.0088682,40.8608882 C25.9585773,43.2246316 26.9542,45.5709671 27.9307955,47.9247632 C27.9568545,47.9890066 28.0027682,48.0445461 28.0553,48.1328289" id="Fill-2" fill="#0A4F45"></path>
                    <path d="M62.3114227,44.9492566 C61.5734955,43.1844276 60.8533545,41.4627039 60.0972273,39.6564276 C59.3576455,41.4705789 58.6561182,43.1885724 57.9368045,44.9492566 L62.3114227,44.9492566 Z M53.00295,52.2502105 C53.4356136,51.2455263 53.8496636,50.2814605 54.2649545,49.3182237 C56.2545455,44.7047171 58.2573727,40.0953553 60.2242136,35.4714868 C60.4508864,34.9372303 60.8256409,35.1552434 61.1631682,35.0934868 C61.52055,35.028 61.5313045,35.3023816 61.6210636,35.5170789 C62.88555,38.5054342 64.1405227,41.4995921 65.4215545,44.4804868 C66.4717773,46.9258816 67.5521955,49.3592566 68.6202045,51.7984342 C68.6739773,51.9248487 68.7223727,52.0574803 68.8009636,52.2502105 L66.2918455,52.2502105 C65.2503091,52.2502105 65.2660273,52.2435789 64.8858955,51.2770263 C64.3295545,49.8595263 63.7430182,48.4544605 63.1829545,47.0369605 C63.0931955,46.8110724 62.9699318,46.7534605 62.7411909,46.7542895 C61.0150864,46.7646513 59.2893955,46.7663092 57.5637045,46.7534605 C57.2927727,46.7518026 57.1662,46.8392566 57.0607227,47.0895987 C56.3823591,48.7035592 55.6766955,50.3042566 54.9991591,51.919875 C54.8940955,52.1722895 54.77745,52.2688618 54.5077591,52.2555987 C54.0262864,52.2365329 53.5427455,52.2502105 53.00295,52.2502105 L53.00295,52.2502105 Z" id="Fill-3" fill="#0A4F45"></path>
                    <path d="M49.5073091,42.6978355 L49.5073091,44.3971776 L44.2127636,44.3971776 L44.2127636,50.7179013 C46.7541455,50.6652632 49.3141409,50.8633816 51.9221182,50.4497368 C51.7227455,51.0287566 51.5568773,51.5646711 51.3417864,52.0811053 C51.30125,52.17975 51.0687864,52.24275 50.9244273,52.2435789 C48.1985636,52.2543553 45.4727,52.2502105 42.7455955,52.2502105 L41.1109045,52.2502105 L41.1109045,35.1324474 L41.5795545,35.1324474 C44.2768773,35.1324474 46.9742,35.1390789 49.6711091,35.1229145 C50.0206318,35.1212566 50.1807091,35.2286053 50.2812227,35.5560395 C50.4102773,35.9742434 50.5972409,36.3737961 50.7490455,36.7559408 C48.5824182,36.7057895 46.4240636,36.6556382 44.2284818,36.6046579 L44.2284818,42.8855921 C45.9789909,42.8217632 47.7332227,42.7600066 49.5073091,42.6978355" id="Fill-4" fill="#0A4F45"></path>
                    <path d="M71.5992136,52.2502105 L71.5992136,35.1560724 L74.7577409,35.1560724 L74.7577409,50.7208026 C77.3442091,50.6652632 79.9013091,50.8625526 82.5117682,50.4513947 C82.3057773,51.0449211 82.1287409,51.5816645 81.9264727,52.1076316 C81.8995864,52.17975 81.74985,52.2435789 81.6559545,52.2435789 C78.31915,52.2518684 74.9802773,52.2502105 71.5992136,52.2502105" id="Fill-5" fill="#0A4F45"></path>
                    <path d="M40.3642909,30.7605789 L35.0987,30.7605789 L35.0987,1.52982237 C35.2273409,1.50453947 35.3650818,1.45273026 35.4986864,1.45480263 C38.5310545,1.47345395 41.5679727,1.39304605 44.59455,1.55386184 C47.2968364,1.70017105 49.7368773,2.66050658 51.5750773,4.78344079 C54.1607182,7.77221053 54.0722,13.8790658 49.0411409,16.2059211 C46.93325,17.1820066 43.5451545,17.7088026 41.1138,17.3652039 C41.4393318,16.7169671 41.7119182,16.2444671 42.6053727,16.1474803 C47.6426364,15.6045197 48.6444636,11.1294474 47.7816182,7.92307895 C47.1657136,5.63684211 45.0379682,4.19861842 42.2988682,4.06184211 C41.6713818,4.03117105 41.0422409,4.05894079 40.3642909,4.05894079 L40.3642909,30.7605789" id="Fill-6" fill="#0A4F45"></path>
                    <path d="M64.3452727,4.05521053 L54.44985,4.05521053 C54.6744545,3.15082895 54.8783773,2.32892763 55.0864364,1.48257237 L79.9344,1.48257237 L79.9344,4.03821711 L69.7663909,4.03821711 L69.7663909,30.7431711 L64.3452727,30.7431711 L64.3452727,4.05521053" id="Fill-7" fill="#0A4F45"></path>
                    <g id="Group-11">
                        <mask id="mask-2" fill="white">
                            <use xlink:href="#path-1"></use>
                        </mask>
                        <g id="Clip-9"></g>
                        <path d="M90.2347727,1.49417763 L90.2347727,30.7522895 L84.8632909,30.7522895 L84.8632909,1.49417763 L90.2347727,1.49417763" id="Fill-8" fill="#0A4F45" mask="url(#mask-2)"></path>
                        <path d="M18.6202545,30.0626053 C11.0329227,30.0626053 4.88339091,24.0245526 4.88339091,16.5781184 C4.88339091,9.13085526 11.0329227,3.09363158 18.6202545,3.09363158 C23.2351955,3.09363158 27.3144773,5.32930263 29.8058091,8.75409868 C27.2214091,3.80155263 21.8937727,0.403282895 15.7347273,0.403282895 C7.04546818,0.403282895 0,7.17329605 0,15.5241118 C0,23.8765855 7.04546818,30.6461842 15.7347273,30.6461842 C17.4083,30.6461842 19.0185864,30.3929408 20.5320818,29.9279013 C19.9066636,30.0136974 19.2688364,30.0626053 18.6202545,30.0626053" id="Fill-10" fill="#0A4F45" mask="url(#mask-2)"></path>
                    </g>
                </g>
            </g>
        </g>
    </g>
</svg>