<?xml version="1.0" encoding="utf-8"?>
<!-- Generator: Adobe Illustrator 19.2.1, SVG Export Plug-In . SVG Version: 6.00 Build 0)  -->
<svg version="1.1" id="Layer_1" xmlns="http://www.w3.org/2000/svg" xmlns:xlink="http://www.w3.org/1999/xlink" x="0px" y="0px"
	 viewBox="0 0 190 36.8" width="190" height="36.81" style="enable-background:new 0 0 190 36.8;" xml:space="preserve">
<style type="text/css">
	.st0{fill:#001F5B;}
</style>
<title>parodontax-logo</title>
<polygon class="st0" points="183.9,16.9 189.8,8 184.2,8 180.6,13.9 177.1,8 170.8,8 176.7,16.4 170.5,26.3 176.1,26.3 179.9,19.6 
	183.6,26.3 190,26.3 "/>
<path class="st0" d="M27.3,13.2c-0.1-1.4,0.9-2.5,2.3-2.6c0,0,0.1,0,0.1,0c1.3-0.1,2.4,0.9,2.5,2.2c0,0,0,0.1,0,0.1v1.7
	c-2.4-0.2-4.9,0.2-7.1,1c-2.3,1-3.9,3.3-3.9,5.8c0,3.6,2.5,5.5,6,5.5c2.3,0.2,4.5-1,5.6-3h0.1c0,0.8,0.1,1.6,0.2,2.5H38
	c-0.1-0.7-0.2-1.3-0.2-2v-10c0-5.5-4.1-6.9-7.8-6.9c-1.9-0.1-3.7,0.3-5.4,1.2c-1.6,0.9-2.6,2.7-2.5,4.6L27.3,13.2 M32.3,17.7
	c0,2.1-0.1,5.5-3.1,5.5c-1.4,0.1-2.6-1-2.7-2.5c0-0.1,0-0.1,0-0.2C26.5,17.6,30.4,17.7,32.3,17.7"/>
<path class="st0" d="M41,8c0.1,1.4,0.2,2.9,0.2,3.7v14.7h5.4v-9.1c0-1.1,0.2-2.2,0.7-3.2c0.7-0.8,1.6-1.3,2.7-1.4h2.4V7.8
	c-2.7-0.1-5.1,0.7-6.2,3.5h-0.1L46,8H41"/>
<path class="st0" d="M59.5,17.2c0-2.9,0.5-6,3.9-6s3.9,3.1,3.9,6s-0.6,6.1-3.9,6.1S59.5,20.1,59.5,17.2 M73,17.2
	c0-5.8-3.6-9.7-9.5-9.7s-9.5,3.9-9.5,9.7s3.6,9.7,9.6,9.7S73,22.9,73,17.2"/>
<path class="st0" d="M88.6,10.1L88.6,10.1c-1.2-1.6-3-2.6-5-2.7c-5.7,0-8.6,4.8-8.6,9.7c0,4.7,2.5,9.7,7.9,9.7
	c2.3,0.1,4.5-1.1,5.6-3.1h0.1c0,0.9,0.1,1.7,0.2,2.6h5.5c-0.1-1.2-0.2-2.4-0.2-3.7V0h-5.4V10.1 M80.7,17.1c0-2.8,0.4-6,3.9-6
	c3,0,3.9,3.5,3.9,6s-1,6.1-3.9,6.1C81.2,23.2,80.7,19.9,80.7,17.1"/>
<path class="st0" d="M102.2,17.2c0-2.9,0.5-6,3.9-6s3.9,3.1,3.9,6s-0.6,6.1-3.9,6.1S102.2,20.1,102.2,17.2 M115.7,17.2
	c0-5.8-3.6-9.7-9.6-9.7s-9.6,3.9-9.6,9.7s3.6,9.7,9.6,9.7S115.7,22.9,115.7,17.2"/>
<path class="st0" d="M124.2,8h-5.4v18.3h5.5v-11c0.1-2.7,1.6-4.2,3.3-4.2c2.7,0,3.2,2.2,3.3,4.2v11h5.5V14.4c0-1-0.1-2-0.4-2.9
	c-0.7-2.7-4.2-4-6-4c-2.2-0.2-4.4,0.9-5.6,2.8l-0.1-0.1L124.2,8"/>
<path class="st0" d="M137.7,8v3.7h3.7v9c0,4,0.9,6.2,5.2,6.2c1.4,0,2.9-0.2,4.3-0.5v-3.2c-0.6,0-1.2,0.1-1.8,0.1
	c-1.9,0-2.3-0.7-2.3-3.1v-8.5h4.2V8h-4.1V2.4l-5.5,2V8L137.7,8"/>
<path class="st0" d="M158.4,13.2c-0.1-1.4,0.9-2.5,2.3-2.6c0,0,0.1,0,0.1,0c1.3-0.1,2.4,0.9,2.5,2.2c0,0,0,0.1,0,0.1v1.7
	c-2.4-0.2-4.9,0.2-7.1,1c-2.3,1-3.9,3.3-3.9,5.8c0,3.6,2.6,5.5,6,5.5c2.3,0.2,4.5-1,5.6-3h0c0,0.8,0.1,1.6,0.2,2.5h4.9
	c-0.1-0.7-0.2-1.3-0.3-2v-10c0-5.5-4.1-6.9-7.8-6.9c-1.9-0.1-3.7,0.3-5.4,1.2c-1.6,0.9-2.6,2.7-2.5,4.6L158.4,13.2 M163.4,17.7
	c0,2.1-0.1,5.5-3.1,5.5c-1.4,0.1-2.6-1-2.7-2.5c0-0.1,0-0.1,0-0.2C157.6,17.6,161.5,17.7,163.4,17.7"/>
<path class="st0" d="M5.7,17.2c0-2.5,1-6,3.9-6c3.5,0,3.9,3.2,3.9,6s-0.4,6.1-3.9,6.1C6.6,23.2,5.7,19.7,5.7,17.2 M5.6,8H0v28.8h5.7
	V23.7c1.1,2,3.3,3.3,5.7,3.2c5.4,0,7.9-5,7.9-9.7c0-4.9-2.9-9.7-8.6-9.7c-2,0.1-3.8,1-4.9,2.7L5.6,8z"/>
</svg>
