<?xml version="1.0" encoding="UTF-8"?>
<!-- Generator: Adobe Illustrator 13.0.0, SVG Export Plug-In . SVG Version: 6.00 Build 14948)  -->
<!DOCTYPE svg PUBLIC "-//W3C//DTD SVG 1.1//EN" "http://www.w3.org/Graphics/SVG/1.1/DTD/svg11.dtd">
<svg version="1.1" id="Layer_1" xmlns="http://www.w3.org/2000/svg" xmlns:xlink="http://www.w3.org/1999/xlink" x="0px" y="0px" width="175px" height="53px" viewBox="0 0 175 53" enable-background="new 0 0 175 53" xml:space="preserve">
<circle fill="#EF3E33" cx="100.659" cy="17.384" r="2.93"/>
<circle fill="#EF3E33" cx="103.443" cy="11.197" r="2.93"/>
<path fill="#EF3E33" d="M39.266,40.002c0,5.965-4.836,10.799-10.802,10.799c-5.965,0-10.798-4.834-10.798-10.799  c0-5.966,4.833-10.801,10.798-10.801C34.429,29.201,39.266,34.036,39.266,40.002z M28.503,34.205c-3.201,0-5.796,2.596-5.796,5.797  s2.595,5.797,5.796,5.797c3.201,0,5.797-2.596,5.797-5.797S31.704,34.205,28.503,34.205z"/>
<path fill="#EF3E33" d="M127.758,48.584c0,0-0.279,1.893,2.35,2.123c0,0,2.074,0.078,2.344-2.125V38.51  c0.003-0.111,0.193-0.241,0.256-0.137l6.294,11.291c0,0,0.735,1.063,2.245,1.006c0,0,2.435,0.212,3.15-2.088l0.045-0.734V30.923  c-0.884-2.383-3.871-2.396-4.624-0.012v9.917c0,0,0.015,0.349-0.197,0.311c-2.048-3.458-3.848-7.097-6.008-10.643  c-0.656-1.076-2.497-1.708-3.764-1.18c-1.325,0.552-1.676,1.403-1.883,1.787c0,0-0.257,0.387-0.257,0.889v16.473"/>
<path fill="#EF3E33" d="M109.766,48.277V30.84c0.173-1.924,2.272-1.879,2.219-1.881c0.762,0.016,1.483,0.052,2.313,1.107  c1.619,2.063,3.021,3.959,4.602,6.096c2.857,3.871,5.35,7.205,8.121,11.192c0.402,0.58,0.194,1.245-0.017,1.813  c-0.347,0.943-1.354,1.425-2.274,1.48c-0.371,0.025-0.881-0.062-1.221-0.389c-0.945-0.912-1.959-2.535-2.989-3.876  c-0.003,0-5.89-0.038-5.896,0.015c-0.025,0.206-0.061,1.58-0.236,2.482c-0.277,1.41-1.478,1.64-2.105,1.753  c-0.092,0.017,0.129-0.013,0.004-0.004c-0.881,0.062-2.323-0.361-2.522-2.343 M116.861,41.682c0.237-0.014,0.188-0.254,0.107-0.361  c-0.811-1.088-1.502-2.072-2.346-3.185c-0.021,1.093-0.057,2.435-0.016,3.565c0.002,0.037,1.006,0.001,1.031-0.004  C115.863,41.664,116.43,41.708,116.861,41.682z"/>
<g>
	<path fill="#EF3E33" d="M156.09,48.451c0,0-0.281,1.893,2.349,2.124c0,0,2.073,0.077,2.345-2.128V38.375   c0.003-0.109,0.191-0.24,0.256-0.135l6.295,11.289c0,0,0.734,1.065,2.242,1.008c0,0,2.436,0.212,3.15-2.09l0.046-0.734V30.789   c-0.884-2.382-3.869-2.396-4.626-0.013v9.918c0,0,0.018,0.347-0.195,0.31c-2.049-3.457-3.848-7.096-6.008-10.64   c-0.655-1.077-2.498-1.709-3.766-1.181c-1.322,0.551-1.674,1.403-1.881,1.785c0,0-0.256,0.387-0.256,0.89v16.473"/>
</g>
<path fill="#EF3E33" d="M147.586,31.605v16.551c0,0-0.115,2.437,2.436,2.437c2.553,0,2.592-2.359,2.592-2.359"/>
<path fill="#EF3E33" d="M152.633,48.253v-16.55c0,0,0.115-2.438-2.438-2.438c-2.551,0-2.59,2.359-2.59,2.359"/>
<path fill="#EF3E33" d="M4.938,32.178c0.99-1.299,3.052-2.512,4.956-2.764c1.818-0.239,2.967,0.368,3.198,0.446  c2.857,0.96,4.791,4.252,4.41,7.509c-0.227,1.938-1.375,3.689-2.804,4.953c1.376,3.051,3.956,5.047,3.547,6.559  c-0.282,1.049-0.571,1.319-1.495,1.721c-0.588,0.256-1.44,0.188-1.933-0.232c-2.396-2.039-3.659-4.986-5.676-7.095  c-0.501-0.521-0.726-0.288-0.725-0.005c0.009,2.471,0.028,4.309-0.098,5.516c-0.078,0.723-0.762,1.559-1.226,1.79  c-1.289,0.646-3.038-0.133-3.265-1.585c-0.041-0.256-0.372-1.378-0.393-6.48c-0.01-2.527-0.209-3.082-0.054-7.088  C3.418,34.538,4.038,33.359,4.938,32.178z M10.426,38.701c1.374,0,2.487-1.027,2.487-2.297c0-1.268-1.113-2.295-2.487-2.295  c-1.375,0-2.49,1.027-2.49,2.295C7.936,37.674,9.051,38.701,10.426,38.701z"/>
<path fill="#EF3E33" d="M74.577,25.394c-0.413,0.226-0.886,0.488-1.359,0.311c-0.595-0.223-0.592-1.095-0.204-1.31  c9.398-5.187,19.715-3.664,25.64,0.095c0.136,0.085,0.696,0.659,0.259,1.146c-0.225,0.256-0.766,0.273-1.231,0.031  C89.28,21.293,81.636,21.551,74.577,25.394z"/>
<path fill="#EF3E33" d="M74.747,20.182c2.786-1.211,5.675-1.861,8.671-2.096c2.487-0.195,4.889-0.047,7.425,0.359  c2.558,0.41,4.796,1.224,7.082,2.27c0.77,0.35,1.522,0.702,2.239,1.27c0.522,0.415,0.48,0.869,0.36,1.281  c-0.238,0.818-1.191,0.744-1.762,0.414c-8.073-4.676-17.777-4.189-25.915-0.025c-0.497,0.255-1.355,0.293-1.619-0.386  c-0.38-0.976,0.441-1.626,1.216-2.128c0.115-0.073-0.108,0.066,0.002,0.006C73.655,20.498,74.099,20.463,74.747,20.182z"/>
<circle fill="#EF3E33" cx="67.838" cy="11.198" r="2.929"/>
<circle fill="#EF3E33" cx="70.884" cy="17.384" r="2.93"/>
<circle fill="#EF3E33" cx="77.999" cy="14.909" r="2.93"/>
<circle fill="#EF3E33" cx="76.453" cy="8.104" r="2.93"/>
<circle fill="#EF3E33" cx="85.579" cy="13.672" r="2.931"/>
<circle fill="#EF3E33" cx="85.579" cy="7.021" r="2.931"/>
<circle fill="#EF3E33" cx="93.313" cy="14.601" r="2.93"/>
<circle fill="#EF3E33" cx="94.704" cy="8.104" r="2.93"/>
<path fill="#EF3E33" d="M40.279,29.423c1.132,0.438,1.671,1.337,2.412,2.114c1.283,1.347,2.386,2.709,3.778,3.952  c0.088,0.079,0.343,0.079,0.41,0c1.768-2.1,3.184-4.228,5.352-5.925c1.182-0.926,3.11-0.252,3.477,1.316  c0.178,0.764-0.077,1.469-0.493,2.018c-2.063,2.721-4.065,4.968-6.139,7.529c-0.058,2.823,0.334,5.68-0.063,8.531  c-0.146,1.057-1.291,1.66-2.254,1.626c-0.67-0.023-1.382-0.36-1.835-1.012c-0.229-0.332-0.405-0.726-0.42-1.067  c-0.104-2.682-0.229-5.356-0.222-8.04c-2.97-3.789-6.903-7.125-7.065-8.519C37.028,30.35,38.216,28.625,40.279,29.423z"/>
<path fill="#EF3E33" d="M75.341,45.491V31.399c-0.015-3.595-4.954-3.011-4.785-0.083v17.539c0,0,0,1.462,1.76,1.326h7.809  c0,0,2.244,0.048,2.379-2.176c0,0-0.019-1.934-1.855-2.34l-5.066-0.02c0,0-0.329-0.077-0.251-0.424"/>
<path fill="#EF3E33" d="M67.603,48.228c-0.197,1.981-1.642,2.403-2.521,2.343c-0.126-0.009,0.096,0.022,0.002,0.005  c-0.628-0.114-1.828-0.345-2.104-1.753c-0.177-0.903-0.211-2.277-0.237-2.483c-0.006-0.051-5.892-0.015-5.897-0.015  c-1.029,1.342-2.042,2.964-2.986,3.875c-0.34,0.328-0.849,0.416-1.222,0.393c-0.918-0.06-1.927-0.541-2.275-1.483  c-0.21-0.567-0.417-1.233-0.015-1.813c2.771-3.986,5.263-7.319,8.122-11.191c1.579-2.139,2.983-4.033,4.602-6.097  c0.829-1.056,1.551-1.092,2.311-1.105c-0.052,0,2.046-0.044,2.221,1.88v17.438 M61.728,41.641c0.025,0.004,1.029,0.038,1.031,0.002  c0.041-1.131,0.005-2.475-0.016-3.564c-0.844,1.111-1.535,2.096-2.346,3.184c-0.081,0.107-0.129,0.348,0.107,0.361  C60.937,41.65,61.503,41.605,61.728,41.641z"/>
<path fill="#EF3E33" d="M89.814,38.635c0.479-3.809,3.033-7.028,6.43-8.475c4.093-1.744,8.994-0.764,11.851,2.799  c0.619,0.77,0.432,1.791-0.143,2.564c-0.599,0.803-1.553,1.217-2.41,0.883c-1.451-0.564-2.45-1.862-4.062-2.197  c-3.316-0.691-6.442,1.52-6.92,4.748c-0.475,3.213,1.36,6.291,4.621,6.911c2.289,0.435,4.089-0.804,5.97-2.13  c0.89-0.627,2.384-0.313,2.938,0.809c0.332,0.673,0.587,1.398,0.177,2.123c-1.541,2.719-4.668,3.694-7.555,3.973  c-2.214,0.215-4.238-0.556-6.133-1.711C91.102,46.811,89.293,42.77,89.814,38.635z"/>
<path fill="#ED1C24" stroke="#000000" stroke-width="0.2856" d="M87.725,30.906"/>
</svg>