<svg xmlns="http://www.w3.org/2000/svg" viewBox="0 0 898.7 242.53"><defs><style>.cls-1{fill:#ffdbb8;}.cls-2{fill:#ffad72;}.cls-3{fill:#001a3a;}</style></defs><title>Ресурс 1</title><g id="Слой_2" data-name="Слой 2"><g id="Слой_1-2" data-name="Слой 1"><g id="_001a3a" data-name="#001a3a"><g id="COLORS-2_копия2_" data-name="COLORS-2 (копия2)"><path class="cls-1" d="M725.3,168.63v-67.7a14.51,14.51,0,0,1,14.5-14.5h30a4.77,4.77,0,0,1-.4-2H739.8a16.6,16.6,0,0,0-16.6,16.5v67.9A7.49,7.49,0,0,1,725.3,168.63Z"/><path class="cls-1" d="M769.6,199.13h-27a5,5,0,0,1,.8,2h25.8A5.09,5.09,0,0,1,769.6,199.13Z"/><path class="cls-1" d="M882.1,84.43H834.2a3.52,3.52,0,0,1-1.4,2h49.3a14.51,14.51,0,0,1,14.5,14.5v83.8a14.51,14.51,0,0,1-14.5,14.5h-6.4a4.48,4.48,0,0,1,.4,2h6a16.6,16.6,0,0,0,16.6-16.5v-83.8A16.54,16.54,0,0,0,882.1,84.43Z"/><path class="cls-1" d="M438.5,179.83H401.1a14.51,14.51,0,0,1-14.5-14.5V32.83a14.51,14.51,0,0,1,14.5-14.5h72.1a3.52,3.52,0,0,1,1.4-2H401.1a16.6,16.6,0,0,0-16.6,16.5v132.5a16.54,16.54,0,0,0,16.6,16.5h37.4A6.69,6.69,0,0,1,438.5,179.83Z"/><path class="cls-1" d="M569.9,16.33H554.8a6.69,6.69,0,0,1,0,2h15.1a14.51,14.51,0,0,1,14.5,14.5v132.5a14.51,14.51,0,0,1-14.5,14.5h-7.3a6.8,6.8,0,0,1,.2,2h7.1a16.6,16.6,0,0,0,16.6-16.5V32.83A16.54,16.54,0,0,0,569.9,16.33Z"/><path class="cls-1" d="M185.3,102.73H124.9a6.47,6.47,0,0,1-.4,2h60.8a14.51,14.51,0,0,1,14.5,14.5v106.1a14.51,14.51,0,0,1-14.5,14.5H65.3a4.77,4.77,0,0,1-3.2,1.1,4.67,4.67,0,0,1-1.7-.3,5,5,0,0,1-3.1,1,5.12,5.12,0,0,1-2.8-.8h-.3a4.59,4.59,0,0,1-3.2-1.1H16.5A14.51,14.51,0,0,1,2,225.23V119.13a14.51,14.51,0,0,1,14.5-14.5h62a4.44,4.44,0,0,1,.1-2h-62A16.6,16.6,0,0,0,0,119.13v106.1a16.54,16.54,0,0,0,16.6,16.5H185.4a16.6,16.6,0,0,0,16.6-16.5V119.13A16.67,16.67,0,0,0,185.3,102.73Z"/><path class="cls-1" d="M678.3,152.13h0a104.36,104.36,0,0,0-8.2-7.2c.6-.4,2.7-1.6,3.2-2.6,1.5-3.1,1.4-10-7.2-25.6a1.06,1.06,0,0,1,.2-1.2.62.62,0,0,1,.7-.2.91.91,0,0,1,.7.3,39.35,39.35,0,0,1,6.5,10.7.75.75,0,0,0,.9.4.62.62,0,0,0,.5-.8,107.27,107.27,0,0,0-5.4-22.1.57.57,0,0,1,.2-.7.75.75,0,0,1,.5-.1c.2,0,.3.1.4.3,1.8,3.3,6,12,6.7,20.3,0,.4.3.6.7.7a.76.76,0,0,0,.8-.6c.1-.5,2.4-12.6-.5-22.6-.1-.2,0-.3.1-.4s.1-.2.3-.2a.76.76,0,0,1,.5.2c1.3,2.5,5.4,11.3,2.1,21.7a12.34,12.34,0,0,0-2.4,2.9.74.74,0,1,0,1.3.7s2.6-4.2,6.6-4.9c2.2-.4,4.5.4,6.8,2.4a.66.66,0,0,1,.2.7,1.38,1.38,0,0,1-.3.4.45.45,0,0,1-.5,0c-1.7-.8-6-2-9.1,2.8a4.2,4.2,0,0,0-.1,5,5.49,5.49,0,0,0,5.6,1.8c1.3-.4,4.5-1.8,5-7.5,0-.1.1-.2.1-.3.2-.2.3-.1.4-.1s.2.1.3.3C697.4,130.83,699.1,141.43,678.3,152.13Z"/><path class="cls-1" d="M670.2,143.93s-1,14.2,11.5,12,25-16.6,21.6-27.6-14.6-11-19.3-6.1,1.1,1.6,1.1,1.6l9.6.7,1,7.1-1,3.1-10.7,9Z"/><path class="cls-1" d="M531.4,207.13s-47.9-19.4-57.1-61.2-80.6-30.6-64.3,29.6,91.8,66.3,120.4,65.3S554.9,217.33,531.4,207.13Z"/><path class="cls-1" d="M188.6,80.63s37.7,15.3,45.9-7.1S210,40.93,196.8,50,174.4,75.53,188.6,80.63Z"/><path class="cls-1" d="M269.2,209.13s24.5,7.1,36.7-7.1-5.1-21.4-15.3-17.3-17.3,10.2-26.5,11.2S262.1,208.13,269.2,209.13Z"/><path class="cls-1" d="M439.6,55.13c-.9.4-12.2,4.1-9.2,9.2s31.6-4.1,33.7-7.1S456.9,48,439.6,55.13Z"/><path class="cls-1" d="M810,174.23c6.8,2.4,10.7,9.7,8.1,16.5-2.2,5.8-8,10.6-21.5,9.2-30.6-3.1-46.9-35.7-39.8-50s28.6-11.2,38.8,9.2C800.5,168.83,805.8,172.83,810,174.23Z"/><path class="cls-1" d="M150.8,155.13c-7.2,7.6-4,20.1,5.7,24,10.3,4,28.8,7.4,33-18.6,5.9-36.4-14.1-50.5-27-39.9s-4.3,27.7-10.9,33.8A1.78,1.78,0,0,0,150.8,155.13Z"/></g><g id="COLORS-1_копия2_" data-name="COLORS-1 (копия2)"><path class="cls-2" d="M209,58.23s-13.3,0-8.2,12.2,16.3,3.1,17.3-5.1S209,58.23,209,58.23Z"/><path class="cls-2" d="M697.7,124.53s-8.2-6.1-13.3-1-4.1,15.3,4.1,14.3S701.8,127.53,697.7,124.53Z"/><path class="cls-2" d="M477.4,191.83s-20.4,6.1-19.4,21.4,19.4,20.4,33.7,13.3S503.9,182.63,477.4,191.83Z"/></g><g id="PEOPLE_копия2_" data-name="PEOPLE (копия2)"><path class="cls-3" d="M689.4,38a.75.75,0,1,0-.1-1.5,32.31,32.31,0,0,1-6.3-.4h-.1c-17.1-2.7-25.3-18.1-25.4-18.2a.74.74,0,0,0-.8-.4.86.86,0,0,0-.6.7c0,35.6-21.6,50-21.9,50.1a.78.78,0,0,0-.2,1,.71.71,0,0,0,.6.3.6.6,0,0,0,.4-.1c.2-.1,21.5-14.2,22.5-48.8,3,4.5,11.1,14.5,24.7,16.8.9,3.4,6.5,25,.9,34.2-6.3,10.2-20.2,8.9-26,6.1a.74.74,0,1,0-.7,1.3,24.73,24.73,0,0,0,10.4,2.2c6.3,0,13.4-2.2,17.4-8.8,5.7-9.3.8-29.8-.5-34.8A55.87,55.87,0,0,0,689.4,38Z"/><path class="cls-3" d="M667.7,44.53a.82.82,0,0,0-.4,1l5.5,12.6c.1.2,0,.3-.2.4l-3,1.5a.69.69,0,0,0-.3,1,.67.67,0,0,0,.7.4.37.37,0,0,0,.3-.1l3-1.5a1.91,1.91,0,0,0,.9-2.3l-5.5-12.6A.73.73,0,0,0,667.7,44.53Z"/><path class="cls-3" d="M663.6,65.23a.71.71,0,0,0-1,.3c-1,1.6-2,1.5-2.1,1.5a.76.76,0,1,0-.3,1.5h.4a3.46,3.46,0,0,0,1.2-.3,5.84,5.84,0,0,0,4.9,2.4,9.69,9.69,0,0,0,2.3-.3.73.73,0,1,0-.4-1.4c-3.5.9-5.2-.7-5.7-1.5a3.13,3.13,0,0,0,.8-1.1C664.1,65.83,664,65.43,663.6,65.23Z"/><path class="cls-3" d="M660.1,51.93a1.2,1.2,0,1,0-1.2,1.2A1.16,1.16,0,0,0,660.1,51.93Z"/><path class="cls-3" d="M675.9,46.43a1.2,1.2,0,1,0,1.2-1.2A1.16,1.16,0,0,0,675.9,46.43Z"/><path class="cls-3" d="M679.4,40.93a.78.78,0,0,0-.6-.9c-4.2-.8-6.8.8-6.9.9a.78.78,0,0,0-.2,1,.71.71,0,0,0,.6.3.6.6,0,0,0,.4-.1c.1-.1,2.2-1.4,5.8-.7A.6.6,0,0,0,679.4,40.93Z"/><path class="cls-3" d="M661,43.63c-7-.9-7.9,5.3-7.9,5.4a.64.64,0,0,0,.6.8h.1a.67.67,0,0,0,.7-.6c0-.2.8-4.8,6.3-4.1.4,0,.8-.2.8-.6A.78.78,0,0,0,661,43.63Z"/><path class="cls-3" d="M638.4,57.23a2.46,2.46,0,0,0,1.5.5,2.92,2.92,0,0,0,.9-.2,2.62,2.62,0,0,0,1.6-1.8l2.4-10.2a2.77,2.77,0,0,0-.3-2,2.27,2.27,0,0,0-1.6-1.1,8.17,8.17,0,0,0-7.8,2.2,6.1,6.1,0,0,0-1.7,4.7A11.36,11.36,0,0,0,638.4,57.23Zm-2.3-11.5a6.73,6.73,0,0,1,4.8-2,8.81,8.81,0,0,1,1.7.2,1.16,1.16,0,0,1,.7.5,1,1,0,0,1,.1.9L641,55.53a1,1,0,0,1-.7.8,1.18,1.18,0,0,1-1-.1c-2.4-1.7-4.2-4.4-4.4-6.8A4,4,0,0,1,636.1,45.73Z"/><path class="cls-3" d="M678.2,31.63h.1a.73.73,0,0,0,.7-.6.78.78,0,0,0-.6-.9c-7.4-1.5-10.5-8.2-10.6-8.3a.76.76,0,0,0-1.4.6C666.7,22.83,670,30,678.2,31.63Z"/><path class="cls-3" d="M788.4,230.93H756.8l-23.5-59.2a6.73,6.73,0,0,0-6.3-4.3H669.1a146.66,146.66,0,0,0,12.1-9.7.66.66,0,0,0,.2-.7,15.14,15.14,0,0,0-1.9-3.9c21.2-11.1,19.4-22.5,17.6-27a1.77,1.77,0,0,0-1.4-1.1h-.1v-.1a2,2,0,0,0-.6-2.3c-2.6-2.3-5.3-3.2-8-2.7a10.14,10.14,0,0,0-3.2,1.2,30.13,30.13,0,0,0-2.7-20.9,1.89,1.89,0,0,0-1.9-1,2.19,2.19,0,0,0-1.4.8,2.32,2.32,0,0,0-.3,1.6c1.7,5.8,1.5,12.5,1.1,17a68.11,68.11,0,0,0-6-15.8,1.89,1.89,0,0,0-1.3-1,1.83,1.83,0,0,0-1.6.3,2.05,2.05,0,0,0-.8,2.5,94.65,94.65,0,0,1,4.5,16.8,40.83,40.83,0,0,0-4.5-6.5,2.14,2.14,0,0,0-1.7-.8,2.79,2.79,0,0,0-1.8.6,2.59,2.59,0,0,0-.5,3c8.7,15.7,8.3,21.8,7.2,24.1-.7,1.5-1.7,1.7-1.8,1.7s-.2.1-.3.1a17.35,17.35,0,0,0-14.4-2c-6,1.8-15.8,5.5-28.7,13a.74.74,0,0,0,.7,1.3c12.8-7.4,22.5-11.1,28.4-12.8a15.82,15.82,0,0,1,13.7,2.2c7,5,9.5,10.4,10.1,12a167.28,167.28,0,0,1-13.2,10.5H636.7a3.66,3.66,0,0,0-3,1.6,3.75,3.75,0,0,0-.4,3.4l3.2,7.9a23.56,23.56,0,0,1-11.6-1.9c-.8-.4-1.6-.8-2.3-1.2h0c-10.5-6.4-14.2-21.1-14.2-32.3,0-17,13.2-32,23.8-44.1,5.7-6.5,10.6-12.1,12.7-17,5.9-14,2.3-21.5,2.2-21.8a.74.74,0,1,0-1.3.7c0,.1,3.4,7.2-2.2,20.6-2,4.7-6.8,10.2-12.5,16.6-5.4,6.2-11.5,13.1-16.2,20.7-.8-.7-2.7-3-2.7-9.9a36.25,36.25,0,0,1,3.9-16.3.76.76,0,0,0-.1-.9c-.1-.1-13.1-13.3-8.5-27.8s14.5-17.7,14.6-17.7a1,1,0,0,0,.5-.4c.1-.2.1-.5-.1-.6s-11.4-18,2.3-35.6c13.7-17.4,28.5-7.4,29.1-7a.6.6,0,0,0,.8,0c.5-.3,11.7-8.3,27.7,1.6,16.2,10,10,34.7,7.6,40.3a.62.62,0,0,0,.1.7c.1.1,9.4,12.6,9.4,24.9a23.3,23.3,0,0,1-9.2,18.4.72.72,0,1,0,.8,1.2,24.34,24.34,0,0,0,9.8-19.6c0-11.8-7.9-23.3-9.4-25.5,2.6-6.5,8.3-31.4-8.4-41.7-15.1-9.4-26.6-3.3-28.9-1.8-2.7-1.6-17.5-9.3-30.7,7.5-12.8,16.3-4.9,32.8-2.9,36.5-2.6,1.1-10.6,5.5-14.7,18.4-4.4,13.9,6.4,26.5,8.5,28.9a38.4,38.4,0,0,0-3.8,16.5c0,7.7,2.3,10.3,3.4,11.2-4.2,7.1-7.2,14.8-7.2,23.1,0,11.5,3.9,26.5,14.6,33.3-.5,4.5-4.4,42.6-4.4,63.1a.7.7,0,0,0,1.4,0c0-19.6,3.6-55.5,4.3-62.3a10.09,10.09,0,0,0,1.5.7,24.91,24.91,0,0,0,10.2,2.1,23.48,23.48,0,0,0,2.6-.1l22.6,56a6.64,6.64,0,0,0,6.3,4.2H788.3a5.76,5.76,0,0,0,.1-11.5Zm-116.9-86.5a4,4,0,0,0,1.9-2.1c1.5-3.1,1.4-10-7.2-25.6a1.06,1.06,0,0,1,.2-1.2.62.62,0,0,1,.7-.2.91.91,0,0,1,.7.3,39.35,39.35,0,0,1,6.5,10.7.75.75,0,0,0,.9.4.62.62,0,0,0,.5-.8,107.27,107.27,0,0,0-5.4-22.1.57.57,0,0,1,.2-.7.75.75,0,0,1,.5-.1c.2,0,.3.1.4.3,1.8,3.3,6,12,6.7,20.3,0,.4.3.6.7.7a.76.76,0,0,0,.8-.6c.1-.5,2.4-12.6-.5-22.6-.1-.2,0-.3.1-.4s.1-.2.3-.2a.76.76,0,0,1,.5.2c1.3,2.5,5.4,11.3,2.1,21.7a12.34,12.34,0,0,0-2.4,2.9.74.74,0,1,0,1.3.7s2.6-4.2,6.6-4.9c2.2-.4,4.5.4,6.8,2.4a.66.66,0,0,1,.2.7,1.38,1.38,0,0,1-.3.4.45.45,0,0,1-.5,0c-1.7-.8-6-2-9.1,2.8a4.2,4.2,0,0,0-.1,5,5.49,5.49,0,0,0,5.6,1.8c1.3-.4,4.5-1.8,5-7.5,0-.1.1-.2.1-.3.2-.2.3-.1.4-.1s.2.1.3.3c1.7,4.1,3.3,14.7-17,25.2A43.81,43.81,0,0,0,671.5,144.43Zm22.1-18.2c0,.1-.1.3-.1.4-.3,3.4-1.8,5.7-4,6.3a4.08,4.08,0,0,1-4.1-1.2c-.7-.9-.6-2.1.1-3.4,1.4-2.2,3.1-2.9,4.6-2.9a6.64,6.64,0,0,1,2.6.6A3.71,3.71,0,0,0,693.6,126.23Zm-32.5,110.9-26.3-65.3a2,2,0,0,1,.2-2,2.14,2.14,0,0,1,1.8-.9H727a5.22,5.22,0,0,1,4.9,3.3l23.7,59.7h0l2.2,5.6a2,2,0,0,1-.2,2,2.14,2.14,0,0,1-1.8.9H666A5.08,5.08,0,0,1,661.1,237.13Zm127.3,3.4H758.7l.1-.1a3.71,3.71,0,0,0,.4-3.4h0l-1.8-4.6h31.1a4,4,0,0,1,4,4A4.26,4.26,0,0,1,788.4,240.53Z"/><path class="cls-3" d="M294.9,83.83c-1.7.3-4.7,1.5-4.7,6.2s4.2,8,7.7,9.9a2.66,2.66,0,0,0,1.2.3,2.69,2.69,0,0,0,1.5-.5,2.38,2.38,0,0,0,.9-2.6l-2.3-10.2A3.74,3.74,0,0,0,294.9,83.83Zm4.9,14.7a.91.91,0,0,1-1.1.1c-3.2-1.7-7-4.6-7-8.6,0-2.8,1.1-4.4,3.5-4.7h.4a2.55,2.55,0,0,1,2.4,1.9l2.3,10.2A1.43,1.43,0,0,1,299.8,98.53Z"/><path class="cls-3" d="M262.4,107.53a.37.37,0,0,0,.3-.1c11.7-4.8,16.4-16.7,20.9-28.1,4.9-12.5,9.5-24.2,22.4-28.1,7.5-2.3,14-1.9,19.3,1.2,8.7,5,11.3,15.7,11.3,15.8a.73.73,0,1,0,1.4-.4c-.1-.5-2.7-11.3-12-16.7-5.7-3.3-12.5-3.7-20.4-1.3a10.66,10.66,0,0,0-1.9.7,17.19,17.19,0,0,0,2.3-3.2c2.6-4.5,2.9-9,.7-12.4-3.3-5.2-10.7-4.5-16.4-2.9a13.8,13.8,0,0,0-9.2,8.1,12.82,12.82,0,0,0,.7,11.3,10.72,10.72,0,0,0,8.5,5.5h.7a14.87,14.87,0,0,0,3.6-.5c-6,5.9-9.3,14.3-12.6,22.6-4.6,11.7-8.9,22.7-20.1,27.3a.73.73,0,0,0-.4,1A3.71,3.71,0,0,0,262.4,107.53Zm28.1-52.2a9.13,9.13,0,0,1-7.4-4.8,11.34,11.34,0,0,1-.7-10,12.32,12.32,0,0,1,8.2-7.2c5.2-1.4,11.9-2.1,14.8,2.3,1.9,2.9,1.6,6.9-.8,10.9C301.5,52,295.7,55.63,290.5,55.33Z"/><path class="cls-3" d="M233.8,142.63a.76.76,0,0,0,.5-.2.67.67,0,0,0,0-1c-2.3-2.3-3.4-8-1.1-13.4,1.6-3.9,6.1-10.4,18.5-10.4,21.7,0,27.4-16.4,27.5-16.6a.73.73,0,0,0-1.4-.4c-.1.2-5.4,15.6-26.1,15.6-13.2,0-18.1,7.1-19.8,11.3-2.2,5.4-1.6,12,1.4,15A4.33,4.33,0,0,0,233.8,142.63Z"/><path class="cls-3" d="M327.8,101.83h-2.9a.7.7,0,1,0,0,1.4h2.8a3,3,0,0,0,2.2-1,2.9,2.9,0,0,0,.7-2.4l-3.2-15.7a.76.76,0,1,0-1.5.3l3.2,15.7a1.8,1.8,0,0,1-.3,1.2A1,1,0,0,1,327.8,101.83Z"/><path class="cls-3" d="M316,89.63a1.2,1.2,0,1,0,1.7,0A1.15,1.15,0,0,0,316,89.63Z"/><path class="cls-3" d="M333.6,89a1.2,1.2,0,1,0-1.2,1.2A1.16,1.16,0,0,0,333.6,89Z"/><path class="cls-3" d="M317,82.13c-2.1-.4-6.5.1-8.2,4.1-.1.4,0,.8.4.9.1,0,.2.1.3.1a.75.75,0,0,0,.7-.5c1.6-4,6.4-3.3,6.6-3.2a.64.64,0,0,0,.8-.6C317.7,82.63,317.4,82.23,317,82.13Z"/><path class="cls-3" d="M323.6,127.33c-6-.1-8.7,2.8-8.8,2.9a16.22,16.22,0,0,1-2.8,2.5l1.2-15.9a24.67,24.67,0,0,0,6.7,1,18.73,18.73,0,0,0,7.6-1.5c6-2.6,8-11.3,8.4-20.1a6.61,6.61,0,0,0,2-1.4c.7,5.3,2.3,25-13.6,30.4a.72.72,0,0,0-.5.9.75.75,0,0,0,.7.5h.2c18.8-6.4,14.7-31.2,14.4-33.3a13,13,0,0,0,1.7-3.3c.5-1.4.9-3.5-.1-4.9a3.16,3.16,0,0,0-2.3-1.5,4,4,0,0,0-2.8,1c-.1-1.5-.3-2.8-.4-4a4.14,4.14,0,0,1,1.6.4.74.74,0,1,0,.7-1.3,6.48,6.48,0,0,0-2.4-.5,20.41,20.41,0,0,0-.5-3.3.63.63,0,0,0-.5-.6c-5.1-1.7-12.1-12.1-12.1-12.2a.67.67,0,0,0-.8-.3.9.9,0,0,0-.6.6c0,.2-1.9,15.7-15.6,20.8a.7.7,0,0,0,.5,1.3c11.7-4.4,15.3-15.9,16.2-20.3,2.1,2.9,7.2,9.5,11.5,11.2.1.5.2,1.5.4,2.8a7.87,7.87,0,0,0-4.3,2.4.67.67,0,0,0,0,1,.72.72,0,0,0,1,0,6.7,6.7,0,0,1,3.5-2c1.1,9.5,2.4,30.5-6.8,34.4-12,5.1-25.4-5.6-25.5-5.7a.71.71,0,0,0-.9,1.1,38.14,38.14,0,0,0,11.3,6.1c0,.1-.1.2-.1.3l-1.3,16.9v.1a9.87,9.87,0,0,1-6.2,1.3c-7.3-.9-13.2-9.5-14.6-11.8a122.76,122.76,0,0,0,3.8-20.6.75.75,0,1,0-1.5-.1,128.32,128.32,0,0,1-3.7,19.9.71.71,0,0,0-.3.6v.4c-3.3,11.2-8.9,23.1-18.6,24.8-11.9,2.2-18.3-3-21.5-7.2a.22.22,0,0,0-.2-.2,22,22,0,0,1-2.5-4.6.73.73,0,0,0-1.4.4,17.3,17.3,0,0,0,2.5,4.6c-3,4.1-29.3,40.8-25.8,72.2,1.5,13.9,12.3,23.2,31,26.9a100.86,100.86,0,0,0,19.3,1.7c5.1,0,8.5-.3,8.6-.3a.55.55,0,0,0,.5-.3,10.68,10.68,0,0,0,2.5.3h.6a12.14,12.14,0,0,0,9.5-5.5c1.2,1.3,4,3.5,10,3.5h0a4.77,4.77,0,0,0,3.3,1.4c1.7.1,3.4.1,5,.1a108,108,0,0,0,16.5-1.3c.1,0,.1,0,.2-.1a5.45,5.45,0,0,0,4.3,2.1h0c39.3-.3,60.3-6.2,66.2-18.6,6.6-13.9-6.4-34.4-27.9-61C346.9,133.83,332,127.53,323.6,127.33Zm12.5-41.4a3.25,3.25,0,0,1,2.2-1c.5,0,.9.3,1.3.9.5.8.5,2.1,0,3.7a10.47,10.47,0,0,1-3.6,5.1c.1-2.9-.1-5.8-.2-8.4C335.9,86,336,86,336.1,85.93Zm-42.7,149.2c4.6-7.3,5.7-18.8,6-26.2,1.3,0,4.5.6,7.2,4.5-2.1-.4-3.5-.3-4.5.7a4.3,4.3,0,0,0-.8,5.5.92.92,0,0,1-.1,1,5.82,5.82,0,0,0-.7,6.2,1.57,1.57,0,0,1-.1,1.2c-.8,1.6-.2,3.5,1.6,5.5a.77.77,0,0,1,.1,1,3.73,3.73,0,0,0-.4,3.8C296.3,238.13,294.1,236,293.4,235.13Zm12.6,4.7a3.52,3.52,0,0,1-2.8-1.6,2.56,2.56,0,0,1,.1-2.9,2.26,2.26,0,0,0-.2-2.8c-.8-.9-2-2.5-1.4-3.9a2.89,2.89,0,0,0,.1-2.4,4.6,4.6,0,0,1,.6-4.8,2.46,2.46,0,0,0,.2-2.6,2.92,2.92,0,0,1,.5-3.8c.9-.9,3-.4,6.3.3a71.91,71.91,0,0,0,12.8,2,48.55,48.55,0,0,0,4.7,21.3A91.37,91.37,0,0,1,306,239.83Zm90.9-16.9c-5.5,11.7-26.7,17.5-64.9,17.8h0a4,4,0,0,1-3.6-2.3,47.14,47.14,0,0,1-4.7-20.9,63,63,0,0,0,8.5-.3.75.75,0,1,0-.1-1.5,60.18,60.18,0,0,1-8.3.3,35.15,35.15,0,0,1,1.2-7.7,4.08,4.08,0,0,1,4-3c7.1.2,24.9.2,36.4-4.8a.76.76,0,0,0-.6-1.4c-11.3,4.9-28.8,4.9-35.8,4.7a5.5,5.5,0,0,0-5.5,4,45.94,45.94,0,0,0-1.3,8,69.3,69.3,0,0,1-12.5-1.9c-.4-.1-.8-.2-1.1-.3-3.2-5.6-7.4-6.3-9.1-6.3v-1.1a8.8,8.8,0,0,0-5.7-8.3,30.53,30.53,0,0,0-6-1.3c1.5-3.2,4.5-6.8,10-6.2a1.42,1.42,0,0,0,.6-.2.73.73,0,0,0,.2-.6c0-.1-.4-6.4,3.3-10.3,1.9-2.1,4.7-3.1,8.2-3.1a.8.8,0,0,0,0-1.6q-6,0-9.3,3.6c-3.3,3.5-3.7,8.6-3.7,10.6h-.4c-5.8,0-8.9,4.3-10.5,7.7-1.7-.1-3.7,0-5.9.1.4-6.3,2.5-20.8,13.9-29.9a.78.78,0,0,0-1-1.2c-12,9.6-14.1,24.8-14.5,31.2a74.18,74.18,0,0,0-10.6,2,.73.73,0,0,0,.4,1.4,70.69,70.69,0,0,1,10.2-1.9v1.6a.77.77,0,0,0,.8.7h0a.77.77,0,0,0,.7-.8V198a52.46,52.46,0,0,1,5.4-.2,14.25,14.25,0,0,0-.8,2.8.78.78,0,0,0,.6.9h.1a.87.87,0,0,0,.8-.6,12.62,12.62,0,0,1,.8-2.9,25.14,25.14,0,0,1,6.1,1.2,7.35,7.35,0,0,1,4.8,6.9c-.1,7-.9,20.6-6,28.3l-.2.2c-2.1,3.2-5,5.3-8.9,5.5a10,10,0,0,1-7.4-2.8c-8-7.6-9.2-27.9-9.4-33.6,3.1,2.1,11.9,6.4,28.9,1.9a.73.73,0,1,0-.4-1.4c-20.5,5.3-28.7-2.5-28.8-2.6a.78.78,0,0,0-.8-.2.75.75,0,0,0-.5.7c0,1.1.1,27,9.8,36.2a11.53,11.53,0,0,0,2.6,1.9c-9.9.6-52.1,1.3-55.2-27.2-3.3-30.1,21.4-65.4,25.3-70.8a20.84,20.84,0,0,0,16.8,7.7,38.7,38.7,0,0,0,5.6-.5c9.4-1.7,15.2-11.8,18.7-22.2,1.1,10.9,5.8,37.4,25,39.9,5.1.6,8.8-.5,10.7-3.4,5.9-8.6-5.1-29.7-5.6-30.6a.74.74,0,0,0-1.3.7c.1.2,11.1,21.2,5.7,29-1.7,2.4-4.8,3.3-9.4,2.8-19-2.4-23-31-23.9-40.2,2.5,3.6,7.8,9.8,14.4,10.6,4.1.5,8.1-1.2,11.8-5.2.1-.1,2.4-2.6,7.8-2.5,8.1.2,22.5,6.4,45.5,34.7C387.4,186,403.5,208.93,396.9,222.93Z"/><path class="cls-3" d="M318.1,102.93a.78.78,0,0,0-1-.2c-1.4,1-2.9-.5-3-.6a.71.71,0,0,0-1,1,5.07,5.07,0,0,0,2.2,1.2,4.67,4.67,0,0,0,1.6,3.8,4.27,4.27,0,0,0,2.6.7,9.34,9.34,0,0,0,2.1-.3.73.73,0,0,0-.4-1.4s-2.1.7-3.4-.2a2.88,2.88,0,0,1-1-2.6,3.08,3.08,0,0,0,1.2-.5A.72.72,0,0,0,318.1,102.93Z"/><path class="cls-3" d="M566.2,136h-2.9a4,4,0,0,0,.2-4.3,4,4,0,0,0-3.7-2.2H545.2a9.08,9.08,0,0,0-7.5,4l-1.8,2.6H478.8l-1-1.1a15.8,15.8,0,0,0-11.8-5.4H455c-.3-1.3-1.1-4.9-2.3-9.6l.3-.3c.1-.2,12.4-23.3,20.9-29,8.3-5.5,15.3-3.6,15.5-3.6a.73.73,0,1,0,.4-1.4c-.3-.1-7.7-2.2-16.7,3.7-7.9,5.3-18.5,24-20.9,28.5-2.2-8.7-5.5-20.2-8.6-27.2a5.58,5.58,0,0,0-1.4-2v-.3a27.59,27.59,0,0,0-3.7-9,.66.66,0,0,0,.1-.6c0-.1-1.6-5.6,3-11.4a2.89,2.89,0,0,0,.3-3.2h0l7.8-2.7a.78.78,0,0,0,.4-.4.45.45,0,0,0,0-.5l11.1-3.7a1.16,1.16,0,0,0,.8-1.2,1.29,1.29,0,0,0-.9-1.2L455.6,53a3,3,0,0,0-2.1.1l-5.5,1.8-.1-.1a.78.78,0,0,0-.4-.4.64.64,0,0,0-.6,0l-10.4,4.1a2.37,2.37,0,0,0-1.3-1.1c-4.2-1.4-7.1-.9-8.6-.4a16.43,16.43,0,0,1,1.6-2.8,2.27,2.27,0,0,0-.3-2.9,2.12,2.12,0,0,0-2.6-.3,12.64,12.64,0,0,0-6,7.6,43.79,43.79,0,0,1-1.3-4.3c0-.1,0-.1-.1-.1-1.1-2.2-2.3-2.2-2.9-2.1a1.81,1.81,0,0,0-1.4,1.8c.8,11.8,5.8,23.4,9.7,31.3a19.27,19.27,0,0,0-2.4.1.55.55,0,0,0-.5.3,1.42,1.42,0,0,0-.2.6c.1,1.3,3.3,30.8,7.6,43.8H404.7a4.55,4.55,0,0,0-4.3,2.9,4.61,4.61,0,0,0,1,5.1l36.3,36.9v59.8a7.81,7.81,0,0,0,7.8,7.8H530a7.81,7.81,0,0,0,7.8-7.8v-59.8l21-21.8a396.13,396.13,0,0,1,4.5,67.9.77.77,0,0,0,.7.8h0a.77.77,0,0,0,.8-.7,399,399,0,0,0-4.7-69.3v-.1l8.7-9.1a3.49,3.49,0,0,0,.7-3.9C568.9,137.33,567.7,136,566.2,136Zm-27.4-1.8a7.56,7.56,0,0,1,6.3-3.3h14.6a2.61,2.61,0,0,1,2.4,1.5,2.8,2.8,0,0,1-.1,2.8l-25.3,38H512.2Zm-3.9,3.2-24.2,35.5-30.6-35.5Zm-94.4-70.9a15.79,15.79,0,0,0-3.6,10.6,54.68,54.68,0,0,0-4.5-5.1h0c.6-3.4,4.1-6.2,6.2-7.5a1.64,1.64,0,0,1,1.2-.2,1.6,1.6,0,0,1,.9.7A1.41,1.41,0,0,1,440.5,66.53Zm-13.6.3a4.35,4.35,0,0,0-.7-.6,11,11,0,0,1-.8-2.7.1.1,0,0,0,.1-.1c.9-1.7,3.3-2.1,5.5-2.1-.1.1-.1.2-.2.4a3.42,3.42,0,0,0,0,2.8,3.58,3.58,0,0,0,2.8,2.1,11.19,11.19,0,0,0-2.5,4.2C429.8,69.43,428.3,68.13,426.9,66.83ZM440.7,63a4.88,4.88,0,0,0-.7-.3,3.1,3.1,0,0,0-2.3.4,26.84,26.84,0,0,0-2.3,1.7l-.6.2a2,2,0,0,1-2.6-1.2,2.21,2.21,0,0,1,0-1.6,1.78,1.78,0,0,1,.7-.8,5.9,5.9,0,0,1,1.4.2,2.21,2.21,0,0,0,1.9-.6,2.4,2.4,0,0,0,.7-1.2l10-3.9,1.7,4.4Zm13.2-8.6a2.85,2.85,0,0,1,1.3,0l4.8,1.3-10.4,3.5-1.1-3Zm-27.7,4.2s2.9-1.9,8.7-.1a1.06,1.06,0,0,1,.6.7,1.17,1.17,0,0,1-.2.7.84.84,0,0,1-.7.2c-2.6-.4-6.7-.6-9,1.2a13.18,13.18,0,0,1,.5-2.6C426,58.73,426.1,58.63,426.2,58.63Zm-5.9,1.5c1.1-5,4-7.2,5.7-8.1a.74.74,0,0,1,.9.1.9.9,0,0,1,.1,1.1c-3.1,4.7-3.4,8.5-2.9,11.1-.9-.8-1.8-1.7-2.7-2.6a9.06,9.06,0,0,1-1.1-1.6Zm-4.9-6.9c.2,0,.7.2,1.2,1.3.7,2.9,1.5,6,3.8,8.3,1.8,1.8,3.7,3.5,5.5,5.2,6.5,5.8,12.6,11.4,14.6,19.7h-.1c-2.4-1-7.3-2.6-15.5-2.7-3.9-7.8-9.1-19.5-9.9-31.3C415.1,53.43,415.2,53.23,415.4,53.23Zm6.3,33.1c9.8-.4,15.6,1.4,18.1,2.6a4.68,4.68,0,0,1,2.4,2.4c5,11.1,10.2,33.5,11.3,38.2H429.4C425.4,118,422.3,91.23,421.7,86.33Zm-19.9,46.5a3.3,3.3,0,0,1,3-2H466a14.21,14.21,0,0,1,10.7,4.9l32.3,37.4H438.8l-36.2-36.9A2.89,2.89,0,0,1,401.8,132.83Zm37.4,101.3v-59.5h70.6v65.8H445.5A6.21,6.21,0,0,1,439.2,234.13Zm97.1,0a6.27,6.27,0,0,1-6.3,6.3H511.3v-65.8h25.1v59.5ZM567.7,141l-25.5,26.5,20.1-30.1h3.9a2,2,0,0,1,1.9,1.3A1.89,1.89,0,0,1,567.7,141Z"/><path class="cls-3" d="M475.2,43.43a.62.62,0,0,0,.7-.2c-.8,6.6-1.1,19.1,5.4,27.3,4,5,9.9,7.6,17.5,7.8h0a.7.7,0,0,0,0-1.4c-7.2-.2-12.7-2.6-16.4-7.2-8.6-10.8-4.5-30.3-4.4-30.5a.48.48,0,0,0-.2-.6,17.37,17.37,0,0,0,11.5-11.3c.8,2.4,2.5,5.7,5.5,7.4a8.9,8.9,0,0,0,7.2.4c.4,2.6,2.1,9.3,8.7,9.8-.4,1.9-3.1,14.1,1.6,21a10.08,10.08,0,0,0,7.3,4.4,4.87,4.87,0,0,0,1.2.1c3.1,0,5.9-1.7,8.3-4.9,7.1-9.8,8.8-32.3,3.3-43.8a24.69,24.69,0,0,0-6.9-8.7c2.2-2.3,11.3-10.9,21.8-6.1a11,11,0,0,1,6.2,6.3c2.2,6.1-1.4,13.5-1.5,13.6a.65.65,0,0,0,.2.9s4.9,3.3,5.5,8.2c.4,2.8-.7,5.6-3.1,8.4a.75.75,0,0,0-.1.8c0,.1,3.7,9.2.7,14.2-1.1,1.8-3.1,2.9-5.8,3.2a7.79,7.79,0,0,1-6.5-2c-5.3-4.8-5.3-16.1-5.3-16.3a.7.7,0,1,0-1.4,0c0,.5.1,12.1,5.8,17.3a9.59,9.59,0,0,0,6.5,2.5,4.87,4.87,0,0,0,1.2-.1q4.8-.45,6.9-3.9c3-5,.3-13.1-.4-15.1,2.5-3,3.6-6.1,3.2-9.3-.6-4.6-4.3-7.8-5.6-8.9.9-1.9,3.3-8.4,1.3-14.2a12.37,12.37,0,0,0-7-7.2c-11.5-5.2-21.4,4.2-23.6,6.6A25.37,25.37,0,0,0,516,8c-6.8-1.7-13.9-.6-18.9,2.7-2-1.4-10.4-6.3-20.1,2.3-6.9,6.1-8.2,16-6.5,23.2C471.3,40.23,473.1,42.93,475.2,43.43Zm2.6-29.3c10.1-9,18.3-2.2,18.7-1.9a.75.75,0,0,0,.9,0c4.6-3.4,11.5-4.5,18.1-2.8a23,23,0,0,1,8.5,4h0a22.4,22.4,0,0,1,7.1,8.7c5.2,10.9,3.5,33-3.2,42.3-2.3,3.2-5.1,4.6-8.1,4.2a8.57,8.57,0,0,1-6.3-3.8c-4.6-6.7-1.4-19.9-1.3-20a.9.9,0,0,0-.1-.5c0-.1.1-.2.1-.3a.68.68,0,0,0-.7-.7c-7.4,0-8.1-9.1-8.1-9.5a.86.86,0,0,0-.3-.6,1.48,1.48,0,0,0-.7-.1c-2.6,1.1-4.9,1.1-6.8,0-4.2-2.3-5.5-8.9-5.5-9a.86.86,0,0,0-.7-.6h0a.73.73,0,0,0-.7.6c-2.4,12-12.9,13.3-13.3,13.4a.71.71,0,0,0,.2,1.4s.4-.1,1.1-.2c-.1.3-.3,1.6-.6,3.5-.1-.1-.2-.3-.4-.3-1.5-.4-3-2.8-3.8-6.2C470.1,29.13,471.3,19.83,477.8,14.13Z"/><path class="cls-3" d="M490,41a.73.73,0,0,0-1.4-.4l-4.1,15.1a2.43,2.43,0,0,0,1.4,2.8l1.9.7c.1,0,.2.1.3.1a.75.75,0,0,0,.7-.5c.1-.4,0-.8-.4-.9l-1.9-.7a.88.88,0,0,1-.5-1Z"/><path class="cls-3" d="M501.7,44.63c.9.4,2.5,1.4,2.8,2.2a.67.67,0,0,0,.7.4.37.37,0,0,0,.3-.1.69.69,0,0,0,.3-1c-.7-1.4-3.2-2.7-3.5-2.9a.78.78,0,0,0-1,.3A.9.9,0,0,0,501.7,44.63Z"/><path class="cls-3" d="M483,42.23a.71.71,0,0,0,.6-.3.78.78,0,0,0-.2-1c-.2-.2-2.3-1.5-3.9-.7a.74.74,0,0,0,.7,1.3c.7-.4,2,.3,2.4.6C482.7,42.13,482.8,42.23,483,42.23Z"/><path class="cls-3" d="M493.8,67.33h.5a2.79,2.79,0,0,0,1.8-.6c3-2.3.3-7.1.2-7.3a.81.81,0,0,0-.8-.4c-.3,0-.5.3-.6.6,0,0-.6,2.7-5.1,3.2a.68.68,0,0,0-.6.4.62.62,0,0,0,.1.7C489.4,64.23,491.5,67,493.8,67.33Zm1.8-5.8c.5,1.3.8,3.1-.4,4a1.38,1.38,0,0,1-1.2.3,4.82,4.82,0,0,1-2.7-1.8A6.45,6.45,0,0,0,495.6,61.53Z"/><path class="cls-3" d="M493.8,70.73a.76.76,0,0,0,.5-.2,4.5,4.5,0,0,1,2.7-1.1.7.7,0,0,0,0-1.4,5.6,5.6,0,0,0-3.7,1.5.67.67,0,0,0,0,1A.76.76,0,0,0,493.8,70.73Z"/><path class="cls-3" d="M515.9,53.23a1.27,1.27,0,0,0,.6-.1,8.85,8.85,0,0,0,5.9-6.5c.8-3.4-1-5.9-4.9-7a2,2,0,0,0-1.5.3,1.84,1.84,0,0,0-.8,1.4l-1,9.9a1.73,1.73,0,0,0,.7,1.6A1.16,1.16,0,0,0,515.9,53.23Zm.6-11.7c0-.2.1-.3.2-.3s.2-.1.3-.1c2.2.6,4.6,1.9,3.9,5.2a7.14,7.14,0,0,1-4.9,5.4c-.2.1-.3,0-.3-.1s-.1-.1-.1-.3Z"/><path class="cls-3" d="M487.3,2.23a12.92,12.92,0,0,1,7.8,5.4.82.82,0,0,0,.6.4.76.76,0,0,0,.4-.1.69.69,0,0,0,.3-1,14.26,14.26,0,0,0-8.7-6.1.78.78,0,0,0-.9.6C486.6,1.73,486.9,2.13,487.3,2.23Z"/><path class="cls-3" d="M496.9,5.13a.72.72,0,0,0,.5.9h.2a.73.73,0,0,0,.7-.6,5.26,5.26,0,0,0-2.2-5.2.76.76,0,0,0-1,.1.76.76,0,0,0,.1,1A4.1,4.1,0,0,1,496.9,5.13Z"/><path class="cls-3" d="M500.1,48.43a1.3,1.3,0,1,0,1.3,1.3A1.32,1.32,0,0,0,500.1,48.43Z"/><path class="cls-3" d="M479.8,46.53a1.3,1.3,0,1,0,1.3-1.3A1.32,1.32,0,0,0,479.8,46.53Z"/><path class="cls-3" d="M497.6,79a.7.7,0,1,0-1.4,0c0,7.1-2.9,7.3-2.9,7.3a.68.68,0,0,0-.7.7,9.42,9.42,0,0,0,3.4,7.3q3.6,3,10.2,3a45.58,45.58,0,0,0,10.7-1.5.73.73,0,0,0-.4-1.4c-9.1,2.2-15.9,1.8-19.6-1.2a7.74,7.74,0,0,1-2.9-5.5C495.2,87.23,497.6,85.53,497.6,79Z"/><path class="cls-3" d="M525,84.23a.74.74,0,0,0-.7,1.3c.2.1,16,8.2,28.9,36.2a.67.67,0,0,0,.7.4.37.37,0,0,0,.3-.1.82.82,0,0,0,.4-1C541.4,92.73,525.7,84.53,525,84.23Z"/><path class="cls-3" d="M813.3,81.53a2.79,2.79,0,0,0,2,.8h.5a10.54,10.54,0,0,0,8.9-7.4c1.3-4.4-1.1-8.2-6.8-10.4a2.65,2.65,0,0,0-2.3.2,2.59,2.59,0,0,0-1.3,1.9h0l-1.7,12.6A2.49,2.49,0,0,0,813.3,81.53Zm.7-2.2,1.7-12.6h0a1.15,1.15,0,0,1,.6-.9,1.42,1.42,0,0,1,.6-.2.6.6,0,0,1,.4.1c3.5,1.3,7.4,3.9,6,8.6a9,9,0,0,1-7.7,6.4,1.37,1.37,0,0,1-1.2-.4A1,1,0,0,1,814,79.33Z"/><path class="cls-3" d="M784.3,66.23c.1-.4,0-.8-.4-.9s-.8,0-.9.4l-5.5,14.4a2.67,2.67,0,0,0,.1,2.3,3,3,0,0,0,1.7,1.6l4.2,1.6h.3a.73.73,0,0,0,.3-1.4l-4.2-1.6a1.42,1.42,0,0,1-.9-.8,1.08,1.08,0,0,1,0-1.1Z"/><path class="cls-3" d="M799.8,69.33a3.59,3.59,0,0,0,1.1-.2,3.19,3.19,0,0,0,1.8-1.8l.1-.3a3.13,3.13,0,0,0-1.2-3.5,20.77,20.77,0,0,0-7.2-2.7,3,3,0,0,0-3.4,1.8h0a3.08,3.08,0,0,0,1.9,4,42.81,42.81,0,0,1,5.6,2.4A2.5,2.5,0,0,0,799.8,69.33Zm-7.4-4.9a1.28,1.28,0,0,1,0-1.2,1.68,1.68,0,0,1,1.8-1,19.54,19.54,0,0,1,6.7,2.5,1.44,1.44,0,0,1,.6,1.8l-.1.3a1.76,1.76,0,0,1-.9,1,1.5,1.5,0,0,1-1.3-.1,37.76,37.76,0,0,0-5.8-2.4A1.32,1.32,0,0,1,792.4,64.43Z"/><path class="cls-3" d="M784.6,96.23a7.51,7.51,0,0,0,2.4-.4.73.73,0,1,0-.4-1.4,5.36,5.36,0,0,1-6.3-2,.72.72,0,1,0-1.2.8A6.76,6.76,0,0,0,784.6,96.23Z"/><path class="cls-3" d="M793.1,72.63a1.2,1.2,0,1,0,1.2-1.2A1.22,1.22,0,0,0,793.1,72.63Z"/><path class="cls-3" d="M773.3,67.93a1.2,1.2,0,1,0,1.2-1.2A1.22,1.22,0,0,0,773.3,67.93Z"/><path class="cls-3" d="M872,179.43c-8.8-27.9-25.9-55.9-40.7-61.5a.91.91,0,0,0-.4-.8c-10.6-4.7-13.5-13.1-14.3-16.9a22.07,22.07,0,0,0,6.3,4.1,24.6,24.6,0,0,0,9.8,2.5c4.9,0,7.3-2.5,8.5-4.4,3.1-5.1,1.5-13.6-3.3-17.4a.71.71,0,0,0-.9,1.1c4.2,3.3,5.7,11,3,15.5s-8.5,4.9-16.5,1.4c-20.7-9.1-18.6-46.9-18.6-47.3a.75.75,0,0,0-1.5-.1c-.1,1.4-1.6,28.8,11.3,42.8a24.89,24.89,0,0,0,12.5,18.4,9.62,9.62,0,0,0-3.4.2,12.89,12.89,0,0,0-9.4,7.2c-8,16.5,8.6,54.7,13.5,65.2a282.82,282.82,0,0,0-26.2-17.2.61.61,0,0,0-.8.1,25.67,25.67,0,0,0-5,5.9c-5.3-5.4-9.6-13.7-6-25.4a4.37,4.37,0,0,0-.5-3.7,1.74,1.74,0,0,0-1.4-.9,2,2,0,0,0-1.4.6c-2.7,2.9-6.6,11.2-7.1,16.1a.1.1,0,0,1-.1.1h-.1c-1.6-1.4-3-2.5-4.2-3.4,3.9-16.3,8.8-23,12.4-27.9.9-1.2,1.6-2.2,2.3-3.3a7.21,7.21,0,0,0,4.5,1.7h.1c8.4,0,17.3-14.1,17.7-14.7a.72.72,0,0,0-1.2-.8c-.1.1-8.9,14.2-16.6,14.1a5.73,5.73,0,0,1-3.8-1.5,11.8,11.8,0,0,0,1.2-3.3c2.4-10.3-.7-15.9-2.1-17.8,1.1.1,2.2.2,3.3.2h0a.7.7,0,0,0,0-1.4c-9.6-.2-16.3-3.3-19.9-9.3-5.8-9.6-2.9-25,1-37a23.94,23.94,0,0,1,2.8,1.3,3.26,3.26,0,0,0,1.4.4,3.59,3.59,0,0,0,1.1-.2,3.19,3.19,0,0,0,1.8-1.8l.1-.3a3.13,3.13,0,0,0-1.2-3.5,18.11,18.11,0,0,0-3.9-1.8c1.9-5.1,3.7-9,4.5-10.7,8,9.4,21.6,10.3,26.4,10.3h1.8a.75.75,0,0,0-.1-1.5c-.3,0-27.3,1.9-32-20.2a14.66,14.66,0,0,1,.1-6.6c.9-3.2,2.6-4.8,5-4.8,5.8,0,9.6,6.6,9.7,6.7a.67.67,0,0,0,.8.3c.2-.1,21.4-5.9,30.2,7.5a20.63,20.63,0,0,0-4.5.5.73.73,0,0,0,.4,1.4c.6-.2,14.5-4.3,21.3,13.7,6.9,18.2-9.2,36.8-9.4,37a.67.67,0,0,0,.1,1,.72.72,0,0,0,1,0c.2-.2,16.8-19.4,9.6-38.5-4.3-11.5-11.6-14.5-16.8-15-8.2-14.1-28.3-10-31.8-9.2-1.1-1.7-4.9-7-10.6-7-3.1,0-5.3,2-6.4,5.8a16.24,16.24,0,0,0-.2,7.3,25.74,25.74,0,0,0,4.4,9.9c-.7,1.3-2.7,5.7-5,11.5a10.62,10.62,0,0,0-1.9-.4,3,3,0,0,0-3.4,1.8,3.31,3.31,0,0,0,0,2.4,2.87,2.87,0,0,0,1.8,1.6,12.13,12.13,0,0,1,1.4.5c-4,12.3-7,28.1-.8,38.3,3.2,5.3,8.6,8.5,16,9.6a.76.76,0,0,0,.2.5c.1.1,5,5.4,2.2,17.1a10.64,10.64,0,0,1-.9,2.5,10.13,10.13,0,0,1-1.4-2,.74.74,0,1,0-1.3.7,13.44,13.44,0,0,0,1.9,2.6c-.7,1.1-1.5,2.2-2.4,3.4-3.6,4.9-8.5,11.6-12.5,27.8-4.2-2.9-5.3-2-5.7-1.7-1.5,1.1-.8,3.5.2,5.5a4.29,4.29,0,0,0-2.7.4,3.64,3.64,0,0,0-1.4,2.8,5,5,0,0,0-3.1,1.9,3.26,3.26,0,0,0-.3,2.4,4.68,4.68,0,0,0-1.6,2.3c-.3,1.5.3,3.2,1.8,5,1.2,1.5,4.9,4,9.3,6.8a.37.37,0,0,0-.1.3c0,.2-3.1,20.6-3.1,35.8a.8.8,0,0,0,1.6,0c0-14.1,2.6-32.8,3-35.3,6.1,3.7,13.3,7.8,17.7,10.3a17.88,17.88,0,0,0,4.9,13.9c9.8,10.2,32.2,30.6,55.6,30.6a37.3,37.3,0,0,0,14.8-3C879.1,232.73,881.8,210.53,872,179.43ZM771,57.33a1.28,1.28,0,0,1,0-1.2h0a1.54,1.54,0,0,1,1.5-1h.3a19.54,19.54,0,0,1,6.7,2.5,1.44,1.44,0,0,1,.6,1.8l-.1.3a1.76,1.76,0,0,1-.9,1,1.5,1.5,0,0,1-1.3-.1,37.76,37.76,0,0,0-5.8-2.4A1.52,1.52,0,0,1,771,57.33Zm-8.7,121.2c-1.2-1.4-1.7-2.7-1.5-3.7a2.75,2.75,0,0,1,1.3-1.7.87.87,0,0,0,.4-.9,1.69,1.69,0,0,1,0-1.7c.5-.9,2.1-1.3,2.6-1.4a.64.64,0,0,0,.6-.8c0-1.1.2-1.9.7-2.2a3.41,3.41,0,0,1,2.8.1c.4.7.8,1.2,1,1.5a.72.72,0,1,0,1.2-.8c-1.7-2.3-3.5-6-2.5-6.8.4-.3,2.7.2,9.3,6a1.61,1.61,0,0,0,1.6.3,1.52,1.52,0,0,0,1-1.3c.4-4.5,4.2-12.5,6.7-15.2l.2-.2s.1,0,.3.3a2.57,2.57,0,0,1,.3,2.4c-3.8,12.4,1,21.2,6.7,27a50.34,50.34,0,0,0-5.4,16.3C781.6,191.23,765.1,181.93,762.3,178.53Zm102,59.1c-27.2,11.7-57.1-15.2-68.7-27.3a16.55,16.55,0,0,1-4.3-13.9c.8-4.8,2.2-10.7,5.1-15.8a40.73,40.73,0,0,0,11,7.3c.1,0,.2.1.3.1a.75.75,0,0,0,.7-.5.73.73,0,0,0-.4-1,40.33,40.33,0,0,1-10.9-7.1,23.59,23.59,0,0,1,4.5-5.5c3.6,2.1,27.9,16.4,44,32.3a.71.71,0,0,0,1-1,151.7,151.7,0,0,0-16-13.7c-1.2-2.4-23.4-48.6-14.7-66.4a11.69,11.69,0,0,1,8.4-6.5c14.9-3.1,36.5,29.8,46.4,61.3C880.2,210.13,877.8,231.73,864.3,237.63Z"/><path class="cls-3" d="M785.3,101.13a.76.76,0,0,0,.5-.2,3.89,3.89,0,0,1,3.6-1.3.73.73,0,1,0,.4-1.4,5.39,5.39,0,0,0-5.1,1.6.67.67,0,0,0,0,1A.86.86,0,0,0,785.3,101.13Z"/><path class="cls-3" d="M113.8,82.53l-3.3,1a.72.72,0,0,0-.5.9.75.75,0,0,0,.7.5h.2l3.3-1a2.57,2.57,0,0,0,1.8-3.2L111.3,62a.73.73,0,0,0-1.4.4l4.7,18.7A1.14,1.14,0,0,1,113.8,82.53Z"/><path class="cls-3" d="M99.7,73.23a1.5,1.5,0,1,0,1.5,1.5A1.54,1.54,0,0,0,99.7,73.23Z"/><circle class="cls-3" cx="121.6" cy="71.73" r="1.5"/><path class="cls-3" d="M105,96.83a.62.62,0,0,0-.1.8c.1.2,2.4,4.8,7.2,4.8s7.1-5.3,7.2-5.6a.72.72,0,0,0-1-.9c-6.2,3.4-12.4.7-12.5.7A.83.83,0,0,0,105,96.83Zm11.9,1.4a6.15,6.15,0,0,1-4.7,2.7,6.45,6.45,0,0,1-4.7-2.3A15.39,15.39,0,0,0,116.9,98.23Z"/><path class="cls-3" d="M109.5,106.93a.78.78,0,0,0-.2,1,.71.71,0,0,0,.6.3.6.6,0,0,0,.4-.1,4.22,4.22,0,0,1,3.7-.6.73.73,0,1,0,.4-1.4A5.67,5.67,0,0,0,109.5,106.93Z"/><path class="cls-3" d="M99.3,60.23a34,34,0,0,0-5.6,3.6,1.91,1.91,0,0,0-.6,2.4,1.7,1.7,0,0,0,1.6.9,1.27,1.27,0,0,0,.6-.1,21.58,21.58,0,0,0,3.3-1.4,18.5,18.5,0,0,0,2.9-2.4,2,2,0,0,0,.3-2.3h0A2,2,0,0,0,99.3,60.23Zm1.2,2a12.33,12.33,0,0,1-2.6,2.1,18.15,18.15,0,0,1-3,1.3.44.44,0,0,1-.5-.1.37.37,0,0,1,.2-.5,31.72,31.72,0,0,1,5.4-3.4c.1,0,.2-.1.3-.1a.52.52,0,0,1,.4.2A1.69,1.69,0,0,1,100.5,62.23Z"/><path class="cls-3" d="M122.3,59.53a17.91,17.91,0,0,0-4.7.1,1.68,1.68,0,0,0-1.4,1.8,1.8,1.8,0,0,0,1.1,1.8,9.23,9.23,0,0,0,2.5.5h.2a6.13,6.13,0,0,0,2.5-.6,1.91,1.91,0,0,0,1.1-1.7A1.7,1.7,0,0,0,122.3,59.53Zm-.3,2.3a6.92,6.92,0,0,1-2.1.5,6.48,6.48,0,0,1-2.1-.5.85.85,0,0,1,0-.8,21.58,21.58,0,0,1,2.8-.2,6.15,6.15,0,0,1,1.4.1.7.7,0,0,1,.2.4C122.2,61.63,122.1,61.83,122,61.83Z"/><path class="cls-3" d="M77.8,99.53c0,3.7-.6,21.2-16.3,25.6a.72.72,0,0,0-.5.9.75.75,0,0,0,.7.5h.2c16.8-4.7,17.4-23.3,17.4-27.1a10.41,10.41,0,0,0,6.5-3.9c8.1-10.2,5.4-36.8,4.6-43,4.5,1.8,20.5,7.4,32.1.3.9,4.3,6.8,32.8,2.8,48-4.1,15.7-15.7,16.4-27.7,14.8a.71.71,0,0,0-.2,1.4c2.4.3,4.9.5,7.3.6l-2,11.7v.1s-.2,3.9-3.2,5.1c-3.2,1.3-10.1,0-24.8-13.6a.71.71,0,0,0-1,1q15.6,14.4,23.7,14.4a7.63,7.63,0,0,0,2.7-.5c3.6-1.5,4-5.8,4.1-6.3l2.1-11.9c9-.2,17.2-3.7,20.5-16.5a58.83,58.83,0,0,0,1.4-15.6,6.8,6.8,0,0,0,4.9-3.4,8,8,0,0,0,.2-7.1,8.82,8.82,0,0,0-6.4-5.3c-.5-3.6-1-6.9-1.5-9.6.1,0,.2-.1.3-.1.3-.3,8.2-6.4,7.7-14.7q-.45-8.25-11.4-15c-23-14.1-41.5,4.7-43.8,7.2-6.6-.2-11.8,2.6-15,8.1-6.9,11.9-3.6,34.1,3.9,46.1C70.3,96.73,74,99.43,77.8,99.53Zm54.1-24a6.54,6.54,0,0,1-.2,5.8,5.51,5.51,0,0,1-3.6,2.7c-.1-4.3-.5-8.7-1-12.8A7.6,7.6,0,0,1,131.9,75.53ZM64.4,46.23c3-5.2,7.8-7.7,14-7.4a.86.86,0,0,0,.6-.3,38.8,38.8,0,0,1,12.3-9.1c10-4.8,20.1-4.1,29.9,1.9,6.9,4.2,10.5,8.9,10.7,13.8.4,6.7-5.5,12-6.9,13.2-.7-3.7-1.2-6.2-1.3-6.6a19.35,19.35,0,0,0,2.7-2.3.71.71,0,0,0-1-1c-12.6,12.6-35.5,2.2-35.7,2a.62.62,0,0,0-.7.1.91.91,0,0,0-.3.7c0,.3,4.5,32.4-4.1,43.2a8.51,8.51,0,0,1-6.2,3.4c-3.4.3-7-2.3-10.1-7.2C61,79.23,57.8,57.73,64.4,46.23Z"/><path class="cls-3" d="M68.5,34.43c5.8-1.9,7.1.9,7.1,1a.75.75,0,0,0,.7.5.37.37,0,0,0,.3-.1.63.63,0,0,0,.4-.9c-.1-.2-1.8-4.3-8.9-1.9a.73.73,0,0,0,.4,1.4Z"/><path class="cls-3" d="M77.8,33h0a.68.68,0,0,0,.7-.7s0-3.4,2-5.3a.71.71,0,0,0-1-1c-2.4,2.4-2.4,6.2-2.4,6.4A.67.67,0,0,0,77.8,33Z"/><path class="cls-3" d="M81.6,87.13h0a1.68,1.68,0,0,0,1.4-.6,1.65,1.65,0,0,0,.5-1.5l-.7-13.5a1.6,1.6,0,0,0-.8-1.4,1.81,1.81,0,0,0-1.6-.1c-2.1,1-7.1,4.1-7.1,9.9C73.2,86.23,79.1,87,81.6,87.13ZM81,71.53h.2a.35.35,0,0,1,.1.2l.7,13.5c0,.2-.1.3-.1.4s-.2.2-.3.1c-2.6-.1-6.9-.9-6.9-5.5C74.7,75.23,78.7,72.63,81,71.53Z"/><path class="cls-3" d="M183.4,125.73c-1.5-1.1-3.6-1.2-6.2-.4l-17.9,6.5a6.13,6.13,0,0,0-4.1,5.8v20.9a13.41,13.41,0,0,0-6,2.9c-.3.3-.7.6-1,.9-5.8-17.8-15.5-27.4-23.1-32.4a44,44,0,0,0-18.7-7.1.75.75,0,0,0-.1,1.5c.1,0,8.6.6,18.1,6.9,7.5,5,17.1,14.5,22.7,32.2a79.36,79.36,0,0,0-9.1,11c-9.6,13.8-44.1,19.5-60.4,21.4.8-5.6,7.2-52-6.5-65.3-3.2-3.1-7.1-4.2-11.9-3.3-12.1,2.2-19.8,22-20.6,52.8-.7,28.1,4.8,59.6,14.1,61.8a18.63,18.63,0,0,0,3.6.3c17.4,0,67.6-16.6,95.7-36a283,283,0,0,1,1.8,28.4.7.7,0,0,0,1.4,0,275.48,275.48,0,0,0-1.9-29.4,76.76,76.76,0,0,0,11.4-9.7,16.39,16.39,0,0,0,4.4-11.3c0-.2-.1-.3-.2-.5a11.31,11.31,0,0,0,1.7-3.9h.1l10.9-3.8a6.25,6.25,0,0,0,4.2-5.9v-37.2h0C185.9,131,185.8,127.43,183.4,125.73Zm-23.5,7.5,17.8-6.5c2.1-.7,3.8-.6,4.8.2a4.07,4.07,0,0,1,1.5,2.5,4.26,4.26,0,0,0-3.8-.5l-17.4,6.5a6.18,6.18,0,0,0-4,5.8V165a3.27,3.27,0,0,1-1.6.9,1.27,1.27,0,0,1-.6-.1v-28.3A4.94,4.94,0,0,1,159.9,133.23Zm-100.5-4.5c4.3-.8,7.8.2,10.6,2.9,6.6,6.4,8.3,21.5,8.2,35.5-1.9,1.3-13.6,8.8-37.5.9C42.9,144.93,49.7,130.53,59.4,128.73Zm101.8,60.1a.69.69,0,0,0-.3,1,.82.82,0,0,0,.6.4.37.37,0,0,0,.3-.1,20.64,20.64,0,0,0,5.7-4.6,15.15,15.15,0,0,1-4,9,71.24,71.24,0,0,1-11.4,9.7.22.22,0,0,0-.2.2c-29.8,21.1-86.4,39.1-99,36.1-7.6-1.8-13.8-30.6-13-60.4.1-3.7.3-7.3.6-10.6a67.43,67.43,0,0,0,20.4,3.6c9.4,0,14.9-2.7,17.2-4.2a215.49,215.49,0,0,1-2.2,27.2c-4.3.5-7,.7-7.1.7a.77.77,0,0,0-.7.8.68.68,0,0,0,.7.7h.1c2.3-.2,57.1-4.3,70.1-22.9a68.27,68.27,0,0,1,11-12.8,11.61,11.61,0,0,1,5.1-2.5V165a.31.31,0,0,1-.1-.2.71.71,0,1,0-1.1.9,4.22,4.22,0,0,0,3.5,1.7c1.5-.1,2.9-1.3,4.1-3.5a3.12,3.12,0,0,1,2.1-1.6,3.27,3.27,0,0,1,2.7.5,3.37,3.37,0,0,1,1.3,3.9,14.52,14.52,0,0,1-8.3,8.8.82.82,0,0,0-.4,1,.67.67,0,0,0,.7.4.37.37,0,0,0,.3-.1,15.4,15.4,0,0,0,7.8-6.9,3.65,3.65,0,0,1,1.2,3.3c-.4,4.1-6.9,7.9-7,7.9a.69.69,0,0,0-.3,1,.82.82,0,0,0,.6.4.76.76,0,0,0,.4-.1c.2-.1,4.5-2.6,6.6-6C170.5,183.73,161.3,188.83,161.2,188.83Zm23.2-18.7a4.85,4.85,0,0,1-3.2,4.5l-10.4,3.6a9.88,9.88,0,0,0-.6-3.7,3.55,3.55,0,0,0,.2-1,5.84,5.84,0,0,0-2-4.9c.2-.5.4-1,.6-1.4a4.75,4.75,0,0,0-1.9-5.6,4.89,4.89,0,0,0-3.9-.7,5.13,5.13,0,0,0-2.9,2.1v-21.7a4.53,4.53,0,0,1,3.1-4.4l17.4-6.5a2.81,2.81,0,0,1,2.5.3,2.75,2.75,0,0,1,1.2,2.2v37.2Z"/><path class="cls-3" d="M180.1,135.33c-.8,0-1.5,1-1.5,2.2s.7,2.2,1.5,2.2,1.5-1,1.5-2.2S180.9,135.33,180.1,135.33Z"/><path class="cls-3" d="M173.1,148c-2.3,0-4,2.5-4,5.7s1.8,5.7,4,5.7,4-2.5,4-5.7S175.4,148,173.1,148Zm0,9.9c-1.4,0-2.6-1.9-2.6-4.2s1.2-4.2,2.6-4.2,2.6,1.9,2.6,4.2S174.5,157.93,173.1,157.93Z"/><path class="cls-3" d="M494,185.43a4.1,4.1,0,0,0-5.8,0L477,196.63l-3-3a4.15,4.15,0,0,0-5.6-.2,4.07,4.07,0,0,0-1.4,3h0l-5.2-5.2A4.1,4.1,0,1,0,456,197l11.2,11.2-3,3a4.15,4.15,0,0,0-.2,5.6,4.07,4.07,0,0,0,3,1.4h0l-6,6a4.1,4.1,0,1,0,5.8,5.8l11.2-11.2,3,3a4.15,4.15,0,0,0,5.6.2,4.07,4.07,0,0,0,1.4-3,4.23,4.23,0,0,0-1.2-3l-5.3-5.3a4.76,4.76,0,0,0,.9-2.9,4.84,4.84,0,0,0-1.6-3.6l13.1-13.1A3.9,3.9,0,0,0,494,185.43Zm-28.8,30.4a2.61,2.61,0,0,1,.1-3.5l3.5-3.5a.78.78,0,0,0,0-1.1L457.1,196a2.55,2.55,0,1,1,3.6-3.6l13,13a4.46,4.46,0,0,0-.8,2.6,5.14,5.14,0,0,0,1,3l-5,5a2.28,2.28,0,0,1-1.9.7A3.1,3.1,0,0,1,465.2,215.83Zm20.5,1.4a2.54,2.54,0,0,1-.2,3.7,2.61,2.61,0,0,1-3.5-.1l-3.5-3.5a.78.78,0,0,0-1.1,0L465.7,229a2.55,2.55,0,1,1-3.6-3.6l13.2-13.2a4.65,4.65,0,0,0,2.3.6,5,5,0,0,0,2.7-.8Zm-4.6-9.3a3.4,3.4,0,1,1-3.4-3.4A3.37,3.37,0,0,1,481.1,207.93Zm11.8-17.8-13.4,13.4a5.84,5.84,0,0,0-1.8-.4,4.39,4.39,0,0,0-2.7.9l-5.6-5.6a2.54,2.54,0,0,1,.2-3.7,2.61,2.61,0,0,1,3.5.1l3.5,3.5a.78.78,0,0,0,1.1,0l11.7-11.7a2.53,2.53,0,0,1,3.6,0A2.51,2.51,0,0,1,492.9,190.13Z"/><path class="cls-3" d="M690.6,194.73c-3.4,1.4-4.3,6.9-2,12.5,1.9,4.7,5.4,7.8,8.5,7.8a4.15,4.15,0,0,0,1.6-.3c3.4-1.4,4.3-6.9,2-12.5S694,193.33,690.6,194.73Zm7.6,18.6c-2.6,1-6.3-2-8.2-6.7s-1.4-9.5,1.2-10.5a3.59,3.59,0,0,1,1.1-.2c2.4,0,5.5,2.8,7.2,6.9C701.3,207.43,700.8,212.23,698.2,213.33Z"/><path class="cls-3" d="M827.1,34.13a.67.67,0,0,0,.7.4.37.37,0,0,0,.3-.1,15.43,15.43,0,0,1,8.3-1.4.71.71,0,0,0,.2-1.4,16.45,16.45,0,0,0-9.2,1.5A.78.78,0,0,0,827.1,34.13Z"/><path class="cls-3" d="M825.6,31.53a.86.86,0,0,0,.6-.3,16.19,16.19,0,0,1,4.9-4.2.74.74,0,0,0-.7-1.3,18.54,18.54,0,0,0-5.4,4.6.76.76,0,0,0,.1,1A.55.55,0,0,0,825.6,31.53Z"/><path class="cls-3" d="M272.1,184.23c.2-1.5.4-5.3-1.7-8.2a8.49,8.49,0,0,0-6.2-3.3.71.71,0,0,0-.8.7.77.77,0,0,0,.7.8,7.12,7.12,0,0,1,5.1,2.7c2.2,3,1.3,7.6,1.3,7.6a.76.76,0,0,0,.5.9c4.4,1.7,2.7,7,2.6,7.2a.88.88,0,0,0,.5,1h.2a.75.75,0,0,0,.7-.5C275.8,190.83,276.1,186.23,272.1,184.23Z"/><path class="cls-3" d="M230.2,73.23V57.43a5.12,5.12,0,0,0-5.1-5.1H191.9a5.12,5.12,0,0,0-5.1,5.1v15.8a5.12,5.12,0,0,0,5.1,5.1h7.8a3.56,3.56,0,0,1,3.2,2l5.5,10.8a1.36,1.36,0,0,0,1.1.7h.1a1.21,1.21,0,0,0,1.1-.8l3.7-10.3a3.68,3.68,0,0,1,3.4-2.4h7.3A5.12,5.12,0,0,0,230.2,73.23Zm-17.2,7-3.5,9.7-5.2-10.3a5.16,5.16,0,0,0-4.6-2.8h-7.8a3.59,3.59,0,0,1-3.6-3.6V57.43a3.59,3.59,0,0,1,3.6-3.6h33.2a3.59,3.59,0,0,1,3.6,3.6v15.8a3.59,3.59,0,0,1-3.6,3.6h-7.3A5,5,0,0,0,213,80.23Z"/><path class="cls-3" d="M211.7,60.53a5,5,0,0,0-2.7,2.2c-1-1.3-2.8-3.1-5.3-2.3a3,3,0,0,0-2.1,2.6c-.4,2.7,1.6,7.1,7,11a.6.6,0,0,0,.4.1.76.76,0,0,0,.5-.2c.9-.9,8.6-8.8,5.1-12.3A3.2,3.2,0,0,0,211.7,60.53ZM209,72.43c-4.4-3.4-6.2-7-5.8-9.1a1.64,1.64,0,0,1,1.1-1.4,1.7,1.7,0,0,1,.7-.1c2,0,3.4,2.8,3.5,2.8a.67.67,0,0,0,.7.4.75.75,0,0,0,.7-.5c.2-.6,1.1-2.3,2.2-2.5a1.77,1.77,0,0,1,1.6.7C215.5,64.73,211.2,70.13,209,72.43Z"/></g></g></g></g></svg>