<?xml version="1.0" encoding="utf-8"?>
<!-- Generator: Adobe Illustrator 22.1.0, SVG Export Plug-In . SVG Version: 6.00 Build 0)  -->
<svg version="1.1" id="Слой_1" xmlns="http://www.w3.org/2000/svg" xmlns:xlink="http://www.w3.org/1999/xlink" x="0px" y="0px"
	 viewBox="0 0 468.6 135.7" style="enable-background:new 0 0 468.6 135.7;" xml:space="preserve">
<style type="text/css">
	.st0{fill:#FCC600;}
	.st1{fill:#F9423A;}
	.st2{fill:#732F7A;}
	.st3{fill:#FFFFFF;}
</style>
<path class="st0" d="M17.7,115.2l41-39.5c2.3-2.2,5.3-3.3,8.3-3.3c0.1,0,0.3,0,0.4,0c0.5-0.1,1.1-0.1,1.7-0.1c2.7,0,5.5,1,7.6,3.1
	l20.2,19.3c4.4,4.2,4.6,11.2,0.3,15.6c-4.2,4.4-11.2,4.6-15.6,0.3L69.2,98.7l-35,33.7c-4.7,4.6-12.3,4.4-16.8-0.3
	C12.8,127.3,12.9,119.7,17.7,115.2z"/>
<path class="st1" d="M118,20.5L77,60c-2.3,2.2-5.3,3.3-8.3,3.3c-0.1,0-0.3,0-0.4,0c-0.5,0.1-1.1,0.1-1.7,0.1c-2.7,0-5.5-1-7.6-3.1
	L38.8,41c-4.4-4.2-4.6-11.2-0.3-15.6c4.2-4.4,11.2-4.6,15.6-0.3L66.5,37l35-33.7c4.7-4.6,12.3-4.4,16.8,0.3
	C122.9,8.4,122.7,15.9,118,20.5z"/>
<path class="st2" d="M20.5,17.7l39.5,41c2.2,2.3,3.3,5.3,3.3,8.3c0,0.2,0,0.3,0,0.4c0.1,0.5,0.1,1.1,0.1,1.7c0,2.7-1,5.5-3.1,7.6
	L41,96.8c-4.2,4.4-11.2,4.6-15.6,0.3C21.1,93,20.9,86,25.1,81.6L37,69.2l-33.7-35c-4.6-4.7-4.4-12.3,0.3-16.8
	C8.4,12.8,15.9,12.9,20.5,17.7z"/>
<path class="st3" d="M78.5,67.8c0,6.1-4.9,11-11,11c-6.1,0-11-4.9-11-11c0-6.1,4.9-11,11-11C73.6,56.8,78.5,61.7,78.5,67.8z"/>
<g>
	<path d="M468.6,46.6v42.6H457v-5.3c-3,3.8-5.8,6.2-12.5,6.4c-4.4-0.1-8.2-1.7-11.1-4.7c-3.1-3.2-4.6-7.5-4.6-13v-26h11.7v24.7
		c0,2.7,0.7,4.7,2.1,6.1c0.6,0.6,1.2,1,2,1.3c1.1,0.5,2.3,0.7,3.7,0.7c2.7,0,4.8-0.8,6.3-2.5c1.6-1.6,2.4-4.1,2.4-7.4v-23H468.6z"/>
	<path d="M355.5,51.8c-4.3-4.3-9.7-6.5-16.5-6.5c-6.7,0-12.1,2.2-16.5,6.5c-4.3,4.3-6.5,9.6-6.5,16.1c0,6.5,2.1,11.7,6.5,16
		c4.3,4.3,9.7,6.4,16.5,6.4c6.7,0,12.1-2.1,16.5-6.4c4.3-4.3,6.5-9.5,6.5-16C361.9,61.5,359.8,56.2,355.5,51.8z M346.8,75.6
		c-2,2.1-4.6,3.1-7.8,3.1c-3.2,0-5.7-1-7.8-3.1c-2-2.1-3.1-4.6-3.1-7.7c0-3.1,1-5.7,3.1-7.8c2-2.1,4.6-3.1,7.8-3.1
		c3.2,0,5.7,1,7.8,3.1c2,2.1,3.1,4.6,3.1,7.8C349.8,71,348.8,73.6,346.8,75.6z"/>
	<path d="M296.7,52.1l0-5.5h-11.7V68v21.2h11.7v-5.4V71.5h0c0-3.7,1.2-6.6,3.6-9.1c2.4-2.4,5.4-3.6,9.1-3.7v-0.1V45.7
		C309.4,45.7,301.5,46.1,296.7,52.1z"/>
	<path d="M412.5,51.9c-1.1-1.1-2.9-2.6-5.3-3.9c-1.7-0.9-5.6-2.7-10.8-2.6c-6.8,0.1-11.5,3.3-13.2,4.5c0,0,0,0,0,0V29.9h-11.7v59.3
		h11.7l0-5.3c3.1,4,8.1,6.3,13.1,6.4c2.2,0.1,4.3-0.3,6.2-0.8c3.8-1,7.1-2.8,9.9-5.6c4.3-4.3,6.5-9.5,6.5-16
		C419,61.5,416.8,56.2,412.5,51.9z M403.9,75.6c-2.1,2-4.6,3.1-7.8,3.1c-3.2,0-5.7-1-7.8-3.1c-2-2.1-3-4.6-3-7.7c0-3.1,1-5.7,3-7.8
		c2.1-2.1,4.6-3.1,7.8-3.1c3.2,0,5.7,1,7.8,3.1c0.5,0.5,0.9,1.1,1.3,1.6c0.1,0.1,0.2,0.3,0.3,0.4c1,1.6,1.5,3.6,1.5,5.7
		c0,2-0.4,3.8-1.3,5.4C405.2,74.1,404.6,74.9,403.9,75.6z"/>
	<path d="M269.4,51.9c-1.1-1.1-2.9-2.6-5.3-3.9c-1.7-0.9-5.6-2.7-10.8-2.6c-6.8,0.1-11.5,3.3-13.2,4.5c0,0,0,0,0,0v-3.2h-11.7v59.3
		h11.7l0-22c3.1,4,8.1,6.3,13.1,6.4c2.2,0.1,4.3-0.3,6.2-0.8c3.8-1,7.1-2.8,9.9-5.6c4.3-4.3,6.5-9.5,6.5-16
		C275.8,61.5,273.7,56.2,269.4,51.9z M260.7,75.6c-2.1,2-4.6,3.1-7.8,3.1c-3.2,0-5.7-1-7.8-3.1c-2-2.1-3-4.6-3-7.7
		c0-3.1,1-5.7,3-7.8c2.1-2.1,4.6-3.1,7.8-3.1c3.2,0,5.7,1,7.8,3.1c0.5,0.5,0.9,1.1,1.3,1.6c0.1,0.1,0.2,0.3,0.3,0.4
		c1,1.6,1.5,3.6,1.5,5.7c0,2-0.4,3.8-1.3,5.4C262,74.1,261.4,74.9,260.7,75.6z"/>
	<path d="M168.7,68c0,6.5,2.1,11.7,6.5,16c2.8,2.8,6.1,4.6,9.9,5.6c1.9,0.5,4,0.8,6.2,0.8c5-0.2,10-2.4,13.1-6.4l0,5.3h11.7V46.6
		h-11.7v3.2c0,0,0,0,0,0c-1.7-1.2-6.5-4.4-13.2-4.5c-5.2-0.1-9,1.7-10.8,2.6c-2.4,1.3-4.2,2.8-5.3,3.9
		C170.8,56.2,168.7,61.5,168.7,68z M182,73.3c-0.8-1.6-1.3-3.3-1.3-5.4c0-2.2,0.5-4.1,1.5-5.7c0.1-0.1,0.1-0.3,0.3-0.4
		c0.4-0.6,0.8-1.1,1.3-1.6c2-2.1,4.6-3.1,7.8-3.1c3.2,0,5.7,1,7.8,3.1c2,2.1,3,4.6,3,7.8c0,3.1-1,5.7-3,7.7c-2.1,2-4.6,3.1-7.8,3.1
		c-3.2,0-5.7-1-7.8-3.1C183.1,74.9,182.5,74.1,182,73.3z"/>
	<path d="M118.6,89.3V46.7h11.7V52c3-3.8,5.8-6.2,12.5-6.4c4.4,0.1,8.2,1.7,11.1,4.7c3.1,3.2,4.6,7.5,4.6,13v26h-11.7V64.6
		c0-2.7-0.7-4.7-2.1-6.1c-0.6-0.6-1.2-1-2-1.3c-1.1-0.5-2.3-0.7-3.7-0.7c-2.7,0-4.8,0.8-6.3,2.5c-1.6,1.6-2.4,4.1-2.4,7.4v23H118.6z
		"/>
</g>
</svg>
