<?xml version="1.0" encoding="UTF-8"?> <svg xmlns="http://www.w3.org/2000/svg" width="643" height="2459" viewBox="0 0 643 2459" fill="none"> <g clip-path="url(#clip0)"> <rect x="334.67" y="126" width="1637.84" height="14" transform="rotate(90 334.67 126)" fill="white"></rect> <rect width="64.0731" height="14.072" rx="7.036" transform="matrix(-0.610498 0.792018 -0.784 -0.620761 369 1725.34)" fill="white"></rect> <rect width="64.0731" height="14.072" rx="7.036" transform="matrix(0.610526 0.791997 0.783979 -0.620788 286.852 1725.35)" fill="white"></rect> <ellipse cx="327.5" cy="826.5" rx="89.5" ry="91.5" transform="rotate(90 327.5 826.5)" fill="#F9423A"></ellipse> <ellipse cx="327.5" cy="133.5" rx="89.5" ry="91.5" transform="rotate(90 327.5 133.5)" fill="#FBC633"></ellipse> <ellipse cx="327.5" cy="1519.5" rx="89.5" ry="91.5" transform="rotate(90 327.5 1519.5)" fill="#72327A"></ellipse> <path d="M400 871.326L333.908 937.418C330.003 941.323 323.671 941.323 319.766 937.418L253.674 871.326L326.837 798.163L400 871.326Z" fill="#F9423A"></path> <path d="M400 178.326L333.908 244.418C330.003 248.323 323.671 248.323 319.766 244.418L253.674 178.326L326.837 105.163L400 178.326Z" fill="#FBC633"></path> <path d="M400 1564.33L333.908 1630.42C330.003 1634.32 323.671 1634.32 319.766 1630.42L253.674 1564.33L326.837 1491.16L400 1564.33Z" fill="#72327A"></path> <circle cx="327.5" cy="826.5" r="64.5" transform="rotate(90 327.5 826.5)" fill="#1E305C"></circle> <circle cx="327.5" cy="133.5" r="64.5" transform="rotate(90 327.5 133.5)" fill="#1E305C"></circle> <circle cx="327.5" cy="1519.5" r="64.5" transform="rotate(90 327.5 1519.5)" fill="#1E305C"></circle> <path d="M351.625 860.5H303.822V852.346L327.504 826.516C330.922 822.707 333.347 819.533 334.779 816.994C336.244 814.423 336.977 811.851 336.977 809.279C336.977 805.894 336.016 803.16 334.096 801.076C332.208 798.993 329.652 797.951 326.43 797.951C322.589 797.951 319.61 799.123 317.494 801.467C315.378 803.811 314.32 807.017 314.32 811.086H302.455C302.455 806.757 303.432 802.867 305.385 799.416C307.37 795.933 310.186 793.231 313.832 791.311C317.51 789.39 321.742 788.43 326.527 788.43C333.428 788.43 338.865 790.171 342.836 793.654C346.84 797.105 348.842 801.89 348.842 808.01C348.842 811.558 347.833 815.285 345.814 819.191C343.829 823.065 340.557 827.476 336 832.424L318.617 851.027H351.625V860.5Z" fill="white"></path> <path d="M335.951 167.5H324.135V110.42L306.703 116.377V106.367L334.438 96.1621H335.951V167.5Z" fill="white"></path> <path d="M317.543 1512.53H324.77C328.415 1512.5 331.296 1511.56 333.412 1509.7C335.561 1507.85 336.635 1505.16 336.635 1501.64C336.635 1498.26 335.74 1495.64 333.949 1493.78C332.191 1491.9 329.49 1490.95 325.844 1490.95C322.654 1490.95 320.033 1491.88 317.982 1493.73C315.932 1495.56 314.906 1497.95 314.906 1500.91H303.041C303.041 1497.27 304.001 1493.95 305.922 1490.95C307.875 1487.96 310.577 1485.63 314.027 1483.97C317.51 1482.28 321.4 1481.43 325.697 1481.43C332.794 1481.43 338.36 1483.22 342.396 1486.8C346.465 1490.35 348.5 1495.3 348.5 1501.64C348.5 1504.83 347.475 1507.85 345.424 1510.68C343.406 1513.48 340.785 1515.59 337.562 1517.03C341.469 1518.36 344.431 1520.46 346.449 1523.32C348.5 1526.19 349.525 1529.61 349.525 1533.58C349.525 1539.96 347.328 1545.04 342.934 1548.81C338.572 1552.59 332.826 1554.48 325.697 1554.48C318.861 1554.48 313.262 1552.65 308.9 1549.01C304.538 1545.36 302.357 1540.51 302.357 1534.46H314.223C314.223 1537.58 315.264 1540.12 317.348 1542.07C319.464 1544.03 322.296 1545 325.844 1545C329.522 1545 332.419 1544.03 334.535 1542.07C336.651 1540.12 337.709 1537.29 337.709 1533.58C337.709 1529.83 336.602 1526.95 334.389 1524.94C332.175 1522.92 328.887 1521.91 324.525 1521.91H317.543V1512.53Z" fill="white"></path> <path d="M395 1887.16L328.908 1821.07C325.003 1817.16 318.671 1817.16 314.766 1821.07L248.674 1887.16L321.837 1960.33L395 1887.16Z" fill="#ED4644"></path> <circle cx="321.5" cy="2135.5" r="269.5" transform="rotate(90 321.5 2135.5)" fill="#ED4644"></circle> </g> <defs> <clipPath id="clip0"> <rect width="2459" height="643" fill="white" transform="translate(643) rotate(90)"></rect> </clipPath> </defs> </svg> 