<svg xmlns="http://www.w3.org/2000/svg" viewBox="0 0 160.01 190"><defs><style>.cls-1{fill:#001a3a;}</style></defs><title>Ресурс 1</title><g id="Слой_2" data-name="Слой 2"><g id="Слой_1-2" data-name="Слой 1"><g id="_001a3a" data-name="#001a3a"><path class="cls-1" d="M97.3,90v13a8,8,0,0,0,8,8h13a8,8,0,0,0,8-8V90a8,8,0,0,0-8-8h-13A8,8,0,0,0,97.3,90Zm8-6h13a6,6,0,0,1,6,6v13a6,6,0,0,1-6,6h-13a6,6,0,0,1-6-6V90A6,6,0,0,1,105.3,84Z"/><path class="cls-1" d="M134.7,51.5V40.6A11.61,11.61,0,0,0,123.1,29h-4.4a9,9,0,0,0,3.4-3.3,6.46,6.46,0,0,0-.2-6.7c-2.2-3.5-7.2-5.3-13.8-4.9A37.26,37.26,0,0,0,81,28.5,36.7,36.7,0,0,0,53.9,14.1c-6.6-.4-11.6,1.4-13.8,4.9a6.46,6.46,0,0,0-.2,6.7A8.33,8.33,0,0,0,43.3,29H39.1A11.61,11.61,0,0,0,27.5,40.6v9.1A79.84,79.84,0,0,0,15.9,157.8l-6.7,5.5a4.83,4.83,0,0,0-1.7,3.1,5.24,5.24,0,0,0,1,3.4l12.7,15.3a4.6,4.6,0,0,0,3.6,1.7,4.39,4.39,0,0,0,2.7-.9l10.6-7.8A79.94,79.94,0,0,0,160,110,78,78,0,0,0,134.7,51.5ZM123.2,31a9.6,9.6,0,0,1,9.6,9.6v66.9a9.6,9.6,0,0,1-9.6,9.6H82.3v-39h6.5a9.56,9.56,0,0,0,9.5-9.5V31ZM66.8,31H96.3V68.5A7.55,7.55,0,0,1,88.8,76H74.3a7.55,7.55,0,0,1-7.5-7.5Zm41.6-15c5.7-.3,10.2,1.2,12,4a4.43,4.43,0,0,1,.1,4.7c-1.5,2.7-5.3,4.3-10.2,4.3h-27A35.3,35.3,0,0,1,108.4,16ZM41.9,24.7A4.43,4.43,0,0,1,42,20c1.8-2.8,6.3-4.3,12-4,13.7.8,22.1,9.4,25.1,13h-27C47.2,29,43.4,27.4,41.9,24.7ZM29.8,40.6A9.6,9.6,0,0,1,39.4,31H64.8V68.5A9.56,9.56,0,0,0,74.3,78h6v39H39.4a9.6,9.6,0,0,1-9.6-9.6ZM26.6,184.3a2.75,2.75,0,0,1-3.6-.4L10.3,168.6a2.56,2.56,0,0,1-.6-1.9,3.1,3.1,0,0,1,.9-1.8l39.7-32.6a9.71,9.71,0,0,1,6.1-2.2,8.42,8.42,0,0,1,2.7.4l31,9.1a6.85,6.85,0,0,1,4.3,3.5,7.25,7.25,0,0,1,.5,5.6,7.17,7.17,0,0,1-8.6,4.9l-24.5-5.9a1,1,0,1,0-.5,1.9l24.5,5.9a9.3,9.3,0,0,0,10.1-4.2l31.8-17.4a8.19,8.19,0,0,1,10.6,2.6,8.07,8.07,0,0,1-2.6,11.5L91.9,174.3a10.73,10.73,0,0,1-8.2,1.2l-27.8-6.8a13.63,13.63,0,0,0-11.7,2.5ZM80.3,188a77.61,77.61,0,0,1-40.2-11.2l5.6-4.1a11.55,11.55,0,0,1,10-2.1l27.8,6.8a12.77,12.77,0,0,0,9.7-1.5L137,149.6a10.33,10.33,0,0,0,4.7-6.5,10,10,0,0,0-1.5-7.9A10.09,10.09,0,0,0,127,132L97.3,148.3a9.52,9.52,0,0,0-.9-6.2,9.41,9.41,0,0,0-5.5-4.5l-31-9.1a11.29,11.29,0,0,0-10.6,2.2L17.9,156.5A77.85,77.85,0,0,1,28,52.4v55.1a11.61,11.61,0,0,0,11.6,11.6h83.8A11.61,11.61,0,0,0,135,107.5V54.3A77.8,77.8,0,0,1,158.6,110C158.3,153,123.3,188,80.3,188Z"/><path class="cls-1" d="M81.3,21a.94.94,0,0,0,1-1V1a1,1,0,0,0-2,0V20A.94.94,0,0,0,81.3,21Z"/><path class="cls-1" d="M85.3,18a.91.91,0,0,0,.7-.3l8-8a1,1,0,1,0-1.4-1.4l-8,8a1,1,0,0,0,0,1.4A.91.91,0,0,0,85.3,18Z"/><path class="cls-1" d="M76.6,17.7a1,1,0,0,0,1.4,0,1,1,0,0,0,0-1.4l-8-8a1,1,0,0,0-1.4,1.4Z"/></g></g></g></svg>