<svg xmlns="http://www.w3.org/2000/svg" viewBox="0 0 182 164"><defs><style>.cls-1{fill:#001a3a;}</style></defs><title>step_3</title><g id="Слой_2" data-name="Слой 2"><g id="Слой_1-2" data-name="Слой 1"><g id="_001a3a" data-name="#001a3a"><path class="cls-1" d="M174.1,79.1h-3.2a82.27,82.27,0,0,0-2.8-16.6,12.94,12.94,0,0,0,9-12.3V12.9A12.93,12.93,0,0,0,164.2,0H50.9A12.93,12.93,0,0,0,38,12.9V24.2A79.9,79.9,0,0,0,11,84c0,1,0,2,.1,3h-3A8.07,8.07,0,0,0,0,95.1v48.8A8.07,8.07,0,0,0,8.1,152H49a79.2,79.2,0,0,0,42,12,80.1,80.1,0,0,0,70.4-42H174a8,8,0,0,0,8-8V87A7.85,7.85,0,0,0,174.1,79.1ZM40.1,13A10.93,10.93,0,0,1,51,2.1H164.3A10.93,10.93,0,0,1,175.2,13V50.3a10.93,10.93,0,0,1-10.9,10.9H137.1a.91.91,0,0,0-.7.3L110.9,86.1l5.9-23.6a1,1,0,0,0-.2-.9.91.91,0,0,0-.8-.4H50.9A10.93,10.93,0,0,1,40,50.3V13ZM2.1,144V95.2a6.06,6.06,0,0,1,6.1-6.1h30v61H8.2A6.06,6.06,0,0,1,2.1,144ZM60,89.1a6.06,6.06,0,0,1,6.1,6.1V144a6.06,6.06,0,0,1-6.1,6.1H54.1v-61Zm-7.9,61H40.2v-61H52.1Zm39,12a77.14,77.14,0,0,1-38.2-10H60a8.14,8.14,0,0,0,7.6-5.3h44.9a7.49,7.49,0,0,0,7.5-7.5,7.68,7.68,0,0,0-3-6,7.53,7.53,0,0,0,1.1-13.5,7.52,7.52,0,0,0,3.7-6.5,7.39,7.39,0,0,0-3-6,7.39,7.39,0,0,0,3-6,7.49,7.49,0,0,0-7.5-7.5H92.5l7.1-16.4a8.1,8.1,0,0,0,.1-6.3,7.8,7.8,0,0,0-4.4-4.5,8.1,8.1,0,0,0-6.3-.1,7.8,7.8,0,0,0-4.5,4.4l-10,23H67.9a8.08,8.08,0,0,0-8-6.9H13.1c0-1-.1-2-.1-3A77.75,77.75,0,0,1,38,26.8V50.1A12.93,12.93,0,0,0,50.9,63h63.6l-5.8,23a1.76,1.76,0,0,0,.8,2,1.49,1.49,0,0,0,.9.2,1.66,1.66,0,0,0,1.2-.5l25.7-24.8h26.8a11.08,11.08,0,0,0,1.9-.2,78.41,78.41,0,0,1,2.8,16.2H147.1a8,8,0,0,0-8,8v27a8,8,0,0,0,8,8h12.1A78,78,0,0,1,91.1,162.1Zm-.9-66.5a1,1,0,0,0,.8.5h23.3a5.49,5.49,0,0,1,2,10.6,1,1,0,0,0-.6.9,1,1,0,0,0,.6.9,5.43,5.43,0,0,1,3.5,5.1,5.55,5.55,0,0,1-5.5,5.5,1,1,0,1,0,0,2,5.5,5.5,0,0,1,0,11h-1.8a1,1,0,0,0,0,2,5.5,5.5,0,0,1,0,11H68.1V96.3h7.2a.87.87,0,0,0,.9-.6L86.4,72.1a6.45,6.45,0,0,1,3.4-3.3,6.15,6.15,0,0,1,4.8.1,6.45,6.45,0,0,1,3.3,3.4,6.15,6.15,0,0,1-.1,4.8L90.1,94.9C90,94.9,90.1,95.3,90.2,95.6Zm89.9,18.5a6,6,0,0,1-6,6h-27a6,6,0,0,1-6-6v-27a6,6,0,0,1,6-6h27a6,6,0,0,1,6,6Z"/><path class="cls-1" d="M156.6,29.1a5.5,5.5,0,1,0-5.5-5.5A5.55,5.55,0,0,0,156.6,29.1Zm0-9a3.5,3.5,0,1,1-3.5,3.5A3.54,3.54,0,0,1,156.6,20.1Z"/><path class="cls-1" d="M133.6,29.1a5.5,5.5,0,1,0-5.5-5.5A5.55,5.55,0,0,0,133.6,29.1Zm0-9a3.5,3.5,0,1,1-3.5,3.5A3.54,3.54,0,0,1,133.6,20.1Z"/><path class="cls-1" d="M111.6,29.1a5.5,5.5,0,1,0-5.5-5.5A5.55,5.55,0,0,0,111.6,29.1Zm0-9a3.5,3.5,0,1,1-3.5,3.5A3.54,3.54,0,0,1,111.6,20.1Z"/><path class="cls-1" d="M53.1,24.1h39a1,1,0,0,0,0-2h-39a1,1,0,0,0,0,2Z"/><path class="cls-1" d="M53.1,42.1h108a1,1,0,0,0,0-2H53.1a1,1,0,0,0,0,2Z"/><path class="cls-1" d="M169.3,89.1c-4.4,0-7.6,3.3-9,5.2-1.4-1.9-4.6-5.2-9-5.2a3.45,3.45,0,0,0-3.4,2.3c-1.6,4.2,2.3,13.8,11.7,22.4a1,1,0,0,0,1.4,0c9.4-8.7,13.4-18.2,11.7-22.4A3.37,3.37,0,0,0,169.3,89.1Zm-9,22.6c-8.7-8.2-11.7-16.6-10.5-19.6a1.5,1.5,0,0,1,1.5-1c4.8,0,8.1,5.5,8.1,5.5a1.05,1.05,0,0,0,.9.5h0a1.05,1.05,0,0,0,.9-.5c0-.1,3.3-5.5,8.1-5.5a1.35,1.35,0,0,1,1.5,1C172,95.1,169,103.5,160.3,111.7Z"/></g></g></g></svg>