<svg xmlns="http://www.w3.org/2000/svg" viewBox="0 0 196 171.8"><defs><style>.cls-1{fill:#001a3a;}</style></defs><title>3</title><g id="Слой_2" data-name="Слой 2"><g id="Слой_1-2" data-name="Слой 1"><g id="_001a3a" data-name="#001a3a"><path class="cls-1" d="M167.4,23.3a7,7,0,0,0-7.1.3l-7.9,5.2A79.85,79.85,0,0,0,40.5,18H11A11,11,0,0,0,0,29V70A11,11,0,0,0,11,81h0a80.27,80.27,0,0,0,47,71.9v6.7a12.71,12.71,0,0,0,25.4.1c2.5.2,5,.4,7.6.4A79.45,79.45,0,0,0,143.9,140l16.9,9a7.22,7.22,0,0,0,3.2.8,6.77,6.77,0,0,0,3.6-1,7,7,0,0,0,3.4-5.9V29.4A6.9,6.9,0,0,0,167.4,23.3ZM133.9,132.4a.75.75,0,0,0,.1-.5V43.3l26-17.1V146.3ZM95.8,68.5,132,44.6v86.7L95.8,112ZM91,2.1a77.9,77.9,0,0,1,59.7,27.8L122,48.8V29.1a11,11,0,0,0-11-11H43.8A77.66,77.66,0,0,1,91,2.1ZM2,70.1v-41a9,9,0,0,1,9-9H111a9,9,0,0,1,9,9v21l-24.4,16a7.22,7.22,0,0,0-14.3.8H41.8A12.92,12.92,0,0,0,28.9,79h-18A8.79,8.79,0,0,1,2,70.1Zm40.4,41.6V68.9h39v42.8Zm-2-.1A10.9,10.9,0,0,1,31,100.8v-21A10.9,10.9,0,0,1,40.4,69Zm43,1.1V67.5a5.2,5.2,0,1,1,10.4,0v46.6a5.2,5.2,0,0,1-10.4,0ZM29,94.1H26.7c-2.6,0-4.7-1.8-4.7-4s2.1-4,4.7-4H29Zm-16-13H29v3H26.7c-3.7,0-6.7,2.7-6.7,6s3,6,6.7,6H29v4.7a12.93,12.93,0,0,0,12.9,12.9H58v37A78.14,78.14,0,0,1,13,81.1Zm68.4,78.5a10.71,10.71,0,0,1-21.4,0V113.7H81.3v45.9Zm9.6-1.5a63.39,63.39,0,0,1-7.6-.4V119.1a7.09,7.09,0,0,0,5.2,2.2,7.19,7.19,0,0,0,7.2-7l46.3,24.6A77.3,77.3,0,0,1,91,158.1Zm78-15.2a4.91,4.91,0,0,1-2.4,4.2,4.71,4.71,0,0,1-4.6.2V25a4.88,4.88,0,0,1,4.4.1,4.93,4.93,0,0,1,2.6,4.3Z"/><path class="cls-1" d="M195,89.1H176a1,1,0,0,0,0,2h19a1,1,0,0,0,0-2Z"/><path class="cls-1" d="M176.2,78.2h.3l13.8-4.1a1,1,0,1,0-.5-1.9L176,76.3a1.09,1.09,0,0,0-.7,1.2A1,1,0,0,0,176.2,78.2Z"/><path class="cls-1" d="M190.3,106.2l-13.8-4.1a1,1,0,0,0-.5,1.9l13.8,4.1h.3a1.2,1.2,0,0,0,1-.7A1.3,1.3,0,0,0,190.3,106.2Z"/><path class="cls-1" d="M12,33.1h95a1,1,0,0,0,0-2H12a1,1,0,0,0,0,2Z"/><path class="cls-1" d="M12,44.1h95a1,1,0,0,0,0-2H12a1,1,0,0,0,0,2Z"/><path class="cls-1" d="M12,56.1h95a1,1,0,0,0,0-2H12a1,1,0,1,0,0,2Z"/></g></g></g></svg>