<svg xmlns="http://www.w3.org/2000/svg" viewBox="0 0 159.9 181.9"><defs><style>.cls-1{fill:#001a3a;}</style></defs><title>5</title><g id="Слой_2" data-name="Слой 2"><g id="Слой_1-2" data-name="Слой 1"><g id="_001a3a" data-name="#001a3a"><path class="cls-1" d="M159.9,90.9a79.6,79.6,0,0,0-24-57V11.3A11.35,11.35,0,0,0,124.6,0H34.3A11.35,11.35,0,0,0,23,11.3V34.9A79.74,79.74,0,0,0,7,123.6v26.2a6.06,6.06,0,0,0,6.1,6.1H33.4A76.12,76.12,0,0,0,47,163.7v9.4a8.81,8.81,0,0,0,8.8,8.8h48.4a8.81,8.81,0,0,0,8.8-8.8v-9.4a76.58,76.58,0,0,0,13.6-7.9h20.3a6.06,6.06,0,0,0,6.1-6.1v-26A80.93,80.93,0,0,0,159.9,90.9ZM24.9,11.2a9.35,9.35,0,0,1,9.3-9.3h90.3a9.35,9.35,0,0,1,9.3,9.3V36.5a9.35,9.35,0,0,1-9.3,9.3h-4.7a.94.94,0,0,0-1,1V62L105.6,46.1a1.23,1.23,0,0,0-.8-.4H86a.89.89,0,0,0-.8.5l-5.4,8.6-5.4-8.6a1,1,0,0,0-.8-.5H53.9a.91.91,0,0,0-.8.4L39.9,62V46.9a.94.94,0,0,0-1-1H34.2a9.35,9.35,0,0,1-9.3-9.3ZM18.3,121.9a.94.94,0,0,0-1,1v31H13a4.06,4.06,0,0,1-4.1-4.1V120.5A16.52,16.52,0,0,1,25.4,104H36.3a16.43,16.43,0,0,1,16.3,14.3,27.26,27.26,0,0,0-5.7,16.8V154H44.4V123a1,1,0,0,0-2,0v31H19.3V123A1,1,0,0,0,18.3,121.9Zm-2.5-35a15,15,0,1,1,15,15A15,15,0,0,1,15.8,86.9Zm21.1,69h10v5.6A75.24,75.24,0,0,1,36.9,155.9Zm73.9,17.3A6.81,6.81,0,0,1,104,180H98.3V136.4a1,1,0,0,0-2,0V180h-33V136.4a1,1,0,0,0-2,0V180H55.6a6.81,6.81,0,0,1-6.8-6.8V135.1a25.48,25.48,0,0,1,25.5-25.5H85.2a25.48,25.48,0,0,1,25.5,25.5v38.1ZM79.9,107.5a21.3,21.3,0,1,1,21.3-21.3A21.32,21.32,0,0,1,79.9,107.5Zm32.9,54.1v-5.7h10.1A90.52,90.52,0,0,1,112.8,161.6Zm38-11.8a4.06,4.06,0,0,1-4.1,4.1h-4.3v-31a1,1,0,0,0-2,0v31H117.3v-31a1,1,0,0,0-2,0v31h-2.5V135a27.34,27.34,0,0,0-5.8-16.8,16.58,16.58,0,0,1,16.3-14.3h10.9a16.52,16.52,0,0,1,16.5,16.5v29.4Zm-37-62.9a15,15,0,1,1,15,15A15,15,0,0,1,113.8,86.9Zm22.7,15.2a17,17,0,1,0-15.4,0,18.54,18.54,0,0,0-15.8,14.2,27.26,27.26,0,0,0-16.6-8.5,23.3,23.3,0,1,0-17.8,0,27,27,0,0,0-16.6,8.5,18.42,18.42,0,0,0-15.8-14.2,17,17,0,1,0-15.4,0A18.6,18.6,0,0,0,6.9,118.6a77.67,77.67,0,0,1,16-80.9A11.38,11.38,0,0,0,34.2,47.9h3.7v17a1,1,0,0,0,.7.9,1.13,1.13,0,0,0,1.1-.3L54.4,47.9H73.1l6,9.5a1,1,0,0,0,1.7,0l6-9.5h17.7l14.7,17.6a1.23,1.23,0,0,0,.8.4.37.37,0,0,0,.3-.1,1,1,0,0,0,.7-.9v-17h3.7A11.27,11.27,0,0,0,136,36.7a77.7,77.7,0,0,1,22,54.2,76,76,0,0,1-5.2,27.9A18.52,18.52,0,0,0,136.5,102.1Z"/><path class="cls-1" d="M80.2,33.5a9.7,9.7,0,1,0-9.7-9.7A9.71,9.71,0,0,0,80.2,33.5Zm0-17.3a7.7,7.7,0,1,1-7.7,7.7A7.7,7.7,0,0,1,80.2,16.2Z"/><path class="cls-1" d="M109.7,28.5a5.2,5.2,0,1,0-5.2-5.2A5.23,5.23,0,0,0,109.7,28.5Zm0-8.3a3.2,3.2,0,1,1-3.2,3.2A3.22,3.22,0,0,1,109.7,20.2Z"/><path class="cls-1" d="M45.7,30.5a5.2,5.2,0,1,0-5.2-5.2A5.23,5.23,0,0,0,45.7,30.5Zm0-8.3a3.2,3.2,0,1,1-3.2,3.2A3.22,3.22,0,0,1,45.7,22.2Z"/></g></g></g></svg>