<svg xmlns="http://www.w3.org/2000/svg" viewBox="0 0 182 152"><defs><style>.cls-1{fill:#001a3a;}</style></defs><title>share_knowlenge</title><g id="Слой_2" data-name="Слой 2"><g id="_001a3a" data-name="#001a3a"><path class="cls-1" d="M121.74,101.4a7.48,7.48,0,0,0-7.47-7.46H92.5l7.12-16.39A8.26,8.26,0,0,0,84.47,71l-10,23H67.91a8.09,8.09,0,0,0-8-6.94H8.08A8.1,8.1,0,0,0,0,95.08v48.84A8.1,8.1,0,0,0,8.08,152H59.92a8.08,8.08,0,0,0,7.56-5.26h44.94a7.46,7.46,0,0,0,4.5-13.42A7.46,7.46,0,0,0,118,119.88a7.49,7.49,0,0,0,3.74-6.47,7.4,7.4,0,0,0-3-6A7.43,7.43,0,0,0,121.74,101.4ZM52,89v61H40.08V89ZM2,143.92V95.08A6.09,6.09,0,0,1,8.08,89h30v61h-30A6.09,6.09,0,0,1,2,143.92Zm64,0A6.09,6.09,0,0,1,59.92,150H54V89h5.92A6.09,6.09,0,0,1,66,95.08Zm50.27-35.58a5.46,5.46,0,0,1-2,10.54,1,1,0,1,0,0,2,5.47,5.47,0,1,1,0,10.93h-1.85a1,1,0,0,0,0,2,5.47,5.47,0,1,1,0,10.93H68a7.38,7.38,0,0,0,0-.82v-48h7.16a1,1,0,0,0,.91-.61L86.3,71.77a6.24,6.24,0,0,1,3.44-3.33,6.26,6.26,0,0,1,8,8.31L90.06,94.54a1,1,0,0,0,.08.94,1,1,0,0,0,.84.46h23.29a5.46,5.46,0,0,1,2,10.54,1,1,0,0,0,0,1.86Z"/><path class="cls-1" d="M177,50.13V12.88A12.9,12.9,0,0,0,164.13,0H50.88A12.9,12.9,0,0,0,38,12.88V50.13A12.9,12.9,0,0,0,50.88,63h63.59l-5.76,23a1.78,1.78,0,0,0,.85,2,1.81,1.81,0,0,0,.9.24,1.77,1.77,0,0,0,1.25-.51L137.37,63h26.76A12.89,12.89,0,0,0,177,50.13ZM137,61a1,1,0,0,0-.69.28L110.82,85.86l5.9-23.62a1,1,0,0,0-.18-.86,1,1,0,0,0-.79-.38H50.88A10.89,10.89,0,0,1,40,50.13V12.88A10.89,10.89,0,0,1,50.88,2H164.13A10.89,10.89,0,0,1,175,12.88V50.13A10.89,10.89,0,0,1,164.13,61Z"/><path class="cls-1" d="M174,79H147a8,8,0,0,0-8,8v27a8,8,0,0,0,8,8h27a8,8,0,0,0,8-8V87A8,8,0,0,0,174,79Zm6,35a6,6,0,0,1-6,6H147a6,6,0,0,1-6-6V87a6,6,0,0,1,6-6h27a6,6,0,0,1,6,6Z"/><path class="cls-1" d="M156.5,18a5.5,5.5,0,1,0,5.5,5.5A5.51,5.51,0,0,0,156.5,18Zm0,9a3.5,3.5,0,1,1,3.5-3.5A3.5,3.5,0,0,1,156.5,27Z"/><path class="cls-1" d="M133.5,29a5.5,5.5,0,1,0-5.5-5.5A5.51,5.51,0,0,0,133.5,29Zm0-9a3.5,3.5,0,1,1-3.5,3.5A3.5,3.5,0,0,1,133.5,20Z"/><path class="cls-1" d="M111.5,29a5.5,5.5,0,1,0-5.5-5.5A5.51,5.51,0,0,0,111.5,29Zm0-9a3.5,3.5,0,1,1-3.5,3.5A3.5,3.5,0,0,1,111.5,20Z"/><path class="cls-1" d="M53,24H92a1,1,0,0,0,0-2H53a1,1,0,0,0,0,2Z"/><path class="cls-1" d="M161,40H53a1,1,0,0,0,0,2H161a1,1,0,0,0,0-2Z"/><path class="cls-1" d="M169.22,89c-4.4,0-7.56,3.34-9,5.23-1.44-1.89-4.6-5.23-9-5.23a3.46,3.46,0,0,0-3.41,2.3c-1.64,4.23,2.3,13.78,11.74,22.44a1,1,0,0,0,.67.26,1,1,0,0,0,.68-.26c9.44-8.66,13.38-18.21,11.73-22.44A3.46,3.46,0,0,0,169.22,89Zm-9,22.63C151.56,103.41,148.51,95,149.68,92a1.47,1.47,0,0,1,1.54-1c4.85,0,8.11,5.45,8.14,5.5a1,1,0,0,0,.86.5h0a1,1,0,0,0,.87-.5s3.26-5.5,8.13-5.5a1.49,1.49,0,0,1,1.55,1C171.93,95,168.89,103.41,160.22,111.63Z"/></g></g></svg>