<svg xmlns="http://www.w3.org/2000/svg" viewBox="0 0 134.1 186.77"><defs><style>.cls-1{fill:#001a3a;}</style></defs><title>test</title><g id="Слой_2" data-name="Слой 2"><g id="_001a3a" data-name="#001a3a"><path class="cls-1" d="M132.34,135.27A10.15,10.15,0,0,0,119.15,132L89.47,148.3A9.27,9.27,0,0,0,83,137.57l-31-9.1a11.56,11.56,0,0,0-10.61,2.17L1.68,163.29a4.6,4.6,0,0,0-.62,6.49L13.75,185.1a4.61,4.61,0,0,0,3.56,1.67,4.56,4.56,0,0,0,2.73-.9l17.88-13.18a11.66,11.66,0,0,1,10-2.11l27.8,6.84A12.76,12.76,0,0,0,85.38,176l43.78-26.27a10.15,10.15,0,0,0,3.18-14.42Zm-.44,7.46a8,8,0,0,1-3.77,5.25L84.35,174.25a10.78,10.78,0,0,1-8.17,1.23l-27.8-6.85a13.7,13.7,0,0,0-11.67,2.46L18.85,184.26a2.62,2.62,0,0,1-3.56-.43L2.6,168.51A2.65,2.65,0,0,1,2,166.6,2.59,2.59,0,0,1,3,164.83l39.68-32.65a9.56,9.56,0,0,1,8.78-1.79l31,9.1a7.26,7.26,0,0,1,4.89,9.09,7.27,7.27,0,0,1-8.63,4.92l-24.45-5.89a1,1,0,1,0-.47,1.95l24.45,5.88a9.28,9.28,0,0,0,10.11-4.24l31.75-17.42a8.14,8.14,0,0,1,10.58,2.62A8,8,0,0,1,131.9,142.73Z"/><path class="cls-1" d="M89.5,90v13a8,8,0,0,0,8,8h13a8,8,0,0,0,8-8V90a8,8,0,0,0-8-8h-13A8,8,0,0,0,89.5,90Zm8-6h13a6,6,0,0,1,6,6v13a6,6,0,0,1-6,6h-13a6,6,0,0,1-6-6V90A6,6,0,0,1,97.5,84Z"/><path class="cls-1" d="M103.14,105.47a1,1,0,0,0,.68.26,1,1,0,0,0,.67-.26c6.57-6,8.93-12.3,7.82-15.15a2.62,2.62,0,0,0-2.56-1.73c-2.79,0-4.85,1.92-5.93,3.24-1.09-1.32-3.14-3.24-5.93-3.24a2.62,2.62,0,0,0-2.56,1.73C94.22,93.17,96.58,99.45,103.14,105.47ZM97.19,91a.64.64,0,0,1,.7-.45c3,0,5,3.42,5.07,3.45a1,1,0,0,0,.86.5,1,1,0,0,0,.86-.5s2-3.45,5.07-3.45a.62.62,0,0,1,.69.45c.71,1.81-1.27,7.14-6.62,12.32C98.47,98.18,96.49,92.85,97.19,91Z"/><path class="cls-1" d="M31.6,119h83.77A11.58,11.58,0,0,0,127,107.43V40.57A11.58,11.58,0,0,0,115.37,29H111a8.83,8.83,0,0,0,3.4-3.32,6.48,6.48,0,0,0-.19-6.74c-2.2-3.5-7.22-5.3-13.77-4.94A36.9,36.9,0,0,0,73.38,28.44,36.85,36.85,0,0,0,46.32,14c-6.56-.36-11.58,1.44-13.78,4.94a6.48,6.48,0,0,0-.19,6.74A8.83,8.83,0,0,0,35.75,29H31.6A11.59,11.59,0,0,0,20,40.57v66.86A11.59,11.59,0,0,0,31.6,119Zm83.77-88A9.59,9.59,0,0,1,125,40.57v66.86a9.59,9.59,0,0,1-9.58,9.57H74.49V78H81a9.51,9.51,0,0,0,9.5-9.5V31ZM59,31H88.5V68.5A7.5,7.5,0,0,1,81,76H66.52A7.51,7.51,0,0,1,59,68.5Zm41.54-15c5.72-.32,10.19,1.18,12,4a4.45,4.45,0,0,1,.13,4.7C111.18,27.4,107.38,29,102.5,29h-27C78.41,25.42,86.81,16.76,100.56,16ZM34.1,24.71a4.45,4.45,0,0,1,.14-4.7c1.77-2.83,6.25-4.33,12-4,13.72.76,22.13,9.42,25.05,13h-27C39.39,29,35.59,27.4,34.1,24.71ZM22,40.57A9.59,9.59,0,0,1,31.6,31H57V68.5a9.51,9.51,0,0,0,9.5,9.5h6v39H31.6A9.59,9.59,0,0,1,22,107.43Z"/><path class="cls-1" d="M73.5,21a1,1,0,0,0,1-1V1a1,1,0,0,0-2,0V20A1,1,0,0,0,73.5,21Z"/><path class="cls-1" d="M77.5,18a1,1,0,0,0,.71-.29l8-8a1,1,0,0,0,0-1.42,1,1,0,0,0-1.41,0l-8,8a1,1,0,0,0,0,1.42A1,1,0,0,0,77.5,18Z"/><path class="cls-1" d="M68.8,17.71a1,1,0,0,0,.7.29,1,1,0,0,0,.71-.29,1,1,0,0,0,0-1.42l-8-8A1,1,0,1,0,60.8,9.71Z"/></g></g></svg>