<?xml version="1.0" encoding="UTF-8"?> <!-- Generator: Adobe Illustrator 19.0.0, SVG Export Plug-In . SVG Version: 6.00 Build 0) --> <svg xmlns="http://www.w3.org/2000/svg" xmlns:xlink="http://www.w3.org/1999/xlink" id="Layer_1" x="0px" y="0px" viewBox="-381 204.3 196 153.7" style="enable-background:new -381 204.3 196 153.7;" xml:space="preserve"> <style type="text/css"> .st0{fill:#007368;} </style> <title>3_1</title> <g id="Слой_2"> <g id="_052b5f"> <path class="st0" d="M-213.6,209.5c-2.2-1.2-5-1.1-7.1,0.3L-259,235v-19.7c0-6.1-4.9-11-11-11h-100c-6.1,0-11,4.9-11,11v41 c0,6.1,4.9,11,11,11h18v3h-2.3c-3.7,0-6.7,2.7-6.7,6s3,6,6.7,6h2.3v4.7c0,7.1,5.8,12.9,12.9,12.9h16.1v45.9c0.2,7,6,12.5,13,12.3 c6.7-0.2,12.1-5.6,12.3-12.3v-40.5c2.7,2.9,7.3,3,10.1,0.3c1.4-1.3,2.2-3.1,2.2-5l65.1,34.6c1,0.5,2.1,0.8,3.3,0.8 c1.3,0,2.5-0.4,3.6-1c2.1-1.2,3.4-3.5,3.4-5.9V215.6C-210,213-211.4,210.7-213.6,209.5z M-285.2,254.7l36.2-23.9v86.7l-36.2-19.3 V254.7z M-247,318.1v-88.6l26-17.1v120.1l-26.1-13.9C-247,318.4-247,318.3-247,318.1z M-379,256.3v-41c0-5,4-9,9-9h100 c5,0,9,4,9,9v21l-24.4,16c-0.7-3.9-4.4-6.5-8.3-5.8c-3.2,0.6-5.7,3.3-5.9,6.6h-39.5c-6.9,0-12.5,5.4-12.9,12.2h-18 C-375,265.3-379,261.3-379,256.3z M-338.6,255.1h39v42.8h-39V255.1z M-354.3,280.3c-2.6,0-4.7-1.8-4.7-4c0-2.2,2.1-4,4.7-4h2.3v8 H-354.3z M-350,287v-21c0-5.4,4-10,9.4-10.8v42.5C-346,297.1-350,292.4-350,287z M-299.6,345.8c-0.3,5.9-5.3,10.4-11.2,10.1 c-5.5-0.3-9.8-4.6-10.1-10.1v-45.9h21.3C-299.6,299.9-299.6,345.8-299.6,345.8z M-287.2,300.3c0,2.9-2.3,5.2-5.2,5.2 c-2.9,0-5.2-2.3-5.2-5.2c0,0,0,0,0,0v-46.7c0-2.9,2.3-5.2,5.2-5.2c2.9,0,5.2,2.3,5.2,5.2V300.3z M-212,329.1 c0,2.7-2.2,4.9-4.9,4.9c-0.7,0-1.4-0.2-2.1-0.5V211.3c0,0,0-0.1,0-0.1c2.5-1.2,5.4-0.1,6.5,2.4c0.3,0.7,0.5,1.4,0.5,2.1V329.1z"></path> <path class="st0" d="M-186,275.3h-19c-0.6,0-1,0.4-1,1c0,0.6,0.4,1,1,1h19c0.6,0,1-0.4,1-1C-185,275.7-185.4,275.3-186,275.3z"></path> <path class="st0" d="M-204.8,264.4c0.1,0,0.2,0,0.3,0l13.8-4.1c0.5-0.2,0.8-0.7,0.7-1.3c-0.2-0.5-0.7-0.8-1.3-0.7l-13.8,4.1 c-0.6,0.1-0.9,0.6-0.9,1.1C-205.8,264.1-205.3,264.5-204.8,264.4L-204.8,264.4z"></path> <path class="st0" d="M-190.7,292.4l-13.8-4.1c-0.5-0.2-1.1,0.1-1.2,0.7c-0.2,0.5,0.1,1.1,0.7,1.2l13.8,4.1 c0.5,0.2,1.1-0.1,1.3-0.7S-190.2,292.5-190.7,292.4L-190.7,292.4L-190.7,292.4z"></path> <path class="st0" d="M-369,219.3h95c0.6,0,1-0.4,1-1s-0.4-1-1-1h-95c-0.6,0-1,0.4-1,1S-369.6,219.3-369,219.3z"></path> <path class="st0" d="M-369,230.3h95c0.6,0,1-0.4,1-1s-0.4-1-1-1h-95c-0.6,0-1,0.4-1,1S-369.6,230.3-369,230.3z"></path> <path class="st0" d="M-274,242.3c0.6,0,1-0.4,1-1s-0.4-1-1-1h-95c-0.6,0-1,0.4-1,1s0.4,1,1,1H-274z"></path> </g> </g> </svg> 