<?xml version="1.0" encoding="UTF-8"?> <!-- Generator: Adobe Illustrator 19.0.0, SVG Export Plug-In . SVG Version: 6.00 Build 0) --> <svg xmlns="http://www.w3.org/2000/svg" xmlns:xlink="http://www.w3.org/1999/xlink" id="Layer_1" x="0px" y="0px" viewBox="-392 189 174 183" style="enable-background:new -392 189 174 183;" xml:space="preserve"> <style type="text/css"> .st0{fill:#007368;} </style> <title>8_1</title> <g id="Слой_2"> <g id="_052b5f"> <path class="st0" d="M-356.5,245.7c3.1-0.1,6-1.5,7.9-3.9c0.1,0.1,0.2,0.1,0.3,0.2c7.8,2.7,12.4,9.3,15,15.8 c0.2,0.5,0.8,0.7,1.3,0.6l0,0c0.5-0.2,0.7-0.8,0.5-1.3c-2.7-6.6-7.5-13.8-15.9-16.9c1.5-2.5,2.3-5.4,2.3-8.3 c0-7.6-5.1-13.8-11.3-13.8s-11.3,6.2-11.3,13.8c0,2.9,0.8,5.8,2.3,8.3c-6.4,2.3-10.7,7.1-13.6,12.2c-0.2,0.4-0.1,0.8,0.2,1.1l0,0 c0.4,0.4,0.9,0.4,1.3,0c0.1-0.1,0.1-0.1,0.2-0.2c2.8-5,7-9.4,13.1-11.5C-362.4,244.2-359.5,245.6-356.5,245.7z M-356.5,220 c5.1,0,9.3,5.3,9.3,11.8s-4.2,11.8-9.3,11.8c-5.1,0-9.3-5.3-9.3-11.8S-361.6,220-356.5,220z"></path> <path class="st0" d="M-290.1,313.4c4.3-5.6,6.6-12.6,6.5-19.7c0-15.4-10.1-27.9-22.6-27.9c-12.4,0-22.6,12.5-22.6,28 c-0.1,7.1,2.2,14,6.5,19.7c-23.8,8.6-31.6,35.6-34,48.4c-0.9,4.7,2.2,9.2,6.9,10c0.5,0.1,1,0.1,1.6,0.1h83.2c2.6,0,5-1.1,6.6-3.1 c1.6-1.9,2.3-4.5,1.8-7C-258.5,349-266.4,322-290.1,313.4z M-306.1,267.8c9.8,0,18,8.7,20.1,20.3c-15.2,1.3-19.8-9-20-9.5 c-0.1-0.4-0.5-0.6-0.8-0.6c-0.4,0-0.7,0.2-0.9,0.5c-4.7,7.8-14.9,9.4-18.4,9.8C-324.3,276.6-316,267.8-306.1,267.8L-306.1,267.8z M-326.5,290.3c3.1-0.2,13.8-1.6,19.5-9.4c2.1,3.2,8.1,10.3,21.3,9.2c0.1,1.2,0.2,2.4,0.2,3.7c0,14.3-9.2,26-20.6,26 s-20.6-11.7-20.6-26C-326.7,292.6-326.7,291.4-326.5,290.3L-326.5,290.3z M-259.5,367.6c-1.3,1.5-3.1,2.4-5.1,2.4h-83.2 c-3.6,0-6.6-2.9-6.6-6.6c0-0.4,0-0.8,0.1-1.2c2.9-15.5,11.1-39.8,33.5-47.2c7,8.1,19.2,9,27.3,2c0.7-0.6,1.4-1.3,2-2 c22.4,7.5,30.5,31.8,33.4,47.2C-257.7,364.1-258.2,366.1-259.5,367.6L-259.5,367.6z"></path> <path class="st0" d="M-245.2,243.1c1.5-2.5,2.2-5.4,2.2-8.3c0-7.6-5-13.8-11.2-13.8s-11.3,6.2-11.3,13.8c0,2.9,0.8,5.8,2.3,8.3 c-8.4,3.1-13.2,10.2-15.9,16.9c-0.2,0.5,0,1,0.5,1.3l0,0c0.5,0.2,1.1-0.1,1.3-0.6c2.6-6.5,7.2-13.1,15-15.8c0.1,0,0.2-0.1,0.3-0.2 c3.3,4.3,9.4,5.2,13.7,2c0.7-0.6,1.4-1.2,2-2c6.2,2.1,10.3,6.5,13.1,11.5c0.3,0.4,0.8,0.6,1.3,0.4c0.1,0,0.2-0.1,0.2-0.2l0,0 c0.3-0.3,0.4-0.8,0.2-1.1C-234.5,250.2-238.8,245.4-245.2,243.1z M-254.2,246.7c-5.1,0-9.3-5.3-9.3-11.8s4.1-11.8,9.2-11.8 s9.2,5.3,9.2,11.8S-249.1,246.7-254.2,246.7L-254.2,246.7z"></path> <path class="st0" d="M-354.9,275l13.9,36.4c0.2,0.4,0.5,0.6,0.9,0.6c0.1,0,0.2,0,0.4-0.1c0.5-0.2,0.8-0.8,0.6-1.3l-13.7-35.8 c19.8-1.8,34.3-19.3,32.5-39.1c-1.8-19.8-19.3-34.3-39.1-32.5c-19.8,1.8-34.3,19.3-32.5,39.1c1.7,18.5,17.2,32.7,35.9,32.7 C-355.6,275-355.3,275-354.9,275z M-390,239c0-18.8,15.2-34,34-34s34,15.2,34,34c0,17.8-13.7,32.6-31.5,33.9l-3.6-9.3 c-0.2-0.5-0.7-0.8-1.2-0.7c-0.5,0.2-0.8,0.7-0.7,1.2c0,0,0,0.1,0.1,0.1l3.3,8.6h-0.4C-374.8,273-390,257.8-390,239z"></path> <path class="st0" d="M-254,206c-19.9,0-36,16.2-36,36c0,18,13.4,33.3,31.3,35.6l-14.3,34.9c-0.2,0.5,0,1.1,0.5,1.3 c0.1,0.1,0.3,0.1,0.4,0.1c0.4,0,0.8-0.2,0.9-0.6l14.5-35.5c0.9,0.1,1.7,0.1,2.6,0.1c19.9,0,36-16.1,36-36S-234.1,206-254,206z M-254,276c-0.6,0-1.2,0-1.8,0l4.7-11.6c0.2-0.5,0-1.1-0.6-1.3s-1.1,0-1.3,0.5l-4.9,12.2c-18.6-1.9-32.2-18.6-30.2-37.3 c1.9-18.6,18.6-32.2,37.3-30.2s32.2,18.6,30.2,37.3C-222.4,262.7-236.8,275.8-254,276z"></path> <path class="st0" d="M-305.5,212c6.4,0,11.5-5.1,11.5-11.5s-5.1-11.5-11.5-11.5s-11.5,5.1-11.5,11.5 C-317,206.8-311.8,212-305.5,212z M-305.5,191c5.2,0,9.5,4.3,9.5,9.5s-4.3,9.5-9.5,9.5s-9.5-4.3-9.5-9.5 C-315,195.3-310.7,191-305.5,191z"></path> <path class="st0" d="M-305.5,328c-3.6,0-6.5,2.9-6.5,6.5s2.9,6.5,6.5,6.5s6.5-2.9,6.5-6.5C-299,330.9-301.9,328-305.5,328z M-305.5,339c-2.5,0-4.5-2-4.5-4.5s2-4.5,4.5-4.5s4.5,2,4.5,4.5C-301,337-303,339-305.5,339z"></path> <path class="st0" d="M-305.5,349c-3.6,0-6.5,2.9-6.5,6.5s2.9,6.5,6.5,6.5s6.5-2.9,6.5-6.5C-299,351.9-301.9,349-305.5,349z M-305.5,360c-2.5,0-4.5-2-4.5-4.5s2-4.5,4.5-4.5s4.5,2,4.5,4.5C-301,358-303,360-305.5,360z"></path> <path class="st0" d="M-306,219v41c0,0.6,0.4,1,1,1s1-0.4,1-1v-41c0-0.6-0.4-1-1-1S-306,218.4-306,219z"></path> <path class="st0" d="M-244.4,320.1l-16,6c-0.5,0.2-0.8,0.8-0.6,1.3c0.1,0.4,0.5,0.7,0.9,0.7c0.1,0,0.2,0,0.4-0.1l16-6 c0.5-0.2,0.8-0.8,0.6-1.3C-243.3,320.1-243.8,319.9-244.4,320.1L-244.4,320.1z"></path> <path class="st0" d="M-349,331c0.6,0,1-0.5,1-1c0-0.3-0.2-0.7-0.5-0.8l-17-11c-0.5-0.3-1.1-0.1-1.4,0.4c-0.3,0.4-0.1,1,0.3,1.3 l17,11C-349.4,330.9-349.2,331-349,331z"></path> </g> </g> </svg> 