<?xml version="1.0" encoding="UTF-8"?> <!-- Generator: Adobe Illustrator 19.0.0, SVG Export Plug-In . SVG Version: 6.00 Build 0) --> <svg xmlns="http://www.w3.org/2000/svg" xmlns:xlink="http://www.w3.org/1999/xlink" id="Layer_1" x="0px" y="0px" viewBox="-388 205 182 152" style="enable-background:new -388 205 182 152;" xml:space="preserve"> <style type="text/css"> .st0{fill:#007368;} </style> <title>share_knowlenge</title> <g id="Слой_2"> <g id="_001a3a"> <path class="st0" d="M-266.3,306.4c0-4.1-3.4-7.5-7.5-7.5h-21.8l7.1-16.4c1.6-4.3-0.5-9-4.8-10.7c-4-1.5-8.5,0.3-10.4,4.1l-10,23 h-6.6c-0.6-4-4-6.9-8-6.9h-51.8c-4.4,0-8,3.6-8.1,8v48.8c0,4.5,3.6,8.1,8.1,8.1h51.8c3.4,0,6.4-2.1,7.6-5.3h44.9 c4.1,0,7.5-3.3,7.5-7.4c0-2.3-1.1-4.6-3-6c3.9-1.5,5.8-5.8,4.3-9.6c-0.6-1.6-1.8-3-3.3-3.8c2.3-1.3,3.7-3.8,3.7-6.5 c0-2.4-1.1-4.6-3-6C-267.4,311-266.2,308.8-266.3,306.4z M-336,294v61h-11.9v-61H-336z M-386,348.9v-48.8c0-3.4,2.7-6.1,6.1-6.1 h30v61h-30C-383.3,355-386,352.3-386,348.9z M-322,348.9c0,3.4-2.7,6.1-6.1,6.1h-5.9v-61h5.9c3.4,0,6.1,2.7,6.1,6.1V348.9z M-271.7,313.3c2.8,1.1,4.2,4.3,3.1,7.1c-0.8,2.1-2.8,3.5-5.1,3.5c-0.6,0-1,0.4-1,1c0,0.6,0.4,1,1,1c3-0.1,5.6,2.2,5.7,5.2 c0.1,3-2.2,5.6-5.2,5.7c-0.2,0-0.3,0-0.5,0h-1.9c-0.6,0-1,0.4-1,1s0.4,1,1,1c3-0.1,5.6,2.2,5.7,5.2c0.1,3-2.2,5.6-5.2,5.7 c-0.2,0-0.3,0-0.5,0H-320c0-0.3,0-0.5,0-0.8v-48h7.2c0.4,0,0.8-0.2,0.9-0.6l10.2-23.5c0.7-1.5,1.9-2.7,3.4-3.3 c3.2-1.2,6.8,0.4,8.1,3.6c0.6,1.5,0.6,3.2-0.1,4.7l-7.7,17.8c-0.1,0.3-0.1,0.7,0.1,0.9c0.2,0.3,0.5,0.5,0.8,0.5h23.3 c3,0,5.5,2.4,5.5,5.5c0,2.2-1.4,4.3-3.5,5.1c-0.5,0.2-0.8,0.8-0.6,1.3C-272.2,313-272,313.2-271.7,313.3z"></path> <path class="st0" d="M-211,255.1v-37.3c0-7.1-5.8-12.9-12.9-12.9h-113.3c-7.1,0-12.9,5.8-12.9,12.9v37.3c0,7.1,5.8,12.9,12.9,12.9 h63.6l-5.8,23c-0.2,0.8,0.1,1.6,0.9,2c0.3,0.2,0.6,0.2,0.9,0.2c0.5,0,0.9-0.2,1.3-0.5l25.7-24.7h26.8 C-216.8,268-211,262.2-211,255.1z M-251,266c-0.3,0-0.5,0.1-0.7,0.3l-25.5,24.6l5.9-23.6c0.1-0.3,0-0.6-0.2-0.9 c-0.2-0.2-0.5-0.4-0.8-0.4h-64.9c-6,0-10.9-4.9-10.9-10.9v-37.3c0-6,4.9-10.9,10.9-10.9h113.3c6,0,10.9,4.9,10.9,10.9v37.3 c0,6-4.9,10.9-10.9,10.9H-251z"></path> <path class="st0" d="M-214,284h-27c-4.4,0-8,3.6-8,8v27c0,4.4,3.6,8,8,8h27c4.4,0,8-3.6,8-8v-27C-206,287.6-209.6,284-214,284z M-208,319c0,3.3-2.7,6-6,6h-27c-3.3,0-6-2.7-6-6v-27c0-3.3,2.7-6,6-6h27c3.3,0,6,2.7,6,6V319z"></path> <path class="st0" d="M-231.5,223c-3,0-5.5,2.5-5.5,5.5s2.5,5.5,5.5,5.5s5.5-2.5,5.5-5.5C-226,225.5-228.5,223-231.5,223z M-231.5,232c-1.9,0-3.5-1.6-3.5-3.5s1.6-3.5,3.5-3.5s3.5,1.6,3.5,3.5l0,0C-228,230.4-229.6,232-231.5,232z"></path> <path class="st0" d="M-254.5,234c3,0,5.5-2.5,5.5-5.5s-2.5-5.5-5.5-5.5s-5.5,2.5-5.5,5.5C-260,231.5-257.5,234-254.5,234z M-254.5,225c1.9,0,3.5,1.6,3.5,3.5s-1.6,3.5-3.5,3.5c-1.9,0-3.5-1.6-3.5-3.5S-256.4,225-254.5,225L-254.5,225z"></path> <path class="st0" d="M-276.5,234c3,0,5.5-2.5,5.5-5.5s-2.5-5.5-5.5-5.5s-5.5,2.5-5.5,5.5C-282,231.5-279.5,234-276.5,234z M-276.5,225c1.9,0,3.5,1.6,3.5,3.5s-1.6,3.5-3.5,3.5s-3.5-1.6-3.5-3.5S-278.4,225-276.5,225L-276.5,225z"></path> <path class="st0" d="M-335,229h39c0.6,0,1-0.4,1-1s-0.4-1-1-1h-39c-0.6,0-1,0.4-1,1S-335.6,229-335,229z"></path> <path class="st0" d="M-227,245h-108c-0.6,0-1,0.4-1,1s0.4,1,1,1h108c0.6,0,1-0.4,1-1S-226.4,245-227,245z"></path> <path class="st0" d="M-218.8,294c-4.4,0-7.6,3.3-9,5.2c-1.4-1.9-4.6-5.2-9-5.2c-1.5-0.1-2.9,0.9-3.4,2.3 c-1.6,4.2,2.3,13.8,11.7,22.4c0.2,0.2,0.4,0.3,0.7,0.3c0.3,0,0.5-0.1,0.7-0.3c9.4-8.7,13.4-18.2,11.7-22.4 C-215.9,294.9-217.3,293.9-218.8,294z M-227.8,316.6c-8.7-8.2-11.7-16.6-10.5-19.6c0.2-0.7,0.9-1.1,1.5-1c4.9,0,8.1,5.5,8.1,5.5 c0.2,0.3,0.5,0.5,0.9,0.5l0,0c0.4,0,0.7-0.2,0.9-0.5c0,0,3.3-5.5,8.1-5.5c0.7-0.1,1.3,0.3,1.6,1 C-216.1,300-219.1,308.4-227.8,316.6z"></path> </g> </g> </svg> 