<?xml version="1.0" encoding="UTF-8"?> <!-- Generator: Adobe Illustrator 19.0.0, SVG Export Plug-In . SVG Version: 6.00 Build 0) --> <svg xmlns="http://www.w3.org/2000/svg" xmlns:xlink="http://www.w3.org/1999/xlink" id="Layer_1" x="0px" y="0px" viewBox="-406 190 145.9 182" style="enable-background:new -406 190 145.9 182;" xml:space="preserve"> <style type="text/css"> .st0{fill:#007368;} </style> <title>5_1</title> <g id="Слой_2"> <g id="_052b5f"> <path class="st0" d="M-333,299.6c-12.9,0-23.3-10.4-23.4-23.3c0-12.9,10.4-23.3,23.3-23.4c12.9,0,23.3,10.4,23.4,23.3c0,0,0,0,0,0 C-309.7,289.2-320.1,299.6-333,299.6z M-333,255c-11.8,0-21.3,9.5-21.4,21.3s9.5,21.3,21.3,21.4s21.3-9.5,21.4-21.3c0,0,0,0,0,0 C-311.7,264.6-321.2,255-333,255z"></path> <path class="st0" d="M-332.7,223.6c-5.3,0-9.7-4.3-9.7-9.7c0-5.3,4.3-9.7,9.7-9.7c5.3,0,9.7,4.3,9.7,9.7c0,0,0,0,0,0 C-323,219.3-327.4,223.6-332.7,223.6z M-332.7,206.3c-4.2,0-7.7,3.4-7.7,7.7s3.4,7.7,7.7,7.7c4.2,0,7.7-3.4,7.7-7.6 C-325,209.8-328.4,206.3-332.7,206.3C-332.7,206.3-332.7,206.3-332.7,206.3z"></path> <path class="st0" d="M-303.2,218.6c-2.9,0-5.2-2.3-5.2-5.2c0-2.9,2.3-5.2,5.2-5.2s5.2,2.3,5.2,5.2c0,0,0,0,0,0 C-298,216.3-300.3,218.6-303.2,218.6z M-303.2,210.3c-1.8,0-3.2,1.4-3.2,3.2c0,1.8,1.4,3.2,3.2,3.2s3.2-1.4,3.2-3.2c0,0,0,0,0,0 C-300,211.7-301.4,210.3-303.2,210.3z"></path> <path class="st0" d="M-367.2,220.6c-2.9,0-5.2-2.3-5.2-5.2c0-2.9,2.3-5.2,5.2-5.2s5.2,2.3,5.2,5.2l0,0 C-362,218.3-364.3,220.6-367.2,220.6z M-367.2,212.3c-1.8,0-3.2,1.4-3.2,3.2c0,1.8,1.4,3.2,3.2,3.2s3.2-1.4,3.2-3.2c0,0,0,0,0,0 C-364,213.7-365.4,212.3-367.2,212.3C-367.2,212.3-367.2,212.3-367.2,212.3z"></path> <path class="st0" d="M-308.8,372h-48.4c-4.8,0-8.7-3.9-8.8-8.8v-38.1c0-15.2,12.3-27.5,27.5-27.5h10.9c15.2,0,27.5,12.3,27.5,27.5 v38.1C-300.1,368.1-304,372-308.8,372z M-338.5,299.6c-14.1,0-25.5,11.4-25.5,25.5v38.1c0,3.7,3,6.7,6.8,6.8h48.4 c3.7,0,6.7-3,6.8-6.8v-38.1c0-14.1-11.4-25.5-25.5-25.5H-338.5z"></path> <path class="st0" d="M-350.5,372c-0.6,0-1-0.4-1-1v-44.6c0-0.6,0.4-1,1-1s1,0.4,1,1V371C-349.5,371.6-350,372-350.5,372z"></path> <path class="st0" d="M-315.5,372c-0.6,0-1-0.4-1-1v-44.6c0-0.6,0.4-1,1-1c0.6,0,1,0.4,1,1V371C-314.5,371.6-315,372-315.5,372z"></path> <path class="st0" d="M-276.4,292.2c8.4-4.2,11.7-14.5,7.5-22.8c-4.2-8.4-14.5-11.7-22.8-7.5c-8.4,4.2-11.7,14.5-7.5,22.8 c1.6,3.2,4.3,5.9,7.5,7.5c-8.1,1-14.6,7.1-16,15.2c0.7,0.4,1.3,0.9,1.8,1.6c0.8-8.5,7.9-14.9,16.4-14.9h10.9 c9.1,0,16.5,7.4,16.5,16.5v29.3c0,2.3-1.8,4.1-4.1,4.1h-4.3v-31c0-0.6-0.4-1-1-1s-1,0.4-1,1v31h-23.1v-31c0-0.6-0.4-1-1-1 c-0.6,0-1,0.4-1,1v31h-3.3c0.1,0.4,0.1,0.8,0.1,1.3c0,0.2,0,0.5,0,0.8h34.5c3.4,0,6.1-2.7,6.1-6.1v-29.3 C-260.1,301.2-267.1,293.3-276.4,292.2z M-284,292c-8.3,0-15-6.7-15-15s6.7-15,15-15s15,6.7,15,15S-275.7,292-284,292L-284,292z"></path> <path class="st0" d="M-364.8,345.8c0-0.6,0-1.2,0-1.8h-3.8v-31c0-0.6-0.4-1-1-1s-1,0.4-1,1v31h-23.1v-31c0-0.6-0.4-1-1-1 c-0.6,0-1,0.4-1,1v31h-4.3c-2.3,0-4.1-1.8-4.1-4.1v-29.3c0-9.1,7.4-16.5,16.5-16.5c0,0,0,0,0,0h10.9c8.8,0,16.1,7,16.5,15.8 c0.4-0.8,1.1-1.4,1.9-1.8c-1.2-8.3-7.8-14.8-16.1-15.8c8.4-4.2,11.7-14.5,7.5-22.8s-14.5-11.7-22.8-7.5s-11.7,14.5-7.5,22.8 c1.6,3.2,4.3,5.9,7.5,7.5c-9.3,1.1-16.3,9-16.3,18.4v29.3c0,3.4,2.7,6.1,6.1,6.1h35.1C-364.7,345.9-364.8,345.8-364.8,345.8z M-397.1,277c0-8.3,6.7-15,15-15s15,6.7,15,15s-6.7,15-15,15S-397.1,285.3-397.1,277L-397.1,277z"></path> <path class="st0" d="M-293,256c-0.3,0-0.6-0.1-0.8-0.4l-14.7-17.6h-17.7l-6,9.5c-0.3,0.5-0.9,0.6-1.4,0.3 c-0.1-0.1-0.2-0.2-0.3-0.3l-5.9-9.5h-18.7l-14.7,17.6c-0.3,0.3-0.7,0.4-1.1,0.3c-0.4-0.1-0.7-0.5-0.7-0.9v-17h-3.7 c-6.3,0-11.3-5.1-11.3-11.3v-25.3c0-6.3,5.1-11.3,11.3-11.3h90.3c6.3,0,11.3,5.1,11.3,11.3v25.3c0,6.3-5.1,11.3-11.3,11.3h-3.7v17 c0,0.4-0.3,0.8-0.7,0.9C-292.8,256-292.9,256-293,256z M-326.8,236h18.8c0.3,0,0.6,0.1,0.8,0.4l13.2,15.9V237c0-0.6,0.4-1,1-1h4.7 c5.1,0,9.3-4.2,9.3-9.3v-25.3c0-5.1-4.2-9.3-9.3-9.3h-90.3c-5.1,0-9.3,4.2-9.3,9.3v25.3c0,5.1,4.2,9.3,9.3,9.3h4.7 c0.6,0,1,0.4,1,1v15.2l13.2-15.9c0.2-0.2,0.5-0.4,0.8-0.4h19.8c0.3,0,0.7,0.2,0.9,0.5l5.4,8.6l5.4-8.6 C-327.4,236.2-327.1,236-326.8,236z"></path> </g> </g> </svg> 