<?xml version="1.0" encoding="UTF-8"?> <!-- Generator: Adobe Illustrator 21.0.2, SVG Export Plug-In . SVG Version: 6.00 Build 0) --> <svg xmlns="http://www.w3.org/2000/svg" xmlns:xlink="http://www.w3.org/1999/xlink" id="Layer_1" x="0px" y="0px" viewBox="0 0 1341 413" style="enable-background:new 0 0 1341 413;" xml:space="preserve"> <style type="text/css"> .st0{fill:#FCC600;} .st1{fill:#F9423A;} .st2{fill:#732F7A;} .st3{fill:#FFFFFF;} </style> <g> <g> <path class="st0" d="M69.3,339.3L183.9,229c6.5-6.2,14.8-9.3,23.1-9.3c0.4,0,0.8,0,1.2,0c1.5-0.2,3.1-0.4,4.6-0.4 c7.6,0,15.3,2.8,21.3,8.5l56.4,53.9c12.3,11.7,12.7,31.2,1,43.5c-11.8,12.3-31.2,12.7-43.5,1l-34.7-33.2l-97.7,94 c-13.2,12.7-34.3,12.3-47-0.9C55.7,373.1,56.1,352,69.3,339.3z"></path> <path class="st1" d="M349.5,74.9L235,185.2c-6.5,6.2-14.8,9.3-23.1,9.3c-0.4,0-0.8,0-1.2,0c-1.5,0.2-3.1,0.4-4.6,0.4 c-7.6,0-15.3-2.8-21.3-8.5l-56.4-53.9c-12.3-11.8-12.7-31.2-1-43.5c11.8-12.3,31.2-12.7,43.5-1l34.7,33.2l97.7-94 c13.2-12.7,34.3-12.3,47,0.9C363.2,41.1,362.7,62.2,349.5,74.9z"></path> <path class="st2" d="M77.2,67l110.2,114.5c6.2,6.5,9.3,14.8,9.3,23.1c0,0.4,0,0.8,0,1.2c0.2,1.5,0.4,3.1,0.4,4.6 c0,7.6-2.8,15.3-8.6,21.3l-53.9,56.4c-11.8,12.3-31.2,12.7-43.5,1c-12.3-11.8-12.7-31.2-1-43.5l33.2-34.7l-94-97.7 c-12.7-13.2-12.3-34.3,0.9-47C43.5,53.4,64.5,53.8,77.2,67z"></path> <path class="st3" d="M239.3,207.1c0,17-13.8,30.7-30.7,30.7c-17,0-30.7-13.8-30.7-30.7c0-17,13.8-30.7,30.7-30.7 C225.5,176.4,239.3,190.1,239.3,207.1z"></path> </g> <g> <path d="M1295,147.8v118.9h-32.6V252c-8.3,10.7-16.3,17.2-34.9,17.9c-12.3-0.2-22.8-4.7-30.9-13.1c-8.6-8.8-12.9-21-12.9-36.3 v-72.7h32.6v69c0,7.5,2,13.1,5.9,16.9c1.6,1.6,3.5,2.9,5.6,3.8c2.9,1.4,6.4,2.1,10.3,2.1c7.5-0.1,13.3-2.3,17.7-6.9 c4.3-4.5,6.6-11.3,6.6-20.7v-64.1H1295z"></path> <path d="M990.2,162.5c-12.1-12-27.2-18-45.9-18.1c-18.8,0-33.9,6-45.9,18.1c-12.1,12.1-18,26.9-18.1,45c0,18.1,6,32.8,18,44.7 c12.1,11.9,27.2,17.8,46,17.8c18.8,0,33.9-5.9,46-17.8c12.1-11.9,18-26.6,18-44.7C1008.2,189.4,1002.2,174.6,990.2,162.5z M965.9,228.9c-5.7,5.7-12.9,8.6-21.7,8.6c-8.9,0-16-2.9-21.7-8.6c-5.7-5.8-8.5-12.8-8.5-21.6c0-8.7,2.8-15.8,8.5-21.7 c5.7-5.8,12.9-8.7,21.7-8.7c8.9,0,16,2.9,21.7,8.7c5.7,5.8,8.5,13,8.5,21.7C974.5,216.1,971.6,223.1,965.9,228.9z"></path> <path d="M831.7,163.1l0-15.3h-32.5v59.7v59.2h32.5v-15.1v-34.2h0.1c0-10.2,3.3-18.5,10-25.3c6.6-6.8,15-10.2,25.4-10.2v-0.2v-36.5 C867.1,145.2,845,146.5,831.7,163.1z"></path> <path d="M1143.9,162.5c-3.1-3.2-8-7.3-14.7-10.9c-4.8-2.6-15.7-7.6-30.1-7.4c-18.9,0.2-32.2,9.1-36.9,12.6c0,0.1-0.1,0.1-0.1,0.1 v-55.6h-32.5v165.5h32.5l0.1-14.7c8.7,11.2,22.7,17.5,36.7,18c6.2,0.2,12-0.8,17.4-2.1c10.6-2.7,19.8-7.9,27.7-15.7 c12-11.9,18-26.6,18-44.7C1161.9,189.4,1155.9,174.6,1143.9,162.5z M1119.7,228.9c-5.8,5.7-12.9,8.6-21.8,8.6 c-8.9,0-16-2.9-21.7-8.6c-5.7-5.8-8.5-12.9-8.5-21.6c0-8.7,2.8-15.9,8.5-21.7c5.8-5.8,12.9-8.7,21.7-8.7c8.9,0,16,2.9,21.7,8.7 c1.4,1.4,2.6,2.9,3.6,4.5c0.3,0.4,0.5,0.8,0.7,1.2c2.9,4.6,4.2,9.9,4.2,16c0,5.6-1.2,10.6-3.5,15 C1123.4,224.7,1121.7,226.9,1119.7,228.9z"></path> <path d="M761,162.5c-3.1-3.2-8-7.3-14.7-10.9c-4.8-2.6-15.7-7.6-30.1-7.4c-18.9,0.2-32.2,9.1-36.9,12.6c0,0.1-0.1,0.1-0.1,0.1v-9 h-32.5v165.5h32.5l0.1-61.3c8.7,11.2,22.7,17.5,36.7,18c6.2,0.2,12-0.8,17.4-2.1c10.6-2.7,19.8-7.9,27.7-15.7 c12-11.9,18-26.6,18-44.7C779,189.4,773,174.6,761,162.5z M736.8,228.9c-5.8,5.7-12.9,8.6-21.8,8.6c-8.9,0-16-2.9-21.7-8.6 c-5.7-5.8-8.5-12.9-8.5-21.6c0-8.7,2.8-15.9,8.5-21.7c5.8-5.8,12.9-8.7,21.7-8.7c8.9,0,16,2.9,21.7,8.7c1.4,1.4,2.6,2.9,3.6,4.5 c0.3,0.4,0.5,0.8,0.7,1.2c2.9,4.6,4.2,9.9,4.2,16c0,5.6-1.2,10.6-3.5,15C740.5,224.7,738.8,226.9,736.8,228.9z"></path> <path d="M485.4,207.5c0,18.1,6,32.8,18,44.7c7.9,7.8,17,13,27.7,15.7c5.4,1.4,11.2,2.3,17.4,2.1c14-0.5,28-6.8,36.7-18l0.1,14.7 h32.5V147.9h-32.5v9c0,0-0.1,0-0.1-0.1c-4.8-3.5-18-12.3-36.9-12.6c-14.4-0.2-25.2,4.8-30.1,7.4c-6.8,3.6-11.6,7.8-14.7,10.9 C491.4,174.6,485.4,189.4,485.4,207.5z M522.7,222.3c-2.3-4.3-3.5-9.3-3.5-15c0-6,1.4-11.4,4.2-16c0.2-0.4,0.4-0.8,0.7-1.2 c1-1.6,2.2-3.1,3.6-4.5c5.7-5.8,12.9-8.7,21.7-8.7c8.9,0,16,2.9,21.7,8.7c5.7,5.8,8.5,13,8.5,21.7c0,8.7-2.8,15.9-8.5,21.6 c-5.8,5.7-12.9,8.6-21.7,8.6c-8.9,0-16-2.9-21.8-8.6C525.7,226.9,524,224.7,522.7,222.3z"></path> <path d="M351.3,267.1V148.2h32.6v14.7c8.3-10.7,16.3-17.2,34.9-17.9c12.3,0.2,22.8,4.7,30.9,13.1c8.6,8.8,12.9,21,12.9,36.3v72.7 H430v-69c0-7.5-2-13.1-5.9-16.9c-1.6-1.6-3.5-2.9-5.6-3.8c-2.9-1.4-6.4-2.1-10.3-2.1c-7.5,0.1-13.3,2.3-17.7,6.9 c-4.3,4.5-6.6,11.3-6.6,20.7v64.1H351.3z"></path> </g> </g> </svg> 