<?xml version="1.0" encoding="UTF-8"?> <!-- Generator: Adobe Illustrator 19.0.0, SVG Export Plug-In . SVG Version: 6.00 Build 0) --> <svg xmlns="http://www.w3.org/2000/svg" xmlns:xlink="http://www.w3.org/1999/xlink" id="Layer_1" x="0px" y="0px" viewBox="-412 187.2 134.1 186.8" style="enable-background:new -412 187.2 134.1 186.8;" xml:space="preserve"> <style type="text/css"> .st0{fill:#007368;} </style> <title>test</title> <g id="Слой_2"> <g id="_001a3a"> <path class="st0" d="M-279.7,322.5c-2.9-4.3-8.6-5.7-13.2-3.3l-29.7,16.3c1-4.7-1.9-9.4-6.5-10.7l-31-9.1 c-3.7-1.1-7.7-0.3-10.6,2.2l-39.7,32.6c-2,1.6-2.2,4.5-0.6,6.5c0,0,0,0,0,0l12.7,15.3c0.9,1.1,2.2,1.7,3.6,1.7 c1,0,1.9-0.3,2.7-0.9l17.9-13.2c2.8-2.2,6.5-3,10-2.1l27.8,6.8c3.3,0.8,6.8,0.3,9.7-1.4l43.8-26.3c4.8-2.9,6.4-9.1,3.5-13.9 C-279.4,322.9-279.5,322.7-279.7,322.5L-279.7,322.5z M-280.1,330c-0.5,2.2-1.8,4.1-3.8,5.3l-43.8,26.3c-2.5,1.5-5.4,1.9-8.2,1.2 l-27.8-6.9c-4.1-1-8.4-0.1-11.7,2.5l-17.9,13.2c-1.1,0.8-2.7,0.6-3.6-0.4l-12.7-15.3c-0.4-0.5-0.7-1.2-0.6-1.9 c0.1-0.7,0.4-1.3,1-1.8l39.7-32.7c2.4-2,5.7-2.7,8.8-1.8l31,9.1c3.8,1.1,6,5.2,4.9,9c0,0,0,0,0,0.1c-1.1,3.7-4.9,5.8-8.6,4.9 l-24.5-5.9c-0.5-0.1-1.1,0.2-1.2,0.7s0.2,1.1,0.7,1.2l24.5,5.9c3.9,0.9,8-0.8,10.1-4.2l31.8-17.4c3.7-2,8.2-0.8,10.6,2.6 C-280,325.5-279.6,327.8-280.1,330L-280.1,330z"></path> <path class="st0" d="M-322.5,277.2v13c0,4.4,3.6,8,8,8h13c4.4,0,8-3.6,8-8v-13c0-4.4-3.6-8-8-8h-13 C-318.9,269.2-322.5,272.8-322.5,277.2z M-314.5,271.2h13c3.3,0,6,2.7,6,6v13c0,3.3-2.7,6-6,6h-13c-3.3,0-6-2.7-6-6v-13 C-320.5,273.9-317.8,271.2-314.5,271.2z"></path> <path class="st0" d="M-308.9,292.7c0.2,0.2,0.4,0.3,0.7,0.3c0.2,0,0.5-0.1,0.7-0.3c6.6-6,8.9-12.3,7.8-15.2 c-0.4-1.1-1.4-1.8-2.6-1.7c-2.8,0-4.9,1.9-5.9,3.2c-1.1-1.3-3.1-3.2-5.9-3.2c-1.1,0-2.2,0.7-2.6,1.7 C-317.8,280.4-315.4,286.7-308.9,292.7z M-314.8,278.2c0.1-0.3,0.4-0.5,0.7-0.4c3,0,5,3.4,5.1,3.4c0.2,0.3,0.5,0.5,0.9,0.5 c0.4,0,0.7-0.2,0.9-0.5c0,0,2-3.4,5.1-3.4c0.3,0,0.6,0.1,0.7,0.4c0.7,1.8-1.3,7.1-6.6,12.3C-313.5,285.4-315.5,280.1-314.8,278.2z "></path> <path class="st0" d="M-380.4,306.2h83.8c6.4,0,11.6-5.1,11.6-11.5c0,0,0,0,0,0v-66.9c0-6.4-5.2-11.6-11.6-11.6c0,0,0,0,0,0h-4.4 c1.4-0.8,2.6-1.9,3.4-3.3c1.2-2.1,1.1-4.7-0.2-6.7c-2.2-3.5-7.2-5.3-13.8-4.9c-10.7,0.7-20.6,5.9-27.1,14.4 c-6.5-8.5-16.4-13.8-27.1-14.4c-6.6-0.4-11.6,1.4-13.8,4.9c-1.3,2-1.4,4.6-0.2,6.7c0.8,1.4,2,2.5,3.4,3.3h-4.1 c-6.4,0-11.6,5.2-11.6,11.6v66.9C-392,301.1-386.8,306.2-380.4,306.2z M-296.6,218.2c5.3,0,9.6,4.3,9.6,9.5c0,0,0,0,0,0v66.9 c0,5.3-4.3,9.6-9.6,9.6h-40.9v-39h6.5c5.2,0,9.5-4.3,9.5-9.5v-37.5H-296.6z M-353,218.2h29.5v37.5c0,4.1-3.4,7.5-7.5,7.5l0,0 h-14.5c-4.1,0-7.5-3.4-7.5-7.5v0V218.2z M-311.5,203.2c5.7-0.3,10.2,1.2,12,4c0.9,1.4,1,3.2,0.1,4.7c-1.5,2.7-5.3,4.3-10.2,4.3 h-27C-333.6,212.6-325.2,204-311.5,203.2L-311.5,203.2z M-377.9,211.9c-0.9-1.5-0.8-3.3,0.1-4.7c1.8-2.8,6.3-4.3,12-4 c13.7,0.8,22.1,9.4,25,13h-27C-372.6,216.2-376.4,214.6-377.9,211.9z M-390,227.8c0-5.3,4.3-9.6,9.6-9.6h25.4v37.5 c0,5.2,4.3,9.5,9.5,9.5h6v39h-40.9c-5.3,0-9.6-4.3-9.6-9.6V227.8z"></path> <path class="st0" d="M-338.5,208.2c0.6,0,1-0.4,1-1v-19c0-0.6-0.4-1-1-1s-1,0.4-1,1v19C-339.5,207.8-339.1,208.2-338.5,208.2z"></path> <path class="st0" d="M-334.5,205.2c0.3,0,0.5-0.1,0.7-0.3l8-8c0.4-0.4,0.4-1,0-1.4c0,0,0,0,0,0c-0.4-0.4-1-0.4-1.4,0l-8,8 c-0.4,0.4-0.4,1,0,1.4c0,0,0,0,0,0C-335,205.1-334.8,205.2-334.5,205.2z"></path> <path class="st0" d="M-343.2,204.9c0.2,0.2,0.4,0.3,0.7,0.3c0.3,0,0.5-0.1,0.7-0.3c0.4-0.4,0.4-1,0-1.4c0,0,0,0,0,0l-8-8 c-0.4-0.4-1-0.4-1.4,0c-0.4,0.4-0.4,1,0,1.4L-343.2,204.9z"></path> </g> </g> </svg> 