<svg xmlns="http://www.w3.org/2000/svg" viewBox="0 0 179 184"><defs><style>.cls-1{fill:#052b5f;}</style></defs><title>11</title><g id="Слой_2" data-name="Слой 2"><g id="_052b5f" data-name="#052b5f"><path class="cls-1" d="M58.5,108a5.5,5.5,0,1,0-5.5-5.5A5.51,5.51,0,0,0,58.5,108Zm0-9a3.5,3.5,0,1,1-3.5,3.5A3.5,3.5,0,0,1,58.5,99Z"/><path class="cls-1" d="M169.38,99H118.09V78H160.5a8.51,8.51,0,0,0,8.5-8.5v-27a8.51,8.51,0,0,0-8.5-8.5H95V8.5A8.51,8.51,0,0,0,86.5,0h-55A8.51,8.51,0,0,0,23,8.5V99H9.63A9.64,9.64,0,0,0,0,108.63v29.75A9.64,9.64,0,0,0,9.63,148H72.51a9.45,9.45,0,0,0,1.62,2.9L85.5,164.75A52.55,52.55,0,0,0,126.23,184,37.82,37.82,0,0,0,164,148h5.42a9.64,9.64,0,0,0,9.62-9.62V108.63A9.64,9.64,0,0,0,169.38,99ZM167,42.5v27a6.51,6.51,0,0,1-6.5,6.5H118.09V69.88a8.88,8.88,0,0,0-8.38-9,8.66,8.66,0,0,0-6.29,2.44,8.57,8.57,0,0,0-2.63,6.21V76H68.5A6.51,6.51,0,0,1,62,69.5v-27A6.51,6.51,0,0,1,68.5,36h92A6.51,6.51,0,0,1,167,42.5ZM95,78h5.79V99H95ZM86,34H68.5A8.51,8.51,0,0,0,60,42.5V52H44a1,1,0,0,0,0,2H60V69.5A8.51,8.51,0,0,0,68.5,78H86V88.13a4,4,0,0,1-4,4H36a4,4,0,0,1-4-4V14.21a4,4,0,0,1,4-4H82a4,4,0,0,1,4,4ZM25,8.5A6.51,6.51,0,0,1,31.5,2h55A6.51,6.51,0,0,1,93,8.5V34H88V14.21a6,6,0,0,0-6-6H36a6,6,0,0,0-6,6V88.13a6,6,0,0,0,6,6H82a6,6,0,0,0,6-6V78h5v26.33a6.51,6.51,0,0,1-6.5,6.5h-55a6.51,6.51,0,0,1-6.5-6.5ZM9.63,146A7.63,7.63,0,0,1,2,138.38V108.63A7.64,7.64,0,0,1,9.63,101H23v3.33a8.51,8.51,0,0,0,8.5,8.5h55a8.51,8.51,0,0,0,8.5-8.5V101h5.79v23H13a1,1,0,0,0,0,2h87.79v20H94.33l-5.48-6.69a9.6,9.6,0,0,0-13.29-1.7A9.3,9.3,0,0,0,72.05,144a9.93,9.93,0,0,0,0,2Zm91.16,2v2.91a1.07,1.07,0,0,1-1.89.67L96,148ZM162,146.23A35.81,35.81,0,0,1,126.23,182a50.53,50.53,0,0,1-39.18-18.52L75.67,149.63a7.37,7.37,0,0,1,1.13-10.46,7.12,7.12,0,0,1,4.41-1.51,7.92,7.92,0,0,1,6.09,2.92l10,12.27a3.07,3.07,0,0,0,5.44-1.94V69.56a6.66,6.66,0,0,1,6.86-6.65,6.87,6.87,0,0,1,6.44,7v47a1,1,0,0,0,2,0,6.66,6.66,0,0,1,13.31,0,1,1,0,0,0,2,0,6.65,6.65,0,0,1,13.3,0,1,1,0,0,0,2,0,6.63,6.63,0,0,1,2.48-5.15,6.72,6.72,0,0,1,5.64-1.31,6.79,6.79,0,0,1,5.18,6.74Zm15-7.85a7.63,7.63,0,0,1-7.62,7.62H164V117.17a8.8,8.8,0,0,0-6.76-8.7h0a8.75,8.75,0,0,0-7.32,1.71,9,9,0,0,0-2.23,2.7,8.64,8.64,0,0,0-15.29,0,8.65,8.65,0,0,0-14.31-1.49V101h51.29a7.63,7.63,0,0,1,7.62,7.63Z"/><path class="cls-1" d="M109,57a1,1,0,0,0,1-1V41a1,1,0,0,0-2,0V56A1,1,0,0,0,109,57Z"/><path class="cls-1" d="M114.7,57.8a1,1,0,0,0,.7-.29L126,46.9a1,1,0,1,0-1.41-1.41L114,56.1a1,1,0,0,0,0,1.41A1,1,0,0,0,114.7,57.8Z"/><path class="cls-1" d="M102.6,57.51a1,1,0,0,0,.7.29,1,1,0,0,0,.71-.29,1,1,0,0,0,0-1.41L93.4,45.49A1,1,0,1,0,92,46.9Z"/><path class="cls-1" d="M75,24H44a1,1,0,0,0,0,2H75a1,1,0,0,0,0-2Z"/></g></g></svg>