<svg xmlns="http://www.w3.org/2000/svg" viewBox="0 0 173 152"><defs><style>.cls-1{fill:#052b5f;}</style></defs><title>12</title><g id="Слой_2" data-name="Слой 2"><g id="_052b5f" data-name="#052b5f"><path class="cls-1" d="M40.54,118.08A12.46,12.46,0,1,0,53,130.54,12.47,12.47,0,0,0,40.54,118.08Zm0,22.92A10.46,10.46,0,1,1,51,130.54,10.47,10.47,0,0,1,40.54,141Z"/><path class="cls-1" d="M139.54,118.08A12.46,12.46,0,1,0,152,130.54,12.47,12.47,0,0,0,139.54,118.08Zm0,22.92A10.46,10.46,0,1,1,150,130.54,10.47,10.47,0,0,1,139.54,141Z"/><path class="cls-1" d="M166.9,117.15A12.46,12.46,0,0,0,173,106.47V91.73a13.83,13.83,0,0,0-1.37-6,1,1,0,0,0-.14-.3c-.19-.37-.39-.74-.61-1.09L151,52.52a16.62,16.62,0,0,0-14.16-7.85H108V34.85A11.87,11.87,0,0,0,96.1,23H14.83A14.84,14.84,0,0,0,0,37.83v66.25a14.83,14.83,0,0,0,7.45,12.85A8,8,0,0,0,8.05,133H19.24a21.46,21.46,0,0,0,42.63,0h56.37a21.46,21.46,0,0,0,42.63,0H165a8,8,0,0,0,2-15.85ZM152,58l16.89,27H121.75A3.75,3.75,0,0,1,118,81.25V62a3.75,3.75,0,0,1,3.73-3.75L152,58ZM136.79,46.67a14.65,14.65,0,0,1,12.47,6.91L150.78,56l-29.07.19A5.76,5.76,0,0,0,116,62v19.3A5.76,5.76,0,0,0,121.75,87H170a12,12,0,0,1,1,4.73v14.74a10.46,10.46,0,0,1-10,10.43h-4.81a21.43,21.43,0,0,0-33.14,0H108V46.67ZM2,104.08V37.83A12.85,12.85,0,0,1,14.83,25H96.1A9.86,9.86,0,0,1,106,34.85V116.9H57.12a21.43,21.43,0,0,0-33.14,0H14.44A12.84,12.84,0,0,1,2,104.08ZM8.05,131a6,6,0,1,1,0-12.1h6.39l.39,0h7.69a21.28,21.28,0,0,0-3.44,11.61c0,.16,0,.31,0,.47Zm32.5,19A19.47,19.47,0,1,1,60,130.53,19.49,19.49,0,0,1,40.55,150ZM62,131c0-.16,0-.31,0-.47a21.28,21.28,0,0,0-3.44-11.61h62.94a21.28,21.28,0,0,0-3.44,11.61c0,.16,0,.31,0,.47Zm77.55,19A19.47,19.47,0,1,1,159,130.53,19.49,19.49,0,0,1,139.55,150ZM165,131H161c0-.16,0-.31,0-.47a21.28,21.28,0,0,0-3.44-11.61h2.95l.4,0h4a6.05,6.05,0,1,1,0,12.1Z"/><path class="cls-1" d="M64,59H94a1,1,0,0,0,0-2H64a1,1,0,0,0,0,2Z"/><path class="cls-1" d="M20,72H94a1,1,0,0,0,0-2H20a1,1,0,0,0,0,2Z"/><path class="cls-1" d="M94,85H41a1,1,0,0,0,0,2H94a1,1,0,0,0,0-2Z"/><path class="cls-1" d="M121.63,37h19.75A8.63,8.63,0,0,0,150,28.38V8.63A8.64,8.64,0,0,0,141.38,0H121.63A8.64,8.64,0,0,0,113,8.63V28.38A8.64,8.64,0,0,0,121.63,37ZM115,8.63A6.63,6.63,0,0,1,121.63,2h19.75A6.63,6.63,0,0,1,148,8.63V28.38A6.63,6.63,0,0,1,141.38,35H121.63A6.63,6.63,0,0,1,115,28.38Z"/><path class="cls-1" d="M130.79,26.21a1,1,0,0,0,.71.29h.17a1,1,0,0,0,.73-.55l7.5-15.5a1,1,0,0,0-1.8-.88L131.21,23.8l-6.5-6.51a1,1,0,0,0-1.42,1.42Z"/></g></g></svg>