<svg xmlns="http://www.w3.org/2000/svg" viewBox="0 0 184.84 176.33"><defs><style>.cls-1{fill:#052b5f;}</style></defs><title>14</title><g id="Слой_2" data-name="Слой 2"><g id="_052b5f" data-name="#052b5f"><path class="cls-1" d="M181.14,91.18,107.66,17.7a12.68,12.68,0,0,0-16.33-1.32L78.66,3.7a12.7,12.7,0,0,0-17.92,0l-57,57a12.7,12.7,0,0,0,0,17.92l79,79A12.66,12.66,0,0,0,99,158.94l7.19,7.2a12.67,12.67,0,0,0,17.92,0l57-57A12.69,12.69,0,0,0,181.14,91.18Zm-97.06,65-79-79a10.67,10.67,0,0,1,0-15.08l57-57a10.67,10.67,0,0,1,15.08,0l79,79a10.67,10.67,0,0,1,0,15.08l-57,57A10.67,10.67,0,0,1,84.08,156.2Zm95.64-48.52-57,57a10.67,10.67,0,0,1-15.08,0l-7.07-7.06,0,0,57-57a12.69,12.69,0,0,0,0-17.92L92.77,17.82a10.63,10.63,0,0,1,13.47,1.3L179.72,92.6a10.65,10.65,0,0,1,0,15.08Z"/><path class="cls-1" d="M60.53,144.56l-7.87-.69a18.29,18.29,0,0,0-1.59-3.27L55.5,134a1,1,0,0,0-.16-1.3L50.16,128a1,1,0,0,0-1.31,0l-6.37,5.35a18.11,18.11,0,0,0-2.43-.79l-1.55-7.75a1,1,0,0,0-1-.8l-6.94.38a1,1,0,0,0-.94.92l-.7,8a18.82,18.82,0,0,0-2.83,1.44l-6.36-4.24a1,1,0,0,0-1.3.16l-4.63,5.18a1,1,0,0,0,0,1.31l5.13,6.11a17.83,17.83,0,0,0-.81,2.47l-7.75,1.55a1,1,0,0,0-.8,1l.38,6.94a1,1,0,0,0,.92.94l8,.7a16.35,16.35,0,0,0,.9,1.89l-4.43,6.64a1,1,0,0,0,.16,1.3l5.17,4.64a1,1,0,0,0,1.31,0l5.86-4.92a17.43,17.43,0,0,0,3,1.12l1.58,7.9a1,1,0,0,0,1,.81h0l6.93-.38a1,1,0,0,0,1-.91l.68-7.87a16.78,16.78,0,0,0,2.33-1l6.93,4.62a1,1,0,0,0,1.3-.16l4.63-5.17a1,1,0,0,0,0-1.31L52,158a17.8,17.8,0,0,0,1.1-2.93l7.9-1.57a1,1,0,0,0,.8-1l-.38-6.93A1,1,0,0,0,60.53,144.56Zm-8.41,8.64a1,1,0,0,0-.78.75A16.1,16.1,0,0,1,50,157.64a1,1,0,0,0,.12,1.11l5,6-3.48,3.88-6.71-4.48a1,1,0,0,0-1.06,0,15.85,15.85,0,0,1-3.12,1.4,1,1,0,0,0-.68.87L39.35,174l-5.2.29-1.53-7.66a1,1,0,0,0-.75-.78,15.84,15.84,0,0,1-3.73-1.41,1,1,0,0,0-.47-.12,1,1,0,0,0-.64.24l-5.7,4.78-3.88-3.48,4.29-6.43a1,1,0,0,0,0-1.06,16.73,16.73,0,0,1-1.28-2.71,1,1,0,0,0-.85-.66l-7.79-.68-.28-5.2,7.52-1.5a1,1,0,0,0,.79-.78A15.65,15.65,0,0,1,21,143.54a1,1,0,0,0-.15-1.06l-5-5.92,3.48-3.88,6.18,4.13a1,1,0,0,0,1.12,0A16.31,16.31,0,0,1,30.17,135a1,1,0,0,0,.66-.85l.68-7.79,5.2-.28,1.5,7.52a1,1,0,0,0,.78.79,15.83,15.83,0,0,1,3.25,1.06,1,1,0,0,0,1-.15l6.19-5.19,3.88,3.47L49,140a1,1,0,0,0,0,1.11,16.06,16.06,0,0,1,1.94,4,1,1,0,0,0,.87.69l7.64.66.29,5.2Z"/><path class="cls-1" d="M35.15,140.84a9.33,9.33,0,0,0,.5,18.65h.52a9.33,9.33,0,1,0-1-18.64Zm.91,16.64a7.33,7.33,0,0,1-.8-14.64h.41a7.33,7.33,0,0,1,.39,14.65Z"/><path class="cls-1" d="M70.66,65.16A22,22,0,0,0,85.8,27.22s0,0,0-.06l-.06,0A21.94,21.94,0,0,0,54.28,28.5l-.05,0s0,0,0,.06A22,22,0,0,0,70.66,65.16Zm20-22A20,20,0,1,1,55.09,30.64L70,43.91a1,1,0,0,0,.66.25,1,1,0,0,0,.73-.31L85.08,29.34A19.89,19.89,0,0,1,90.66,43.16Zm-20-20a19.94,19.94,0,0,1,13,4.8l-13,13.81L56.42,29.14A20,20,0,0,1,70.66,23.16Z"/><path class="cls-1" d="M133,96.87a1,1,0,0,0,1.42,0l8.3-8.31a1,1,0,0,0,.29-.7,1,1,0,0,0-.29-.71l-32-32a1,1,0,0,0-1.41,0L101,63.45a1,1,0,0,0,0,1.42Zm-23-39.6,30.59,30.59-6.89,6.89L103.07,64.16Z"/><path class="cls-1" d="M90,85.87l27,27a1,1,0,0,0,1.42,0l8.3-8.31a1,1,0,0,0,.29-.7,1,1,0,0,0-.29-.71l-27-27a1,1,0,0,0-1.41,0L90,84.45A1,1,0,0,0,90,85.87Zm9-7.6,25.59,25.59-6.89,6.89L92.07,85.16Z"/><path class="cls-1" d="M89.26,99.15,81,107.45a1,1,0,0,0,0,1.42l20,20a1,1,0,0,0,1.42,0l8.3-8.31a1,1,0,0,0,0-1.41l-20-20A1,1,0,0,0,89.26,99.15Zm12.4,27.6L83.07,108.16,90,101.27l18.59,18.59Z"/><path class="cls-1" d="M171,98.44l-57,55a1,1,0,0,0,1.39,1.44l57-55A1,1,0,0,0,171,98.44Z"/><path class="cls-1" d="M87.38,70.46a1,1,0,0,0-1.42,0L59.77,95.91,28.34,66.43A1,1,0,0,0,27,67.89L58.33,97.31l-7.68,7.47L14.35,70.43A1,1,0,1,0,13,71.89l37,35a1,1,0,0,0,.69.27,1,1,0,0,0,.7-.28l36-35A1,1,0,0,0,87.38,70.46Z"/><path class="cls-1" d="M146.37,91.45a1,1,0,0,0-1.42,0l-54.3,54.31-26.3-25.32A1,1,0,1,0,63,121.88l27,26a1,1,0,0,0,.69.28,1,1,0,0,0,.71-.29l55-55A1,1,0,0,0,146.37,91.45Z"/></g></g></svg>