<svg xmlns="http://www.w3.org/2000/svg" viewBox="0 0 143.74 148.69"><defs><style>.cls-1{fill:#052b5f;}</style></defs><title>15</title><g id="Слой_2" data-name="Слой 2"><g id="_052b5f" data-name="#052b5f"><path class="cls-1" d="M68.48,47.14l8.29,1.2a19.33,19.33,0,0,0,.84,2.06l-5,6.63a1,1,0,0,0,.09,1.31l5.09,5.11a1,1,0,0,0,1.3.09l6.37-4.76a19,19,0,0,0,3.06,1.35l1.17,8.3a1,1,0,0,0,1,.86H97.9a1,1,0,0,0,1-.86l1.17-8.14a17.36,17.36,0,0,0,2.51-1l6.93,5.21a1,1,0,0,0,1.31-.09l5.1-5.09a1,1,0,0,0,.1-1.31l-5-6.65a18.32,18.32,0,0,0,1.32-3l8.3-1.18a1,1,0,0,0,.86-1V39a1,1,0,0,0-.85-1l-8.14-1.18a18.93,18.93,0,0,0-1.48-3.51l5-6.65a1,1,0,0,0-.09-1.3l-5.09-5.11a1,1,0,0,0-1.31-.09l-6.94,5.19a18.65,18.65,0,0,0-2.51-1L99,16.26a1,1,0,0,0-1-.86H90.76a1,1,0,0,0-1,.86l-1.19,8.3a17.74,17.74,0,0,0-3.06,1.34l-6.36-4.78a1,1,0,0,0-1.31.09l-5.1,5.09a1,1,0,0,0-.09,1.31l5,6.65a18.1,18.1,0,0,0-1,2.56L68.49,38a1,1,0,0,0-.86,1v7.2A1,1,0,0,0,68.48,47.14Zm1.15-7.32,7.92-1.12a1,1,0,0,0,.82-.73,17,17,0,0,1,1.32-3.36,1,1,0,0,0-.09-1.07l-4.82-6.45,3.87-3.86,6.19,4.66a1,1,0,0,0,1.12.05,17,17,0,0,1,3.8-1.67,1,1,0,0,0,.71-.82l1.16-8.06H97.1l1.12,7.92a1,1,0,0,0,.73.83,16.19,16.19,0,0,1,3.32,1.29,1,1,0,0,0,1.06-.09l6.73-5,3.87,3.88-4.87,6.47a1,1,0,0,0-.06,1.11A16.44,16.44,0,0,1,110.78,38a1,1,0,0,0,.83.73l7.91,1.14v5.48l-8.07,1.14a1,1,0,0,0-.81.7A16.58,16.58,0,0,1,109,51a1,1,0,0,0,.06,1.12l4.86,6.49L110,62.42l-6.72-5.06a1,1,0,0,0-1.06-.09,16.15,16.15,0,0,1-3.32,1.28,1,1,0,0,0-.73.83L97,67.3H91.56l-1.14-8.06a1,1,0,0,0-.7-.82,16.57,16.57,0,0,1-3.8-1.69,1,1,0,0,0-1.11.06L78.6,61.42l-3.86-3.88,4.84-6.43a1,1,0,0,0,.09-1.06,15.91,15.91,0,0,1-1.17-2.89,1,1,0,0,0-.82-.71l-8.06-1.16Z"/><path class="cls-1" d="M94.56,52h0a9.65,9.65,0,0,0,0-19.29h0a9.65,9.65,0,0,0,0,19.29ZM89.17,36.93a7.59,7.59,0,0,1,5.4-2.23h0a7.65,7.65,0,0,1,0,15.29h0a7.64,7.64,0,0,1-5.39-13.06Z"/><path class="cls-1" d="M134.49,74.31H75.18A9.25,9.25,0,0,0,66,82.24H58.49L47.08,56a9.35,9.35,0,0,0-5.19-5,9.24,9.24,0,0,0-1-.31V47A30.25,30.25,0,0,0,60.36,18.81a29.9,29.9,0,0,0-6-18.1,1.71,1.71,0,0,0-2.1-.56,1.74,1.74,0,0,0-1,1.94,20.24,20.24,0,0,1,.1,6.5A20.87,20.87,0,0,1,32.55,26.31a20.56,20.56,0,0,1-15.83-5.39,20.76,20.76,0,0,1-6.53-18A2.46,2.46,0,0,0,8.64.26a2.41,2.41,0,0,0-2.89.83A29.87,29.87,0,0,0,.05,20.47,30.54,30.54,0,0,0,19.45,47V82.24H13A8.54,8.54,0,0,0,7.91,97.66a8.53,8.53,0,0,0,.8,14.27,8.54,8.54,0,0,0,1.23,15.38,8.55,8.55,0,0,0,5.15,15.36H66.52a9.27,9.27,0,0,0,8.66,6h59.31a9.26,9.26,0,0,0,9.25-9.25V83.56A9.26,9.26,0,0,0,134.49,74.31ZM2,20.37A27.91,27.91,0,0,1,7.37,2.27a.41.41,0,0,1,.53-.16.48.48,0,0,1,.31.54,23,23,0,0,0-.2,3,22.77,22.77,0,0,0,7.36,16.74,22.55,22.55,0,0,0,17.35,5.92A22.91,22.91,0,0,0,53.26,8.87a22.37,22.37,0,0,0,0-6.17A28.18,28.18,0,0,1,39.57,45.38a1,1,0,0,0-.66.94V82.46H21.45V46.31a1,1,0,0,0-.66-.94A28.52,28.52,0,0,1,2,20.37Zm13.05,120a6.26,6.26,0,0,1,0-12.51,1.15,1.15,0,1,0,0-2.29H13a6.26,6.26,0,1,1,0-12.51,1.15,1.15,0,0,0,0-2.29,6.24,6.24,0,0,1-2.29-12.06,1.13,1.13,0,0,0,.72-1.06,1.15,1.15,0,0,0-.72-1.07A6.24,6.24,0,0,1,13,84.53h7.48l0-.07H39.91a1,1,0,0,0,1-1V53l.14,0A7.14,7.14,0,0,1,45,56.88l11.7,27a1.14,1.14,0,0,0,1.05.69h8.19v54.91c0,.31,0,.63,0,.94ZM98,76.59V146.4H84.09V76.59ZM68.22,139.44V83.56a7,7,0,0,1,7-7h6.91V146.4H75.18A7,7,0,0,1,68.22,139.44Zm73.23,0a7,7,0,0,1-7,7H100V76.59h34.46a7,7,0,0,1,7,7Z"/></g></g></svg>