<svg xmlns="http://www.w3.org/2000/svg" viewBox="0 0 179 184"><defs><style>.cls-1{fill:#001a3a;}</style></defs><title>prj</title><g id="Слой_2" data-name="Слой 2"><g id="Слой_1-2" data-name="Слой 1"><g id="_001a3a" data-name="#001a3a"><path class="cls-1" d="M58.4,108a5.5,5.5,0,1,0-5.5-5.5A5.55,5.55,0,0,0,58.4,108Zm0-9a3.5,3.5,0,1,1-3.5,3.5A3.54,3.54,0,0,1,58.4,99Z"/><path class="cls-1" d="M169.3,99h-.4c0-1,.1-2,.1-3a75.9,75.9,0,0,0-2.7-20.3,8.51,8.51,0,0,0,2.7-6.2v-27a8.49,8.49,0,0,0-8.5-8.5H139.4A79.51,79.51,0,0,0,95,16.3V8.5A8.49,8.49,0,0,0,86.5,0h-55A8.49,8.49,0,0,0,23,8.5V50.9A79.76,79.76,0,0,0,9,96c0,1,0,2,.1,3A9.64,9.64,0,0,0,0,108.6v29.8A9.6,9.6,0,0,0,9.6,148h20a4.87,4.87,0,0,1-1.2.1A80,80,0,0,0,89,176a81.08,81.08,0,0,0,8.6-.5,52.22,52.22,0,0,0,28.7,8.5A37.8,37.8,0,0,0,164,148h5.4a9.6,9.6,0,0,0,9.6-9.6V108.6A9.75,9.75,0,0,0,169.3,99Zm-2.4-3c0,1,0,2-.1,3H118V78h42.4a8.11,8.11,0,0,0,4.1-1.1A75.17,75.17,0,0,1,166.9,96Zm0-53.5v27a6.49,6.49,0,0,1-6.5,6.5H118V69.9a9,9,0,0,0-8.4-9,8.59,8.59,0,0,0-6.3,2.4,8.38,8.38,0,0,0-2.6,6.2v6.4H68.4a6.49,6.49,0,0,1-6.5-6.5v-27a6.49,6.49,0,0,1,6.5-6.5h92A6.64,6.64,0,0,1,166.9,42.5ZM94.9,78h5.8V99H94.9Zm-9-44H68.4a8.49,8.49,0,0,0-8.5,8.5V52h-16a1,1,0,0,0,0,2h16V69.5A8.49,8.49,0,0,0,68.4,78H85.9V88.1a4,4,0,0,1-4,4h-46a4,4,0,0,1-4-4V14.2a4,4,0,0,1,4-4H81.8a4,4,0,0,1,4,4V34Zm50.2,0H94.9V18.3A76.59,76.59,0,0,1,136.1,34ZM24.9,8.5A6.49,6.49,0,0,1,31.4,2h55a6.49,6.49,0,0,1,6.5,6.5V34h-5V14.2a6,6,0,0,0-6-6h-46a6,6,0,0,0-6,6V88.1a6,6,0,0,0,6,6H81.8a6,6,0,0,0,6-6V78h5v26.3a6.49,6.49,0,0,1-6.5,6.5h-55a6.49,6.49,0,0,1-6.5-6.5V8.5Zm-2,46V99H11c0-1-.1-2-.1-3A77.73,77.73,0,0,1,22.9,54.5Zm-21,83.9V108.6A7.6,7.6,0,0,1,9.5,101H22.9v3.3a8.49,8.49,0,0,0,8.5,8.5h55a8.49,8.49,0,0,0,8.5-8.5V101h5.8v23H12.9a1,1,0,0,0,0,2h87.8v20H94.2l-5.5-6.7a9.55,9.55,0,0,0-13.3-1.7,9.37,9.37,0,0,0-3.5,6.4,6.69,6.69,0,0,0,0,2H9.5A7.6,7.6,0,0,1,1.9,138.4Zm98.8,9.6v2.9a1.08,1.08,0,0,1-1.9.7L95.9,148ZM88.9,174a78.12,78.12,0,0,1-58.1-26H72.4a11.81,11.81,0,0,0,1.6,2.9l11.4,13.8a53.94,53.94,0,0,0,9.5,9Q91.9,174,88.9,174Zm73-27.8A35.83,35.83,0,0,1,126.1,182a50.87,50.87,0,0,1-39.2-18.5L75.5,149.7a7.22,7.22,0,0,1-1.6-5.5,7.26,7.26,0,0,1,7.2-6.5,8.07,8.07,0,0,1,6.1,2.9l10.1,12.3a3,3,0,0,0,3.4.9,3,3,0,0,0,2-2.9V69.6a6.73,6.73,0,0,1,2-4.8,6.64,6.64,0,0,1,4.8-1.9,6.78,6.78,0,0,1,6.4,7v47a1,1,0,0,0,2,0,6.7,6.7,0,0,1,13.4,0,1,1,0,0,0,2,0,6.7,6.7,0,0,1,6.7-6.7,6.59,6.59,0,0,1,6.6,6.6.94.94,0,0,0,1,1h0a.94.94,0,0,0,1-1,6.66,6.66,0,0,1,8.1-6.5,6.79,6.79,0,0,1,5.2,6.7Zm15-7.8a7.6,7.6,0,0,1-7.6,7.6h-5.4V117.2a8.68,8.68,0,0,0-14.1-7,9.34,9.34,0,0,0-2.2,2.7,8.72,8.72,0,0,0-7.6-4.6,8.88,8.88,0,0,0-7.7,4.6,8.76,8.76,0,0,0-14.4-1.5V101h51.3a7.6,7.6,0,0,1,7.6,7.6v29.8Z"/><path class="cls-1" d="M108.9,57a.94.94,0,0,0,1-1V41a1,1,0,0,0-2,0V56A.94.94,0,0,0,108.9,57Z"/><path class="cls-1" d="M114.6,57.8a.91.91,0,0,0,.7-.3l10.6-10.6a1,1,0,0,0-1.4-1.4L113.9,56.1a1,1,0,0,0,0,1.4A.91.91,0,0,0,114.6,57.8Z"/><path class="cls-1" d="M102.5,57.5a1,1,0,0,0,1.4,0,1,1,0,0,0,0-1.4L93.3,45.5a1,1,0,1,0-1.4,1.4Z"/><path class="cls-1" d="M74.9,24h-31a1,1,0,0,0,0,2h31a1,1,0,0,0,0-2Z"/></g></g></g></svg>