<svg xmlns="http://www.w3.org/2000/svg" viewBox="0 0 184.79 180.78"><defs><style>.cls-1{fill:#001a3a;}</style></defs><title>rep</title><g id="Слой_2" data-name="Слой 2"><g id="Слой_1-2" data-name="Слой 1"><g id="_001a3a" data-name="#001a3a"><path class="cls-1" d="M181.07,91.17l-4.9-4.9a80.21,80.21,0,0,0-63.7-63.7l-4.9-4.9a12.65,12.65,0,0,0-16.3-1.3L78.57,3.67a12.75,12.75,0,0,0-17.9,0l-57,57a12.77,12.77,0,0,0,0,17.91L18.07,93a73.4,73.4,0,0,0-.4,8.11,79.59,79.59,0,0,0,7,32.7l-4.89-3.3a1,1,0,0,0-1.31.2l-4.6,5.2a1.05,1.05,0,0,0,0,1.3l5.1,6.1a18.29,18.29,0,0,0-.8,2.5l-7.7,1.5a1,1,0,0,0-.8,1l.4,6.9a.9.9,0,0,0,.9.9l8,.7c.3.6.6,1.3.9,1.9l-4.4,6.6a1,1,0,0,0,.2,1.3l5.2,4.6a1.05,1.05,0,0,0,1.3,0l5.9-4.9a18.15,18.15,0,0,0,3,1.1l1.6,7.9a1,1,0,0,0,1,.8h.1l6.9-.4a.9.9,0,0,0,.9-.9l.7-7.9a9.73,9.73,0,0,0,2.3-1.1l6.9,4.6a1,1,0,0,0,1.3-.2l1.9-2.1a79.93,79.93,0,0,0,122.2-54.9l4.5-4.5A12.55,12.55,0,0,0,181.07,91.17Zm-7.5-7.5L115,25.07A78.21,78.21,0,0,1,173.57,83.67ZM5.07,62.07l57-57A10.52,10.52,0,0,1,69.57,2a10.35,10.35,0,0,1,7.5,3.1l79,79a10.62,10.62,0,0,1,0,15.1l-57,57a10.62,10.62,0,0,1-15.1,0l-79-79A10.71,10.71,0,0,1,5.07,62.07Zm46.4,106.5-6.7-4.5a1.08,1.08,0,0,0-1.1,0,12.32,12.32,0,0,1-3.1,1.4,1.11,1.11,0,0,0-.7.9l-.7,7.6-5.2.3-1.5-7.7a1.14,1.14,0,0,0-.7-.8,14.91,14.91,0,0,1-3.7-1.4.75.75,0,0,0-.5-.1,1.07,1.07,0,0,0-.6.2l-5.7,4.8-3.9-3.5,4.3-6.4a1.08,1.08,0,0,0,0-1.1c-.5-.9-.9-1.8-1.3-2.7a1.11,1.11,0,0,0-.9-.7l-7.8-.7-.3-5.2,7.5-1.5a1.09,1.09,0,0,0,.8-.8,14.22,14.22,0,0,1,1.1-3.3,1.07,1.07,0,0,0-.1-1.1l-5-5.9,3.5-3.9,6.2,4.1a1.08,1.08,0,0,0,1.1,0,15.16,15.16,0,0,1,3.6-1.8,1.11,1.11,0,0,0,.7-.9l.7-7.8,5.2-.3,1.5,7.5a1.09,1.09,0,0,0,.8.8,14.22,14.22,0,0,1,3.3,1.1,1.1,1.1,0,0,0,1.1-.1l6.2-5.2,3.9,3.5-4.3,6.5a1.08,1.08,0,0,0,0,1.1,14.7,14.7,0,0,1,1.9,4,1.11,1.11,0,0,0,.9.7l7.6.7.3,5.21-7.7,1.5a1.12,1.12,0,0,0-.8.7,16.57,16.57,0,0,1-1.4,3.7,1.07,1.07,0,0,0,.1,1.1l5,6Zm46.1,10.5a77.1,77.1,0,0,1-41.9-12.3l1.4-1.5a1.05,1.05,0,0,0,0-1.3l-5.1-6.1a24.88,24.88,0,0,0,1.1-2.9l7.9-1.6a1,1,0,0,0,.8-1l-.4-6.9a.89.89,0,0,0-.9-.89l-7.9-.71a24.24,24.24,0,0,0-1.6-3.29l4.4-6.61a.94.94,0,0,0-.2-1.29l-5.2-4.6a1.05,1.05,0,0,0-1.3,0l-6.4,5.39a22.42,22.42,0,0,0-2.4-.79L38.37,125a1,1,0,0,0-1-.79l-6.9.4a.88.88,0,0,0-.89.89l-.7,8c-.6.3-1.3.61-1.9.9a77.58,77.58,0,0,1-7.4-33.1q0-3.15.3-6.3l62.7,62.71A12.71,12.71,0,0,0,99,159l7.2,7.2a12.8,12.8,0,0,0,18,0l50.1-50.1C167.07,151.87,135.47,179.07,97.57,179.07Zm79.5-68.8h0l-54.4,54.4a10.62,10.62,0,0,1-15.1,0l-7.1-7.1h0l57-57a12.74,12.74,0,0,0,0-17.9l-64.8-64.8a10.74,10.74,0,0,1,5.9-1.8,10.35,10.35,0,0,1,7.5,3.1l73.5,73.5a10.62,10.62,0,0,1,0,15Z"/><path class="cls-1" d="M35.07,140.77a9.31,9.31,0,0,0,.5,18.6h.5a9.31,9.31,0,0,0-1-18.6Zm.9,16.7a7.31,7.31,0,1,1-.8-14.6h.4a7.26,7.26,0,0,1,7.3,6.9A7.42,7.42,0,0,1,36,157.47Z"/><path class="cls-1" d="M70.57,65.07a22.06,22.06,0,0,0,22-22,21.51,21.51,0,0,0-6.9-15.9v-.1h-.1a21.92,21.92,0,0,0-31.4,1.3h0v.1a22.17,22.17,0,0,0-5.5,14.61A21.85,21.85,0,0,0,70.57,65.07Zm20-22A20,20,0,1,1,55,30.57l14.9,13.3a1,1,0,0,0,1.4,0L85,29.37A19.35,19.35,0,0,1,90.57,43.07Zm-20-20a20,20,0,0,1,13,4.8l-13,13.8-14.2-12.6A19.7,19.7,0,0,1,70.57,23.07Z"/><path class="cls-1" d="M132.87,96.77a1,1,0,0,0,1.4,0l8.3-8.3a1,1,0,0,0,0-1.39l-32-32a1,1,0,0,0-1.4,0l-8.3,8.3a1,1,0,0,0,0,1.4Zm-23-39.6,30.6,30.6-6.9,6.9L103,64.07Z"/><path class="cls-1" d="M89.87,85.77l27,27a1,1,0,0,0,1.4,0l8.3-8.3a1,1,0,0,0,0-1.39l-27-27a1,1,0,0,0-1.4,0l-8.3,8.29A1,1,0,0,0,89.87,85.77Zm9-7.6,25.6,25.6-6.9,6.9L92,85.07Z"/><path class="cls-1" d="M89.17,99.07l-8.3,8.3a1,1,0,0,0,0,1.4l20,20a1,1,0,0,0,1.4,0l8.3-8.3a1,1,0,0,0,0-1.4l-20-20A1,1,0,0,0,89.17,99.07Zm12.4,27.6L83,108.07l6.9-6.9,18.6,18.6Z"/><path class="cls-1" d="M170.87,98.37l-57,55a1,1,0,0,0,0,1.4,1.08,1.08,0,0,0,.7.3.91.91,0,0,0,.7-.3l57-55a1,1,0,0,0-1.4-1.4Z"/><path class="cls-1" d="M87.27,70.37a1,1,0,0,0-1.4,0l-26.2,25.5-31.4-29.5a1,1,0,1,0-1.4,1.4l31.4,29.4-7.7,7.5-36.3-34.3a1,1,0,1,0-1.4,1.4l37,35a1,1,0,0,0,1.4,0l36-35A1,1,0,0,0,87.27,70.37Z"/><path class="cls-1" d="M90.57,148.07a.91.91,0,0,0,.7-.3l55-55a1,1,0,0,0-1.4-1.4l-54.3,54.3-26.3-25.3a1,1,0,1,0-1.4,1.4l27,26A1.08,1.08,0,0,0,90.57,148.07Z"/></g></g></g></svg>