<svg xmlns="http://www.w3.org/2000/svg" viewBox="0 0 173 161"><defs><style>.cls-1{fill:#001a3a;}</style></defs><title>ship</title><g id="Слой_2" data-name="Слой 2"><g id="Слой_1-2" data-name="Слой 1"><g id="_001a3a" data-name="#001a3a"><path class="cls-1" d="M40.5,118.2A12.5,12.5,0,1,0,53,130.7,12.5,12.5,0,0,0,40.5,118.2Zm0,22.9A10.5,10.5,0,1,1,51,130.6,10.5,10.5,0,0,1,40.5,141.1Z"/><path class="cls-1" d="M139.5,118.2A12.5,12.5,0,1,0,152,130.7,12.5,12.5,0,0,0,139.5,118.2Zm0,22.9A10.5,10.5,0,1,1,150,130.6,10.5,10.5,0,0,1,139.5,141.1Z"/><path class="cls-1" d="M166.9,117.2a12.52,12.52,0,0,0,6.1-10.7V91.8a13.9,13.9,0,0,0-1.4-6c0-.1-.1-.2-.1-.3-.2-.4-.4-.7-.6-1.1l-6.2-9.9a80.09,80.09,0,0,0-15.9-41.7,8.31,8.31,0,0,0,1.2-4.4V8.6A8.6,8.6,0,0,0,141.4,0H121.6a8.7,8.7,0,0,0-8.3,6.2A78.55,78.55,0,0,0,85,1,79.65,79.65,0,0,0,30,23H14.8A14.83,14.83,0,0,0,0,37.8v66.3a14.71,14.71,0,0,0,7.4,12.8,8,8,0,0,0-7.4,8A8.13,8.13,0,0,0,8.1,133H19.3a21.44,21.44,0,0,0,21.3,19,19.81,19.81,0,0,0,6-.9,79.48,79.48,0,0,0,81.2-2.6,21.41,21.41,0,0,0,33-15.5h4.1a8,8,0,0,0,2-15.8Zm4.1-10.6A10.46,10.46,0,0,1,160.9,117h-4.8a21.29,21.29,0,0,0-16.6-7.8,21.76,21.76,0,0,0-16.6,7.8h-15V46.8h28.8a14.72,14.72,0,0,1,12.5,6.9l1.5,2.4-29.1.2a5.78,5.78,0,0,0-5.7,5.8V81.4a5.8,5.8,0,0,0,5.8,5.8h48.2a12.78,12.78,0,0,1,1,4.7v14.7Zm-52.9,24v.5H62v-.5A21.63,21.63,0,0,0,58.6,119h63A21.37,21.37,0,0,0,118.1,130.6Zm50.8-45.5H121.7a3.8,3.8,0,0,1-3.8-3.8V62a3.85,3.85,0,0,1,3.7-3.8l30.3-.2h0Zm-47.3-83h19.8A6.59,6.59,0,0,1,148,8.7V28.5a6.59,6.59,0,0,1-6.6,6.6H121.6a6.59,6.59,0,0,1-6.6-6.6V8.7A6.66,6.66,0,0,1,121.6,2.1ZM85,3.1a78.68,78.68,0,0,1,28,5.2V28.5a8.6,8.6,0,0,0,8.6,8.6h19.8a8.37,8.37,0,0,0,6.1-2.6,78.14,78.14,0,0,1,14.8,36.1L151,52.5a16.69,16.69,0,0,0-14.2-7.8H108V34.9A11.93,11.93,0,0,0,96.1,23H33A78,78,0,0,1,85,3.1ZM2,104.2V37.9A12.82,12.82,0,0,1,14.8,25.1H96.1A9.92,9.92,0,0,1,106,35v82H57.2a21.29,21.29,0,0,0-16.6-7.8A21.76,21.76,0,0,0,24,117H14.5A12.83,12.83,0,0,1,2,104.2Zm6.1,26.9A6.12,6.12,0,0,1,2,125a6.06,6.06,0,0,1,6.1-6.1H22.6a21,21,0,0,0-3.4,11.6v.5H8.1Zm13-.5a19.5,19.5,0,1,1,19.5,19.5A19.53,19.53,0,0,1,21.1,130.6ZM85,159.1a77.78,77.78,0,0,1-35.9-8.8,21.54,21.54,0,0,0,12.8-17.2h56.4a21.44,21.44,0,0,0,7.9,14.2A77.68,77.68,0,0,1,85,159.1Zm54.6-9a19.5,19.5,0,1,1,19.5-19.5A19.53,19.53,0,0,1,139.6,150.1Zm25.3-19h-4v-.5a21.63,21.63,0,0,0-3.4-11.6h7.3a6.12,6.12,0,0,1,6.1,6.1A5.89,5.89,0,0,1,164.9,131.1Z"/><path class="cls-1" d="M64,59.1H94a1,1,0,0,0,0-2H64a1,1,0,0,0,0,2Z"/><path class="cls-1" d="M20,72.1H94a1,1,0,0,0,0-2H20a1,1,0,0,0,0,2Z"/><path class="cls-1" d="M94,85.1H41a1,1,0,0,0,0,2H94a1,1,0,0,0,0-2Z"/><path class="cls-1" d="M130.8,26.3a.91.91,0,0,0,.7.3h.2a1.06,1.06,0,0,0,.7-.6l7.5-15.5a1,1,0,1,0-1.8-.8l-6.9,14.2-6.5-6.5a1,1,0,0,0-1.4,1.4Z"/></g></g></g></svg>