<svg xmlns="http://www.w3.org/2000/svg" viewBox="0 0 176.13 160"><defs><style>.cls-1{fill:#001a3a;}</style></defs><title>step_1</title><g id="Слой_2" data-name="Слой 2"><g id="Слой_1-2" data-name="Слой 1"><g id="_001a3a" data-name="#001a3a"><path class="cls-1" d="M176,108a74.89,74.89,0,0,0-3.5-12.6A78.09,78.09,0,0,0,174,80,79.91,79.91,0,0,0,37,24H15.3a7.6,7.6,0,0,0-7.6,7.6v88.1H7.6A7.6,7.6,0,0,0,0,127.3v1.1A7.6,7.6,0,0,0,7.6,136H37a79.83,79.83,0,0,0,128.4-20h3.9a6.88,6.88,0,0,0,5.3-2.5A6.31,6.31,0,0,0,176,108ZM94,2.1A78.08,78.08,0,0,1,171.1,92c-3.9-8.6-10.4-17.3-21-21.3a24.72,24.72,0,0,0,4.9-15c0-12-7.9-21.7-17.6-21.7h-1V31.5a7.6,7.6,0,0,0-7.6-7.6h-89A78.41,78.41,0,0,1,94,2.1ZM98.7,108a14.77,14.77,0,0,0-.1,2.1H24.3a4.44,4.44,0,0,1-4.4-4.4V57.5a4.44,4.44,0,0,1,4.4-4.4h95.6a24.37,24.37,0,0,0-.1,2.7,24.72,24.72,0,0,0,4.9,15C106.6,77.5,100.6,98.2,98.7,108Zm38.7-71.9a12.09,12.09,0,0,1,3.8.6c-1,3.4-5.4,15.7-19.2,17C122.7,43.8,129.4,36.1,137.4,36.1Zm5.8,1.4c4.9,2.5,8.5,8,9.5,14.7A14.71,14.71,0,0,1,143.2,37.5ZM121.8,55.8h0c11.5-1.1,17.2-8.9,19.7-14.4.8,4.3,3.4,10.1,11.4,13.1,0,.4.1.9.1,1.3,0,10.9-7,19.7-15.6,19.7S121.8,66.6,121.8,55.8ZM15.2,26.1H128.7a5.59,5.59,0,0,1,5.6,5.6v2.7a16.58,16.58,0,0,0-10,6.9H9.6V31.7A5.72,5.72,0,0,1,15.2,26.1ZM9.7,43.3H123a24.12,24.12,0,0,0-2.8,7.8H24.4A6.44,6.44,0,0,0,18,57.5v48.2a6.44,6.44,0,0,0,6.4,6.4H99.2a7.46,7.46,0,0,0,.9,1.5,6.74,6.74,0,0,0,5.3,2.5h28.9v3.7H9.6V43.3ZM2,128.5v-1.1a5.59,5.59,0,0,1,5.6-5.6h131a5.59,5.59,0,0,1,5.6,5.6v1.1a5.59,5.59,0,0,1-5.6,5.6H7.7A5.61,5.61,0,0,1,2,128.5Zm92,29.6a77.7,77.7,0,0,1-54.2-22h98.7a7.6,7.6,0,0,0,7.6-7.6v-1.1a7.6,7.6,0,0,0-7.6-7.6h-2.2v-3.7h26.8A78,78,0,0,1,94,158.1Zm79.1-45.8a4.9,4.9,0,0,1-3.7,1.8H105.5a4.85,4.85,0,0,1-4.7-5.7c2.2-11.8,8.4-30.3,25.4-36a15.07,15.07,0,0,0,22.6,0c17,5.8,23.2,24.2,25.4,36A5.44,5.44,0,0,1,173.1,112.3Z"/><path class="cls-1" d="M19,38.1a4,4,0,1,0-4-4A4,4,0,0,0,19,38.1Zm0-6a2,2,0,1,1-2,2A2,2,0,0,1,19,32.1Z"/><path class="cls-1" d="M30.5,37.8a4,4,0,0,0,1.5.3,3.88,3.88,0,0,0,3.7-2.5,4,4,0,1,0-5.2,2.2Zm-.4-4.5A2,2,0,0,1,32,32.1a2.2,2.2,0,0,1,.8.1,2,2,0,0,1-1.5,3.7A2,2,0,0,1,30.1,33.3Z"/><path class="cls-1" d="M43.5,37.8a4,4,0,0,0,1.5.3,3.88,3.88,0,0,0,3.7-2.5,4,4,0,1,0-5.2,2.2Zm-.4-4.5A2,2,0,0,1,45,32.1a2.2,2.2,0,0,1,.8.1,2,2,0,0,1-1.5,3.7A2,2,0,0,1,43.1,33.3Z"/><path class="cls-1" d="M56,35.1h71a1,1,0,0,0,0-2H56a1,1,0,0,0,0,2Z"/><path class="cls-1" d="M84.1,57.4,72.3,69.2l-3.1-3.1a4.33,4.33,0,0,0-5.9-.2A4.59,4.59,0,0,0,61.8,69h0l-5.5-5.5a4.31,4.31,0,0,0-6.1,6.1L62,81.4l-3.1,3.1a4.33,4.33,0,0,0-.2,5.9,4.59,4.59,0,0,0,3.1,1.5h0l-6.3,6.3a4.31,4.31,0,1,0,6.1,6.1L73.4,92.5l3.1,3.1a4.33,4.33,0,0,0,5.9.2,4.59,4.59,0,0,0,1.5-3.1,4.22,4.22,0,0,0-1.3-3.2L77.1,84a5.14,5.14,0,0,0,1-3,5.38,5.38,0,0,0-1.7-3.8L90.2,63.4a4.29,4.29,0,0,0,0-6.1A4.38,4.38,0,0,0,84.1,57.4ZM60,89.3a2.63,2.63,0,0,1,.1-3.6L63.8,82a.91.91,0,0,0,0-1.2L51.5,68.5a2.69,2.69,0,1,1,3.8-3.8L68.9,78.3a5,5,0,0,0-.8,2.7,4.69,4.69,0,0,0,1.1,3.1l-5.3,5.3a2.79,2.79,0,0,1-2,.8A2.32,2.32,0,0,1,60,89.3Zm21.5,1.5a2.79,2.79,0,0,1,.8,2,2.46,2.46,0,0,1-.9,1.9,2.63,2.63,0,0,1-3.6-.1l-3.7-3.7a.91.91,0,0,0-1.2,0L60.6,103.2a2.69,2.69,0,1,1-3.8-3.8L70.7,85.5a4.75,4.75,0,0,0,2.4.6,5,5,0,0,0,2.9-.9ZM76.7,81a3.6,3.6,0,1,1-3.6-3.6A3.59,3.59,0,0,1,76.7,81ZM89.1,62.3l-14,14a5.85,5.85,0,0,0-1.9-.4,5,5,0,0,0-2.9.9l-5.9-5.9a2.79,2.79,0,0,1-.8-2,2.46,2.46,0,0,1,.9-1.9,2.63,2.63,0,0,1,3.6.1l3.7,3.7a.91.91,0,0,0,1.2,0L85.3,58.5a2.69,2.69,0,0,1,3.8,3.8Z"/></g></g></g></svg>