<svg xmlns="http://www.w3.org/2000/svg" viewBox="0 0 160 163.53"><defs><style>.cls-1{fill:#001a3a;}</style></defs><title>tech</title><g id="Слой_2" data-name="Слой 2"><g id="Слой_1-2" data-name="Слой 1"><g id="_001a3a" data-name="#001a3a"><path class="cls-1" d="M73.5,47.24l8.3,1.2a17.23,17.23,0,0,0,.8,2.09l-5,6.6a.93.93,0,0,0,.1,1.3l5.1,5.1a.94.94,0,0,0,1.3.1l6.4-4.8a29.17,29.17,0,0,0,3.1,1.4l1.2,8.3a1.06,1.06,0,0,0,1,.9H103a1.06,1.06,0,0,0,1-.9l1.2-8.1a18.61,18.61,0,0,0,2.5-1l6.9,5.2a.93.93,0,0,0,1.3-.1l5.1-5.09a.94.94,0,0,0,.1-1.3l-5-6.7a19.45,19.45,0,0,0,1.3-3l8.3-1.2a1.06,1.06,0,0,0,.9-1V39a1.06,1.06,0,0,0-.9-1l-8.1-1.2a21.69,21.69,0,0,0-1.5-3.5l5-6.6a.93.93,0,0,0-.1-1.3l-5.1-5.1a.94.94,0,0,0-1.3-.1l-6.9,5.2a26,26,0,0,0-2.5-1l-1.2-8.1a1.06,1.06,0,0,0-1-.9H95.8a1.06,1.06,0,0,0-1,.9l-1.2,8.3a28.8,28.8,0,0,0-3.1,1.3l-6.4-4.8a.93.93,0,0,0-1.3.1l-5.1,5.1a.94.94,0,0,0-.1,1.3l5,6.7a20,20,0,0,0-1,2.6l-8.1,1.2a1.06,1.06,0,0,0-.9,1v7.2A1.06,1.06,0,0,0,73.5,47.24Zm1.1-7.41,7.9-1.09a1,1,0,0,0,.8-.71,20.21,20.21,0,0,1,1.3-3.4,1.1,1.1,0,0,0-.1-1.1l-4.8-6.4,3.9-3.89,6.2,4.7a1.1,1.1,0,0,0,1.1.1,18.42,18.42,0,0,1,3.8-1.7,1,1,0,0,0,.7-.8l1.2-8.1h5.5l1.1,7.9a.94.94,0,0,0,.7.79,13.74,13.74,0,0,1,3.3,1.3,1.1,1.1,0,0,0,1.1-.1l6.7-5,3.9,3.9-4.9,6.5a1.1,1.1,0,0,0-.1,1.1,15.67,15.67,0,0,1,1.8,4.2.85.85,0,0,0,.8.71l7.9,1.09v5.5l-8.1,1.1a1,1,0,0,0-.8.7,18.42,18.42,0,0,1-1.7,3.8.91.91,0,0,0,.1,1.1l4.9,6.5-3.9,3.9-6.7-5.1a1.05,1.05,0,0,0-1.1-.09,21.43,21.43,0,0,1-3.3,1.29.86.86,0,0,0-.7.8L102,67.24H96.5l-1.1-8.1a1,1,0,0,0-.7-.8,18.42,18.42,0,0,1-3.8-1.7.91.91,0,0,0-1.1.1l-6.2,4.59-3.9-3.9L84.5,51a1.07,1.07,0,0,0,.1-1.1A14.76,14.76,0,0,1,83.4,47a1,1,0,0,0-.8-.7l-8.1-1.2Z"/><path class="cls-1" d="M99.6,52h0a9.6,9.6,0,1,0,0-19.19h0A9.6,9.6,0,1,0,99.6,52ZM94.2,36.94a7.73,7.73,0,0,1,5.4-2.2h0a7.6,7.6,0,1,1,0,15.2h0a7.62,7.62,0,0,1-7.6-7.7A7,7,0,0,1,94.2,36.94Z"/><path class="cls-1" d="M160,83.74a79.93,79.93,0,0,0-97.7-78,28.43,28.43,0,0,0-3-5A1.72,1.72,0,0,0,57.2.13a1.59,1.59,0,0,0-1,1.9,18.09,18.09,0,0,1,.2,5.21,79.89,79.89,0,0,0-29.9,17,22.73,22.73,0,0,1-4.8-3.3A20.66,20.66,0,0,1,15,5.64a24.52,24.52,0,0,1,.2-2.7A2.55,2.55,0,0,0,13.7.24,2.47,2.47,0,0,0,10.8,1a30,30,0,0,0-5.7,19.4,30.58,30.58,0,0,0,8.3,19.1A79.34,79.34,0,0,0,9.9,122a9.7,9.7,0,0,0,1.6,2.8,40.63,40.63,0,0,0,2.3,3.5,8.28,8.28,0,0,0-2.2,5.7,8.49,8.49,0,0,0,8.5,8.5h6a79.77,79.77,0,0,0,100.5,6h12.9a9.27,9.27,0,0,0,9.3-9.29V124.33A78.18,78.18,0,0,0,160,83.74Zm-80-78a77.88,77.88,0,0,1,68.7,114.79V83.63a9.2,9.2,0,0,0-9.3-9.2H80.1a9.18,9.18,0,0,0-9.1,7.9H63.5L52.1,56a9.51,9.51,0,0,0-5.2-5l-1-.29v-3.6a30.2,30.2,0,0,0,19.5-28.2,31.13,31.13,0,0,0-2.2-11.3A77.23,77.23,0,0,1,80,5.74Zm9.1,140.7V76.64H103v69.8Zm-8.9,0a7,7,0,0,1-7-7V83.53a7,7,0,0,1,7-7h6.9v69.8H80.2ZM56.1,9.53a20.92,20.92,0,0,1-18.6,16.9,21.14,21.14,0,0,1-9-1.2A79.21,79.21,0,0,1,56.1,9.53ZM12.4,2.34a.63.63,0,0,1,.5-.21.4.4,0,0,1,.3.5c-.1,1-.2,2-.2,3a22.77,22.77,0,0,0,7.4,16.71,22.17,22.17,0,0,0,17.4,5.9A22.84,22.84,0,0,0,58.3,8.84a21.54,21.54,0,0,0,0-6.21,28.14,28.14,0,0,1-13.7,42.7,1,1,0,0,0-.7.91V82.33H26.4V46.24a1,1,0,0,0-.7-.91,27.11,27.11,0,0,1-9.8-6.09.1.1,0,0,1,.1-.1,2.09,2.09,0,0,1-.6-.4A28.42,28.42,0,0,1,7,20.24,27.65,27.65,0,0,1,12.4,2.34ZM14.8,41a29.9,29.9,0,0,0,9.6,6V82.24H17.9a8.52,8.52,0,0,0-5,15.4,8.53,8.53,0,0,0,.8,14.3,8.44,8.44,0,0,0-4,5.4A77.44,77.44,0,0,1,14.8,41Zm-1,93.11a6.34,6.34,0,0,1,6.3-6.3,1.1,1.1,0,1,0,0-2.2H18a6.34,6.34,0,0,1-6.3-6.3A6.27,6.27,0,0,1,18,113a1.1,1.1,0,0,0,0-2.2,6.34,6.34,0,0,1-6.3-6.3,6.18,6.18,0,0,1,4-5.8,1.21,1.21,0,0,0,0-2.2A6.26,6.26,0,0,1,18,84.44h7.5v-.1H45a.94.94,0,0,0,1-1V52.94h.1a6.94,6.94,0,0,1,3.9,3.8l11.7,27a1.2,1.2,0,0,0,1,.7h8.2v55.8H20A6,6,0,0,1,13.8,134.14ZM80,161.74a77.49,77.49,0,0,1-50.9-19H71.6a9.26,9.26,0,0,0,8.7,6h42.9A78.45,78.45,0,0,1,80,161.74Zm66.4-22.21a7,7,0,0,1-7,7H105V76.74h34.5a7,7,0,0,1,7,7v55.79Z"/></g></g></g></svg>