<?xml version="1.0"?>
<svg xmlns="http://www.w3.org/2000/svg" version="1.1" xmlns:xlink="http://www.w3.org/1999/xlink" xmlns:svgjs="http://svgjs.com/svgjs" width="512" height="512" x="0" y="0" viewBox="0 0 682.667 682.667" style="enable-background:new 0 0 512 512" xml:space="preserve" class=""><g><defs><clipPath id="a" clipPathUnits="userSpaceOnUse"><path d="M0 512h512V0H0Z" fill="#f9423a" opacity="1" data-original="#000000" class=""></path></clipPath></defs><g clip-path="url(#a)" transform="matrix(1.33333 0 0 -1.33333 0 682.667)"><path d="m0 0 21.057-42.665a23.072 23.072 0 0 1 17.375-12.624l111.363-16.183c18.928-2.75 26.485-26.01 12.789-39.361l-80.583-78.549a23.079 23.079 0 0 1-6.637-20.426l19.024-110.913c3.232-18.851-16.554-33.227-33.484-24.327" style="stroke-width:15;stroke-linecap:round;stroke-linejoin:round;stroke-miterlimit:10;stroke-dasharray:none;stroke-opacity:1" transform="translate(305.44 433.39)" fill="none" stroke="#f9423a" stroke-width="15" stroke-linecap="round" stroke-linejoin="round" stroke-miterlimit="10" stroke-dasharray="none" stroke-opacity="" data-original="#000000" opacity="1" class=""></path><path d="M0 0c-16.93-8.9-36.716 5.476-33.482 24.327L-14.46 135.24a23.076 23.076 0 0 1-6.637 20.426l-80.583 78.549c-13.696 13.35-6.138 36.611 12.789 39.361l111.364 16.183a23.075 23.075 0 0 1 17.375 12.624l49.803 100.912c8.465 17.151 32.922 17.151 41.387 0l14.358-29.091" style="stroke-width:15;stroke-linecap:round;stroke-linejoin:round;stroke-miterlimit:10;stroke-dasharray:none;stroke-opacity:1" transform="translate(145.655 88.342)" fill="none" stroke="#f9423a" stroke-width="15" stroke-linecap="round" stroke-linejoin="round" stroke-miterlimit="10" stroke-dasharray="none" stroke-opacity="" data-original="#000000" opacity="1" class=""></path><path d="M0 0c14.756 11.026 24.308 28.633 24.308 48.471V95.16" style="stroke-width:15;stroke-linecap:round;stroke-linejoin:round;stroke-miterlimit:10;stroke-dasharray:none;stroke-opacity:1" transform="translate(304.873 137.94)" fill="none" stroke="#f9423a" stroke-width="15" stroke-linecap="round" stroke-linejoin="round" stroke-miterlimit="10" stroke-dasharray="none" stroke-opacity="" data-original="#000000" opacity="1" class=""></path><path d="M0 0v-46.689c0-20.039 9.746-37.8 24.757-48.803" style="stroke-width:15;stroke-linecap:round;stroke-linejoin:round;stroke-miterlimit:10;stroke-dasharray:none;stroke-opacity:1" transform="translate(182.82 233.1)" fill="none" stroke="#f9423a" stroke-width="15" stroke-linecap="round" stroke-linejoin="round" stroke-miterlimit="10" stroke-dasharray="none" stroke-opacity="" data-original="#000000" opacity="1" class=""></path><path d="M0 0v130.44" style="stroke-width:15;stroke-linecap:round;stroke-linejoin:round;stroke-miterlimit:10;stroke-dasharray:none;stroke-opacity:1" transform="translate(310.44 7.5)" fill="none" stroke="#f9423a" stroke-width="15" stroke-linecap="round" stroke-linejoin="round" stroke-miterlimit="10" stroke-dasharray="none" stroke-opacity="" data-original="#000000" opacity="1" class=""></path><path d="M0 0v-130.44" style="stroke-width:15;stroke-linecap:round;stroke-linejoin:round;stroke-miterlimit:10;stroke-dasharray:none;stroke-opacity:1" transform="translate(201.56 137.94)" fill="none" stroke="#f9423a" stroke-width="15" stroke-linecap="round" stroke-linejoin="round" stroke-miterlimit="10" stroke-dasharray="none" stroke-opacity="" data-original="#000000" opacity="1" class=""></path><path d="M0 0v-22.44C0-33.63-9.071-42.7-20.261-42.7H-34.46c-11.189 0-20.26 9.07-20.26 20.26V0" style="stroke-width:15;stroke-linecap:round;stroke-linejoin:round;stroke-miterlimit:10;stroke-dasharray:none;stroke-opacity:1" transform="translate(283.36 137.94)" fill="none" stroke="#f9423a" stroke-width="15" stroke-linecap="round" stroke-linejoin="round" stroke-miterlimit="10" stroke-dasharray="none" stroke-opacity="" data-original="#000000" opacity="1" class=""></path><path d="M0 0v-30.968c0-9.68 4.045-18.92 11.158-25.486l.432-.399a34.673 34.673 0 0 1 13.162-7.604v-6.815a27.21 27.21 0 0 0-8.858-20.089l-3.622-3.309h-38.1c-9.444 0-17.1-7.655-17.1-17.1v-103.34c0-5.523 4.477-10 10-10h145.12c5.523 0 10 4.477 10 10v103.34c0 9.445-7.656 17.1-17.1 17.1h-38.1l-3.622 3.309a27.21 27.21 0 0 0-8.858 20.089v6.815a34.673 34.673 0 0 1 13.162 7.604l.432.399a34.684 34.684 0 0 1 11.158 25.486V0" style="stroke-width:15;stroke-linecap:round;stroke-linejoin:round;stroke-miterlimit:10;stroke-dasharray:none;stroke-opacity:1" transform="translate(216.368 232.61)" fill="none" stroke="#f9423a" stroke-width="15" stroke-linecap="round" stroke-linejoin="round" stroke-miterlimit="10" stroke-dasharray="none" stroke-opacity="" data-original="#000000" opacity="1" class=""></path><path d="M0 0v-30.968c0-9.68-4.045-18.92-11.158-25.486l-.432-.399a34.683 34.683 0 0 0-23.527-9.199h-9.029a34.685 34.685 0 0 0-23.528 9.199l-.431.399a34.682 34.682 0 0 0-11.159 25.486V0" style="stroke-width:15;stroke-linecap:round;stroke-linejoin:round;stroke-miterlimit:10;stroke-dasharray:none;stroke-opacity:1" transform="translate(295.632 232.61)" fill="none" stroke="#f9423a" stroke-width="15" stroke-linecap="round" stroke-linejoin="round" stroke-miterlimit="10" stroke-dasharray="none" stroke-opacity="" data-original="#000000" opacity="1" class=""></path><path d="M0 0h30.761c14.845 0 26.88 12.035 26.88 26.88v3.84-6.96C57.641 10.638 68.278 0 81.401 0h16.82" style="stroke-width:15;stroke-linecap:round;stroke-linejoin:round;stroke-miterlimit:10;stroke-dasharray:none;stroke-opacity:1" transform="translate(207.22 233.1)" fill="none" stroke="#f9423a" stroke-width="15" stroke-linecap="round" stroke-linejoin="round" stroke-miterlimit="10" stroke-dasharray="none" stroke-opacity="" data-original="#000000" opacity="1" class=""></path><path d="M0 0v6.31c0 30.712-24.897 55.61-55.61 55.61h-35.141c-30.713 0-55.61-24.898-55.61-55.61V0" style="stroke-width:15;stroke-linecap:round;stroke-linejoin:round;stroke-miterlimit:10;stroke-dasharray:none;stroke-opacity:1" transform="translate(329.18 233.1)" fill="none" stroke="#f9423a" stroke-width="15" stroke-linecap="round" stroke-linejoin="round" stroke-miterlimit="10" stroke-dasharray="none" stroke-opacity="" data-original="#000000" opacity="1" class=""></path><path d="m0 0-15.176-7.978c-2.579-1.356-5.594.834-5.101 3.707l2.898 16.898a3.519 3.519 0 0 1-1.011 3.112l-12.278 11.967c-2.086 2.034-.935 5.578 1.949 5.997l16.967 2.466a3.517 3.517 0 0 1 2.648 1.923l7.587 15.375c1.289 2.613 5.016 2.613 6.306 0l7.588-15.375a3.516 3.516 0 0 1 2.646-1.923l16.967-2.466c2.884-.419 4.036-3.963 1.949-5.997L21.662 15.739a3.517 3.517 0 0 1-1.012-3.112l2.899-16.898c.493-2.873-2.522-5.063-5.102-3.707L3.271 0A3.51 3.51 0 0 1 0 0Z" style="stroke-width:15;stroke-linecap:round;stroke-linejoin:round;stroke-miterlimit:10;stroke-dasharray:none;stroke-opacity:1" transform="translate(455.244 181.394)" fill="none" stroke="#f9423a" stroke-width="15" stroke-linecap="round" stroke-linejoin="round" stroke-miterlimit="10" stroke-dasharray="none" stroke-opacity="" data-original="#000000" opacity="1" class=""></path><path d="m0 0-15.176-7.978c-2.58-1.356-5.595.834-5.101 3.707l2.898 16.898a3.517 3.517 0 0 1-1.012 3.112l-12.277 11.967c-2.087 2.034-.935 5.578 1.949 5.997l16.967 2.466a3.516 3.516 0 0 1 2.647 1.923l7.587 15.375c1.29 2.613 5.017 2.613 6.306 0l7.588-15.375a3.518 3.518 0 0 1 2.647-1.923l16.967-2.466c2.884-.419 4.035-3.963 1.949-5.997L21.661 15.739a3.519 3.519 0 0 1-1.011-3.112l2.899-16.898c.492-2.873-2.523-5.063-5.102-3.707L3.271 0A3.51 3.51 0 0 1 0 0Z" style="stroke-width:15;stroke-linecap:round;stroke-linejoin:round;stroke-miterlimit:10;stroke-dasharray:none;stroke-opacity:1" transform="translate(53.484 181.394)" fill="none" stroke="#f9423a" stroke-width="15" stroke-linecap="round" stroke-linejoin="round" stroke-miterlimit="10" stroke-dasharray="none" stroke-opacity="" data-original="#000000" opacity="1" class=""></path></g></g></svg>