<?xml version="1.0" encoding="utf-8"?>
<!-- Generator: Adobe Illustrator 22.1.0, SVG Export Plug-In . SVG Version: 6.00 Build 0)  -->
<svg version="1.1" id="Слой_1" xmlns="http://www.w3.org/2000/svg" xmlns:xlink="http://www.w3.org/1999/xlink" x="0px" y="0px"
	 viewBox="0 0 72 53" style="enable-background:new 0 0 72 53;" xml:space="preserve">
<style type="text/css">
	.st0{clip-path:url(#SVGID_2_);fill:url(#SVGID_3_);}
</style>
<g>
	<defs>
		<path id="SVGID_1_" d="M69.2,3.1c-1.9-2-4.5-3-7.1-3.1H62c-2.5,0-4.9,0.9-6.9,2.8L25.9,30.9L15.5,21c-3.7-3.5-9.5-3.4-13,0.3
			c-3.5,3.7-3.4,9.5,0.3,13l16.9,16.1c1.8,1.7,4.1,2.6,6.4,2.6c0.5,0,0.9,0,1.4-0.1c0.1,0,0.2,0,0.4,0c2.5,0,5-0.9,6.9-2.8l34.3-33
			c2-2,3.1-4.6,3.1-7.2C72,7.5,71.1,5,69.2,3.1"/>
	</defs>
	<clipPath id="SVGID_2_">
		<use xlink:href="#SVGID_1_"  style="overflow:visible;"/>
	</clipPath>
	
		<linearGradient id="SVGID_3_" gradientUnits="userSpaceOnUse" x1="9.4559" y1="62.553" x2="10.4559" y2="62.553" gradientTransform="matrix(0 53.0059 -53.0059 0 3351.157 -501.2196)">
		<stop  offset="0" style="stop-color:#2BA0DA"/>
		<stop  offset="0.2178" style="stop-color:#267DB3"/>
		<stop  offset="0.5864" style="stop-color:#1D4576"/>
		<stop  offset="0.8576" style="stop-color:#182350"/>
		<stop  offset="1" style="stop-color:#161642"/>
	</linearGradient>
	<rect x="-1" class="st0" width="73" height="53"/>
</g>
</svg>
