<?xml version="1.0" encoding="utf-8"?>
<!-- Generator: Adobe Illustrator 22.1.0, SVG Export Plug-In . SVG Version: 6.00 Build 0)  -->
<svg version="1.1" id="Слой_1" xmlns="http://www.w3.org/2000/svg" xmlns:xlink="http://www.w3.org/1999/xlink" x="0px" y="0px"
	 viewBox="0 0 72.1 53" style="enable-background:new 0 0 72.1 53;" xml:space="preserve">
<style type="text/css">
	.st0{clip-path:url(#SVGID_2_);fill:url(#SVGID_3_);}
</style>
<g>
	<defs>
		<path id="SVGID_1_" d="M26.1,53c0.5,0,0.9,0,1.4-0.1c0.1,0,0.2,0,0.4,0c2.5,0,5-0.9,6.9-2.8l34.3-33c2-1.9,3-4.5,3.1-7.1V9.9
			c0-2.5-0.9-4.9-2.8-6.8c-1.9-2-4.5-3-7.1-3.1h-0.1c-2.5,0-4.9,0.9-6.9,2.8L26,30.9L15.6,21c-3.7-3.5-9.5-3.4-13,0.3
			c-1.7,1.8-2.5,4-2.6,6.3l0,0.1c0,2.4,1,4.8,2.8,6.6l16.9,16.1C21.5,52.2,23.8,53,26.1,53z"/>
	</defs>
	<clipPath id="SVGID_2_">
		<use xlink:href="#SVGID_1_"  style="overflow:visible;"/>
	</clipPath>
	
		<linearGradient id="SVGID_3_" gradientUnits="userSpaceOnUse" x1="0" y1="53.0019" x2="1" y2="53.0019" gradientTransform="matrix(-4.759209e-09 53.0019 -53.0019 -4.759209e-09 2845.2419 -9.130048e-05)">
		<stop  offset="0" style="stop-color:#DE5696"/>
		<stop  offset="0.5888" style="stop-color:#A04086"/>
		<stop  offset="1" style="stop-color:#732F7A"/>
	</linearGradient>
	<rect y="0" class="st0" width="72.1" height="53"/>
</g>
</svg>
