<?xml version="1.0" encoding="utf-8"?>
<!-- Generator: Adobe Illustrator 22.1.0, SVG Export Plug-In . SVG Version: 6.00 Build 0)  -->
<svg version="1.1" id="Слой_1" xmlns="http://www.w3.org/2000/svg" xmlns:xlink="http://www.w3.org/1999/xlink" x="0px" y="0px"
	 viewBox="0 0 72.1 53" style="enable-background:new 0 0 72.1 53;" xml:space="preserve">
<style type="text/css">
	.st0{clip-path:url(#SVGID_2_);fill:url(#SVGID_3_);}
</style>
<g>
	<defs>
		<path id="SVGID_1_" d="M55.2,2.8L26,30.9L15.6,21c-3.7-3.5-9.5-3.4-13,0.3c-3.5,3.7-3.4,9.5,0.3,13l16.9,16.1
			c1.8,1.7,4.1,2.6,6.4,2.6c0.5,0,0.9,0,1.4-0.1c0.1,0,0.2,0,0.4,0c2.5,0,5-0.9,6.9-2.8l34.3-33c4-3.8,4.1-10.1,0.3-14.1
			c-2-2-4.6-3.1-7.2-3.1C59.6,0,57.2,0.9,55.2,2.8"/>
	</defs>
	<clipPath id="SVGID_2_">
		<use xlink:href="#SVGID_1_"  style="overflow:visible;"/>
	</clipPath>
	
		<linearGradient id="SVGID_3_" gradientUnits="userSpaceOnUse" x1="0" y1="53.0049" x2="1" y2="53.0049" gradientTransform="matrix(0 -56.5207 56.5207 0 -2959.7998 58.3548)">
		<stop  offset="0" style="stop-color:#EE4036"/>
		<stop  offset="0.2809" style="stop-color:#F1622E"/>
		<stop  offset="0.5543" style="stop-color:#F27B27"/>
		<stop  offset="0.8016" style="stop-color:#F48B23"/>
		<stop  offset="1" style="stop-color:#F49022"/>
	</linearGradient>
	<rect x="-1" y="0" class="st0" width="74.1" height="53"/>
</g>
</svg>
