<?xml version="1.0"?>
<svg xmlns="http://www.w3.org/2000/svg" height="512px" viewBox="0 0 496 496" width="512px" class=""><g><path d="m488 288v-288h-480v288h-8v208h48v-112h60.28125l4 112h79.4375l4-112h7.824219l4.800781 112h79.328125l4.800781-112h7.824219l4 112h79.4375l4-112h60.265625v112h48v-208zm-464-272h448v144h-448zm0 160h448v112h-24v32h-40.425781c-1.972657-14.070312-11.222657-26.078125-24.726563-31.480469l-14.847656-5.933593v-2.753907c9.96875-7.511719 16-19.328125 16-31.832031v-14.335938c0-21.503906-16.007812-39.726562-36.441406-41.503906-11.238282-.992187-22.351563 2.800782-30.582032 10.351563-8.25 7.558593-12.976562 18.3125-12.976562 29.488281v16c0 12.503906 6.03125 24.320312 16 31.832031v2.753907l-14.847656 5.933593c-3.273438 1.3125-6.335938 3.105469-9.152344 5.214844-2.777344-2.078125-5.800781-3.878906-9.144531-5.214844l-14.855469-5.933593v-2.753907c9.96875-7.511719 16-19.328125 16-31.832031v-14.335938c0-21.503906-16.007812-39.726562-36.441406-41.503906-11.238282-.992187-22.351563 2.800782-30.582032 10.351563-8.25 7.558593-12.976562 18.3125-12.976562 29.488281v16c0 12.503906 6.03125 24.320312 16 31.832031v2.753907l-14.847656 5.933593c-3.335938 1.335938-6.367188 3.136719-9.144532 5.214844-2.816406-2.117187-5.878906-3.902344-9.152343-5.214844l-14.855469-5.933593v-2.753907c9.96875-7.511719 16-19.328125 16-31.832031v-14.335938c0-21.503906-16.007812-39.726562-36.441406-41.503906-11.230469-.992187-22.351563 2.800782-30.582032 10.351563-8.25 7.558593-12.976562 18.3125-12.976562 29.488281v16c0 12.503906 6.03125 24.320312 16 31.832031v2.753907l-14.847656 5.933593c-13.503906 5.402344-22.753906 17.410157-24.726563 31.480469h-40.425781v-32h-24zm116.023438 92.648438c-7.527344-4.382813-12.023438-12.105469-12.023438-20.648438v-16c0-6.703125 2.832031-13.160156 7.792969-17.695312 5.007812-4.59375 11.574219-6.769532 18.382812-6.207032 12.238281 1.0625 21.824219 12.285156 21.824219 25.566406v14.335938c0 8.542969-4.496094 16.265625-12.023438 20.648438l-3.976562 2.3125v22.453124l24.910156 9.96875c1.59375.640626 3.058594 1.472657 4.449219 2.410157-2.488281 4.335937-4.222656 9.109375-4.945313 14.207031h-79.6875c1.792969-7.441406 7-13.679688 14.351563-16.617188l24.921875-9.96875v-22.453124zm75.066406 34.734374 24.910156-9.96875v-22.453124l-3.976562-2.3125c-7.527344-4.382813-12.023438-12.105469-12.023438-20.648438v-16c0-6.703125 2.832031-13.160156 7.792969-17.695312 5.007812-4.59375 11.574219-6.769532 18.382812-6.207032 12.238281 1.0625 21.824219 12.285156 21.824219 25.566406v14.335938c0 8.542969-4.496094 16.265625-12.023438 20.648438l-3.976562 2.3125v22.453124l24.910156 9.96875c7.355469 2.945313 12.5625 9.175782 14.355469 16.617188h-94.53125c1.792969-7.441406 6.992187-13.679688 14.355469-16.617188zm96.484375 16.617188c-.71875-5.089844-2.453125-9.863281-4.933594-14.199219 1.398437-.945312 2.871094-1.792969 4.449219-2.417969l24.910156-9.96875v-22.453124l-3.976562-2.3125c-7.527344-4.382813-12.023438-12.105469-12.023438-20.648438v-16c0-6.703125 2.832031-13.160156 7.792969-17.695312 5.007812-4.59375 11.542969-6.769532 18.382812-6.207032 12.238281 1.0625 21.824219 12.285156 21.824219 25.566406v14.335938c0 8.542969-4.496094 16.265625-12.023438 20.648438l-3.976562 2.3125v22.453124l24.910156 9.96875c7.355469 2.945313 12.5625 9.175782 14.355469 16.617188zm-279.574219 160h-16v-176h16zm144.28125 0h-16.28125v-80h-16v80h-16.28125l-3.429688-96h55.421876zm96.054688 0h-16.335938v-80h-16v80h-16.335938l-4.113281-96h56.898438zm95.945312 0h-16.28125v-80h-16v80h-16.28125l-3.429688-96h55.421876zm-320.28125-112v-32h400v32zm432 112h-16v-176h16zm0 0" data-original="#000000" class="active-path" data-old_color="#052b5f" fill="#052b5f"/><path d="m286.960938 73.375c-2.953126-.464844-7.351563-1.152344-10.191407-1.871094.789063-2.847656 2.421875-7.070312 3.511719-9.902344 4.375-11.320312 8.894531-23.027343-.304688-28.265624-8.898437-5.070313-16.382812 3.9375-24.289062 13.472656-2.167969 2.597656-5.464844 6.566406-7.6875 8.648437-2.222656-2.074219-5.519531-6.050781-7.6875-8.648437-7.90625-9.527344-15.402344-18.535156-24.28125-13.472656-9.207031 5.238281-4.6875 16.945312-.3125 28.265624 1.097656 2.832032 2.730469 7.054688 3.511719 9.902344-2.839844.71875-7.238281 1.40625-10.191407 1.863282-12.3125 1.929687-25.039062 3.921874-25.039062 14.632812 0 10.703125 12.726562 12.695312 25.039062 14.625 2.953126.464844 7.351563 1.152344 10.191407 1.871094-.789063 2.847656-2.421875 7.070312-3.511719 9.902344-4.375 11.320312-8.894531 23.027343.304688 28.265624 8.914062 5.078126 16.382812-3.945312 24.289062-13.472656 2.167969-2.597656 5.464844-6.574218 7.6875-8.648437 2.222656 2.074219 5.519531 6.050781 7.6875 8.648437 6.335938 7.640625 12.402344 14.9375 19.128906 14.9375 1.671875 0 3.390625-.457031 5.160156-1.464844 9.207032-5.238281 4.6875-16.945312.3125-28.265624-1.097656-2.832032-2.730468-7.054688-3.511718-9.902344 2.839844-.71875 7.238281-1.40625 10.191406-1.863282 12.304688-1.929687 25.03125-3.921874 25.03125-14.632812 0-10.703125-12.726562-12.695312-25.039062-14.625zm-25.066407 22.367188c-2.65625 4.523437-1.664062 10.097656.625 16.808593-4.792969-5.3125-9.222656-8.941406-14.519531-8.941406s-9.734375 3.628906-14.519531 8.941406c2.289062-6.710937 3.28125-12.285156.625-16.816406-2.671875-4.535156-8.25-6.375-15.496094-7.734375 7.246094-1.359375 12.824219-3.199219 15.496094-7.742188 2.65625-4.523437 1.664062-10.097656-.625-16.808593 4.792969 5.3125 9.222656 8.941406 14.519531 8.941406s9.734375-3.628906 14.519531-8.941406c-2.289062 6.710937-3.28125 12.285156-.625 16.816406 2.671875 4.535156 8.242188 6.375 15.496094 7.734375-7.246094 1.359375-12.824219 3.199219-15.496094 7.742188zm0 0" data-original="#000000" class="active-path" data-old_color="#052b5f" fill="#052b5f"/><path d="m142.960938 73.375c-2.953126-.464844-7.351563-1.152344-10.191407-1.871094.789063-2.847656 2.421875-7.070312 3.511719-9.902344 4.375-11.320312 8.894531-23.027343-.304688-28.265624-8.90625-5.070313-16.375 3.9375-24.289062 13.472656-2.167969 2.597656-5.464844 6.566406-7.6875 8.648437-2.222656-2.074219-5.519531-6.050781-7.6875-8.648437-7.90625-9.527344-15.410156-18.535156-24.28125-13.472656-9.207031 5.230468-4.6875 16.945312-.3125 28.265624 1.097656 2.832032 2.730469 7.054688 3.511719 9.902344-2.839844.71875-7.238281 1.40625-10.191407 1.863282-12.3125 1.929687-25.039062 3.921874-25.039062 14.632812 0 10.703125 12.726562 12.695312 25.039062 14.625 2.953126.464844 7.351563 1.152344 10.191407 1.871094-.789063 2.847656-2.421875 7.070312-3.511719 9.902344-4.375 11.320312-8.894531 23.027343.304688 28.265624 8.90625 5.078126 16.375-3.945312 24.289062-13.472656 2.167969-2.597656 5.464844-6.574218 7.6875-8.648437 2.222656 2.074219 5.519531 6.050781 7.6875 8.648437 6.335938 7.640625 12.402344 14.9375 19.128906 14.9375 1.671875 0 3.390625-.457031 5.160156-1.464844 9.207032-5.238281 4.6875-16.945312.3125-28.265624-1.097656-2.832032-2.730468-7.054688-3.511718-9.902344 2.839844-.71875 7.238281-1.40625 10.191406-1.863282 12.304688-1.929687 25.03125-3.921874 25.03125-14.632812 0-10.703125-12.726562-12.695312-25.039062-14.625zm-25.066407 22.367188c-2.65625 4.523437-1.664062 10.097656.625 16.808593-4.792969-5.3125-9.222656-8.941406-14.519531-8.941406s-9.734375 3.628906-14.519531 8.941406c2.289062-6.710937 3.28125-12.285156.625-16.816406-2.671875-4.535156-8.25-6.375-15.496094-7.734375 7.246094-1.359375 12.824219-3.199219 15.496094-7.742188 2.65625-4.523437 1.664062-10.097656-.625-16.808593 4.792969 5.3125 9.222656 8.941406 14.519531 8.941406s9.734375-3.628906 14.519531-8.941406c-2.289062 6.710937-3.28125 12.285156-.625 16.816406 2.671875 4.535156 8.242188 6.375 15.496094 7.734375-7.246094 1.359375-12.824219 3.199219-15.496094 7.742188zm0 0" data-original="#000000" class="active-path" data-old_color="#052b5f" fill="#052b5f"/><path d="m430.960938 73.375c-2.953126-.464844-7.351563-1.152344-10.191407-1.871094.789063-2.847656 2.421875-7.070312 3.511719-9.902344 4.375-11.320312 8.894531-23.027343-.304688-28.265624-8.90625-5.070313-16.375 3.9375-24.289062 13.472656-2.167969 2.597656-5.464844 6.566406-7.6875 8.648437-2.222656-2.074219-5.519531-6.050781-7.6875-8.648437-7.90625-9.527344-15.410156-18.535156-24.28125-13.472656-9.207031 5.238281-4.6875 16.945312-.3125 28.265624 1.097656 2.832032 2.730469 7.054688 3.511719 9.902344-2.839844.71875-7.238281 1.40625-10.191407 1.863282-12.3125 1.929687-25.039062 3.921874-25.039062 14.632812 0 10.703125 12.726562 12.695312 25.039062 14.625 2.953126.464844 7.351563 1.152344 10.191407 1.871094-.789063 2.847656-2.421875 7.070312-3.511719 9.902344-4.375 11.320312-8.894531 23.027343.304688 28.265624 8.90625 5.078126 16.375-3.945312 24.289062-13.472656 2.167969-2.597656 5.464844-6.574218 7.6875-8.648437 2.222656 2.074219 5.519531 6.050781 7.6875 8.648437 6.335938 7.640625 12.402344 14.9375 19.128906 14.9375 1.671875 0 3.390625-.457031 5.160156-1.464844 9.207032-5.238281 4.6875-16.945312.3125-28.265624-1.097656-2.832032-2.730468-7.054688-3.511718-9.902344 2.839844-.71875 7.238281-1.40625 10.191406-1.863282 12.304688-1.929687 25.03125-3.921874 25.03125-14.632812 0-10.703125-12.726562-12.695312-25.039062-14.625zm-25.066407 22.367188c-2.65625 4.523437-1.664062 10.097656.625 16.808593-4.792969-5.3125-9.222656-8.941406-14.519531-8.941406s-9.734375 3.628906-14.519531 8.941406c2.289062-6.710937 3.28125-12.285156.625-16.816406-2.671875-4.535156-8.25-6.375-15.496094-7.734375 7.246094-1.359375 12.824219-3.199219 15.496094-7.742188 2.65625-4.523437 1.664062-10.097656-.625-16.808593 4.792969 5.3125 9.222656 8.941406 14.519531 8.941406s9.734375-3.628906 14.519531-8.941406c-2.289062 6.710937-3.28125 12.285156-.625 16.816406 2.671875 4.535156 8.242188 6.375 15.496094 7.734375-7.246094 1.359375-12.824219 3.199219-15.496094 7.742188zm0 0" data-original="#000000" class="active-path" data-old_color="#052b5f" fill="#052b5f"/></g> </svg>
