<?xml version="1.0"?>
<svg xmlns="http://www.w3.org/2000/svg" height="512px" viewBox="0 0 496.00001 496" width="512px" class=""><g><path d="m496 243.761719c.007812-9.554688-3.71875-18.539063-10.480469-25.289063-6.757812-6.753906-15.765625-10.472656-25.351562-10.472656h-1.007813c-9.359375 0-18.152344 3.640625-24.753906 10.257812l-82.40625 82.414063v-300.671875h-267.3125l-84.6875 84.6875v411.3125h352v-92.6875l104-104 1.855469 1.855469c3.90625 3.910156 6.144531 9.3125 6.144531 14.832031s-2.238281 10.921875-6.144531 14.832031l-57.855469 57.855469c-5.160156 5.160156-8 12.015625-8 19.3125s2.839844 14.160156 8 19.3125l10.34375 10.34375 11.3125-11.3125-10.34375-10.34375c-2.136719-2.144531-3.3125-4.976562-3.3125-8s1.175781-5.855469 3.3125-8l57.855469-57.855469c6.886719-6.886719 10.832031-16.410156 10.832031-26.144531s-3.945312-19.257812-10.832031-26.144531l-1.855469-1.855469 18.0625-18.0625c6.847656-6.847656 10.625-15.953125 10.625-26.175781zm-416-216.449219v52.6875h-52.6875zm256 452.6875h-320v-384h80v-80h240v300.679688l-79.128906 79.136718-14.902344 52.183594h-11.632812c-.855469 0-1.625-.480469-2.007813-1.238281l-12.9375-25.875 6.914063-11.070313c6.34375-10.160156 9.695312-21.847656 9.695312-33.816406 0-13.230469-10.769531-24-24-24s-24 10.769531-24 24v2.832031c0 9.847657 2.328125 19.71875 6.734375 28.527344l6.328125 12.648437-16.839844 26.945313c-.398437.648437-1.132812 1.046875-1.902344 1.046875h-10.320312c-1.03125 0-1.929688-.703125-2.175781-1.703125l-4.128907-16.488281c-2.03125-8.128906-9.3125-13.808594-17.695312-13.808594s-15.664062 5.679688-17.695312 13.816406l-4.128907 16.488282c-.246093.992187-1.144531 1.695312-2.175781 1.695312h-24v16h24c8.382812 0 15.664062-5.679688 17.695312-13.816406l4.128907-16.488282c.496093-2 3.855469-2 4.359375 0l4.128906 16.488282c2.023438 8.136718 9.304688 13.816406 17.6875 13.816406h10.320312c6.335938 0 12.128907-3.199219 15.472657-8.566406l11.65625-18.648438 8.566406 17.136719c3.113281 6.214844 9.367187 10.078125 16.320313 10.078125h18.785156l59.070312-16.871094 27.808594-27.816406zm-68.039062-64.726562 20.765624 20.765624-29.078124 8.3125zm-59.21875-13.945313-1.742188 2.785156-1.953125-3.90625c-3.304687-6.605469-5.046875-14-5.046875-21.375v-2.832031c0-4.414062 3.585938-8 8-8s8 3.585938 8 8c0 8.96875-2.503906 17.726562-7.257812 25.328125zm95.257812 27.359375-28.6875-28.6875 140.679688-140.695312 28.695312 28.695312zm170.0625-170.0625-18.0625 18.0625-28.695312-28.695312 18.421874-18.425782c3.578126-3.589844 8.351563-5.566406 13.433594-5.566406h1.007813c5.320312 0 10.3125 2.054688 14.054687 5.800781 3.722656 3.71875 5.777344 8.679688 5.777344 14.503907 0 5.40625-2.113281 10.496093-5.9375 14.320312zm0 0" data-original="#000000" class="active-path" data-old_color="#f9423a" fill="#f9423a"/><path d="m64 448h16v16h-16zm0 0" data-original="#000000" class="active-path" data-old_color="#f9423a" fill="#f9423a"/><path d="m304 32h16v16h-16zm0 0" data-original="#000000" class="active-path" data-old_color="#f9423a" fill="#f9423a"/><path d="m192 32h96v16h-96zm0 0" data-original="#000000" class="active-path" data-old_color="#f9423a" fill="#f9423a"/><path d="m304 64h16v16h-16zm0 0" data-original="#000000" class="active-path" data-old_color="#f9423a" fill="#f9423a"/><path d="m192 64h96v16h-96zm0 0" data-original="#000000" class="active-path" data-old_color="#f9423a" fill="#f9423a"/><path d="m304 96h16v16h-16zm0 0" data-original="#000000" class="active-path" data-old_color="#f9423a" fill="#f9423a"/><path d="m192 96h96v16h-96zm0 0" data-original="#000000" class="active-path" data-old_color="#f9423a" fill="#f9423a"/><path d="m32 128h288v16h-288zm0 0" data-original="#000000" class="active-path" data-old_color="#f9423a" fill="#f9423a"/><path d="m32 160h288v16h-288zm0 0" data-original="#000000" class="active-path" data-old_color="#f9423a" fill="#f9423a"/><path d="m32 192h288v16h-288zm0 0" data-original="#000000" class="active-path" data-old_color="#f9423a" fill="#f9423a"/><path d="m144 232h16v16h-16zm0 0" data-original="#000000" class="active-path" data-old_color="#f9423a" fill="#f9423a"/><path d="m176 232h144v16h-144zm0 0" data-original="#000000" class="active-path" data-old_color="#f9423a" fill="#f9423a"/><path d="m144 264h176v16h-176zm0 0" data-original="#000000" class="active-path" data-old_color="#f9423a" fill="#f9423a"/><path d="m144 296h176v16h-176zm0 0" data-original="#000000" class="active-path" data-old_color="#f9423a" fill="#f9423a"/><path d="m80 320c26.472656 0 48-21.527344 48-48s-21.527344-48-48-48-48 21.527344-48 48 21.527344 48 48 48zm0-80c17.648438 0 32 14.351562 32 32s-14.351562 32-32 32-32-14.351562-32-32 14.351562-32 32-32zm0 0" data-original="#000000" class="active-path" data-old_color="#f9423a" fill="#f9423a"/><path d="m32 336h112v16h-112zm0 0" data-original="#000000" class="active-path" data-old_color="#f9423a" fill="#f9423a"/><path d="m32 368h112v16h-112zm0 0" data-original="#000000" class="active-path" data-old_color="#f9423a" fill="#f9423a"/></g> </svg>
