<?xml version="1.0" encoding="UTF-8"?> <!-- Generator: Adobe Illustrator 19.0.0, SVG Export Plug-In . SVG Version: 6.00 Build 0) --> <svg xmlns="http://www.w3.org/2000/svg" xmlns:xlink="http://www.w3.org/1999/xlink" x="0px" y="0px" viewBox="0 0 71.9 72.5" style="enable-background:new 0 0 71.9 72.5;" xml:space="preserve"> <style type="text/css"> .st0{fill:#FFFFFF;} </style> <g id="BACKGROUND"> </g> <g id="OBJECTS"> <g> <g> <path class="st0" d="M48.2,67.3h-24c-10.5,0-19-8.5-19-19v-24c0-10.5,8.5-19,19-19h24c10.5,0,19,8.5,19,19v24 C67.1,58.8,58.6,67.3,48.2,67.3z M24.2,7.7C15,7.7,7.5,15.2,7.5,24.3v24C7.5,57.5,15,65,24.2,65h24c9.2,0,16.7-7.5,16.7-16.7v-24 c0-9.2-7.5-16.7-16.7-16.7H24.2z"></path> </g> <g> <path class="st0" d="M42.5,21.3H29.8c-4.8,0-8.6,3.9-8.6,8.6v12.7c0,4.8,3.9,8.6,8.6,8.6h12.7c4.8,0,8.6-3.9,8.6-8.6V30 C51.2,25.2,47.3,21.3,42.5,21.3z M48.1,42.7c0,3.1-2.5,5.6-5.6,5.6H29.8c-3.1,0-5.6-2.5-5.6-5.6V30c0-3.1,2.5-5.6,5.6-5.6h12.7 c3.1,0,5.6,2.5,5.6,5.6V42.7z"></path> <path class="st0" d="M36.2,29.4c-3.8,0-7,3.1-7,7c0,3.8,3.1,7,7,7s7-3.1,7-7C43.2,32.5,40,29.4,36.2,29.4z M36.2,40.1 c-2.1,0-3.8-1.7-3.8-3.8c0-2.1,1.7-3.8,3.8-3.8c2.1,0,3.8,1.7,3.8,3.8C40,38.4,38.3,40.1,36.2,40.1z"></path> <circle class="st0" cx="44" cy="28.4" r="2.1"></circle> </g> </g> </g> <g id="DESIGNED_BY_FREEPIK"> </g> </svg> 