<?xml version="1.0" encoding="UTF-8"?> <!-- Generator: Adobe Illustrator 19.0.0, SVG Export Plug-In . SVG Version: 6.00 Build 0) --> <svg xmlns="http://www.w3.org/2000/svg" xmlns:xlink="http://www.w3.org/1999/xlink" id="Layer_1" x="0px" y="0px" viewBox="0 0 55 55" style="enable-background:new 0 0 55 55;" xml:space="preserve"> <style type="text/css"> .st0{fill:none;stroke:#1D2F5D;stroke-linecap:round;stroke-linejoin:round;stroke-miterlimit:10;} </style> <g> <path class="st0" d="M48.1,8.4c0,0-14.7-2.5-27.3,13.5h-3.7c-3.1,0-6.1,1.3-8,3.8c-2,2.5-2.9,5.2-2.9,5.2h9.8l9.8,9.5v10.3 c0,0,3.1-1.1,6.4-4.4c1.5-1.5,2.4-3.6,2.6-5.8l0.3-4.8C51.3,23.4,48.1,8.4,48.1,8.4z M35.8,25.1c-2,0-3.7-1.6-3.7-3.7 s1.6-3.7,3.7-3.7c2,0,3.7,1.6,3.7,3.7S37.8,25.1,35.8,25.1z"></path> <path class="st0" d="M19.1,42.6c-4.4,5.6-9.6,4.7-9.6,4.7s-1.1-5.3,4.6-9.6L19.1,42.6z"></path> </g> </svg> 