<?xml version="1.0" encoding="UTF-8"?> <!-- Generator: Adobe Illustrator 19.0.0, SVG Export Plug-In . SVG Version: 6.00 Build 0) --> <svg xmlns="http://www.w3.org/2000/svg" xmlns:xlink="http://www.w3.org/1999/xlink" id="Layer_1" x="0px" y="0px" viewBox="0 0 55 55" style="enable-background:new 0 0 55 55;" xml:space="preserve"> <style type="text/css"> .st0{fill:none;stroke:#1D2F5D;stroke-linecap:round;stroke-linejoin:round;stroke-miterlimit:10;} .st1{fill:none;stroke:#1D2F5D;stroke-linecap:round;stroke-miterlimit:10;} .st2{fill:#1D2F5D;} </style> <path class="st0" d="M10.7,10.3L17,4.6c0.3-0.3,0.7-0.4,1.1-0.4h25c0.9,0,1.7,0.7,1.7,1.7v43.3c0,0.9-0.7,1.7-1.7,1.7H11.8 c-0.9,0-1.7-0.7-1.7-1.7V11.6C10.2,11.1,10.4,10.7,10.7,10.3z"></path> <line class="st1" x1="18.3" y1="41" x2="18.3" y2="21.6"></line> <circle class="st2" cx="18.3" cy="19" r="1"></circle> <line class="st1" x1="24.2" y1="41" x2="24.2" y2="26.6"></line> <circle class="st2" cx="24.2" cy="24.3" r="1"></circle> <line class="st1" x1="30" y1="41" x2="30" y2="20"></line> <circle class="st2" cx="30" cy="17.7" r="1"></circle> <line class="st1" x1="35.5" y1="41" x2="35.5" y2="28.1"></line> <circle class="st2" cx="35.5" cy="25.8" r="1"></circle> </svg> 