<?xml version="1.0" encoding="UTF-8"?> <!-- Generator: Adobe Illustrator 19.0.0, SVG Export Plug-In . SVG Version: 6.00 Build 0) --> <svg xmlns="http://www.w3.org/2000/svg" xmlns:xlink="http://www.w3.org/1999/xlink" id="Layer_1" x="0px" y="0px" viewBox="0 0 56 56" style="enable-background:new 0 0 56 56;" xml:space="preserve"> <style type="text/css"> .st0{fill:none;stroke:#1D2F5D;stroke-linecap:round;stroke-linejoin:round;stroke-miterlimit:10;} </style> <path class="st0" d="M36,3.9h-6.2h-5.7C8.3,3.9,3.5,6.6,3.6,18.4c0,0-0.1,3.2-0.1,3.9C3.5,36.1,5.5,39.1,15.2,41c0,0,4.9,1,8.7,1.2 c1.6,4.8,5,10.1,5,10.1c2.6-3,4.1-10.3,4.1-10.3c5.7-0.7,7.6-1.3,10-2c6.2-1.8,9-6.6,9-13.1v-6C52,11.3,50.8,3.9,36,3.9z M28.7,33.7 c-10.8-5.2-13.6-9.9-13.6-13.5c0.1-3.5,3.2-6.3,6.7-5.9c3.6,0.4,6.8,2.8,6.8,2.8s9.9-7.3,12,1C42.2,23.9,34.5,32.2,28.7,33.7z"></path> </svg> 