<?xml version="1.0" encoding="UTF-8"?> <!-- Generator: Adobe Illustrator 19.0.0, SVG Export Plug-In . SVG Version: 6.00 Build 0) --> <svg xmlns="http://www.w3.org/2000/svg" xmlns:xlink="http://www.w3.org/1999/xlink" id="Layer_1" x="0px" y="0px" viewBox="-4714 3379.1 209 45" style="enable-background:new -4714 3379.1 209 45;" xml:space="preserve"> <style type="text/css"> .st0{fill:#262626;} .st1{fill:#2F493B;} .st2{fill:#304A3B;} .st3{fill:#304B3C;} .st4{fill:#314C3D;} .st5{fill:#314D3D;} .st6{fill:#324E3E;} .st7{fill:#334F3E;} .st8{fill:#33503F;} .st9{fill:#345140;} .st10{fill:#345240;} .st11{fill:#355341;} .st12{fill:#365441;} .st13{fill:#365542;} .st14{fill:#375643;} .st15{fill:#375743;} .st16{fill:#385844;} .st17{fill:#385944;} .st18{fill:#395A45;} .st19{fill:#3A5B46;} .st20{fill:#3A5C46;} .st21{fill:#3B5D47;} .st22{fill:#3B5E47;} .st23{fill:#3C5F48;} .st24{fill:#3C6048;} .st25{fill:#3D6149;} .st26{fill:#3D6249;} .st27{fill:#3E634A;} .st28{fill:#3E644A;} .st29{fill:#3F654B;} .st30{fill:#40664B;} .st31{fill:#40664C;} .st32{fill:#41674C;} .st33{fill:#41684D;} .st34{fill:#42694D;} .st35{fill:#426A4E;} .st36{fill:#436B4E;} .st37{fill:#436C4F;} .st38{fill:#446D4F;} .st39{fill:#446E50;} .st40{fill:#456F51;} .st41{fill:#457051;} .st42{fill:#467152;} .st43{fill:#467252;} .st44{fill:#477252;} .st45{fill:#477353;} .st46{fill:#487453;} .st47{fill:#487554;} .st48{fill:#487654;} .st49{fill:#497655;} .st50{fill:#497755;} .st51{fill:#4A7855;} .st52{fill:#4A7956;} .st53{fill:#4B7A56;} .st54{fill:#4B7B57;} .st55{fill:#4C7C57;} .st56{fill:#4C7D58;} .st57{fill:#4D7D58;} .st58{fill:#4D7E58;} .st59{fill:#4D7F59;} .st60{fill:#4E7F59;} .st61{fill:#4E8059;} .st62{fill:#4E815A;} .st63{fill:#4F825A;} .st64{fill:#4F825B;} .st65{fill:#4F835B;} .st66{fill:#50845B;} .st67{fill:#50855C;} .st68{fill:#51865C;} .st69{fill:#51875D;} .st70{fill:#52875D;} .st71{fill:#52885D;} .st72{fill:#52895E;} .st73{fill:#538A5E;} .st74{fill:#538B5F;} .st75{opacity:0.7;} .st76{opacity:0.7;fill:#001F0D;enable-background:new ;} .st77{fill:#FFFEF0;} </style> <path class="st0" d="M-4641.8,3386.4h-15.8v12.3h9.6c1.9,0,3.4,0.2,4.7,0.8s2.2,1.3,3,2.2s1.3,1.8,1.6,2.9s0.5,2.2,0.5,3.2 c0,1.6-0.2,3-0.7,4.2c-0.5,1.2-1.2,2.2-2,3c-0.8,0.8-1.9,1.4-3,1.8c-1.2,0.5-2.3,0.6-3.6,0.6h-12.3v-32.8h18V3386.4z M-4657.6,3400.5v15.2h10c2,0,3.7-0.7,5.2-2c1.4-1.3,2.1-3.2,2.1-5.8c0-1.5-0.2-2.7-0.7-3.6c-0.5-0.9-1.1-1.7-1.8-2.3 c-0.7-0.6-1.5-0.9-2.5-1.3s-1.9-0.3-2.7-0.3H-4657.6L-4657.6,3400.5z"></path> <path class="st0" d="M-4641.8,3386.4h-15.8v12.3h9.6c1.9,0,3.4,0.2,4.7,0.8s2.2,1.3,3,2.2s1.3,1.8,1.6,2.9s0.5,2.2,0.5,3.2 c0,1.6-0.2,3-0.7,4.2c-0.5,1.2-1.2,2.2-2,3c-0.8,0.8-1.9,1.4-3,1.8c-1.2,0.5-2.3,0.6-3.6,0.6h-12.3v-32.8h18V3386.4z M-4657.6,3400.5v15.2h10c2,0,3.7-0.7,5.2-2c1.4-1.3,2.1-3.2,2.1-5.8c0-1.5-0.2-2.7-0.7-3.6c-0.5-0.9-1.1-1.7-1.8-2.3 c-0.7-0.6-1.5-0.9-2.5-1.3s-1.9-0.3-2.7-0.3H-4657.6L-4657.6,3400.5z"></path> <path class="st0" d="M-4641.8,3386.4h-15.8v12.3h9.6c1.9,0,3.4,0.2,4.7,0.8s2.2,1.3,3,2.2s1.3,1.8,1.6,2.9s0.5,2.2,0.5,3.2 c0,1.6-0.2,3-0.7,4.2c-0.5,1.2-1.2,2.2-2,3c-0.8,0.8-1.9,1.4-3,1.8c-1.2,0.5-2.3,0.6-3.6,0.6h-12.3v-32.8h18V3386.4z M-4657.6,3400.5v15.2h10c2,0,3.7-0.7,5.2-2c1.4-1.3,2.1-3.2,2.1-5.8c0-1.5-0.2-2.7-0.7-3.6c-0.5-0.9-1.1-1.7-1.8-2.3 c-0.7-0.6-1.5-0.9-2.5-1.3s-1.9-0.3-2.7-0.3H-4657.6L-4657.6,3400.5z"></path> <path class="st0" d="M-4610.9,3384.8v32.7h-2.1v-29.2h-0.1l-18.3,29.2h-2.1v-32.7h2.1v29.1h0.2l18.2-29.2L-4610.9,3384.8z"></path> <path class="st0" d="M-4610.9,3384.8v32.7h-2.1v-29.2h-0.1l-18.3,29.2h-2.1v-32.7h2.1v29.1h0.2l18.2-29.2L-4610.9,3384.8z"></path> <path class="st0" d="M-4610.9,3384.8v32.7h-2.1v-29.2h-0.1l-18.3,29.2h-2.1v-32.7h2.1v29.1h0.2l18.2-29.2L-4610.9,3384.8z"></path> <path class="st0" d="M-4590.9,3399.3c2,0.5,3.6,1.4,4.9,2.7c1.3,1.4,2,3.2,2,5.5c0,1.6-0.4,3.1-0.9,4.4s-1.5,2.3-2.6,3.2 c-1.1,0.8-2.3,1.5-3.9,2c-1.5,0.5-3,0.7-4.8,0.7c-1.9,0-3.6-0.1-5.5-0.5c-1.8-0.3-3.4-0.7-4.7-1.3l0.6-1.5c1.9,0.6,3.5,1,5.2,1.3 c1.6,0.2,2.9,0.3,3.9,0.3c3.4,0,6-0.7,7.8-2.2c1.9-1.4,2.8-3.6,2.8-6.2c0-2.3-0.8-4.2-2.5-5.4c-1.6-1.3-4.1-2-7.1-2h-3.9v-1.7h3.9 c2.8,0,4.9-0.6,6.4-1.8s2.3-2.9,2.3-4.8c0-1.8-0.8-3.2-2.3-4.3c-1.5-1-3.6-1.5-6.3-1.5c-0.5,0-1.1,0-1.6,0.1c-0.7,0-1.4,0.1-2.1,0.2 c-0.8,0.1-1.6,0.3-2.5,0.6c-0.8,0.2-1.8,0.6-2.6,1l-0.7-1.5c1.4-0.7,2.9-1.3,4.6-1.6c1.6-0.3,3.4-0.6,5.3-0.6c3.4,0,6,0.7,7.7,2 c1.9,1.4,2.7,3.1,2.7,5.4c0,1.7-0.6,3.3-1.6,4.6c-1.2,1.4-2.6,2.3-4.2,2.8L-4590.9,3399.3z"></path> <path class="st0" d="M-4590.9,3399.3c2,0.5,3.6,1.4,4.9,2.7c1.3,1.4,2,3.2,2,5.5c0,1.6-0.4,3.1-0.9,4.4s-1.5,2.3-2.6,3.2 c-1.1,0.8-2.3,1.5-3.9,2c-1.5,0.5-3,0.7-4.8,0.7c-1.9,0-3.6-0.1-5.5-0.5c-1.8-0.3-3.4-0.7-4.7-1.3l0.6-1.5c1.9,0.6,3.5,1,5.2,1.3 c1.6,0.2,2.9,0.3,3.9,0.3c3.4,0,6-0.7,7.8-2.2c1.9-1.4,2.8-3.6,2.8-6.2c0-2.3-0.8-4.2-2.5-5.4c-1.6-1.3-4.1-2-7.1-2h-3.9v-1.7h3.9 c2.8,0,4.9-0.6,6.4-1.8s2.3-2.9,2.3-4.8c0-1.8-0.8-3.2-2.3-4.3c-1.5-1-3.6-1.5-6.3-1.5c-0.5,0-1.1,0-1.6,0.1c-0.7,0-1.4,0.1-2.1,0.2 c-0.8,0.1-1.6,0.3-2.5,0.6c-0.8,0.2-1.8,0.6-2.6,1l-0.7-1.5c1.4-0.7,2.9-1.3,4.6-1.6c1.6-0.3,3.4-0.6,5.3-0.6c3.4,0,6,0.7,7.7,2 c1.9,1.4,2.7,3.1,2.7,5.4c0,1.7-0.6,3.3-1.6,4.6c-1.2,1.4-2.6,2.3-4.2,2.8L-4590.9,3399.3z"></path> <path class="st0" d="M-4590.9,3399.3c2,0.5,3.6,1.4,4.9,2.7c1.3,1.4,2,3.2,2,5.5c0,1.6-0.4,3.1-0.9,4.4s-1.5,2.3-2.6,3.2 c-1.1,0.8-2.3,1.5-3.9,2c-1.5,0.5-3,0.7-4.8,0.7c-1.9,0-3.6-0.1-5.5-0.5c-1.8-0.3-3.4-0.7-4.7-1.3l0.6-1.5c1.9,0.6,3.5,1,5.2,1.3 c1.6,0.2,2.9,0.3,3.9,0.3c3.4,0,6-0.7,7.8-2.2c1.9-1.4,2.8-3.6,2.8-6.2c0-2.3-0.8-4.2-2.5-5.4c-1.6-1.3-4.1-2-7.1-2h-3.9v-1.7h3.9 c2.8,0,4.9-0.6,6.4-1.8s2.3-2.9,2.3-4.8c0-1.8-0.8-3.2-2.3-4.3c-1.5-1-3.6-1.5-6.3-1.5c-0.5,0-1.1,0-1.6,0.1c-0.7,0-1.4,0.1-2.1,0.2 c-0.8,0.1-1.6,0.3-2.5,0.6c-0.8,0.2-1.8,0.6-2.6,1l-0.7-1.5c1.4-0.7,2.9-1.3,4.6-1.6c1.6-0.3,3.4-0.6,5.3-0.6c3.4,0,6,0.7,7.7,2 c1.9,1.4,2.7,3.1,2.7,5.4c0,1.7-0.6,3.3-1.6,4.6c-1.2,1.4-2.6,2.3-4.2,2.8L-4590.9,3399.3z"></path> <path class="st0" d="M-4559,3417.5v-16.4h-17.6v16.4h-2.2v-32.8h2.2v14.5h17.6v-14.5h2.2v32.8H-4559L-4559,3417.5z"></path> <path class="st0" d="M-4559,3417.5v-16.4h-17.6v16.4h-2.2v-32.8h2.2v14.5h17.6v-14.5h2.2v32.8H-4559L-4559,3417.5z"></path> <path class="st0" d="M-4559,3417.5v-16.4h-17.6v16.4h-2.2v-32.8h2.2v14.5h17.6v-14.5h2.2v32.8H-4559L-4559,3417.5z"></path> <path class="st0" d="M-4552.4,3400v-1.3h2.2c0.1-1.6,0.5-3.1,0.9-4.7c0.5-1.6,1.2-3,2.2-4.3c0.9-1.3,2.2-2.3,3.7-3.1 s3.4-1.3,5.6-1.3c1.6,0,3,0.1,4.5,0.3c1.3,0.2,2.5,0.6,3.4,0.9l-0.5,1.6c-1.3-0.5-2.6-0.8-3.9-0.9c-1.3-0.1-2.5-0.2-3.4-0.2 c-1.6,0-3,0.2-4.3,0.8s-2.2,1.4-3.2,2.3c-0.8,1-1.5,2.2-2,3.7c-0.5,1.5-0.8,3-1.1,4.8h15.5v1.3H-4552.4L-4552.4,3400z M-4532.6,3402.8v1.4h-15.6c0.1,1.6,0.2,3.1,0.6,4.5c0.4,1.4,0.9,2.7,1.8,3.8c0.8,1,1.9,2,3.2,2.7c1.3,0.7,3,1,5.2,1 c0.7,0,1.8-0.1,3.2-0.2c1.3-0.1,2.9-0.5,4.7-0.8l0.4,1.5c-0.5,0.2-1.2,0.3-1.9,0.5c-0.7,0.1-1.4,0.2-2.2,0.3 c-0.8,0.1-1.5,0.2-2.3,0.2c-0.8,0.1-1.5,0.1-2.1,0.1c-2.1,0-4-0.3-5.5-0.9c-1.5-0.7-2.8-1.5-3.7-2.8c-0.9-1.2-1.8-2.7-2.2-4.3 c-0.5-1.7-0.8-3.6-0.9-5.7h-2.1v-1.4H-4532.6L-4532.6,3402.8z"></path> <path class="st0" d="M-4552.4,3400v-1.3h2.2c0.1-1.6,0.5-3.1,0.9-4.7c0.5-1.6,1.2-3,2.2-4.3c0.9-1.3,2.2-2.3,3.7-3.1 s3.4-1.3,5.6-1.3c1.6,0,3,0.1,4.5,0.3c1.3,0.2,2.5,0.6,3.4,0.9l-0.5,1.6c-1.3-0.5-2.6-0.8-3.9-0.9c-1.3-0.1-2.5-0.2-3.4-0.2 c-1.6,0-3,0.2-4.3,0.8s-2.2,1.4-3.2,2.3c-0.8,1-1.5,2.2-2,3.7c-0.5,1.5-0.8,3-1.1,4.8h15.5v1.3H-4552.4L-4552.4,3400z M-4532.6,3402.8v1.4h-15.6c0.1,1.6,0.2,3.1,0.6,4.5c0.4,1.4,0.9,2.7,1.8,3.8c0.8,1,1.9,2,3.2,2.7c1.3,0.7,3,1,5.2,1 c0.7,0,1.8-0.1,3.2-0.2c1.3-0.1,2.9-0.5,4.7-0.8l0.4,1.5c-0.5,0.2-1.2,0.3-1.9,0.5c-0.7,0.1-1.4,0.2-2.2,0.3 c-0.8,0.1-1.5,0.2-2.3,0.2c-0.8,0.1-1.5,0.1-2.1,0.1c-2.1,0-4-0.3-5.5-0.9c-1.5-0.7-2.8-1.5-3.7-2.8c-0.9-1.2-1.8-2.7-2.2-4.3 c-0.5-1.7-0.8-3.6-0.9-5.7h-2.1v-1.4H-4532.6L-4532.6,3402.8z"></path> <path class="st0" d="M-4552.4,3400v-1.3h2.2c0.1-1.6,0.5-3.1,0.9-4.7c0.5-1.6,1.2-3,2.2-4.3c0.9-1.3,2.2-2.3,3.7-3.1 s3.4-1.3,5.6-1.3c1.6,0,3,0.1,4.5,0.3c1.3,0.2,2.5,0.6,3.4,0.9l-0.5,1.6c-1.3-0.5-2.6-0.8-3.9-0.9c-1.3-0.1-2.5-0.2-3.4-0.2 c-1.6,0-3,0.2-4.3,0.8s-2.2,1.4-3.2,2.3c-0.8,1-1.5,2.2-2,3.7c-0.5,1.5-0.8,3-1.1,4.8h15.5v1.3H-4552.4L-4552.4,3400z M-4532.6,3402.8v1.4h-15.6c0.1,1.6,0.2,3.1,0.6,4.5c0.4,1.4,0.9,2.7,1.8,3.8c0.8,1,1.9,2,3.2,2.7c1.3,0.7,3,1,5.2,1 c0.7,0,1.8-0.1,3.2-0.2c1.3-0.1,2.9-0.5,4.7-0.8l0.4,1.5c-0.5,0.2-1.2,0.3-1.9,0.5c-0.7,0.1-1.4,0.2-2.2,0.3 c-0.8,0.1-1.5,0.2-2.3,0.2c-0.8,0.1-1.5,0.1-2.1,0.1c-2.1,0-4-0.3-5.5-0.9c-1.5-0.7-2.8-1.5-3.7-2.8c-0.9-1.2-1.8-2.7-2.2-4.3 c-0.5-1.7-0.8-3.6-0.9-5.7h-2.1v-1.4H-4532.6L-4532.6,3402.8z"></path> <path class="st0" d="M-4513.7,3384.2c1.8,0,3.3,0.1,4.7,0.3c1.4,0.2,2.6,0.6,3.5,0.8l-0.6,1.6c-1.3-0.3-2.5-0.7-3.9-0.8 c-1.3-0.2-2.6-0.2-3.6-0.2c-2,0-3.7,0.3-5.2,1.2c-1.4,0.7-2.6,1.7-3.6,3.1c-0.9,1.4-1.6,3-2.1,4.8c-0.5,1.8-0.7,4-0.7,6.3 c0,1.8,0.1,3.7,0.5,5.4c0.2,1.7,0.8,3.3,1.6,4.7c0.8,1.4,2,2.4,3.5,3.3c1.5,0.8,3.5,1.3,5.9,1.3c0.5,0,0.9,0,1.6-0.1 c0.7,0,1.4-0.1,2.1-0.2c0.7-0.1,1.5-0.2,2.3-0.3c0.8-0.1,1.5-0.3,2.1-0.5l0.5,1.5c-0.6,0.2-1.2,0.3-2,0.6c-0.7,0.1-1.5,0.3-2.3,0.5 c-0.8,0.1-1.6,0.2-2.5,0.2c-0.8,0.1-1.5,0.1-2.3,0.1c-2.5,0-4.5-0.3-6.2-1.2c-1.6-0.8-3-1.8-4.1-3.3c-1.1-1.4-1.9-3.1-2.3-5.2 c-0.5-2.1-0.7-4.3-0.7-6.8c0-1.7,0.2-3.6,0.6-5.7c0.4-2,1.1-3.8,2-5.5c0.9-1.7,2.3-3.1,4.1-4.3 C-4518.7,3384.8-4516.5,3384.2-4513.7,3384.2z"></path> <path class="st0" d="M-4513.7,3384.2c1.8,0,3.3,0.1,4.7,0.3c1.4,0.2,2.6,0.6,3.5,0.8l-0.6,1.6c-1.3-0.3-2.5-0.7-3.9-0.8 c-1.3-0.2-2.6-0.2-3.6-0.2c-2,0-3.7,0.3-5.2,1.2c-1.4,0.7-2.6,1.7-3.6,3.1c-0.9,1.4-1.6,3-2.1,4.8c-0.5,1.8-0.7,4-0.7,6.3 c0,1.8,0.1,3.7,0.5,5.4c0.2,1.7,0.8,3.3,1.6,4.7c0.8,1.4,2,2.4,3.5,3.3c1.5,0.8,3.5,1.3,5.9,1.3c0.5,0,0.9,0,1.6-0.1 c0.7,0,1.4-0.1,2.1-0.2c0.7-0.1,1.5-0.2,2.3-0.3c0.8-0.1,1.5-0.3,2.1-0.5l0.5,1.5c-0.6,0.2-1.2,0.3-2,0.6c-0.7,0.1-1.5,0.3-2.3,0.5 c-0.8,0.1-1.6,0.2-2.5,0.2c-0.8,0.1-1.5,0.1-2.3,0.1c-2.5,0-4.5-0.3-6.2-1.2c-1.6-0.8-3-1.8-4.1-3.3c-1.1-1.4-1.9-3.1-2.3-5.2 c-0.5-2.1-0.7-4.3-0.7-6.8c0-1.7,0.2-3.6,0.6-5.7c0.4-2,1.1-3.8,2-5.5c0.9-1.7,2.3-3.1,4.1-4.3 C-4518.7,3384.8-4516.5,3384.2-4513.7,3384.2z"></path> <path class="st0" d="M-4513.7,3384.2c1.8,0,3.3,0.1,4.7,0.3c1.4,0.2,2.6,0.6,3.5,0.8l-0.6,1.6c-1.3-0.3-2.5-0.7-3.9-0.8 c-1.3-0.2-2.6-0.2-3.6-0.2c-2,0-3.7,0.3-5.2,1.2c-1.4,0.7-2.6,1.7-3.6,3.1c-0.9,1.4-1.6,3-2.1,4.8c-0.5,1.8-0.7,4-0.7,6.3 c0,1.8,0.1,3.7,0.5,5.4c0.2,1.7,0.8,3.3,1.6,4.7c0.8,1.4,2,2.4,3.5,3.3c1.5,0.8,3.5,1.3,5.9,1.3c0.5,0,0.9,0,1.6-0.1 c0.7,0,1.4-0.1,2.1-0.2c0.7-0.1,1.5-0.2,2.3-0.3c0.8-0.1,1.5-0.3,2.1-0.5l0.5,1.5c-0.6,0.2-1.2,0.3-2,0.6c-0.7,0.1-1.5,0.3-2.3,0.5 c-0.8,0.1-1.6,0.2-2.5,0.2c-0.8,0.1-1.5,0.1-2.3,0.1c-2.5,0-4.5-0.3-6.2-1.2c-1.6-0.8-3-1.8-4.1-3.3c-1.1-1.4-1.9-3.1-2.3-5.2 c-0.5-2.1-0.7-4.3-0.7-6.8c0-1.7,0.2-3.6,0.6-5.7c0.4-2,1.1-3.8,2-5.5c0.9-1.7,2.3-3.1,4.1-4.3 C-4518.7,3384.8-4516.5,3384.2-4513.7,3384.2z"></path> <path class="st1" d="M-4690.8,3379.1h-0.7c-12.4,0-22.5,10.1-22.5,22.5c0,12.4,10.1,22.5,22.5,22.5h0.7c12.4,0,22.5-10.1,22.5-22.5 C-4668.3,3389.2-4678.4,3379.1-4690.8,3379.1z"></path> <path class="st1" d="M-4691.2,3424.1c12.6,0,22.8-10.1,22.8-22.5c0-12.4-10.2-22.5-22.8-22.5s-22.8,10.1-22.8,22.5 C-4714,3414.1-4703.8,3424.1-4691.2,3424.1z"></path> <path class="st2" d="M-4691.2,3424c12.6,0,22.7-10,22.7-22.4c0-12.4-10.2-22.4-22.7-22.4s-22.7,10-22.7,22.4 C-4713.9,3414-4703.7,3424-4691.2,3424z"></path> <path class="st3" d="M-4691.2,3423.9c12.5,0,22.6-10,22.6-22.3s-10.1-22.3-22.6-22.3s-22.6,10-22.6,22.3 S-4703.6,3423.9-4691.2,3423.9z"></path> <path class="st4" d="M-4691.2,3423.8c12.4,0,22.5-9.9,22.5-22.2c0-12.2-10.1-22.2-22.5-22.2s-22.5,9.9-22.5,22.2 C-4713.6,3413.9-4703.6,3423.8-4691.2,3423.8z"></path> <path class="st5" d="M-4691.2,3423.7c12.4,0,22.4-9.9,22.4-22c0-12.2-10-22-22.4-22c-12.4,0-22.4,9.9-22.4,22 C-4713.5,3413.8-4703.5,3423.7-4691.2,3423.7z"></path> <path class="st6" d="M-4691.2,3423.6c12.3,0,22.3-9.8,22.3-21.9c0-12.1-10-21.9-22.3-21.9c-12.3,0-22.3,9.8-22.3,21.9 C-4713.4,3413.8-4703.4,3423.6-4691.2,3423.6z"></path> <path class="st7" d="M-4691.2,3423.5c12.2,0,22.1-9.8,22.1-21.8c0-12-9.9-21.8-22.1-21.8c-12.2,0-22.1,9.8-22.1,21.8 C-4713.3,3413.7-4703.4,3423.5-4691.2,3423.5z"></path> <path class="st8" d="M-4691.2,3423.3c12.2,0,22-9.7,22-21.7c0-12-9.9-21.7-22-21.7c-12.2,0-22,9.7-22,21.7 C-4713.2,3413.6-4703.3,3423.3-4691.2,3423.3z"></path> <path class="st9" d="M-4691.2,3423.3c12.2,0,22-9.7,22-21.7c0-12-9.9-21.7-22-21.7c-12.2,0-22,9.7-22,21.7 C-4713.2,3413.6-4703.3,3423.3-4691.2,3423.3z"></path> <path class="st10" d="M-4691.2,3423.2c12.1,0,21.9-9.7,21.9-21.6c0-11.9-9.8-21.6-21.9-21.6c-12.1,0-21.9,9.7-21.9,21.6 C-4713.1,3413.6-4703.3,3423.2-4691.2,3423.2z"></path> <path class="st11" d="M-4691.2,3423.1c12,0,21.8-9.6,21.8-21.5c0-11.9-9.8-21.5-21.8-21.5c-12,0-21.8,9.6-21.8,21.5 C-4712.9,3413.5-4703.2,3423.1-4691.2,3423.1z"></path> <path class="st12" d="M-4691.2,3423c12,0,21.7-9.6,21.7-21.3c0-11.8-9.7-21.3-21.7-21.3s-21.7,9.6-21.7,21.3 C-4712.8,3413.4-4703.1,3423-4691.2,3423z"></path> <path class="st13" d="M-4691.2,3422.9c11.9,0,21.6-9.5,21.6-21.2c0-11.7-9.7-21.2-21.6-21.2c-11.9,0-21.6,9.5-21.6,21.2 C-4712.7,3413.4-4703.1,3422.9-4691.2,3422.9z"></path> <path class="st14" d="M-4691.2,3422.8c11.8,0,21.4-9.5,21.4-21.1s-9.6-21.1-21.4-21.1s-21.4,9.5-21.4,21.1 S-4703,3422.8-4691.2,3422.8z"></path> <path class="st15" d="M-4691.2,3422.6c11.8,0,21.3-9.4,21.3-21c0-11.6-9.5-21-21.3-21s-21.3,9.4-21.3,21 C-4712.5,3413.2-4702.9,3422.6-4691.2,3422.6z"></path> <path class="st16" d="M-4691.2,3422.5c11.7,0,21.2-9.4,21.2-20.9c0-11.5-9.5-20.9-21.2-20.9s-21.2,9.4-21.2,20.9 C-4712.4,3413.2-4702.9,3422.5-4691.2,3422.5z"></path> <path class="st17" d="M-4691.2,3422.4c11.6,0,21.1-9.3,21.1-20.8s-9.4-20.8-21.1-20.8c-11.6,0-21.1,9.3-21.1,20.8 S-4702.8,3422.4-4691.2,3422.4z"></path> <path class="st18" d="M-4691.2,3422.3c11.6,0,21-9.2,21-20.7c0-11.4-9.4-20.7-21-20.7s-21,9.2-21,20.7 C-4712.1,3413.1-4702.7,3422.3-4691.2,3422.3z"></path> <path class="st19" d="M-4691.2,3422.2c11.5,0,20.9-9.2,20.9-20.5s-9.3-20.5-20.9-20.5c-11.5,0-20.9,9.2-20.9,20.5 S-4702.7,3422.2-4691.2,3422.2z"></path> <path class="st20" d="M-4691.2,3422.1c11.5,0,20.7-9.1,20.7-20.4c0-11.3-9.3-20.4-20.7-20.4s-20.7,9.1-20.7,20.4 C-4711.9,3412.9-4702.6,3422.1-4691.2,3422.1z"></path> <path class="st21" d="M-4691.2,3422c11.4,0,20.6-9.1,20.6-20.3c0-11.2-9.2-20.3-20.6-20.3c-11.4,0-20.6,9.1-20.6,20.3 C-4711.8,3412.9-4702.5,3422-4691.2,3422z"></path> <path class="st22" d="M-4691.2,3422c11.4,0,20.6-9.1,20.6-20.3c0-11.2-9.2-20.3-20.6-20.3c-11.4,0-20.6,9.1-20.6,20.3 C-4711.8,3412.9-4702.5,3422-4691.2,3422z"></path> <path class="st23" d="M-4691.2,3421.8c11.3,0,20.5-9,20.5-20.2s-9.2-20.2-20.5-20.2s-20.5,9-20.5,20.2S-4702.5,3421.8-4691.2,3421.8 z"></path> <path class="st24" d="M-4691.2,3421.7c11.3,0,20.4-9,20.4-20.1c0-11.1-9.1-20.1-20.4-20.1c-11.3,0-20.4,9-20.4,20.1 C-4711.5,3412.7-4702.4,3421.7-4691.2,3421.7z"></path> <path class="st25" d="M-4691.2,3421.6c11.2,0,20.3-8.9,20.3-20s-9.1-20-20.3-20s-20.3,8.9-20.3,20S-4702.3,3421.6-4691.2,3421.6z"></path> <path class="st26" d="M-4691.2,3421.5c11.1,0,20.1-8.9,20.1-19.8s-9-19.8-20.1-19.8c-11.1,0-20.2,8.9-20.2,19.8 S-4702.3,3421.5-4691.2,3421.5z"></path> <path class="st27" d="M-4691.2,3421.4c11.1,0,20-8.8,20-19.7s-9-19.7-20-19.7s-20,8.8-20,19.7S-4702.2,3421.4-4691.2,3421.4z"></path> <path class="st28" d="M-4691.2,3421.3c11,0,19.9-8.8,19.9-19.6s-8.9-19.6-19.9-19.6c-11,0-19.9,8.8-19.9,19.6 S-4702.2,3421.3-4691.2,3421.3z"></path> <path class="st29" d="M-4691.2,3421.1c10.9,0,19.8-8.7,19.8-19.5c0-10.8-8.9-19.5-19.8-19.5s-19.8,8.7-19.8,19.5 C-4711,3412.4-4702.1,3421.1-4691.2,3421.1z"></path> <path class="st30" d="M-4691.2,3421c10.9,0,19.7-8.7,19.7-19.4s-8.8-19.4-19.7-19.4s-19.7,8.7-19.7,19.4S-4702,3421-4691.2,3421z"></path> <path class="st31" d="M-4691.2,3420.9c10.8,0,19.6-8.6,19.6-19.3s-8.8-19.3-19.6-19.3s-19.6,8.6-19.6,19.3 S-4702,3420.9-4691.2,3420.9z"></path> <path class="st32" d="M-4691.2,3420.8c10.7,0,19.4-8.6,19.4-19.2c0-10.6-8.7-19.2-19.4-19.2s-19.4,8.6-19.4,19.2 C-4710.6,3412.2-4701.9,3420.8-4691.2,3420.8z"></path> <path class="st33" d="M-4691.2,3420.7c10.7,0,19.3-8.5,19.3-19s-8.7-19-19.3-19s-19.3,8.5-19.3,19S-4701.8,3420.7-4691.2,3420.7z"></path> <path class="st34" d="M-4691.2,3420.6c10.6,0,19.2-8.5,19.2-18.9s-8.6-18.9-19.2-18.9c-10.6,0-19.2,8.5-19.2,18.9 S-4701.8,3420.6-4691.2,3420.6z"></path> <path class="st35" d="M-4691.2,3420.6c10.6,0,19.2-8.5,19.2-18.9s-8.6-18.9-19.2-18.9c-10.6,0-19.2,8.5-19.2,18.9 S-4701.8,3420.6-4691.2,3420.6z"></path> <path class="st36" d="M-4691.2,3420.5c10.5,0,19.1-8.4,19.1-18.8s-8.5-18.8-19.1-18.8s-19.1,8.4-19.1,18.8 S-4701.7,3420.5-4691.2,3420.5z"></path> <path class="st37" d="M-4691.2,3420.3c10.5,0,19-8.4,19-18.7s-8.5-18.7-19-18.7c-10.5,0-19,8.4-19,18.7 S-4701.6,3420.3-4691.2,3420.3z"></path> <path class="st38" d="M-4691.2,3420.2c10.4,0,18.9-8.3,18.9-18.6c0-10.3-8.4-18.6-18.9-18.6c-10.4,0-18.9,8.3-18.9,18.6 C-4710,3411.9-4701.6,3420.2-4691.2,3420.2z"></path> <path class="st39" d="M-4691.2,3420.1c10.4,0,18.7-8.3,18.7-18.5s-8.4-18.5-18.7-18.5c-10.4,0-18.7,8.3-18.7,18.5 S-4701.5,3420.1-4691.2,3420.1z"></path> <path class="st39" d="M-4691.2,3420c10.3,0,18.6-8.2,18.6-18.3s-8.3-18.3-18.6-18.3s-18.6,8.2-18.6,18.3S-4701.4,3420-4691.2,3420z"></path> <path class="st40" d="M-4691.2,3419.9c10.2,0,18.5-8.2,18.5-18.2s-8.3-18.2-18.5-18.2c-10.2,0-18.5,8.2-18.5,18.2 S-4701.4,3419.9-4691.2,3419.9z"></path> <path class="st41" d="M-4691.2,3419.8c10.2,0,18.4-8.1,18.4-18.1s-8.2-18.1-18.4-18.1s-18.4,8.1-18.4,18.1 S-4701.3,3419.8-4691.2,3419.8z"></path> <path class="st42" d="M-4691.2,3419.6c10.1,0,18.3-8.1,18.3-18c0-9.9-8.2-18-18.3-18c-10.1,0-18.3,8.1-18.3,18 C-4709.4,3411.6-4701.2,3419.6-4691.2,3419.6z"></path> <path class="st43" d="M-4691.2,3419.5c10,0,18.2-8,18.2-17.9s-8.1-17.9-18.2-17.9s-18.2,8-18.2,17.9S-4701.2,3419.5-4691.2,3419.5z"></path> <path class="st44" d="M-4691.2,3419.4c10,0,18-8,18-17.8s-8.1-17.8-18-17.8s-18,8-18,17.8S-4701.1,3419.4-4691.2,3419.4z"></path> <path class="st45" d="M-4691.2,3419.3c9.9,0,17.9-7.9,17.9-17.7c0-9.7-8-17.7-17.9-17.7s-17.9,7.9-17.9,17.7 C-4709.1,3411.4-4701.1,3419.3-4691.2,3419.3z"></path> <path class="st46" d="M-4691.2,3419.2c9.8,0,17.8-7.9,17.8-17.5s-8-17.5-17.8-17.5s-17.8,7.9-17.8,17.5S-4701,3419.2-4691.2,3419.2z "></path> <path class="st47" d="M-4691.2,3419.1c9.8,0,17.7-7.8,17.7-17.4s-7.9-17.4-17.7-17.4s-17.7,7.8-17.7,17.4 S-4700.9,3419.1-4691.2,3419.1z"></path> <path class="st48" d="M-4691.2,3419.1c9.8,0,17.7-7.8,17.7-17.4s-7.9-17.4-17.7-17.4s-17.7,7.8-17.7,17.4 S-4700.9,3419.1-4691.2,3419.1z"></path> <path class="st49" d="M-4691.2,3419c9.7,0,17.6-7.7,17.6-17.3c0-9.6-7.9-17.3-17.6-17.3c-9.7,0-17.6,7.7-17.6,17.3 C-4708.7,3411.2-4700.9,3419-4691.2,3419z"></path> <path class="st50" d="M-4691.2,3418.8c9.6,0,17.5-7.7,17.5-17.2s-7.8-17.2-17.5-17.2s-17.5,7.7-17.5,17.2 S-4700.8,3418.8-4691.2,3418.8z"></path> <path class="st51" d="M-4691.2,3418.7c9.6,0,17.3-7.6,17.3-17.1c0-9.4-7.8-17.1-17.3-17.1c-9.6,0-17.3,7.6-17.3,17.1 C-4708.5,3411.1-4700.7,3418.7-4691.2,3418.7z"></path> <path class="st52" d="M-4691.2,3418.6c9.5,0,17.2-7.6,17.2-17c0-9.4-7.7-17-17.2-17c-9.5,0-17.2,7.6-17.2,17 C-4708.4,3411-4700.7,3418.6-4691.2,3418.6z"></path> <path class="st52" d="M-4691.2,3418.5c9.4,0,17.1-7.5,17.1-16.8c0-9.3-7.7-16.8-17.1-16.8c-9.4,0-17.1,7.5-17.1,16.8 C-4708.3,3411-4700.6,3418.5-4691.2,3418.5z"></path> <path class="st53" d="M-4691.2,3418.4c9.4,0,17-7.5,17-16.7c0-9.2-7.6-16.7-17-16.7c-9.4,0-17,7.5-17,16.7 C-4708.1,3410.9-4700.5,3418.4-4691.2,3418.4z"></path> <path class="st54" d="M-4691.2,3418.3c9.3,0,16.9-7.4,16.9-16.6s-7.6-16.6-16.9-16.6c-9.3,0-16.9,7.4-16.9,16.6 S-4700.5,3418.3-4691.2,3418.3z"></path> <path class="st54" d="M-4691.2,3418.1c9.3,0,16.8-7.4,16.8-16.5c0-9.1-7.5-16.5-16.8-16.5c-9.3,0-16.8,7.4-16.8,16.5 C-4707.9,3410.8-4700.4,3418.1-4691.2,3418.1z"></path> <path class="st55" d="M-4691.2,3418c9.2,0,16.6-7.3,16.6-16.4c0-9-7.4-16.4-16.6-16.4s-16.6,7.3-16.6,16.4 C-4707.8,3410.7-4700.3,3418-4691.2,3418z"></path> <path class="st56" d="M-4691.2,3417.9c9.1,0,16.5-7.3,16.5-16.3c0-9-7.4-16.3-16.5-16.3s-16.5,7.3-16.5,16.3 C-4707.7,3410.6-4700.3,3417.9-4691.2,3417.9z"></path> <path class="st57" d="M-4691.2,3417.8c9.1,0,16.4-7.2,16.4-16.2c0-8.9-7.3-16.2-16.4-16.2s-16.4,7.2-16.4,16.2 C-4707.6,3410.6-4700.2,3417.8-4691.2,3417.8z"></path> <path class="st58" d="M-4691.2,3417.7c9,0,16.3-7.2,16.3-16s-7.3-16-16.3-16s-16.3,7.2-16.3,16S-4700.1,3417.7-4691.2,3417.7z"></path> <path class="st59" d="M-4691.2,3417.7c9,0,16.3-7.2,16.3-16s-7.3-16-16.3-16s-16.3,7.2-16.3,16S-4700.1,3417.7-4691.2,3417.7z"></path> <path class="st60" d="M-4691.2,3417.6c8.9,0,16.2-7.1,16.2-15.9c0-8.8-7.2-15.9-16.2-15.9s-16.2,7.1-16.2,15.9 C-4707.3,3410.4-4700.1,3417.6-4691.2,3417.6z"></path> <path class="st61" d="M-4691.2,3417.5c8.9,0,16-7.1,16-15.8c0-8.7-7.2-15.8-16-15.8s-16,7.1-16,15.8 C-4707.2,3410.4-4700,3417.5-4691.2,3417.5z"></path> <path class="st62" d="M-4691.2,3417.3c8.8,0,15.9-7,15.9-15.7s-7.1-15.7-15.9-15.7c-8.8,0-15.9,7-15.9,15.7 S-4700,3417.3-4691.2,3417.3z"></path> <path class="st62" d="M-4691.2,3417.2c8.7,0,15.8-7,15.8-15.6c0-8.6-7.1-15.6-15.8-15.6c-8.7,0-15.8,7-15.8,15.6 C-4707,3410.3-4699.9,3417.2-4691.2,3417.2z"></path> <path class="st63" d="M-4691.2,3417.1c8.7,0,15.7-6.9,15.7-15.5s-7-15.5-15.7-15.5c-8.7,0-15.7,6.9-15.7,15.5 S-4699.8,3417.1-4691.2,3417.1z"></path> <path class="st64" d="M-4691.2,3417c8.6,0,15.6-6.9,15.6-15.3c0-8.5-7-15.3-15.6-15.3c-8.6,0-15.6,6.9-15.6,15.3 C-4706.7,3410.1-4699.8,3417-4691.2,3417z"></path> <path class="st65" d="M-4691.2,3416.9c8.5,0,15.5-6.8,15.5-15.2c0-8.4-6.9-15.2-15.5-15.2c-8.5,0-15.5,6.8-15.5,15.2 C-4706.6,3410.1-4699.7,3416.9-4691.2,3416.9z"></path> <path class="st66" d="M-4691.2,3416.8c8.5,0,15.3-6.8,15.3-15.1s-6.9-15.1-15.3-15.1c-8.5,0-15.3,6.8-15.3,15.1 S-4699.6,3416.8-4691.2,3416.8z"></path> <path class="st66" d="M-4691.2,3416.6c8.4,0,15.2-6.7,15.2-15c0-8.3-6.8-15-15.2-15s-15.2,6.7-15.2,15 C-4706.4,3409.9-4699.6,3416.6-4691.2,3416.6z"></path> <path class="st67" d="M-4691.2,3416.5c8.3,0,15.1-6.7,15.1-14.9c0-8.2-6.8-14.9-15.1-14.9c-8.3,0-15.1,6.7-15.1,14.9 C-4706.3,3409.9-4699.5,3416.5-4691.2,3416.5z"></path> <path class="st67" d="M-4691.2,3416.4c8.3,0,15-6.6,15-14.8s-6.7-14.8-15-14.8s-15,6.6-15,14.8S-4699.4,3416.4-4691.2,3416.4z"></path> <path class="st68" d="M-4691.2,3416.3c8.2,0,14.9-6.6,14.9-14.7c0-8.1-6.7-14.7-14.9-14.7s-14.9,6.6-14.9,14.7 C-4706,3409.7-4699.4,3416.3-4691.2,3416.3z"></path> <path class="st68" d="M-4691.2,3416.3c8.2,0,14.9-6.6,14.9-14.7c0-8.1-6.7-14.7-14.9-14.7s-14.9,6.6-14.9,14.7 C-4706,3409.7-4699.4,3416.3-4691.2,3416.3z"></path> <path class="st69" d="M-4691.2,3416.2c8.2,0,14.8-6.5,14.8-14.5s-6.6-14.5-14.8-14.5s-14.8,6.5-14.8,14.5 S-4699.3,3416.2-4691.2,3416.2z"></path> <path class="st69" d="M-4691.2,3416.1c8.1,0,14.6-6.5,14.6-14.4c0-8-6.6-14.4-14.6-14.4c-8.1,0-14.6,6.5-14.6,14.4 C-4705.8,3409.6-4699.2,3416.1-4691.2,3416.1z"></path> <path class="st70" d="M-4691.2,3416c8,0,14.5-6.4,14.5-14.3s-6.5-14.3-14.5-14.3s-14.5,6.4-14.5,14.3S-4699.2,3416-4691.2,3416z"></path> <path class="st71" d="M-4691.2,3415.8c8,0,14.4-6.4,14.4-14.2s-6.5-14.2-14.4-14.2c-8,0-14.4,6.4-14.4,14.2 S-4699.1,3415.8-4691.2,3415.8z"></path> <path class="st71" d="M-4691.2,3415.7c7.9,0,14.3-6.3,14.3-14.1c0-7.8-6.4-14.1-14.3-14.1s-14.3,6.3-14.3,14.1 C-4705.4,3409.4-4699,3415.7-4691.2,3415.7z"></path> <path class="st72" d="M-4691.2,3415.6c7.8,0,14.2-6.3,14.2-14s-6.3-14-14.2-14c-7.8,0-14.2,6.3-14.2,14S-4699,3415.6-4691.2,3415.6z "></path> <path class="st72" d="M-4691.2,3415.5c7.8,0,14.1-6.2,14.1-13.8c0-7.6-6.3-13.8-14.1-13.8s-14.1,6.2-14.1,13.8 C-4705.2,3409.3-4698.9,3415.5-4691.2,3415.5z"></path> <path class="st72" d="M-4691.2,3415.4c7.7,0,13.9-6.1,13.9-13.7c0-7.6-6.2-13.7-13.9-13.7c-7.7,0-13.9,6.1-13.9,13.7 C-4705.1,3409.2-4698.9,3415.4-4691.2,3415.4z"></path> <path class="st73" d="M-4691.2,3415.3c7.6,0,13.8-6.1,13.8-13.6s-6.2-13.6-13.8-13.6c-7.6,0-13.8,6.1-13.8,13.6 S-4698.8,3415.3-4691.2,3415.3z"></path> <path class="st73" d="M-4691.2,3415.1c7.6,0,13.7-6,13.7-13.5s-6.1-13.5-13.7-13.5c-7.6,0-13.7,6-13.7,13.5 S-4698.7,3415.1-4691.2,3415.1z"></path> <path class="st73" d="M-4691.2,3415c7.5,0,13.6-6,13.6-13.4s-6.1-13.4-13.6-13.4s-13.6,6-13.6,13.4S-4698.7,3415-4691.2,3415z"></path> <path class="st73" d="M-4691.2,3414.9c7.4,0,13.5-5.9,13.5-13.3s-6-13.3-13.5-13.3c-7.4,0-13.5,5.9-13.5,13.3 S-4698.6,3414.9-4691.2,3414.9z"></path> <path class="st74" d="M-4691.2,3414.8c7.4,0,13.4-5.9,13.4-13.2c0-7.3-6-13.2-13.4-13.2s-13.4,5.9-13.4,13.2 C-4704.5,3408.9-4698.5,3414.8-4691.2,3414.8z"></path> <path class="st74" d="M-4691.2,3414.8c7.4,0,13.4-5.9,13.4-13.2c0-7.3-6-13.2-13.4-13.2s-13.4,5.9-13.4,13.2 C-4704.5,3408.9-4698.5,3414.8-4691.2,3414.8z"></path> <path class="st74" d="M-4691.2,3414.7c7.3,0,13.2-5.8,13.2-13s-5.9-13-13.2-13c-7.3,0-13.2,5.8-13.2,13 S-4698.5,3414.7-4691.2,3414.7z"></path> <path class="st74" d="M-4691.2,3414.6c7.2,0,13.1-5.8,13.1-12.9s-5.9-12.9-13.1-12.9s-13.1,5.8-13.1,12.9 S-4698.4,3414.6-4691.2,3414.6z"></path> <path class="st74" d="M-4691.2,3414.5c7.2,0,13-5.7,13-12.8s-5.8-12.8-13-12.8s-13,5.7-13,12.8S-4698.3,3414.5-4691.2,3414.5z"></path> <g class="st75"> <path class="st76" d="M-4668.4,3403.2l-9.7-9.6l-12.4-0.5l-0.4,2.5l-2.8,3.5l-7-7.3l-5.6,19.5l12.9,12.7c0.7,0.1,1.5,0.1,2.3,0.1 C-4679.1,3424.2-4669.1,3414.9-4668.4,3403.2z"></path> </g> <path class="st77" d="M-4706.4,3391.8h5.5v7.4h7v-7.4h5.6v19.6h-5.5v-7.5h-7v7.5h-5.6V3391.8z"></path> <path class="st77" d="M-4679.9,3401.2c1.8-0.8,3-2.1,3-4.4c0-1.4-0.5-2.4-1.3-3.2c-1.2-1.2-2.9-1.7-5.4-1.7h-10.2v19.6h10.3 c4.8,0,7.5-2.1,7.5-5.4C-4675.9,3403.4-4677.4,3402-4679.9,3401.2z M-4684.1,3407.1h-4.2v-3.6h0.1v-3.8h-0.1v-3.5h3.6 c1.6,0,2.5,0.6,2.5,1.7s-0.9,1.7-2.6,1.7h-2.2v3.8h2.9c1.9,0,2.7,0.7,2.7,1.7C-4681.4,3406.4-4682.4,3407.1-4684.1,3407.1z"></path> </svg> 