<?xml version="1.0" encoding="UTF-8"?> <!-- Generator: Adobe Illustrator 19.0.0, SVG Export Plug-In . SVG Version: 6.00 Build 0) --> <svg xmlns="http://www.w3.org/2000/svg" xmlns:xlink="http://www.w3.org/1999/xlink" x="0px" y="0px" viewBox="0 0 71.9 72.5" style="enable-background:new 0 0 71.9 72.5;" xml:space="preserve"> <style type="text/css"> .st0{fill:#FFFFFF;} </style> <g id="BACKGROUND"> </g> <g id="OBJECTS"> <g id="XMLID_107_"> <g id="XMLID_109_"> <path id="XMLID_110_" class="st0" d="M47.9,67.6h-24c-10.5,0-19-8.5-19-19v-24c0-10.5,8.5-19,19-19h24c10.5,0,19,8.5,19,19v24 C66.9,59.1,58.4,67.6,47.9,67.6z M23.9,8C14.8,8,7.3,15.5,7.3,24.7v24c0,9.2,7.5,16.7,16.7,16.7h24c9.2,0,16.7-7.5,16.7-16.7v-24 C64.6,15.5,57.1,8,47.9,8H23.9z"></path> </g> <path id="XMLID_108_" class="st0" d="M44.2,20.3l-4.8-0.1c-1.9,0-3.7,0.7-5.1,2c-1.4,1.3-2.1,3.1-2.1,5v4.6h-4.5 c-0.2,0-0.3,0.1-0.3,0.3v5.7c0,0.2,0.1,0.3,0.3,0.3h4.5v14.5c0,0.2,0.1,0.3,0.3,0.3h5.9c0.2,0,0.3-0.1,0.3-0.3V38.3h4.5 c0.2,0,0.3-0.1,0.3-0.3l0.7-5.7c0-0.1,0-0.2-0.1-0.3c-0.1-0.1-0.2-0.1-0.3-0.1h-5.3l0-2.9c0,0-0.1-1.4,0.6-2.2 c0.3-0.4,0.8-0.6,1.4-0.6h3.4c0.2,0,0.3-0.1,0.3-0.3v-5.2C44.5,20.5,44.4,20.3,44.2,20.3z"></path> </g> </g> <g id="DESIGNED_BY_FREEPIK"> </g> </svg> 