<?xml version="1.0" encoding="UTF-8"?> <!-- Generator: Adobe Illustrator 19.0.0, SVG Export Plug-In . SVG Version: 6.00 Build 0) --> <svg xmlns="http://www.w3.org/2000/svg" xmlns:xlink="http://www.w3.org/1999/xlink" id="Layer_1" x="0px" y="0px" viewBox="0 0 55 55" style="enable-background:new 0 0 55 55;" xml:space="preserve"> <style type="text/css"> .st0{fill:none;stroke:#1D2F5D;stroke-linecap:round;stroke-linejoin:round;stroke-miterlimit:10;} </style> <g> <path class="st0" d="M11,14.9l17.6-6.7c0.1,0,0.1,0,0.2,0l16.6,6.1c0.2,0.1,0.2,0.4,0,0.5l-17.6,6.9c-0.1,0-0.1,0-0.2,0L11,15.4 C10.7,15.3,10.7,15,11,14.9z"></path> <path class="st0" d="M27.6,21.6l-4.5,6.2C23,27.9,22.9,28,22.8,28l-18-6.6c-0.2-0.1-0.2-0.2-0.1-0.4l6.3-6.1"></path> <path class="st0" d="M27.8,21.6l4.8,6.9c0.1,0.2,0.3,0.2,0.5,0.1L52.5,21c0.2-0.1,0.3-0.4,0.2-0.6l-6.7-5.5"></path> <path class="st0" d="M28.1,22.2v26.4c0,0.2,0.2,0.3,0.4,0.3l19.1-7.6c0.1,0,0.2-0.1,0.2-0.3V25.4"></path> <path class="st0" d="M7.4,25.5v15.4c0,0.1,0.1,0.3,0.2,0.3l20.5,7.7"></path> </g> </svg> 