<?xml version="1.0" encoding="UTF-8"?> <svg xmlns="http://www.w3.org/2000/svg" width="445" height="217" viewBox="0 0 445 217" fill="none"> <path d="M245.183 17.3188H241.759V29.0154H235.821V0.393163H241.759V11.8539H244.471L251.517 0.393163H258.762L249.874 13.9376L259.692 29.0154H252.606L245.183 17.3188Z" fill="white"></path> <path d="M272.795 13.918L278.041 0.393163H284.454L274.379 24.0026L273.567 25.5556C272.076 28.1374 269.793 29.4282 266.719 29.4282L264.641 29.3496L264.581 24.612C264.898 24.6644 265.412 24.6906 266.125 24.6906C266.956 24.6906 267.623 24.5465 268.124 24.2582C268.639 23.9698 269.068 23.4391 269.411 22.6658L270.143 20.7983L260.029 0.393163H266.422L272.795 13.918Z" fill="white"></path> <path d="M311.076 29.0154H305.118V5.17009H293.579V29.0154H287.641V0.393163H311.076V29.0154Z" fill="white"></path> <path d="M327.109 13.918L332.355 0.393163H338.768L328.693 24.0026L327.881 25.5556C326.39 28.1374 324.107 29.4282 321.033 29.4282L318.954 29.3496L318.895 24.612C319.212 24.6644 319.726 24.6906 320.439 24.6906C321.27 24.6906 321.936 24.5465 322.438 24.2582C322.953 23.9698 323.381 23.4391 323.724 22.6658L324.457 20.7983L314.342 0.393163H320.736L327.109 13.918Z" fill="white"></path> <path d="M375.821 15.353C375.821 18.1707 375.32 20.6411 374.317 22.7641C373.314 24.8872 371.876 26.5254 370.002 27.6787C368.141 28.832 366.004 29.4086 363.589 29.4086C361.385 29.4086 359.406 28.9368 357.651 27.9932C355.909 27.0365 354.49 25.667 353.395 23.8847C352.313 22.1023 351.647 20.0185 351.396 17.6334H348.09V29.0154H342.152V0.393163H348.09V13.053H351.297C351.416 10.4712 351.99 8.1909 353.019 6.21198C354.062 4.23305 355.493 2.70627 357.314 1.63163C359.148 0.543875 361.227 0 363.549 0C365.951 0 368.082 0.576639 369.943 1.72992C371.816 2.87009 373.261 4.51482 374.277 6.66411C375.307 8.8003 375.821 11.2707 375.821 14.0752V15.353ZM369.804 14.0556C369.804 11.0544 369.263 8.77409 368.181 7.21454C367.099 5.65499 365.555 4.87522 363.549 4.87522C361.557 4.87522 360.019 5.64844 358.937 7.19488C357.855 8.72822 357.308 10.9824 357.294 13.9573V15.353C357.294 18.2755 357.835 20.5428 358.918 22.1547C360 23.7667 361.557 24.5727 363.589 24.5727C365.581 24.5727 367.112 23.7995 368.181 22.253C369.25 20.6935 369.791 18.4262 369.804 15.4513V14.0556Z" fill="white"></path> <path d="M401.256 5.17009H392.428V29.0154H386.49V5.17009H377.781V0.393163H401.256V5.17009Z" fill="white"></path> <path d="M410.915 10.7137H415.547C418.938 10.7137 421.624 11.5328 423.603 13.171C425.596 14.796 426.592 16.9912 426.592 19.7564C426.592 22.5348 425.602 24.7693 423.623 26.4599C421.657 28.1374 419.037 28.9892 415.765 29.0154H404.938V0.393163H410.915V10.7137ZM410.915 15.471V24.2778H415.646C417.164 24.2778 418.371 23.865 419.268 23.0394C420.179 22.2137 420.634 21.1063 420.634 19.7171C420.634 18.4197 420.199 17.3975 419.328 16.6505C418.47 15.8903 417.289 15.4972 415.785 15.471H410.915Z" fill="white"></path> <path d="M431.461 36.1907L428.472 34.6377L429.185 33.3599C430.069 31.761 430.524 30.1687 430.551 28.5829V24.1795H435.38L435.361 28.1112C435.347 29.5659 434.978 31.0337 434.252 32.5146C433.526 33.9955 432.596 35.2208 431.461 36.1907Z" fill="white"></path> <path d="M257.475 49.456H248.647V73.3013H242.709V49.456H234V44.679H257.475V49.456Z" fill="white"></path> <path d="M283.999 59.6389C283.999 62.4566 283.497 64.9269 282.494 67.05C281.491 69.1731 280.053 70.8113 278.179 71.9646C276.319 73.1178 274.181 73.6945 271.766 73.6945C269.378 73.6945 267.247 73.1244 265.373 71.9842C263.499 70.844 262.048 69.219 261.018 67.109C259.989 64.9859 259.468 62.5483 259.455 59.7962V58.3808C259.455 55.5631 259.963 53.0862 260.979 50.95C262.008 48.8007 263.453 47.156 265.314 46.0158C267.187 44.8625 269.325 44.2859 271.727 44.2859C274.128 44.2859 276.259 44.8625 278.12 46.0158C279.994 47.156 281.439 48.8007 282.455 50.95C283.484 53.0862 283.999 55.5565 283.999 58.3611V59.6389ZM277.981 58.3415C277.981 55.3403 277.44 53.06 276.358 51.5004C275.276 49.9409 273.732 49.1611 271.727 49.1611C269.734 49.1611 268.197 49.9343 267.115 51.4808C266.033 53.0141 265.485 55.2682 265.472 58.2432V59.6389C265.472 62.5614 266.013 64.8286 267.095 66.4406C268.177 68.0526 269.734 68.8586 271.766 68.8586C273.759 68.8586 275.289 68.0853 276.358 66.5389C277.427 64.9794 277.968 62.7121 277.981 59.7372V58.3415Z" fill="white"></path> <path d="M296.073 44.679L303.476 65.438L310.839 44.679H318.638V73.3013H312.68V65.4774L313.273 51.9722L305.495 73.3013H301.417L293.658 51.9919L294.252 65.4774V73.3013H288.314V44.679H296.073Z" fill="white"></path> <path d="M334.631 58.2038L339.876 44.679H346.289L336.214 68.2885L335.403 69.8415C333.912 72.4232 331.629 73.7141 328.554 73.7141L326.476 73.6355L326.416 68.8979C326.733 68.9503 327.248 68.9765 327.96 68.9765C328.792 68.9765 329.458 68.8324 329.959 68.544C330.474 68.2557 330.903 67.7249 331.246 66.9517L331.978 65.0842L321.864 44.679H328.257L334.631 58.2038Z" fill="white"></path> <path d="M365.449 44.679V68.5637H373.446V44.679H379.404V68.5637H387.321V44.679H393.259V68.7406H397.06L396.664 80.1817H391.359V73.3013H359.492V44.679H365.449Z" fill="white"></path> <path d="M424.613 59.6389C424.613 62.4566 424.111 64.9269 423.108 67.05C422.105 69.1731 420.667 70.8113 418.793 71.9646C416.933 73.1178 414.795 73.6945 412.38 73.6945C409.992 73.6945 407.861 73.1244 405.987 71.9842C404.113 70.844 402.661 69.219 401.632 67.109C400.603 64.9859 400.082 62.5483 400.068 59.7962V58.3808C400.068 55.5631 400.577 53.0862 401.593 50.95C402.622 48.8007 404.067 47.156 405.927 46.0158C407.801 44.8625 409.939 44.2859 412.341 44.2859C414.742 44.2859 416.873 44.8625 418.734 46.0158C420.608 47.156 422.053 48.8007 423.069 50.95C424.098 53.0862 424.613 55.5565 424.613 58.3611V59.6389ZM418.595 58.3415C418.595 55.3403 418.054 53.06 416.972 51.5004C415.89 49.9409 414.346 49.1611 412.341 49.1611C410.348 49.1611 408.811 49.9343 407.729 51.4808C406.647 53.0141 406.099 55.2682 406.086 58.2432V59.6389C406.086 62.5614 406.627 64.8286 407.709 66.4406C408.791 68.0526 410.348 68.8586 412.38 68.8586C414.373 68.8586 415.903 68.0853 416.972 66.5389C418.041 64.9794 418.582 62.7121 418.595 59.7372V58.3415Z" fill="white"></path> <path d="M257.475 93.7418H248.647V117.587H242.709V93.7418H234V88.9649H257.475V93.7418Z" fill="white"></path> <path d="M278.219 105.183H266.818V112.85H280.198V117.587H260.88V88.9649H280.159V93.7418H266.818V100.563H278.219V105.183Z" fill="white"></path> <path d="M306.306 108.053C306.082 111.133 304.934 113.557 302.862 115.326C300.803 117.096 298.085 117.98 294.707 117.98C291.012 117.98 288.103 116.748 285.978 114.285C283.867 111.808 282.811 108.413 282.811 104.102V102.352C282.811 99.6 283.299 97.1755 284.276 95.0786C285.252 92.9817 286.644 91.3763 288.452 90.2624C290.273 89.1353 292.385 88.5718 294.786 88.5718C298.112 88.5718 300.79 89.4564 302.822 91.2256C304.855 92.9948 306.029 95.4783 306.346 98.676H300.408C300.262 96.8282 299.741 95.4914 298.844 94.6658C297.96 93.827 296.607 93.4077 294.786 93.4077C292.807 93.4077 291.322 94.1154 290.333 95.5307C289.356 96.933 288.855 99.1151 288.828 102.077V104.239C288.828 107.332 289.297 109.593 290.234 111.021C291.184 112.45 292.675 113.164 294.707 113.164C296.541 113.164 297.907 112.751 298.804 111.926C299.715 111.087 300.236 109.796 300.368 108.053H306.306Z" fill="white"></path> <path d="M331.305 93.7418H322.477V117.587H316.539V93.7418H307.83V88.9649H331.305V93.7418Z" fill="white"></path> <path d="M345.517 102.49L350.763 88.9649H357.176L347.101 112.574L346.289 114.127C344.798 116.709 342.515 118 339.441 118L337.362 117.921L337.303 113.184C337.62 113.236 338.134 113.262 338.847 113.262C339.678 113.262 340.345 113.118 340.846 112.83C341.361 112.542 341.789 112.011 342.133 111.238L342.865 109.37L332.75 88.9649H339.144L345.517 102.49Z" fill="white"></path> <path d="M394.229 103.925C394.229 106.742 393.728 109.213 392.725 111.336C391.722 113.459 390.284 115.097 388.41 116.25C386.549 117.404 384.412 117.98 381.997 117.98C379.793 117.98 377.814 117.509 376.059 116.565C374.317 115.608 372.898 114.239 371.803 112.456C370.721 110.674 370.055 108.59 369.804 106.205H366.499V117.587H360.56V88.9649H366.499V101.625H369.705C369.824 99.043 370.398 96.7627 371.427 94.7837C372.47 92.8048 373.901 91.278 375.722 90.2034C377.557 89.1156 379.635 88.5718 381.957 88.5718C384.359 88.5718 386.49 89.1484 388.351 90.3017C390.224 91.4418 391.669 93.0866 392.685 95.2359C393.715 97.3721 394.229 99.8424 394.229 102.647V103.925ZM388.212 102.627C388.212 99.6262 387.671 97.3458 386.589 95.7863C385.507 94.2267 383.963 93.447 381.957 93.447C379.965 93.447 378.427 94.2202 377.345 95.7666C376.263 97.3 375.716 99.5541 375.703 102.529V103.925C375.703 106.847 376.244 109.115 377.326 110.726C378.408 112.338 379.965 113.144 381.997 113.144C383.989 113.144 385.52 112.371 386.589 110.825C387.658 109.265 388.199 106.998 388.212 104.023V102.627Z" fill="white"></path> <path d="M419.664 93.7418H410.836V117.587H404.898V93.7418H396.189V88.9649H419.664V93.7418Z" fill="white"></path> <path d="M429.323 99.2854H433.955C437.346 99.2854 440.032 100.105 442.011 101.743C444.004 103.368 445 105.563 445 108.328C445 111.107 444.01 113.341 442.031 115.032C440.065 116.709 437.445 117.561 434.173 117.587H423.346V88.9649H429.323V99.2854ZM429.323 104.043V112.85H434.054C435.572 112.85 436.779 112.437 437.676 111.611C438.587 110.785 439.042 109.678 439.042 108.289C439.042 106.991 438.607 105.969 437.736 105.222C436.878 104.462 435.697 104.069 434.193 104.043H429.323Z" fill="white"></path> <path d="M28.7228 45.8889C26.8252 46.9259 21.8224 49.1728 13.7145 52.6296C12.3344 53.1481 10.1781 54.0123 7.24539 55.2222C4.31273 56.4321 1.8976 57.5556 0 58.5926V26.4444C20.7011 15.7284 33.3806 7.95061 38.0383 3.1111H71.9364V213.111H28.7228V45.8889Z" fill="#F9423A"></path> <path d="M148.072 217C129.613 217 115.468 211.556 105.635 200.667C95.8016 189.778 90.885 175.173 90.885 156.852V61.7037C90.885 42.5185 95.629 27.4815 105.117 16.5926C114.778 5.53086 129.096 0 148.072 0C167.048 0 181.28 5.53086 190.768 16.5926C200.256 27.4815 205 42.5185 205 61.7037V156.852C205 175 199.997 189.605 189.992 200.667C180.159 211.556 166.185 217 148.072 217ZM148.072 178.37C153.42 178.37 156.87 176.123 158.422 171.63C160.148 167.136 161.01 161.864 161.01 155.815V62.7407C161.01 55.8272 160.234 50.1235 158.681 45.6296C157.301 40.963 153.765 38.6296 148.072 38.6296C142.379 38.6296 138.756 40.8765 137.204 45.3704C135.824 49.8642 135.134 55.6543 135.134 62.7407V155.815C135.134 170.852 139.446 178.37 148.072 178.37Z" fill="#F9423A"></path> <path d="M234 147.924H256.78C262.754 147.924 267.221 149.633 270.18 153.05C273.139 156.412 274.619 161.286 274.619 167.672C274.619 174.955 272.888 180.025 269.426 182.882C266.021 185.683 261.219 187.084 255.021 187.084H248.991V215.992H234V147.924ZM254.016 176.58C256.641 176.58 258.371 175.88 259.209 174.479C260.102 173.078 260.549 170.725 260.549 167.42C260.549 164.395 260.13 162.154 259.293 160.697C258.455 159.241 256.668 158.513 253.933 158.513H248.991V176.58H254.016Z" fill="#F9423A"></path> <path d="M301.276 217C293.962 217 288.741 215.123 285.614 211.37C282.488 207.56 280.924 201.958 280.924 194.563V169.269C280.924 161.874 282.488 156.328 285.614 152.63C288.741 148.877 293.962 147 301.276 147C308.646 147 313.894 148.877 317.021 152.63C320.203 156.384 321.795 161.93 321.795 169.269V194.563C321.795 201.958 320.203 207.56 317.021 211.37C313.894 215.123 308.646 217 301.276 217ZM301.276 206.328C303.397 206.328 304.793 205.627 305.463 204.227C306.133 202.77 306.468 200.81 306.468 198.345V165.571C306.468 163.05 306.133 161.09 305.463 159.689C304.793 158.289 303.397 157.588 301.276 157.588C299.266 157.588 297.926 158.317 297.256 159.773C296.586 161.174 296.251 163.106 296.251 165.571V198.345C296.251 200.81 296.558 202.77 297.172 204.227C297.786 205.627 299.154 206.328 301.276 206.328Z" fill="#F9423A"></path> <path d="M330.918 147.924H345.91V175.739L357.3 147.924H371.956L359.393 178.681L372.542 215.992L357.3 215.992L347.501 185.908L345.91 188.597V215.992H330.918V147.924Z" fill="#F9423A"></path> <path d="M378.52 147.924H393.512V215.992H378.52V147.924Z" fill="#F9423A"></path> <path d="M403.627 147.924H421.299C425.709 147.924 429.45 148.401 432.521 149.353C435.648 150.249 438.16 152.014 440.059 154.647C441.957 157.28 442.906 160.978 442.906 165.739C442.906 169.773 442.041 172.91 440.31 175.151C438.579 177.392 436.122 178.821 432.94 179.437C436.848 179.941 439.835 181.594 441.901 184.395C443.967 187.196 445 191.006 445 195.824C445 209.269 438.16 215.992 424.481 215.992H403.627V147.924ZM421.55 175.151C424.732 175.151 426.882 174.423 427.999 172.966C429.171 171.51 429.757 169.241 429.757 166.16C429.757 163.471 429.032 161.454 427.58 160.109C426.128 158.709 424.007 158.008 421.215 158.008H418.619V175.151H421.55ZM421.801 205.487C424.984 205.487 427.217 204.703 428.501 203.134C429.841 201.51 430.511 198.989 430.511 195.571C430.511 191.706 429.841 188.989 428.501 187.42C427.217 185.852 424.956 185.067 421.717 185.067H418.619V205.487H421.801Z" fill="#F9423A"></path> </svg> 