<?xml version="1.0" encoding="UTF-8"?> <!-- Generator: Adobe Illustrator 19.0.0, SVG Export Plug-In . SVG Version: 6.00 Build 0) --> <svg xmlns="http://www.w3.org/2000/svg" xmlns:xlink="http://www.w3.org/1999/xlink" id="Слой_1" x="0px" y="0px" viewBox="-71 329.3 611 135.7" style="enable-background:new -71 329.3 611 135.7;" xml:space="preserve"> <style type="text/css"> .st0{fill:#FCC600;} .st1{fill:#F9423A;} .st2{fill:#732F7A;} </style> <path class="st0" d="M25.9,424L5.7,404.7c-0.2-0.2-0.5-0.4-0.7-0.6c-2,2.5-5.1,4-8.5,4c-3.3,0-6.2-1.4-8.2-3.6 c-0.2,0.2-0.4,0.3-0.6,0.5l-41,39.5c-4.8,4.5-4.9,12.1-0.3,16.9c4.5,4.7,12.1,4.9,16.8,0.3l35-33.7l12.4,11.9 c4.4,4.3,11.4,4.1,15.6-0.3C30.5,435.2,30.3,428.2,25.9,424z"></path> <g> <path d="M397.6,375.9v42.6H386v-5.3c-3,3.8-5.8,6.2-12.5,6.4c-4.4-0.1-8.2-1.7-11.1-4.7c-3.1-3.2-4.6-7.5-4.6-13v-26h11.7v24.7 c0,2.7,0.7,4.7,2.1,6.1c0.6,0.6,1.2,1,2,1.3c1.1,0.5,2.3,0.7,3.7,0.7c2.7,0,4.8-0.8,6.3-2.5c1.6-1.6,2.4-4.1,2.4-7.4v-23h11.6 V375.9z"></path> <path d="M284.5,381.1c-4.3-4.3-9.7-6.5-16.5-6.5c-6.7,0-12.1,2.2-16.5,6.5c-4.3,4.3-6.5,9.6-6.5,16.1s2.1,11.7,6.5,16 c4.3,4.3,9.7,6.4,16.5,6.4c6.7,0,12.1-2.1,16.5-6.4c4.3-4.3,6.5-9.5,6.5-16C290.9,390.8,288.8,385.5,284.5,381.1z M275.8,404.9 c-2,2.1-4.6,3.1-7.8,3.1c-3.2,0-5.7-1-7.8-3.1c-2-2.1-3.1-4.6-3.1-7.7s1-5.7,3.1-7.8c2-2.1,4.6-3.1,7.8-3.1c3.2,0,5.7,1,7.8,3.1 c2,2.1,3.1,4.6,3.1,7.8C278.8,400.3,277.8,402.9,275.8,404.9z"></path> <path d="M225.7,381.4v-5.5H214v21.4v21.2h11.7v-5.4v-12.3l0,0c0-3.7,1.2-6.6,3.6-9.1c2.4-2.4,5.4-3.6,9.1-3.7v-0.1V375 C238.4,375,230.5,375.4,225.7,381.4z"></path> <path d="M341.5,381.2c-1.1-1.1-2.9-2.6-5.3-3.9c-1.7-0.9-5.6-2.7-10.8-2.6c-6.8,0.1-11.5,3.3-13.2,4.5l0,0v-20h-11.7v59.3h11.7 v-5.3c3.1,4,8.1,6.3,13.1,6.4c2.2,0.1,4.3-0.3,6.2-0.8c3.8-1,7.1-2.8,9.9-5.6c4.3-4.3,6.5-9.5,6.5-16 C348,390.8,345.8,385.5,341.5,381.2z M332.9,404.9c-2.1,2-4.6,3.1-7.8,3.1c-3.2,0-5.7-1-7.8-3.1c-2-2.1-3-4.6-3-7.7s1-5.7,3-7.8 c2.1-2.1,4.6-3.1,7.8-3.1c3.2,0,5.7,1,7.8,3.1c0.5,0.5,0.9,1.1,1.3,1.6c0.1,0.1,0.2,0.3,0.3,0.4c1,1.6,1.5,3.6,1.5,5.7 c0,2-0.4,3.8-1.3,5.4C334.2,403.4,333.6,404.2,332.9,404.9z"></path> <path d="M198.4,381.2c-1.1-1.1-2.9-2.6-5.3-3.9c-1.7-0.9-5.6-2.7-10.8-2.6c-6.8,0.1-11.5,3.3-13.2,4.5l0,0V376h-11.7v59.3h11.7v-22 c3.1,4,8.1,6.3,13.1,6.4c2.2,0.1,4.3-0.3,6.2-0.8c3.8-1,7.1-2.8,9.9-5.6c4.3-4.3,6.5-9.5,6.5-16 C204.8,390.8,202.7,385.5,198.4,381.2z M189.7,404.9c-2.1,2-4.6,3.1-7.8,3.1s-5.7-1-7.8-3.1c-2-2.1-3-4.6-3-7.7s1-5.7,3-7.8 c2.1-2.1,4.6-3.1,7.8-3.1s5.7,1,7.8,3.1c0.5,0.5,0.9,1.1,1.3,1.6c0.1,0.1,0.2,0.3,0.3,0.4c1,1.6,1.5,3.6,1.5,5.7 c0,2-0.4,3.8-1.3,5.4C191,403.4,190.4,404.2,189.7,404.9z"></path> <path d="M97.7,397.3c0,6.5,2.1,11.7,6.5,16c2.8,2.8,6.1,4.6,9.9,5.6c1.9,0.5,4,0.8,6.2,0.8c5-0.2,10-2.4,13.1-6.4v5.3h11.7v-42.7 h-11.7v3.2l0,0c-1.7-1.2-6.5-4.4-13.2-4.5c-5.2-0.1-9,1.7-10.8,2.6c-2.4,1.3-4.2,2.8-5.3,3.9C99.8,385.5,97.7,390.8,97.7,397.3z M111,402.6c-0.8-1.6-1.3-3.3-1.3-5.4c0-2.2,0.5-4.1,1.5-5.7c0.1-0.1,0.1-0.3,0.3-0.4c0.4-0.6,0.8-1.1,1.3-1.6 c2-2.1,4.6-3.1,7.8-3.1s5.7,1,7.8,3.1c2,2.1,3,4.6,3,7.8c0,3.1-1,5.7-3,7.7c-2.1,2-4.6,3.1-7.8,3.1s-5.7-1-7.8-3.1 C112.1,404.2,111.5,403.4,111,402.6z"></path> <path d="M47.6,418.6V376h11.7v5.3c3-3.8,5.8-6.2,12.5-6.4c4.4,0.1,8.2,1.7,11.1,4.7c3.1,3.2,4.6,7.5,4.6,13v26H75.8v-24.7 c0-2.7-0.7-4.7-2.1-6.1c-0.6-0.6-1.2-1-2-1.3c-1.1-0.5-2.3-0.7-3.7-0.7c-2.7,0-4.8,0.8-6.3,2.5c-1.6,1.6-2.4,4.1-2.4,7.4v23H47.6 V418.6z"></path> </g> <g> <path d="M409.3,406.6h11.9v11.4h-11.9V406.6z"></path> </g> <path d="M471.9,375.9v42.6h-11.6v-5.3c-3,3.8-5.8,6.2-12.5,6.4c-4.4-0.1-8.2-1.7-11.1-4.7c-3.1-3.2-4.6-7.5-4.6-13v-26h11.7v24.7 c0,2.7,0.7,4.7,2.1,6.1c0.6,0.6,1.2,1,2,1.3c1.1,0.5,2.3,0.7,3.7,0.7c2.7,0,4.8-0.8,6.3-2.5c1.6-1.6,2.4-4.1,2.4-7.4v-23h11.6V375.9 z"></path> <path d="M482,397.4c0,6.5,2.1,11.7,6.5,16c2.8,2.8,6.1,4.6,9.9,5.6c1.9,0.5,4,0.8,6.2,0.8c5-0.2,10-2.4,13.1-6.4v5.3h11.7V376h-11.7 v3.2l0,0c-1.7-1.2-6.5-4.4-13.2-4.5c-5.2-0.1-9,1.7-10.8,2.6c-2.4,1.3-4.2,2.8-5.3,3.9C484.1,385.6,482,390.9,482,397.4z M495.3,402.7c-0.8-1.6-1.3-3.3-1.3-5.4c0-2.2,0.5-4.1,1.5-5.7c0.1-0.1,0.1-0.3,0.3-0.4c0.4-0.6,0.8-1.1,1.3-1.6 c2-2.1,4.6-3.1,7.8-3.1c3.2,0,5.7,1,7.8,3.1c2,2.1,3,4.6,3,7.8c0,3.1-1,5.7-3,7.7c-2.1,2-4.6,3.1-7.8,3.1c-3.2,0-5.7-1-7.8-3.1 C496.4,404.3,495.8,403.5,495.3,402.7z"></path> <path class="st1" d="M47.3,332.9c-4.5-4.7-12.1-4.9-16.8-0.3l-35,33.7l-12.4-11.9c-4.4-4.3-11.4-4.1-15.6,0.3 c-4.3,4.4-4.1,11.4,0.3,15.6l20.2,19.3c0.1,0.1,0.2,0.2,0.3,0.3c2-2.2,4.9-3.6,8.2-3.6c3.4,0,6.4,1.5,8.4,3.9 c0.4-0.3,0.7-0.6,1.1-0.9l41-39.5C51.7,345.2,51.9,337.7,47.3,332.9z"></path> <path class="st2" d="M-14.5,397.3c0-3.5,1.6-6.6,4.1-8.6c-0.2-0.2-0.4-0.5-0.6-0.7l-39.5-41c-4.6-4.8-12.1-4.9-16.9-0.3 c-4.7,4.5-4.9,12.1-0.3,16.8l33.7,35l-11.9,12.4c-4.2,4.4-4,11.4,0.3,15.5c4.4,4.3,11.4,4.1,15.6-0.3l19.3-20.1 c0.1-0.1,0.1-0.2,0.2-0.2C-12.9,403.7-14.5,400.7-14.5,397.3z"></path> </svg> 