<?xml version="1.0" encoding="UTF-8"?> <!-- Generator: Adobe Illustrator 19.0.0, SVG Export Plug-In . SVG Version: 6.00 Build 0) --> <svg xmlns="http://www.w3.org/2000/svg" xmlns:xlink="http://www.w3.org/1999/xlink" id="Layer_1" x="0px" y="0px" viewBox="0 0 55 55" style="enable-background:new 0 0 55 55;" xml:space="preserve"> <style type="text/css"> .st0{fill:none;stroke:#1D2F5D;stroke-linecap:round;stroke-linejoin:round;stroke-miterlimit:10;} </style> <path class="st0" d="M51.8,27.7l-22-22c-0.6-0.6-1.5-1-2.4-1h-17c-1,0-2,0.5-2.6,1.3L7,6.9C6.5,7.5,6.3,8.2,6.3,9v16.8 c0,0.9,0.4,1.7,1,2.4l22,22c1.3,1.3,3.4,1.3,4.7,0l17.8-17.8C53.1,31.1,53.1,29,51.8,27.7z M13.7,16.2c-2.1,0-3.8-1.7-3.8-3.8 s1.7-3.8,3.8-3.8s3.8,1.7,3.8,3.8S15.8,16.2,13.7,16.2z M41.9,34.6l-5,5.2L31.4,45l-9.3-9.4C20.8,34.5,20,32.8,20,31 c0-3.4,2.7-6.1,6.1-6.1c2.4,0,4.4,1.3,5.4,3.3c1-2,3.1-3.3,5.4-3.3c3.4,0,6.1,2.7,6.1,6.1C43.1,32.4,42.7,33.6,41.9,34.6z"></path> </svg> 