<?xml version="1.0" encoding="UTF-8"?> <!-- Generator: Adobe Illustrator 19.0.0, SVG Export Plug-In . SVG Version: 6.00 Build 0) --> <svg xmlns="http://www.w3.org/2000/svg" xmlns:xlink="http://www.w3.org/1999/xlink" id="Слой_1" x="0px" y="0px" viewBox="-76.7 326.3 134.3 140.3" style="enable-background:new -76.7 326.3 134.3 140.3;" xml:space="preserve"> <style type="text/css"> .st0{fill:#FCC600;} .st1{fill:#F9423A;} .st2{fill:#732F7A;} </style> <path class="st0" d="M-53.3,444.5l41-39.5c2.3-2.2,5.3-3.3,8.3-3.3c0.1,0,0.3,0,0.4,0c0.5-0.1,1.1-0.1,1.7-0.1c2.7,0,5.5,1,7.6,3.1 L25.9,424c4.4,4.2,4.6,11.2,0.3,15.6c-4.2,4.4-11.2,4.6-15.6,0.3L-1.8,428l-35,33.7c-4.7,4.6-12.3,4.4-16.8-0.3 C-58.2,456.6-58.1,449-53.3,444.5z"></path> <path class="st1" d="M47,349.8L6,389.3c-2.3,2.2-5.3,3.3-8.3,3.3c-0.1,0-0.3,0-0.4,0c-0.5,0.1-1.1,0.1-1.7,0.1c-2.7,0-5.5-1-7.6-3.1 l-20.2-19.3c-4.4-4.2-4.6-11.2-0.3-15.6c4.2-4.4,11.2-4.6,15.6-0.3l12.4,11.9l35-33.7c4.7-4.6,12.3-4.4,16.8,0.3 C51.9,337.7,51.7,345.2,47,349.8z"></path> <path class="st2" d="M-50.5,347l39.5,41c2.2,2.3,3.3,5.3,3.3,8.3c0,0.2,0,0.3,0,0.4c0.1,0.5,0.1,1.1,0.1,1.7c0,2.7-1,5.5-3.1,7.6 L-30,426.1c-4.2,4.4-11.2,4.6-15.6,0.3c-4.3-4.1-4.5-11.1-0.3-15.5l11.9-12.4l-33.7-35c-4.6-4.7-4.4-12.3,0.3-16.8 C-62.6,342.1-55.1,342.2-50.5,347z"></path> </svg> 