<?xml version="1.0" encoding="UTF-8"?> <!-- Generator: Adobe Illustrator 19.0.0, SVG Export Plug-In . SVG Version: 6.00 Build 0) --> <svg xmlns="http://www.w3.org/2000/svg" xmlns:xlink="http://www.w3.org/1999/xlink" x="0px" y="0px" viewBox="0 0 71.9 72.5" style="enable-background:new 0 0 71.9 72.5;" xml:space="preserve"> <style type="text/css"> .st0{fill:#FFFFFF;} </style> <g id="BACKGROUND"> </g> <g id="OBJECTS"> <g id="XMLID_107_"> <g id="XMLID_109_"> <path id="XMLID_110_" class="st0" d="M47.9,67.2h-24c-10.5,0-19-8.5-19-19v-24c0-10.5,8.5-19,19-19h24c10.5,0,19,8.5,19,19v24 C66.9,58.7,58.4,67.2,47.9,67.2z M23.9,7.6c-9.2,0-16.7,7.5-16.7,16.7v24c0,9.2,7.5,16.7,16.7,16.7h24c9.2,0,16.7-7.5,16.7-16.7 v-24c0-9.2-7.5-16.7-16.7-16.7H23.9z"></path> </g> <path id="XMLID_108_" class="st0" d="M46.3,21.1L23.2,34.5c-1.8,1.1-1.6,3.8,0.4,4.4l6.1,2.1l13.9-10.9l-9.6,12.3v7.2 c0,0.8,0.9,1.1,1.4,0.6l3.6-3.4l4.6,4.2c1.5,1.4,3.9,0.4,4.1-1.6l2.2-26C50.1,21.5,48,20.1,46.3,21.1z"></path> </g> </g> <g id="DESIGNED_BY_FREEPIK"> </g> </svg> 