<?xml version="1.0" encoding="UTF-8"?> <svg xmlns="http://www.w3.org/2000/svg" width="240" height="45.056" viewBox="0 0 63.500001 11.921065"> <g transform="translate(-46.74 -125.78)" fill="#ff0000"> <path d="m50.905 127.81q-1.8457 0-1.8457 1.2192 0 0.54187 0.4572 0.82974 0.4572 0.28786 2.1336 0.82973 1.6933 0.54187 2.3707 1.2361 0.67733 0.67734 0.67733 2.0997 0 1.8119-1.1007 2.7432-1.1007 0.93133-2.8787 0.93133-1.3208 0-3.2343-0.4064l-0.6096-0.11853 0.23707-1.8119q2.2691 0.3048 3.4713 0.3048 1.7949 0 1.7949-1.4901 0-0.54187-0.42333-0.84667-0.4064-0.3048-1.6425-0.6604-1.9643-0.5588-2.7771-1.3208-0.79587-0.77893-0.79587-2.1505 0-1.7272 1.0499-2.5739 1.0499-0.84667 2.8787-0.84667 1.2531 0 3.1835 0.33867l0.6096 0.11853-0.18627 1.8457q-2.3876-0.27094-3.3697-0.27094z"></path> <path d="m56.011 129.99q0.89747-1.1684 2.9972-1.1684t2.9972 1.1684q0.89747 1.1515 0.89747 3.2512 0 4.4535-3.8947 4.4535-3.8947 0-3.8947-4.4535 0-2.0997 0.89747-3.2512zm1.7441 5.1647q0.3556 0.6096 1.2531 0.6096t1.2361-0.6096q0.3556-0.6096 0.3556-1.9135 0-1.3039-0.3556-1.8965-0.33867-0.59267-1.2361-0.59267t-1.2531 0.59267q-0.33867 0.59267-0.33867 1.8965 0 1.3039 0.33867 1.9135z"></path> <path d="m69.793 131.14q-2.0997-0.27093-2.9464-0.27093-0.82973 0-1.0837 0.1524-0.23707 0.1524-0.23707 0.49106 0 0.32174 0.32173 0.4572 0.33867 0.11854 1.6933 0.37254 1.3716 0.23706 1.9473 0.79586 0.57573 0.5588 0.57573 1.8119 0 2.7432-3.4036 2.7432-1.1176 0-2.7093-0.3048l-0.54187-0.1016 0.06773-1.8965q2.0997 0.27093 2.9125 0.27093 0.82973 0 1.1176-0.1524 0.3048-0.16933 0.3048-0.49107 0-0.32173-0.32173-0.47413-0.3048-0.1524-1.6256-0.37253-1.3039-0.22014-1.9473-0.74507-0.64347-0.52493-0.64347-1.8627 0-1.3547 0.9144-2.032 0.9144-0.69426 2.3537-0.69426 0.99907 0 2.7263 0.32173l0.5588 0.1016z"></path> <path d="m75.572 130.96h-2.0828v3.4713q0 0.508 0.01693 0.72813 0.03387 0.2032 0.18627 0.3556 0.16933 0.1524 0.508 0.1524l1.2869-0.0339 0.1016 1.8119q-1.1345 0.254-1.7272 0.254-1.524 0-2.0828-0.67733-0.5588-0.69427-0.5588-2.54v-3.5221h-0.99907v-1.9304h0.99907v-2.3537h2.2691v2.3537h2.0828z"></path> <path d="m82.682 131.67v3.5221q0.03387 0.4064 0.13547 0.57573 0.1016 0.1524 0.42333 0.22013l-0.06773 1.7103q-0.8636 0-1.3885-0.11853-0.508-0.11854-1.0329-0.47414-1.2192 0.59267-2.4892 0.59267-2.6247 0-2.6247-2.7771 0-1.3547 0.72813-1.9135 0.72813-0.57574 2.2352-0.67734l1.8119-0.13546v-0.52494q0-0.52493-0.23707-0.7112-0.23707-0.2032-0.762-0.2032l-3.1835 0.13547-0.06773-1.5748q1.8119-0.49107 3.4375-0.49107 1.6425 0 2.3537 0.67734 0.72813 0.67733 0.72813 2.1675zm-3.81 2.2352q-0.94827 0.0847-0.94827 1.016 0 0.93134 0.82973 0.93134 0.64347 0 1.4055-0.2032l0.254-0.0677v-1.8119z"></path> <path d="m83.131 129.03h2.3707l1.3547 6.5363h0.47413l1.4224-6.5363h2.3029l-2.032 8.4667h-3.8608z"></path> <circle cx="92.238503" cy="136.3" r="1.2992932"></circle> <path d="m99.619 129.03h2.2691v8.4667h-2.2521v-0.47413q-1.2192 0.67733-2.1167 0.67733-1.7611 0-2.3707-0.9652-0.6096-0.98213-0.6096-3.2681v-4.4365h2.2691v4.4704q0 1.2531 0.2032 1.7103t0.98213 0.4572q0.74507 0 1.4055-0.23707l0.22013-0.0677z"></path> <path d="m109.63 131.67v3.5221q0.0339 0.4064 0.13546 0.57573 0.1016 0.1524 0.42334 0.22013l-0.0677 1.7103q-0.8636 0-1.3885-0.11853-0.508-0.11854-1.0329-0.47414-1.2192 0.59267-2.4892 0.59267-2.6247 0-2.6247-2.7771 0-1.3547 0.72814-1.9135 0.72813-0.57574 2.2352-0.67734l1.8119-0.13546v-0.52494q0-0.52493-0.23707-0.7112-0.23706-0.2032-0.762-0.2032l-3.1835 0.13547-0.0677-1.5748q1.8119-0.49107 3.4375-0.49107 1.6425 0 2.3537 0.67734 0.72814 0.67733 0.72814 2.1675zm-3.81 2.2352q-0.94827 0.0847-0.94827 1.016 0 0.93134 0.82974 0.93134 0.64346 0 1.4055-0.2032l0.254-0.0677v-1.8119z"></path> </g> </svg> 