<?xml version="1.0" encoding="UTF-8"?> <svg xmlns="http://www.w3.org/2000/svg" width="101" height="40" viewBox="0 0 101 40" fill="none"> <path d="M47.6458 7.19312L50.4688 30.052H50.5376L63.0859 7.19312H68.267L62.5351 34.2348H58.9892L62.3802 18.2611C62.5351 17.4865 63.3785 14.0095 63.9466 11.5136H63.9121L51.4327 34.2348H47.818L45.0639 11.5136H44.9606C44.4098 13.975 43.7729 17.4693 43.618 18.2611L40.227 34.2348H36.6812L42.4131 7.19312H47.6458Z" fill="#3FC7F2"></path> <path d="M43.5318 20.7397C43.2736 20.0684 42.3613 17.7963 41.6728 14.8873H41.5179C41.4663 19.9824 41.4663 21.3594 41.4146 22.4783L40.9327 33.4602C40.9327 33.9421 40.8294 34.2347 40.0892 34.2347H35.6999C35.1663 34.2347 34.8048 34.0798 34.8565 33.4602L36.3368 9.51686C36.3884 8.87998 36.595 8.74228 37.1802 8.74228H42.7917C43.2736 8.74228 43.4285 8.74228 43.6867 9.34473L47.9728 18.7258C48.558 20.0684 49.4015 22.4094 49.5564 23.2012H49.6597C49.9695 21.4455 50.5547 20.4127 51.3465 18.7258L55.8391 9.34473C55.994 9.01769 56.0973 8.74228 56.7858 8.74228H62.1907C62.9309 8.74228 63.2407 8.81113 63.3096 9.92998L64.7899 33.4602C64.8415 34.1315 64.4112 34.2347 63.9981 34.2347H58.7137C58.0768 34.2347 57.9219 33.9765 57.9219 33.4602L57.4916 20.843C57.4399 20.0168 57.4399 19.7586 57.4399 18.7258C57.4399 18.4332 57.4399 18.175 57.4399 17.8652C57.4399 16.8668 57.4399 15.8857 57.4399 14.8873H57.285C56.6998 17.1594 56.235 18.9496 55.426 20.7397L52.19 28.0036C52.035 28.3307 52.035 28.6405 51.2949 28.6405H47.5425C46.699 28.6405 46.7507 28.3479 46.5957 28.0036L43.5318 20.7397Z" fill="#FFEB00"></path> <path d="M53.6358 34.3724L57.3022 17.7963L48.076 34.3724H46.0965L44.2203 17.7963L40.5539 34.3724H35.5449L41.0359 9.46523H47.6112L49.2121 23.8897L57.285 9.46523H64.1185L58.6276 34.3724H53.6358Z" fill="#DF0F5A"></path> <path d="M100.782 7.08985C100.008 3.97429 95.3946 0.944803 91.6938 2.37348C89.6627 3.14807 88.1651 4.68003 86.702 6.05707C85.6004 7.08985 84.3439 8.07099 83.0873 8.89721C82.4332 9.32754 81.7275 9.77508 80.9357 9.82672C80.1267 9.87835 80.0062 9.36196 80.0578 8.69066C80.075 8.39804 80.0578 8.12263 80.0234 7.83001C79.9717 7.2964 79.8685 6.7628 79.6791 6.24641C79.3521 5.36855 78.8185 4.59396 78.4742 3.73331C78.1988 3.062 78.1816 2.35627 77.889 1.70218C77.5619 0.944803 76.6324 0.342348 75.7718 0.153005C75.1521 0.0153005 74.498 -0.0535516 73.8611 0.0497265C72.9488 0.187431 71.7095 0.703821 71.4513 1.68496C71.3652 1.9948 71.3308 2.3907 71.3652 2.71774C71.4169 3.23413 71.5202 3.76774 71.7439 4.2497C72.1743 5.14478 72.8628 5.88494 73.2587 6.79723C73.5513 7.45132 73.6546 8.19148 73.6546 8.89721C73.6546 12.5464 71.4513 12.5464 71.4513 16.1955C71.4513 19.8447 73.6546 19.8447 73.6546 23.4938C73.6546 27.143 71.4513 27.143 71.4513 30.7922C71.4513 34.4413 73.0005 34.3897 73.6546 38.0044C73.7234 38.4347 73.207 38.8134 73.8439 38.8134C74.4808 38.8134 74.4808 37.3503 75.1349 37.3503C75.7718 37.3503 75.7718 38.8134 76.4259 38.8134C77.0627 38.8134 77.0627 37.3503 77.7168 37.3503C78.3537 37.3503 80.0234 38.5897 80.0922 38.1593C80.7291 34.5274 78.4914 34.5618 77.9062 30.8438C77.3382 27.2119 80.1094 27.1086 80.1094 23.4594C80.1094 19.8103 77.648 19.8275 77.648 16.1783C77.648 15.6964 77.6136 14.9046 77.9923 14.5087C78.457 14.0267 79.6963 14.1128 80.2816 14.0955C82.7947 14.0095 84.9119 13.2349 86.8914 11.7029C87.4594 11.2726 88.0102 10.8079 88.561 10.3431C89.611 9.46524 95.3946 5.14478 95.7561 8.89721C95.9282 10.7734 93.8626 12.9078 92.5372 14.216C89.1979 17.5381 82.8807 19.5004 81.7275 24.1652C81.2627 26.0242 81.693 28.3651 83.3799 29.7422C84.5676 30.7233 86.0135 30.4307 87.3045 31.0848C88.8364 31.8594 88.9397 34.1831 89.2323 35.4741C89.3701 36.0938 89.766 39.5019 91.0053 38.9511C91.6422 38.6757 91.8659 37.161 92.0036 36.6446C92.6233 34.2692 93.9143 29.484 89.9037 28.8471C88.802 28.675 86.6504 28.6233 85.807 27.9348C82.2783 25.0258 89.6282 21.1873 91.7454 19.7758C94.1036 18.2095 96.6512 16.6431 98.3208 14.4914C99.9216 12.4087 101.436 9.72344 100.782 7.08985Z" fill="#FB0031"></path> <path d="M77.5618 3.19972C77.5618 3.303 77.6135 3.40628 77.6307 3.50956C77.6651 3.61283 77.6995 3.6989 77.7512 3.80218C77.8372 3.99152 77.9061 4.19808 77.9749 4.40463C78.0094 4.50791 78.0438 4.61119 78.061 4.71447C78.0782 4.76611 78.0782 4.81775 78.0782 4.8866C78.0782 4.93824 78.0782 5.00709 78.0438 5.07594C78.0094 5.14479 77.9061 5.17922 77.8372 5.17922C77.7684 5.17922 77.7167 5.16201 77.6479 5.14479C77.5446 5.11037 77.4413 5.05873 77.3381 5.00709L77.4758 4.95545L77.4585 5.07594C77.4585 5.11037 77.4585 5.16201 77.4585 5.19643C77.4585 5.2825 77.4758 5.36856 77.4758 5.43741C77.5102 5.60954 77.5446 5.76446 77.5962 5.93659C77.6135 6.02266 77.6307 6.10872 77.6479 6.19479C77.6651 6.28085 77.6651 6.38413 77.6651 6.47019L77.6479 6.6079C77.6307 6.65954 77.6307 6.69396 77.6135 6.7456C77.5962 6.79724 77.579 6.83167 77.5618 6.88331C77.5446 6.91773 77.5102 6.96937 77.493 7.0038C77.4413 7.07265 77.3897 7.15871 77.3208 7.22757C77.2864 7.26199 77.2348 7.29642 77.1659 7.29642C77.0971 7.31363 77.0282 7.26199 76.9938 7.22757C76.9249 7.1415 76.8905 7.05544 76.8561 6.96937C76.8217 6.88331 76.8045 6.79724 76.7872 6.71118C76.7528 6.53905 76.7184 6.36692 76.7012 6.19479C76.684 6.02266 76.6668 5.85053 76.6323 5.6784C76.684 5.85053 76.7184 6.02266 76.7528 6.19479C76.7872 6.36692 76.8389 6.53905 76.8733 6.69396C76.8905 6.78003 76.9249 6.86609 76.9594 6.93495C76.9938 7.0038 77.0282 7.08986 77.0799 7.12429C77.0971 7.1415 77.1315 7.15871 77.1487 7.1415C77.1659 7.1415 77.2004 7.12429 77.2176 7.08986C77.2692 7.03822 77.3036 6.96937 77.3553 6.90052C77.3725 6.86609 77.3897 6.83167 77.4069 6.79724C77.4241 6.76282 77.4241 6.72839 77.4413 6.67675C77.4413 6.64232 77.4585 6.59069 77.4585 6.55626V6.43577C77.4585 6.3497 77.4413 6.28085 77.4413 6.19479C77.4241 6.10872 77.4069 6.02266 77.3897 5.9538C77.3553 5.78167 77.3036 5.60954 77.2692 5.43741C77.252 5.35135 77.252 5.26528 77.252 5.16201C77.252 5.11037 77.252 5.07594 77.252 5.0243C77.252 4.97266 77.2692 4.93824 77.2692 4.8866C77.2692 4.83496 77.3208 4.81775 77.3725 4.81775C77.3897 4.81775 77.3897 4.81775 77.4069 4.83496C77.493 4.8866 77.579 4.93824 77.6651 4.97266C77.7167 4.98988 77.7512 5.00709 77.7856 5.00709C77.82 5.00709 77.8372 5.00709 77.8544 4.97266C77.8717 4.95545 77.8889 4.90381 77.8889 4.86938C77.8889 4.81775 77.8889 4.76611 77.8717 4.73168C77.8544 4.6284 77.8372 4.52512 77.8028 4.42185C77.7512 4.21529 77.6823 4.02595 77.6135 3.81939C77.579 3.71611 77.5618 3.61283 77.5274 3.50956C77.579 3.40628 77.5618 3.303 77.5618 3.19972Z" fill="black"></path> <path d="M74.9802 7.19312L75.0146 7.62344C75.0318 7.76114 75.0662 7.89885 75.0834 8.03655C75.1523 8.31196 75.2211 8.58737 75.3072 8.86278C75.3933 9.13819 75.4965 9.41359 75.5826 9.67179C75.6342 9.80949 75.6859 9.9472 75.7203 10.0849C75.7547 10.2226 75.8064 10.3603 75.8408 10.498C75.9097 10.7906 75.9441 11.066 75.9785 11.3587C75.9957 11.6513 76.0129 11.9439 75.9957 12.2365C75.9613 12.5291 75.9269 12.8218 75.772 13.0972C75.7031 13.2349 75.5826 13.3554 75.4277 13.4242C75.2728 13.4931 75.1006 13.4931 74.9629 13.4759C74.9285 13.4759 74.8941 13.4414 74.8941 13.3898C74.8941 13.2521 74.9113 13.1144 74.9113 12.9939C74.9113 12.925 74.9113 12.8562 74.9285 12.8046V12.7013C74.9285 12.6669 74.9285 12.6324 74.9285 12.598C74.9285 12.5291 74.9285 12.4775 74.9113 12.4087C74.8941 12.3398 74.8941 12.271 74.8769 12.2193C74.8769 12.1849 74.8597 12.1677 74.8597 12.1849C74.8597 12.1849 74.808 12.1849 74.7736 12.1849C74.7047 12.1849 74.6359 12.1677 74.567 12.1505H74.5842C74.6015 12.1505 74.5842 12.1505 74.5842 12.1677L74.5498 12.2021C74.5326 12.2365 74.481 12.271 74.4293 12.271C74.3777 12.271 74.3433 12.2537 74.3088 12.2193L74.2916 12.2021C74.2744 12.1849 74.2744 12.1849 74.2744 12.1849C74.2572 12.1677 74.2572 12.1677 74.24 12.1332C74.24 12.116 74.2228 12.0816 74.2228 12.0644V12.0128C74.2228 11.9783 74.2228 11.9439 74.2228 11.9095L74.24 11.8062C74.24 11.7718 74.24 11.7373 74.24 11.7201L74.2056 11.3242C74.2056 11.2554 74.2056 11.1865 74.2056 11.1177C74.2056 11.0488 74.2228 10.98 74.2228 10.9111C74.2228 10.98 74.2228 11.0488 74.2228 11.1177C74.2228 11.1865 74.24 11.2554 74.24 11.3242L74.3088 11.7201C74.3088 11.7546 74.3261 11.789 74.3261 11.8234V11.9267C74.3261 11.9611 74.3261 11.9955 74.3261 12.03V12.0816C74.3261 12.0988 74.3433 12.0988 74.3433 12.116C74.3433 12.1332 74.3605 12.1332 74.3777 12.1505L74.3949 12.1677L74.4121 12.1849C74.4293 12.2021 74.4638 12.2193 74.481 12.2193C74.4982 12.2193 74.5154 12.2021 74.5326 12.1849L74.567 12.1505C74.5843 12.1332 74.5843 12.116 74.6531 12.0988C74.722 12.116 74.7736 12.116 74.8424 12.116C74.8769 12.116 74.8941 12.0988 74.9629 12.116C75.0318 12.1505 75.049 12.2021 75.049 12.2365C75.0662 12.3054 75.0834 12.3742 75.1006 12.4431C75.1179 12.5119 75.1179 12.5808 75.1351 12.6496C75.1351 12.6841 75.1523 12.7185 75.1523 12.7529V12.8562C75.1523 12.925 75.1523 12.9939 75.1523 13.0628C75.1523 13.2005 75.1351 13.3209 75.1351 13.4587L75.0662 13.3726C75.2039 13.3898 75.3244 13.3898 75.4277 13.3382C75.531 13.2865 75.617 13.1832 75.6859 13.0628C75.8064 12.8218 75.858 12.5464 75.8752 12.271C75.8924 11.9955 75.8924 11.7029 75.8752 11.4275C75.858 11.1521 75.8236 10.8595 75.7547 10.5841C75.7203 10.4464 75.6687 10.3087 75.6342 10.171L75.5138 9.75785C75.4277 9.48245 75.3416 9.20704 75.2728 8.93163C75.2383 8.79393 75.2039 8.65622 75.1695 8.51852C75.1351 8.38081 75.1179 8.2259 75.0834 8.08819C75.0662 7.95049 75.049 7.79557 75.0318 7.65787C74.9801 7.48574 74.9802 7.33082 74.9802 7.19312Z" fill="black"></path> <path d="M78.7841 7.55459C78.7841 7.55459 78.8013 7.9677 78.8874 8.58737C78.9218 8.8972 78.9562 9.25868 79.0251 9.65457C79.0767 10.0333 79.1456 10.4464 79.2316 10.8595C79.2833 11.066 79.3177 11.2554 79.3865 11.4447C79.421 11.548 79.4554 11.6341 79.4898 11.7201C79.5242 11.8062 79.5931 11.8751 79.6275 11.8923C79.6447 11.8923 79.6275 11.8923 79.6619 11.8923C79.6792 11.8923 79.7136 11.8923 79.7308 11.8751C79.7824 11.8751 79.8169 11.8578 79.8513 11.8406C79.9374 11.8234 79.989 11.7718 80.0234 11.7201C80.0579 11.6685 80.0406 11.5996 80.0234 11.5308C80.0062 11.4619 79.9718 11.3931 79.9374 11.3242C79.8685 11.1865 79.7997 11.066 79.748 10.9456C79.6964 10.8251 79.6447 10.7218 79.6275 10.6357C79.6103 10.5497 79.5931 10.4636 79.6103 10.4119C79.6275 10.3603 79.6275 10.3431 79.6275 10.3431C79.6275 10.3431 79.6103 10.3603 79.6275 10.4119C79.6275 10.4636 79.6447 10.5324 79.6792 10.6185C79.748 10.7906 79.9029 10.98 80.0751 11.2554C80.1095 11.3242 80.1611 11.3931 80.1956 11.4964C80.23 11.5824 80.2472 11.7029 80.1956 11.8062C80.1439 11.9267 80.0234 11.9783 79.9374 12.0128C79.8857 12.03 79.8341 12.0472 79.7824 12.0472C79.748 12.0472 79.7308 12.0644 79.7136 12.0644C79.6964 12.0644 79.6275 12.0644 79.5931 12.0644C79.4382 12.0128 79.4038 11.8923 79.3521 11.8062C79.3005 11.7029 79.2661 11.6169 79.2316 11.5136C79.1628 11.307 79.1111 11.1005 79.0767 10.8939C78.9906 10.4808 78.939 10.0677 78.9046 9.67179C78.8702 9.27589 78.8357 8.91442 78.8185 8.60458C78.8013 8.29475 78.8013 8.03655 78.8013 7.84721C78.7669 7.67508 78.7841 7.55459 78.7841 7.55459Z" fill="black"></path> <path d="M78.8529 13.4759C78.8529 13.4759 78.8184 13.4759 78.7324 13.4759C78.6979 13.4759 78.6463 13.4759 78.5947 13.4759C78.5602 13.4759 78.543 13.4759 78.5086 13.4931C78.4742 13.4931 78.4397 13.5103 78.4053 13.5103C78.2676 13.5447 78.0955 13.5964 77.9406 13.6996C77.7684 13.8029 77.5963 13.9578 77.4414 14.13C77.2865 14.3193 77.1488 14.5431 77.0455 14.8013C77.0283 14.8701 76.9939 14.939 76.9766 15.0078C76.9766 15.0422 76.9594 15.0767 76.9594 15.1111L76.9422 15.2144C76.925 15.2832 76.925 15.3693 76.9078 15.4381C76.9078 15.507 76.9078 15.5931 76.8906 15.6619C76.8734 15.9545 76.9078 16.2816 76.9422 16.6086C76.9766 16.9357 77.0455 17.2627 77.0971 17.5898C77.1143 17.7619 77.1488 17.9168 77.166 18.089C77.1832 18.2439 77.2176 18.416 77.2176 18.5881C77.2176 18.7603 77.2176 18.9496 77.0799 19.1045C77.0111 19.1734 76.9078 19.225 76.8045 19.225C76.7357 19.2422 76.598 19.225 76.5291 19.1562C76.357 19.0357 76.3225 18.8635 76.2881 18.7086C76.2537 18.5537 76.2537 18.416 76.2365 18.2611C76.2193 17.9685 76.2537 17.7103 76.1848 17.4693C76.116 17.2455 75.9783 17.0562 75.8922 16.8668C75.8062 16.6775 75.8062 16.4881 75.8062 16.3504C75.8062 16.2127 75.8234 16.0922 75.8234 16.0062C75.8234 15.9201 75.8234 15.8857 75.8234 15.8857C75.8234 15.8857 75.8234 16.0578 75.8406 16.3332C75.8406 16.4709 75.8578 16.6603 75.9439 16.8324C76.0299 17.0045 76.2021 17.1767 76.2881 17.4349C76.3742 17.6931 76.357 17.9685 76.3914 18.2439C76.4086 18.3816 76.4258 18.5193 76.4602 18.6742C76.4947 18.8119 76.5463 18.9496 76.6496 19.0185C76.7012 19.0529 76.7357 19.0529 76.8217 19.0529C76.8734 19.0357 76.9422 19.0185 76.9766 18.984C77.0455 18.898 77.0627 18.743 77.0627 18.5881C77.0627 18.4332 77.0283 18.2783 77.0111 18.1062C76.9939 17.934 76.9594 17.7791 76.9422 17.6242C76.8906 17.2972 76.8389 16.9701 76.7873 16.6431C76.7529 16.316 76.7184 15.989 76.7529 15.6791C76.7529 15.5931 76.7701 15.5242 76.7701 15.4381C76.7873 15.3693 76.8045 15.2832 76.8045 15.2144L76.8217 15.1111C76.8217 15.0595 76.8389 15.0422 76.8561 14.9906C76.8734 14.9218 76.9078 14.8529 76.925 14.7841C77.0455 14.5086 77.2004 14.2849 77.3725 14.0955C77.5447 13.9062 77.734 13.7685 77.9234 13.6652C78.0955 13.5619 78.2848 13.5103 78.4225 13.4931C78.457 13.4931 78.4914 13.4759 78.5258 13.4759C78.5602 13.4759 78.5947 13.4759 78.6119 13.4759C78.6635 13.4759 78.7152 13.4759 78.7496 13.4759C78.8184 13.4587 78.8529 13.4759 78.8529 13.4759Z" fill="black"></path> <path d="M73.3102 17.4693L73.2241 17.7791C73.2069 17.8824 73.1897 18.0029 73.1725 18.1062C73.1553 18.2095 73.1725 18.33 73.1553 18.4332C73.1553 18.5365 73.1725 18.657 73.1725 18.7603V18.7947V18.8119V18.8291L73.1897 18.9152C73.2069 18.9668 73.2069 19.0185 73.2241 19.0701C73.2413 19.1218 73.2586 19.1734 73.2758 19.225C73.293 19.2767 73.3102 19.3283 73.3446 19.3627C73.3963 19.4488 73.4651 19.5521 73.5168 19.6382C73.5856 19.7242 73.6372 19.8275 73.7061 19.9136C73.7405 19.9652 73.7749 20.0168 73.7922 20.0685C73.8094 20.1201 73.8438 20.1718 73.861 20.2234C73.8954 20.3267 73.9299 20.4472 73.9643 20.5504C74.0159 20.7742 74.0676 20.9808 74.1192 21.1873C74.1536 21.2906 74.1881 21.3939 74.2225 21.4799C74.2397 21.5316 74.2569 21.5832 74.2913 21.6176C74.3085 21.6693 74.343 21.7037 74.3774 21.7381C74.429 21.8242 74.5151 21.8586 74.6012 21.9103C74.6528 21.9275 74.6872 21.9275 74.7389 21.9447H74.8766L74.8077 22.0308C74.8077 21.9103 74.8077 21.7898 74.8077 21.6693C74.8077 21.6177 74.7905 21.5488 74.7905 21.4972C74.7733 21.4455 74.7561 21.3939 74.7389 21.325C74.7389 21.3078 74.7217 21.2734 74.7044 21.239C74.6872 21.2045 74.6872 21.1873 74.67 21.1701C74.6356 21.1185 74.6012 21.0668 74.584 21.0152C74.5667 20.9808 74.5495 20.9463 74.5495 20.9119C74.5495 20.8775 74.5323 20.8431 74.5323 20.8086C74.5323 20.7742 74.5151 20.7398 74.5323 20.7054L74.5495 20.6021C74.5495 20.5677 74.584 20.5332 74.6356 20.5332H74.6528C74.7044 20.5504 74.7561 20.5677 74.8077 20.5677C74.8594 20.5849 74.8938 20.6021 74.9454 20.6365C74.9799 20.6537 75.0315 20.6709 75.0659 20.6881L75.1864 20.7226L75.1176 20.7742L75.1348 20.6537L75.1176 20.5332C75.1003 20.4988 75.0831 20.4472 75.0659 20.4127C75.0487 20.3783 75.0315 20.3439 74.9971 20.2922C74.9454 20.2234 74.8938 20.1545 74.8421 20.0685C74.8077 20.0341 74.7905 19.9996 74.7561 19.9652C74.7217 19.9308 74.7044 19.8963 74.67 19.8447C74.6356 19.7586 74.584 19.6898 74.5495 19.6037L74.5151 19.466C74.4979 19.4144 74.4807 19.38 74.4807 19.3283L74.4635 19.1906C74.4635 19.139 74.4463 19.1045 74.4463 19.0529V18.7775L74.4635 19.0529C74.4635 19.1045 74.4807 19.139 74.4807 19.1906L74.4979 19.3283C74.5151 19.38 74.5323 19.4144 74.5495 19.4488L74.6012 19.5693C74.6528 19.6554 74.6872 19.7242 74.7389 19.8103C74.7561 19.8447 74.7905 19.8791 74.8249 19.9136C74.8594 19.948 74.8766 19.9824 74.911 20.0168C74.9626 20.0857 75.0315 20.1545 75.0831 20.2406C75.1176 20.275 75.1348 20.3267 75.1692 20.3611C75.1864 20.3955 75.2036 20.4472 75.2208 20.4988C75.2381 20.5504 75.2381 20.6021 75.2553 20.6537V20.8086C75.2553 20.8431 75.2208 20.8603 75.1864 20.8603C75.1864 20.8603 75.1864 20.8603 75.1692 20.8603L75.0143 20.8259C74.9626 20.8086 74.9282 20.7914 74.8766 20.7742C74.8249 20.757 74.7905 20.7398 74.7389 20.7226C74.7044 20.7054 74.6528 20.7054 74.6184 20.6881L74.7044 20.6193V20.7054C74.7044 20.7398 74.7044 20.757 74.7044 20.7914C74.7044 20.8259 74.7217 20.8431 74.7217 20.8603C74.7217 20.8775 74.7389 20.9119 74.7561 20.9291C74.7905 20.9808 74.8249 21.0324 74.8421 21.084C74.8594 21.1185 74.8766 21.1529 74.8938 21.1701C74.911 21.2045 74.911 21.2218 74.9282 21.2562C74.9454 21.325 74.9626 21.3767 74.9799 21.4455C74.9971 21.5144 74.9799 21.566 74.9971 21.6349C75.0143 21.7554 74.9971 21.8931 74.9971 22.0135C74.9971 22.048 74.9799 22.0824 74.9454 22.0996L74.7733 22.1168C74.7044 22.0996 74.6528 22.0996 74.584 22.0824C74.4635 22.0308 74.3602 21.9619 74.2913 21.8586C74.2569 21.807 74.2225 21.7554 74.1881 21.7037C74.1536 21.6521 74.1364 21.6004 74.1192 21.5488C74.0676 21.4455 74.0331 21.3422 74.0159 21.2218C73.9643 20.998 73.9127 20.7914 73.861 20.5849C73.8438 20.4816 73.8094 20.3783 73.7749 20.275L73.7577 20.2062L73.6717 20.1373C73.6545 20.0857 73.62 20.0513 73.6028 19.9996C73.5512 19.8963 73.4995 19.8103 73.4307 19.7242C73.379 19.6382 73.3102 19.5349 73.2586 19.4316C73.2241 19.38 73.2069 19.3283 73.1897 19.2767C73.1725 19.225 73.1553 19.1734 73.1381 19.1046C73.1208 19.0529 73.1036 19.0013 73.1036 18.9324L73.0864 18.8464V18.8291C73.0864 18.8119 73.0864 18.8119 73.0864 18.8119V18.7775C73.0864 18.6742 73.0864 18.5537 73.0864 18.4505C73.1036 18.3472 73.1036 18.2267 73.1208 18.1234C73.1381 18.0201 73.1725 17.8996 73.1897 17.7964L73.3102 17.4693Z" fill="black"></path> <path d="M78.6632 23.0807L78.7837 23.2012C78.8009 23.2184 78.8181 23.2529 78.8353 23.2701L78.8869 23.3389C78.9214 23.3906 78.9214 23.4422 78.9386 23.4938C78.9558 23.5283 78.9558 23.5455 78.9558 23.5799L78.973 23.666C78.973 23.7176 78.973 23.7865 78.9558 23.8381C78.9386 23.8897 78.9214 23.9586 78.9214 24.0102C78.9042 24.0619 78.887 24.1135 78.8525 24.1652L78.7665 24.3201C78.6632 24.6127 78.5427 24.8881 78.4222 25.1635L78.2501 25.5938C78.2156 25.6627 78.1984 25.7315 78.164 25.8176C78.1296 25.8865 78.0779 25.9553 78.0435 26.0242C77.9402 26.1619 77.8542 26.2824 77.6993 26.3684C77.6304 26.4201 77.5271 26.4545 77.4238 26.4373C77.3206 26.4028 77.2517 26.3168 77.2173 26.2479C77.2001 26.2135 77.1829 26.1619 77.1656 26.1274C77.1656 26.1102 77.1484 26.093 77.1484 26.0586V26.0069V25.9553C77.1484 25.9381 77.1484 25.9037 77.1484 25.8865C77.1484 25.8348 77.1656 25.8004 77.1829 25.7488C77.2173 25.6627 77.2861 25.611 77.3206 25.5422C77.3722 25.4906 77.4066 25.4217 77.4411 25.3701C77.4411 25.3184 77.4583 25.2496 77.4583 25.1979L77.4755 25.0086C77.4755 24.8881 77.4755 24.7676 77.4927 24.6299L77.5271 24.9914L77.5443 25.1807C77.5443 25.2496 77.5443 25.3012 77.5443 25.3701C77.5099 25.4561 77.4755 25.525 77.4238 25.5938C77.3722 25.6627 77.3378 25.7143 77.3206 25.7832C77.3034 25.8176 77.3034 25.8348 77.3034 25.8692C77.3034 25.8865 77.3034 25.9037 77.3034 25.9209L77.3206 25.9725L77.3378 26.0242L77.355 26.0586C77.3722 26.093 77.3722 26.1274 77.3894 26.1446C77.4238 26.2135 77.4583 26.2479 77.4927 26.2479C77.5271 26.2479 77.596 26.2307 77.6476 26.1963C77.7509 26.1274 77.8542 26.0069 77.9402 25.8865C77.9747 25.8176 78.0263 25.766 78.0607 25.6971C78.0952 25.6455 78.1124 25.5594 78.1468 25.4906L78.3189 25.0774C78.4394 24.802 78.5771 24.5094 78.6976 24.234L78.7837 24.0963L78.8525 23.9586C78.8697 23.907 78.8869 23.8553 78.9042 23.8037L78.9386 23.7176C78.9386 23.6832 78.973 23.666 78.973 23.6316V23.5455C78.973 23.5111 78.9558 23.4938 78.9386 23.4594C78.9214 23.4078 78.9042 23.3561 78.8869 23.3045L78.8525 23.2357C78.8353 23.2184 78.8353 23.184 78.8181 23.1668L78.6632 23.0807Z" fill="black"></path> <path d="M74.2396 26.2135C74.2396 26.2135 74.2224 26.2307 74.1879 26.2823C74.1535 26.334 74.1019 26.4028 74.033 26.4889C73.8953 26.661 73.706 26.902 73.4822 27.1774C73.2412 27.4528 72.983 27.7971 72.742 28.1758C72.6732 28.2618 72.6216 28.3651 72.5699 28.4684C72.5183 28.5717 72.4494 28.6749 72.415 28.7782C72.3634 28.8815 72.3289 29.002 72.2773 29.1053C72.2601 29.1569 72.2429 29.2258 72.2257 29.2774C72.2084 29.329 72.1912 29.3979 72.1912 29.4495C72.174 29.57 72.1568 29.6733 72.174 29.7938C72.174 29.9143 72.2084 30.0176 72.2257 30.1381L72.2429 30.1725C72.2429 30.1725 72.2601 30.1897 72.2601 30.2069C72.2773 30.2413 72.2773 30.2585 72.2945 30.293C72.3117 30.3446 72.3461 30.379 72.3634 30.4307C72.415 30.5167 72.5011 30.5684 72.5871 30.5856C72.6216 30.6028 72.6732 30.5684 72.7248 30.5684L72.7937 30.5339L72.8281 30.5167C72.8453 30.5167 72.8453 30.4995 72.8453 30.4995C72.9142 30.4651 72.9314 30.379 72.9314 30.2758C72.9314 30.1725 72.9314 30.0692 72.9658 29.9487C72.983 29.8626 73.0347 29.7594 73.0863 29.6733C73.1896 29.5184 73.2929 29.3807 73.3961 29.2774C73.4822 29.1569 73.5511 29.0536 73.5855 28.9504C73.6199 28.8471 73.6371 28.761 73.6371 28.7094C73.6371 28.6577 73.6371 28.6233 73.6371 28.6233C73.6371 28.6233 73.6371 28.6577 73.6543 28.7094C73.6543 28.761 73.6715 28.8471 73.6371 28.9504C73.6027 29.0536 73.551 29.1741 73.465 29.2946C73.3789 29.4151 73.2756 29.5528 73.1896 29.7077C73.1552 29.7938 73.1207 29.8626 73.0863 29.9659C73.0691 30.052 73.0691 30.1381 73.0691 30.2585C73.0691 30.3102 73.0691 30.379 73.0519 30.4307C73.0347 30.4995 73.0002 30.5512 72.9314 30.6028C72.9142 30.62 72.897 30.62 72.897 30.6372L72.8625 30.6544L72.7765 30.6889C72.7076 30.7061 72.656 30.7233 72.5699 30.7233C72.415 30.7233 72.2945 30.62 72.2257 30.5167C72.1912 30.4651 72.1568 30.4135 72.1224 30.3446C72.1052 30.3102 72.1052 30.293 72.0879 30.2585C72.0879 30.2413 72.0707 30.2413 72.0707 30.2069L72.0535 30.1553C72.0191 30.0348 71.9847 29.9143 71.9847 29.7766C71.9675 29.6561 71.9847 29.5184 72.0019 29.3979C72.0019 29.329 72.0363 29.2774 72.0363 29.2085C72.0535 29.1397 72.0707 29.0881 72.0879 29.0192C72.1396 28.8987 72.174 28.7782 72.2257 28.6749C72.2773 28.5717 72.3289 28.4512 72.3978 28.3479C72.4494 28.2446 72.5183 28.1413 72.5871 28.0553C72.7248 27.8659 72.8625 27.6938 73.0002 27.5217C73.1379 27.3668 73.2756 27.2118 73.3961 27.0741C73.6371 26.7987 73.8609 26.5922 73.9986 26.4373C74.1535 26.2996 74.2396 26.2135 74.2396 26.2135Z" fill="black"></path> <path d="M76.1501 29.0364L76.1845 29.4323C76.1845 29.57 76.2189 29.6905 76.2361 29.8282C76.2534 29.9659 76.2878 30.0864 76.3222 30.2069L76.3739 30.3963L76.4427 30.5856L76.5116 30.775L76.5976 30.9471C76.6493 31.0676 76.7181 31.1881 76.7698 31.2914C76.8902 31.5151 77.0279 31.7389 77.1657 31.9799L77.3722 32.3241C77.4411 32.4446 77.4927 32.5651 77.5616 32.6856C77.6132 32.8061 77.6648 32.9438 77.6993 33.0643C77.7165 33.1331 77.7337 33.202 77.7509 33.2708C77.7681 33.3397 77.7681 33.4086 77.7853 33.4774C77.7853 33.5463 77.7853 33.6151 77.7853 33.684C77.7853 33.7528 77.7681 33.8217 77.7681 33.8905C77.7509 33.9594 77.7337 34.0282 77.7165 34.0971C77.6993 34.1659 77.6648 34.2348 77.6132 34.2864C77.5616 34.3553 77.5099 34.4069 77.4411 34.4413C77.3722 34.4758 77.2689 34.493 77.2001 34.4758C77.0452 34.4413 76.9247 34.3381 76.8386 34.2348L76.9935 34.2176C76.873 34.4413 76.9247 34.7167 76.9763 34.9749C77.0452 35.2331 77.1484 35.5085 77.1657 35.8012C77.1829 35.87 77.1657 35.9561 77.1657 36.0249C77.1657 36.0938 77.1484 36.1798 77.1484 36.2487C77.114 36.3864 77.0796 36.5585 76.9419 36.6618C76.873 36.7134 76.787 36.7479 76.7009 36.7479H76.6321H76.6148L76.5976 36.7307L76.5804 36.7134C76.546 36.6962 76.4943 36.6618 76.4599 36.6274C76.3394 36.5069 76.305 36.352 76.2706 36.2143C76.2362 36.0766 76.2189 35.9389 76.2017 35.8012C76.1845 35.6635 76.1673 35.5258 76.1329 35.4053C76.0984 35.2676 76.064 35.1471 76.0124 35.0094L75.8575 34.6135C75.8058 34.4758 75.7542 34.3553 75.7198 34.2176C75.6853 34.0799 75.6509 33.9422 75.6165 33.8044C75.5993 33.6667 75.5993 33.529 75.5821 33.3741C75.5821 33.2364 75.5648 33.0987 75.5304 32.961L75.496 32.8749L75.4443 32.7889C75.4099 32.7372 75.3755 32.6856 75.3239 32.6168C75.2894 32.5651 75.2378 32.5135 75.2206 32.4446C75.2034 32.4102 75.2034 32.3758 75.1862 32.3413L75.1689 32.2381L75.1862 32.3413C75.2034 32.3758 75.2206 32.4102 75.2206 32.4274C75.255 32.479 75.2894 32.5307 75.3411 32.5823C75.3927 32.634 75.4271 32.6856 75.4616 32.7372C75.4788 32.7717 75.496 32.7889 75.5132 32.8233L75.5476 32.9266C75.5993 33.0643 75.5993 33.202 75.6165 33.3397C75.6337 33.4774 75.6337 33.6151 75.6681 33.7528C75.7025 33.8905 75.737 34.011 75.7886 34.1487C75.8402 34.2864 75.8919 34.4069 75.9435 34.5274L76.0984 34.9061C76.1501 35.0438 76.2017 35.1643 76.2361 35.302C76.2878 35.4397 76.305 35.5774 76.3222 35.7151C76.3394 35.8528 76.3566 35.9905 76.3911 36.111C76.4255 36.2315 76.4771 36.3692 76.546 36.4553C76.5976 36.5241 76.7353 36.5241 76.8214 36.4553C76.9075 36.3864 76.9419 36.2659 76.9763 36.1454C76.9935 36.0766 76.9935 36.0077 76.9935 35.9561C76.9935 35.87 76.9935 35.8184 76.9935 35.7495C76.9763 35.4913 76.873 35.2331 76.787 34.9577C76.7525 34.82 76.7181 34.6823 76.7181 34.5274C76.7181 34.3725 76.7353 34.2176 76.8214 34.0799C76.8386 34.0282 76.8902 34.011 76.9419 34.0454C76.9591 34.0454 76.9591 34.0626 76.9763 34.0626C77.0624 34.1487 77.1484 34.2348 77.2517 34.252C77.3378 34.2692 77.4411 34.2348 77.5099 34.1315C77.5443 34.0799 77.5615 34.0282 77.596 33.9766C77.6132 33.9249 77.6304 33.8733 77.6476 33.8044L77.6648 33.6151C77.6648 33.5463 77.6648 33.4946 77.6648 33.4258C77.6648 33.3569 77.6476 33.3053 77.6476 33.2364C77.6304 33.1676 77.6132 33.1159 77.6132 33.0471C77.5788 32.9266 77.5443 32.8061 77.4927 32.6856C77.4411 32.5651 77.3894 32.4446 77.3206 32.3413L77.1312 31.9971C77.0107 31.7733 76.873 31.5323 76.7525 31.2914C76.6837 31.1709 76.632 31.0504 76.5804 30.9299L76.4943 30.7405L76.4255 30.5512L76.3566 30.3618L76.305 30.1725C76.2706 30.0348 76.2361 29.9143 76.2361 29.7766C76.2189 29.6389 76.2017 29.5184 76.2017 29.3807L76.1501 29.0364Z" fill="black"></path> <path d="M83.1045 12.6152L83.3455 12.6669C83.4315 12.6669 83.5004 12.6841 83.5865 12.6841C83.6725 12.6841 83.7414 12.6841 83.8274 12.6669C83.9135 12.6496 83.9824 12.6496 84.0512 12.6152C84.1201 12.598 84.2061 12.5636 84.275 12.5292C84.3438 12.4947 84.4127 12.4603 84.4815 12.4259C84.5504 12.3915 84.6192 12.357 84.6881 12.3054L84.7914 12.2365L84.8774 12.1677C84.9463 12.116 84.9979 12.0644 85.0496 11.9956C85.1012 11.9439 85.1528 11.8923 85.1873 11.8234C85.2389 11.7546 85.2733 11.7029 85.325 11.6341L85.4455 11.4275C85.5315 11.2898 85.6004 11.1521 85.7037 11.0144C85.7553 10.9456 85.8069 10.8767 85.8586 10.8079L86.0307 10.6185C86.0996 10.5497 86.1684 10.5152 86.2373 10.4808C86.3061 10.4464 86.375 10.4292 86.4438 10.3947L86.8569 10.2398C86.9946 10.1882 87.1151 10.1365 87.2528 10.0677C87.3733 9.99884 87.4938 9.91278 87.5282 9.82671C87.5455 9.77507 87.5454 9.74065 87.511 9.68901C87.511 9.6718 87.4594 9.65458 87.4077 9.65458C87.2873 9.65458 87.1496 9.68901 87.0118 9.72344L86.5987 9.84393C86.5299 9.86114 86.461 9.87835 86.375 9.89557C86.3061 9.91278 86.22 9.92999 86.134 9.92999C86.0996 9.92999 86.0823 9.91278 86.0651 9.87835L86.0307 9.72344C86.0307 9.6718 86.0307 9.62016 86.0307 9.56852C86.0479 9.51688 86.0479 9.46524 86.0823 9.4136C86.1168 9.36196 86.134 9.32754 86.1684 9.2759C86.2028 9.24147 86.2373 9.20705 86.2717 9.17262C86.3061 9.13819 86.3405 9.10377 86.3922 9.08655C86.4782 9.03492 86.5471 8.98328 86.6332 8.94885C86.8053 8.86279 86.9602 8.77672 87.1151 8.69066L87.2184 8.6218L87.3217 8.53574L87.4077 8.43246L87.4766 8.32918C87.511 8.26033 87.5454 8.19148 87.5799 8.12263C87.5971 8.05377 87.6143 7.96771 87.5799 7.93328C87.5454 7.88164 87.4766 7.86443 87.3905 7.86443C87.3561 7.86443 87.3217 7.86443 87.27 7.88164C87.2356 7.88164 87.184 7.89886 87.1495 7.91607C87.1151 7.93328 87.0807 7.9505 87.0463 7.96771C87.0118 7.98492 86.9774 8.01935 86.9602 8.03656C86.9086 8.0882 86.8397 8.15705 86.7881 8.20869C86.7364 8.26033 86.6676 8.32918 86.5987 8.36361C86.5643 8.38082 86.5299 8.39803 86.4782 8.39803C86.4438 8.39803 86.3922 8.39803 86.3578 8.39803C86.3922 8.39803 86.4438 8.39803 86.4782 8.38082C86.5127 8.36361 86.5471 8.3464 86.5815 8.32918C86.6504 8.29476 86.702 8.2259 86.7709 8.17427C86.8225 8.12263 86.8741 8.05377 86.943 7.98492C86.9774 7.9505 86.9946 7.93328 87.0291 7.89886C87.0635 7.88164 87.0979 7.84722 87.1323 7.83C87.184 7.81279 87.2012 7.79558 87.2528 7.79558C87.2873 7.77837 87.3389 7.77837 87.3733 7.77837C87.425 7.77837 87.4594 7.77837 87.511 7.79558C87.5627 7.81279 87.5971 7.83 87.6315 7.88164C87.6832 7.96771 87.6832 8.07099 87.6487 8.15705C87.6315 8.24312 87.5971 8.31197 87.5455 8.39803L87.4766 8.53574L87.3905 8.65623L87.2873 8.75951L87.1668 8.84557C87.0118 8.94885 86.8397 9.03492 86.6848 9.13819C86.5987 9.18983 86.5299 9.22426 86.461 9.2759C86.4266 9.29311 86.3922 9.32754 86.3578 9.36196C86.3233 9.39639 86.2889 9.4136 86.2717 9.44803C86.2373 9.48245 86.22 9.51688 86.2028 9.55131C86.1856 9.58573 86.1856 9.62016 86.1684 9.65458C86.1684 9.68901 86.1684 9.72344 86.1684 9.77507L86.2028 9.89557L86.134 9.84393C86.1856 9.84393 86.2545 9.82671 86.3233 9.82671C86.3922 9.8095 86.461 9.79229 86.5299 9.77507L86.943 9.63737C87.0807 9.60294 87.2356 9.55131 87.4077 9.55131C87.4938 9.55131 87.6143 9.56852 87.6832 9.68901C87.7176 9.77507 87.7348 9.87835 87.7004 9.98163C87.6659 10.0677 87.5971 10.1365 87.5455 10.1882C87.4766 10.2398 87.4077 10.2743 87.3561 10.3259C87.2184 10.3947 87.0807 10.4636 86.943 10.5152L86.5299 10.6702C86.461 10.6874 86.3922 10.7218 86.3405 10.7562C86.2717 10.7906 86.2201 10.8251 86.1856 10.8595L86.0307 11.0316C85.9791 11.0833 85.9274 11.1521 85.893 11.221C85.8069 11.3587 85.7209 11.4792 85.6348 11.6169L85.4971 11.8234C85.4627 11.8923 85.3938 11.9611 85.3594 12.03C85.3078 12.0988 85.2561 12.1505 85.1873 12.2193C85.1356 12.2882 85.0668 12.3398 84.9979 12.3742L84.8946 12.4603L84.7914 12.5292C84.7225 12.5636 84.6537 12.6152 84.5676 12.6496C84.4987 12.6841 84.4127 12.7185 84.3438 12.7357C84.275 12.7701 84.1889 12.7874 84.1028 12.8046C84.0168 12.8218 83.9479 12.839 83.8619 12.839C83.7758 12.8562 83.7069 12.839 83.6209 12.839C83.5348 12.839 83.466 12.8218 83.3799 12.8046L83.1045 12.6152Z" fill="black"></path> <path d="M89.0083 6.14312C89.0772 6.02263 89.1632 5.90214 89.2493 5.78165C89.3354 5.66116 89.4214 5.55788 89.5075 5.43739C89.5935 5.33411 89.6968 5.21362 89.7829 5.11034C89.8862 5.00707 89.9722 4.90379 90.0755 4.80051C90.1788 4.69723 90.2821 4.59395 90.3853 4.50789C90.4886 4.40461 90.6091 4.31854 90.7124 4.23248C90.8329 4.14641 90.9362 4.06035 91.0567 3.97428C91.1771 3.88822 91.2976 3.81937 91.4353 3.75052L91.6247 3.64724L91.8312 3.56117C91.9689 3.50953 92.1066 3.45789 92.2616 3.44068C92.4165 3.42347 92.5714 3.42347 92.7263 3.50953C92.7952 3.54396 92.8812 3.61281 92.9157 3.69888C92.9501 3.78494 92.9501 3.87101 92.9501 3.95707C92.9329 4.04314 92.9157 4.11199 92.8812 4.19805C92.864 4.24969 92.7952 4.35297 92.7435 4.40461C92.6402 4.50789 92.5025 4.59395 92.3821 4.68002C92.2616 4.74887 92.1411 4.83493 92.0722 4.921C91.9862 5.00707 91.9517 5.12756 91.9689 5.24805L91.8829 5.1792C91.9517 5.1792 92.0206 5.16198 92.0894 5.16198L92.3132 5.12756C92.4681 5.09313 92.623 5.07592 92.778 5.07592C92.864 5.07592 92.9501 5.09313 93.0361 5.12756C93.1222 5.16198 93.2083 5.24805 93.2083 5.35133C93.2255 5.43739 93.1911 5.52346 93.1739 5.60952C93.1739 5.62673 93.1566 5.64395 93.1566 5.66116C93.1394 5.67837 93.1394 5.69559 93.1222 5.7128C93.105 5.74722 93.0706 5.78165 93.0361 5.81608C92.9157 5.93657 92.7263 5.97099 92.5886 5.98821C92.4337 6.00542 92.2788 5.98821 92.1239 5.98821C91.9689 5.98821 91.814 5.98821 91.6935 6.07427C91.6247 6.1087 91.573 6.16034 91.5558 6.22919C91.5214 6.29804 91.5214 6.36689 91.5042 6.45296C91.5042 6.38411 91.5042 6.29804 91.5386 6.22919C91.5558 6.16034 91.6075 6.09148 91.6763 6.03985C91.814 5.95378 91.9689 5.93657 92.1239 5.91935C92.2788 5.90214 92.4337 5.90214 92.5714 5.88493C92.7091 5.86772 92.864 5.83329 92.9501 5.73001C92.9673 5.7128 92.9845 5.67837 93.0017 5.64395C93.0017 5.62673 93.0189 5.60952 93.0189 5.59231C93.0189 5.57509 93.0361 5.55788 93.0361 5.54067C93.0534 5.47182 93.0706 5.40296 93.0534 5.35133C93.0361 5.29969 93.0017 5.26526 92.9501 5.23083C92.8984 5.21362 92.8296 5.19641 92.7435 5.19641C92.6058 5.19641 92.4509 5.23083 92.296 5.24805L92.0722 5.28247C92.0034 5.29969 91.9173 5.3169 91.8312 5.3169C91.7968 5.3169 91.7624 5.28247 91.7452 5.24805C91.7107 5.07592 91.7796 4.90379 91.8829 4.7833C91.9862 4.6628 92.1066 4.57674 92.2271 4.50789C92.3476 4.42182 92.4681 4.35297 92.5542 4.26691C92.5714 4.24969 92.6058 4.21527 92.6058 4.19805C92.623 4.18084 92.6402 4.14641 92.6575 4.11199C92.6747 4.06035 92.6919 3.9915 92.7091 3.93986C92.7263 3.81937 92.6919 3.71609 92.5886 3.66445C92.4853 3.61281 92.3476 3.5956 92.2271 3.61281C92.0894 3.61281 91.9689 3.66445 91.8312 3.71609L91.6419 3.80215L91.4526 3.88822C91.3321 3.95707 91.2116 4.02592 91.0911 4.09478C90.9706 4.16363 90.8501 4.24969 90.7468 4.33576C90.6263 4.42182 90.523 4.50789 90.4198 4.59395C90.3165 4.68002 90.196 4.7833 90.0927 4.86936C89.9895 4.97264 89.8862 5.0587 89.7829 5.16198C89.6796 5.26526 89.5763 5.36854 89.4903 5.47182C89.387 5.57509 89.3009 5.67837 89.2149 5.79886C89.1804 5.91935 89.0944 6.03985 89.0083 6.14312Z" fill="black"></path> <path d="M99.1642 6.76281C99.2503 6.76281 99.3019 6.83166 99.3535 6.8833C99.4052 6.93494 99.4568 7.00379 99.4913 7.07264C99.5773 7.19313 99.6462 7.33084 99.7322 7.46854C99.8011 7.60625 99.8699 7.74395 99.9388 7.88166C99.9904 8.01936 100.059 8.17428 100.076 8.32919C100.111 8.48411 100.111 8.63903 100.111 8.79394C100.111 8.94886 100.111 9.10378 100.094 9.2587C100.076 9.41361 100.059 9.56853 100.025 9.72345C99.9904 9.87836 99.9732 10.0333 99.9388 10.171L99.8355 10.6185C99.8011 10.7734 99.7667 10.9284 99.715 11.0661C99.6634 11.221 99.6117 11.3587 99.5429 11.5136C99.474 11.6513 99.388 11.8062 99.2675 11.9095C99.1986 11.9611 99.1298 12.0128 99.0437 12.0472C99.0093 12.0644 98.9576 12.0644 98.906 12.0644H98.8716C98.8716 12.0644 98.8888 12.0644 98.8544 12.0644H98.8372L98.7855 12.0472C98.7511 12.03 98.665 12.0128 98.6478 11.9784C98.6134 11.9439 98.579 11.8923 98.5617 11.8579C98.5273 11.7718 98.5273 11.6857 98.5273 11.5997C98.5273 11.4275 98.5617 11.2726 98.5962 11.1349C98.6306 10.98 98.665 10.8251 98.6822 10.7046L98.7855 10.7907C98.7167 10.8079 98.6306 10.8423 98.579 10.9111C98.5101 10.98 98.4585 11.0488 98.424 11.1349C98.3724 11.221 98.338 11.307 98.3035 11.4103C98.2691 11.4964 98.2347 11.5997 98.2175 11.6857C98.1658 11.8751 98.1142 12.0644 98.0626 12.271C98.0109 12.4603 97.9765 12.6669 97.8904 12.8562C97.856 12.9595 97.8044 13.0456 97.7527 13.1316C97.7011 13.2177 97.6495 13.3038 97.5978 13.3898C97.529 13.4759 97.4773 13.5619 97.3913 13.6308C97.3052 13.6997 97.2019 13.7685 97.0814 13.7169C96.9782 13.6824 96.8921 13.5792 96.8921 13.4587C96.8921 13.3554 96.9093 13.2521 96.9437 13.1488C96.9609 13.0456 96.9954 12.9595 97.0298 12.8562C97.0642 12.7529 97.0814 12.6669 97.0814 12.5636C97.0986 12.6669 97.0642 12.7702 97.047 12.8734L96.9782 13.166C96.9609 13.2693 96.9437 13.3726 96.9437 13.4587C96.9437 13.5447 97.0126 13.6308 97.0986 13.648C97.1847 13.6824 97.2708 13.6308 97.3396 13.5619C97.4085 13.4931 97.4773 13.4242 97.529 13.3382C97.6322 13.166 97.7183 12.9939 97.7872 12.8046C97.8388 12.6152 97.8904 12.4259 97.9249 12.2193C97.9765 12.0128 98.0109 11.8234 98.0626 11.6169C98.097 11.5136 98.1142 11.4275 98.1658 11.3243C98.2003 11.221 98.2347 11.1349 98.2863 11.0316C98.338 10.9456 98.3896 10.8423 98.4757 10.7562C98.5445 10.6702 98.665 10.6185 98.7855 10.5841C98.8372 10.5669 98.906 10.6013 98.9232 10.6357L98.9577 10.653C98.9577 10.8251 98.8716 10.98 98.8372 11.1177C98.8027 11.2726 98.7683 11.4103 98.7511 11.548C98.7511 11.6169 98.7511 11.6857 98.7683 11.7374C98.7855 11.7546 98.7855 11.789 98.8027 11.789C98.8027 11.8062 98.8199 11.8062 98.8199 11.8062C98.8372 11.8062 98.8199 11.8234 98.8544 11.8234C98.9749 11.8579 99.0953 11.8062 99.1986 11.7202C99.3019 11.6341 99.3708 11.5136 99.4396 11.3759C99.5085 11.2382 99.5601 11.1005 99.6117 10.9628C99.6634 10.8251 99.6978 10.6702 99.7322 10.5325L99.8355 10.0849C99.8699 9.93 99.9044 9.7923 99.9388 9.63738C99.9732 9.48247 99.9904 9.34476 100.008 9.18984C100.025 9.03493 100.042 8.89722 100.042 8.74231C100.042 8.58739 100.042 8.44968 100.008 8.29477C99.9904 8.13985 99.956 8.00215 99.9044 7.86444C99.8527 7.72674 99.8011 7.58903 99.7322 7.43412C99.6634 7.29641 99.5945 7.15871 99.5257 7.021C99.4913 6.95215 99.4396 6.8833 99.4052 6.83166C99.3019 6.83166 99.2503 6.76281 99.1642 6.76281Z" fill="black"></path> <path d="M95.1019 12.925C95.1019 12.925 95.1019 12.9423 95.0847 12.9767C95.0675 13.0111 95.0675 13.0627 95.0331 13.1316C95.0159 13.166 94.9987 13.2004 94.9814 13.2349C94.9642 13.2693 94.9298 13.3037 94.9126 13.3554C94.861 13.4414 94.7921 13.5275 94.706 13.6136C94.5511 13.7857 94.3446 13.975 94.1208 14.1644C93.897 14.3537 93.656 14.5603 93.4839 14.8013C93.4495 14.8701 93.3978 14.9218 93.3634 14.9906L93.329 15.0422V15.0595L93.3118 15.0939C93.2946 15.1283 93.2774 15.1627 93.2774 15.1972C93.2429 15.3349 93.2085 15.4898 93.2429 15.5931C93.2774 15.6963 93.3978 15.7135 93.5183 15.7135C93.5355 15.7135 93.5528 15.7135 93.5528 15.7135L93.6044 15.6963C93.6388 15.6791 93.6733 15.6791 93.6905 15.6619C93.7077 15.6447 93.7421 15.6275 93.7593 15.6275C93.7765 15.6103 93.811 15.5931 93.8282 15.5758C93.9142 15.507 93.9831 15.4209 94.0519 15.3521C94.1208 15.2832 94.1724 15.2144 94.2241 15.1627C94.2757 15.1111 94.3101 15.0767 94.3446 15.0422C94.379 15.025 94.379 15.0078 94.379 15.0078C94.379 15.0078 94.3618 15.025 94.3446 15.0595C94.3273 15.0939 94.2929 15.1283 94.2585 15.1972C94.2241 15.2488 94.1724 15.3177 94.1208 15.4037C94.0692 15.4898 94.0003 15.5758 93.9142 15.6619C93.897 15.6791 93.8626 15.7135 93.8454 15.7308C93.811 15.748 93.7937 15.7652 93.7593 15.7996C93.7249 15.8168 93.6905 15.834 93.6733 15.8513L93.6216 15.8685H93.6044H93.5872H93.5528C93.4839 15.8857 93.3978 15.8857 93.3118 15.8685C93.2257 15.8513 93.1397 15.7652 93.1052 15.6791C93.0364 15.507 93.088 15.3349 93.1224 15.1799C93.1397 15.1455 93.1569 15.0939 93.1569 15.0595L93.1741 15.025V15.0078V14.9906L93.2085 14.939C93.2429 14.8701 93.2946 14.8013 93.3462 14.7324C93.5528 14.4742 93.7937 14.2677 94.0175 14.0783C94.2413 13.889 94.465 13.7341 94.6372 13.5791C94.7232 13.4931 94.7921 13.4242 94.8609 13.3554C94.8954 13.3209 94.9126 13.2865 94.947 13.2521C94.9642 13.2177 94.9814 13.1832 94.9987 13.166C95.0331 13.1144 95.0503 13.0627 95.0675 13.0283C95.1019 12.9423 95.1019 12.925 95.1019 12.925Z" fill="black"></path> <path d="M91.9693 18.7086C91.9349 18.7603 91.9005 18.8119 91.8488 18.8636C91.8144 18.9152 91.7628 18.9668 91.7284 19.0013C91.6423 19.0873 91.5562 19.1906 91.4529 19.2767C91.2636 19.4488 91.0743 19.6037 90.8677 19.7586C90.7644 19.8275 90.6611 19.8963 90.5407 19.9652C90.4374 20.0341 90.3169 20.0857 90.1964 20.1545C90.1448 20.189 90.0759 20.2062 90.0243 20.2234C89.9726 20.2406 89.9038 20.275 89.8349 20.2922C89.7661 20.3095 89.6972 20.3267 89.6456 20.3267C89.5767 20.3439 89.5079 20.3267 89.439 20.3267C89.3874 20.3267 89.3529 20.2922 89.3529 20.2578C89.3529 20.2578 89.3529 20.2578 89.3529 20.2406V20.2234L89.3702 20.1373V20.0341V19.9308C89.3702 19.9136 89.3702 19.8963 89.3702 19.8619L89.3874 19.7931L89.5079 19.8963C89.439 19.9308 89.3702 19.9652 89.3185 20.0168C89.2497 20.0685 89.1808 20.1029 89.112 20.1545L88.9915 20.2062C88.9571 20.2234 88.9054 20.2406 88.871 20.2406H88.8021C88.7849 20.2406 88.7505 20.2406 88.7333 20.2406L88.5956 20.2234C88.5784 20.2234 88.5612 20.2062 88.5612 20.189L88.5439 20.0857C88.5439 20.0513 88.5439 20.0168 88.5439 19.9824C88.5439 19.948 88.5612 19.9136 88.5612 19.8791L88.5956 19.7759C88.6128 19.7414 88.63 19.707 88.6472 19.6898C88.6644 19.6554 88.6989 19.6382 88.7161 19.6037C88.7505 19.5865 88.7677 19.5521 88.8021 19.5349L88.8882 19.4832L88.8193 19.5521C88.8021 19.5693 88.7677 19.6037 88.7505 19.6209C88.7333 19.6554 88.7161 19.6726 88.6989 19.707C88.6816 19.7414 88.6644 19.7759 88.6644 19.7931L88.6472 19.8791C88.6472 19.9136 88.6472 19.948 88.6472 19.9824L88.6644 20.0685L88.6989 20.1545L88.6644 20.1201H88.7677C88.7849 20.1201 88.8021 20.1201 88.8193 20.1029L88.871 20.0857C88.9054 20.0685 88.9398 20.0513 88.9743 20.0513L89.0775 19.9996C89.1464 19.948 89.198 19.9136 89.2669 19.8619C89.3357 19.8103 89.4046 19.7759 89.4734 19.7242C89.5079 19.707 89.5595 19.7242 89.5767 19.7586C89.5767 19.7759 89.5939 19.7931 89.5939 19.8103V19.8275V19.8619C89.5939 19.8791 89.5939 19.8791 89.5939 19.9136V20.0168V20.1373L89.5767 20.2578L89.4907 20.1545C89.5423 20.1545 89.5939 20.1545 89.6628 20.1373C89.7144 20.1201 89.7833 20.1201 89.8349 20.1029C89.8866 20.0857 89.9554 20.0685 90.0071 20.0513C90.0587 20.0341 90.1275 20.0168 90.1792 19.9824C90.2308 19.9652 90.2825 19.9308 90.3513 19.8963C90.403 19.8619 90.4546 19.8447 90.5234 19.8103C90.6267 19.7586 90.73 19.6898 90.8505 19.6209C91.057 19.4832 91.2636 19.3455 91.4702 19.1906C91.5906 19.0357 91.78 18.8808 91.9693 18.7086Z" fill="black"></path> <path d="M85.1354 20.5504C85.1354 20.5504 85.101 20.5676 85.0494 20.5848C84.9977 20.6021 84.9117 20.6537 84.8256 20.7053C84.7395 20.757 84.6191 20.843 84.4986 20.9291C84.3781 21.0324 84.2576 21.1357 84.1199 21.2734C83.8445 21.5316 83.5691 21.8758 83.2764 22.2373C83.242 22.2889 83.2076 22.3234 83.1732 22.375C83.1387 22.4266 83.1043 22.4611 83.0699 22.5127C83.001 22.616 82.9494 22.7193 82.8978 22.8225C82.7945 23.0463 82.6912 23.2701 82.6051 23.5111C82.5707 23.6316 82.5363 23.752 82.5191 23.8553C82.5019 23.9758 82.5019 24.0963 82.5535 24.1652C82.5535 24.1824 82.5707 24.1824 82.5707 24.1824L82.5879 24.1996C82.6051 24.2168 82.6396 24.2512 82.6568 24.2512C82.6568 24.2512 82.674 24.2512 82.674 24.2684C82.6912 24.2684 82.6912 24.2684 82.7084 24.2684C82.7256 24.2684 82.7428 24.2684 82.7773 24.2684C82.8633 24.2512 82.9494 24.1652 83.0355 24.0791C83.1215 23.993 83.1904 23.907 83.2592 23.8209C83.3453 23.7348 83.4141 23.6488 83.5174 23.5799C83.5863 23.5455 83.6379 23.5455 83.6896 23.5283C83.7584 23.5283 83.81 23.5283 83.8617 23.5283C83.965 23.5283 84.051 23.5455 84.1371 23.5111C84.1715 23.4938 84.2059 23.4766 84.2404 23.4594C84.2576 23.4422 84.3092 23.3906 84.3264 23.3734C84.3781 23.3045 84.4125 23.2529 84.4641 23.184C84.5502 23.0463 84.6018 22.9258 84.6707 22.8398C84.7051 22.7881 84.7223 22.7537 84.7568 22.7193C84.774 22.6848 84.8084 22.6504 84.8256 22.6332C84.86 22.5988 84.8945 22.5643 84.8945 22.5643C84.8945 22.5643 84.8773 22.5816 84.8428 22.6332C84.8256 22.6504 84.8084 22.6848 84.774 22.7193C84.7568 22.7537 84.7223 22.7881 84.7051 22.8398C84.6535 22.943 84.6018 23.0635 84.533 23.2012C84.4986 23.2701 84.4641 23.3389 84.4125 23.425C84.3781 23.4594 84.3609 23.4938 84.3264 23.5283C84.292 23.5627 84.2404 23.5971 84.1887 23.6143C84.0855 23.6488 83.9822 23.6488 83.8789 23.6488C83.8273 23.6488 83.7756 23.6488 83.7412 23.666C83.6896 23.6832 83.6379 23.6832 83.6035 23.7176C83.5346 23.7693 83.4658 23.8553 83.3969 23.9414C83.3281 24.0275 83.2592 24.1135 83.1732 24.2168C83.0871 24.3029 83.001 24.4061 82.8461 24.4578C82.8117 24.475 82.7773 24.475 82.7256 24.475C82.7084 24.475 82.6912 24.475 82.6568 24.475C82.6396 24.475 82.6223 24.4578 82.5879 24.4578C82.5363 24.4406 82.5191 24.4234 82.5019 24.4061L82.4846 24.3889L82.4674 24.3717L82.4502 24.3545C82.433 24.3373 82.4158 24.3201 82.4158 24.3029C82.3297 24.1652 82.3469 24.0102 82.3642 23.8725C82.3814 23.7348 82.4158 23.6143 82.4502 23.4938C82.5363 23.2529 82.6396 23.0119 82.76 22.7881C82.8117 22.6848 82.8805 22.5643 82.9494 22.4611C82.9838 22.4094 83.0182 22.3578 83.0527 22.3062C83.0871 22.2545 83.1215 22.2201 83.1732 22.1684C83.483 21.807 83.7928 21.4799 84.0682 21.2389C84.2059 21.1185 84.3436 20.998 84.4814 20.9119C84.6018 20.8258 84.7223 20.757 84.8256 20.7053C84.9289 20.6537 85.015 20.6193 85.0666 20.6021C85.101 20.5504 85.1354 20.5504 85.1354 20.5504Z" fill="black"></path> <path d="M83.0356 27.8659C83.0701 28.193 83.1561 28.52 83.2938 28.8299C83.3283 28.8987 83.3627 28.9848 83.3971 29.0536C83.4315 29.1225 83.4832 29.1913 83.5176 29.2602C83.5693 29.329 83.6209 29.3807 83.6725 29.4323C83.707 29.4667 83.7242 29.484 83.7586 29.5012C83.793 29.5184 83.8274 29.5528 83.8619 29.5528C83.9307 29.5872 83.9996 29.6044 84.0684 29.6217H84.1717C84.2061 29.6217 84.2578 29.6044 84.2922 29.6044C84.361 29.5872 84.4299 29.5528 84.4299 29.5184C84.4471 29.484 84.4299 29.4151 84.3955 29.3463C84.361 29.2774 84.3266 29.2085 84.2922 29.1225C84.2578 29.0364 84.2061 28.9676 84.2061 28.8471C84.2061 28.7954 84.2233 28.7094 84.275 28.6577C84.3266 28.6061 84.3783 28.5889 84.4299 28.5889C84.5332 28.5717 84.6192 28.5717 84.7053 28.5717L84.6365 28.6061C84.6537 28.5889 84.6537 28.5717 84.6709 28.5545C84.6709 28.5372 84.6881 28.52 84.6881 28.5028C84.6881 28.4856 84.6881 28.4684 84.6709 28.4512C84.6709 28.434 84.6537 28.4168 84.6365 28.3995C84.602 28.3651 84.5676 28.3307 84.5332 28.2963C84.4988 28.2618 84.4471 28.2274 84.3955 28.2102C84.2922 28.1586 84.1889 28.1069 84.0856 28.0381C84.034 28.0036 83.9824 27.9692 83.9307 27.9348C83.9135 27.9176 83.8791 27.9004 83.8619 27.8659C83.8447 27.8487 83.8102 27.8143 83.793 27.7799C83.7586 27.711 83.7414 27.6422 83.7242 27.5733C83.707 27.5045 83.707 27.4356 83.707 27.3668C83.707 27.2291 83.7242 27.0913 83.7414 26.9536C83.793 26.6955 83.8963 26.4373 84.034 26.2135C83.9135 26.4545 83.8447 26.7127 83.8274 26.9709C83.8102 27.1086 83.8102 27.2291 83.8102 27.3668C83.8102 27.4356 83.8274 27.4872 83.8447 27.5561C83.8619 27.625 83.8791 27.6766 83.9135 27.7282C83.9307 27.7454 83.9479 27.7627 83.9651 27.7799C83.9824 27.7971 83.9996 27.8143 84.034 27.8315C84.0856 27.8659 84.1201 27.8831 84.1717 27.9176C84.275 27.9692 84.3783 28.0209 84.4815 28.0725C84.5332 28.1069 84.5848 28.1241 84.6365 28.1586C84.6881 28.193 84.7397 28.2274 84.7914 28.2963L84.8258 28.3307L84.843 28.3823C84.8602 28.4167 84.8602 28.4512 84.8774 28.5028C84.8774 28.5372 84.8602 28.5889 84.8602 28.6233L84.8086 28.7266C84.7914 28.7438 84.7742 28.7782 84.7397 28.7782H84.7225C84.6365 28.7782 84.5676 28.761 84.4988 28.7782C84.4643 28.7782 84.4471 28.7954 84.4299 28.7954C84.4127 28.8127 84.4127 28.8126 84.4127 28.8299C84.4127 28.8815 84.4471 28.9504 84.4815 29.0192C84.516 29.0881 84.5504 29.1741 84.5848 29.243C84.6192 29.329 84.6537 29.4323 84.602 29.5528C84.5848 29.6217 84.5332 29.6561 84.4815 29.6905C84.4299 29.7249 84.3955 29.7249 84.3438 29.7422C84.2922 29.7594 84.2578 29.7594 84.2061 29.7594C84.1545 29.7594 84.1029 29.7594 84.0684 29.7594C83.9824 29.7422 83.8791 29.7249 83.8102 29.6733C83.7758 29.6561 83.7414 29.6217 83.6897 29.5872C83.6553 29.5528 83.6209 29.5356 83.5865 29.5012C83.5176 29.4323 83.4832 29.3635 83.4315 29.2946C83.3799 29.2258 83.3455 29.1397 83.3111 29.0708C83.2766 29.002 83.2422 28.9159 83.2078 28.8299C83.1561 28.6749 83.1217 28.5028 83.0873 28.3307C83.0529 28.2102 83.0356 28.0381 83.0356 27.8659Z" fill="black"></path> <path d="M87.9585 30.4651C88.0446 30.4995 88.1134 30.5512 88.1995 30.5856C88.2855 30.62 88.3544 30.6545 88.4405 30.7061C88.4749 30.7405 88.5265 30.7577 88.561 30.7922C88.5954 30.8266 88.6298 30.8438 88.6642 30.8954C88.6987 30.9299 88.7331 30.9643 88.7503 31.0159C88.7675 31.0504 88.8019 31.0848 88.8191 31.1364C88.8536 31.2225 88.888 31.3086 88.9224 31.3774C88.9396 31.4635 88.9741 31.5668 88.9913 31.6528L89.0601 32.1692C89.0773 32.3413 89.0601 32.4963 89.0946 32.634C89.1118 32.7028 89.129 32.7544 89.1806 32.8061C89.215 32.8405 89.2839 32.8749 89.3527 32.8922C89.3872 32.8922 89.4216 32.9094 89.456 32.9094C89.4905 32.9094 89.5249 32.9094 89.5421 32.9094C89.5765 32.9094 89.5937 32.8922 89.6109 32.8577C89.6282 32.8405 89.6454 32.8061 89.6454 32.7717C89.6798 32.634 89.6798 32.4618 89.697 32.3069C89.7142 32.393 89.7142 32.4618 89.7314 32.5479C89.7314 32.634 89.7486 32.7028 89.7314 32.7889C89.7314 32.8233 89.7142 32.8749 89.697 32.9094C89.6798 32.9438 89.6282 32.9954 89.5765 33.0126C89.5593 33.0299 89.5249 33.0299 89.5077 33.0299C89.4905 33.0299 89.456 33.0299 89.4388 33.0299C89.3872 33.0299 89.3527 33.0126 89.3011 33.0126C89.215 32.9954 89.129 32.9782 89.0429 32.9094C89.0085 32.8749 88.9741 32.8405 88.9568 32.7889C88.9396 32.7544 88.9224 32.7028 88.9052 32.6512C88.8536 32.479 88.8708 32.3241 88.8536 32.1692C88.8191 31.9971 88.8019 31.8077 88.7847 31.6356L88.7503 31.3946C88.7331 31.3086 88.6987 31.2225 88.6642 31.1364C88.647 31.102 88.6298 31.0676 88.6126 31.0331C88.5954 30.9987 88.561 30.9643 88.5437 30.9299C88.5265 30.8954 88.4921 30.861 88.4577 30.8266C88.4233 30.7922 88.3888 30.775 88.3716 30.7405C88.3028 30.6889 88.2339 30.6372 88.1651 30.5856C88.0962 30.5684 88.0273 30.5168 87.9585 30.4651Z" fill="black"></path> <path d="M91.9691 31.6356L92.0035 32.4274V32.6339C92.0035 32.7028 92.0035 32.7716 92.0035 32.8405C92.0035 32.9782 92.0035 33.1159 91.9863 33.2364C91.9863 33.3741 91.9519 33.5118 91.9347 33.6323L91.883 33.8389L91.8314 34.0282C91.8142 34.097 91.797 34.1659 91.7798 34.2348C91.7626 34.3036 91.7281 34.3725 91.6937 34.4241C91.6593 34.4929 91.6249 34.5446 91.5732 34.6134L91.4872 34.6995C91.4527 34.7167 91.4183 34.7339 91.3839 34.7684C91.315 34.8028 91.2462 34.8372 91.1429 34.8372C91.1085 34.8372 91.0913 34.8372 91.0568 34.8372C91.0224 34.8372 91.0052 34.82 90.9708 34.8028C90.9363 34.7856 90.9363 34.7684 90.9191 34.7339C90.9019 34.7167 90.9019 34.6823 90.8847 34.6651C90.8503 34.579 90.8503 34.5102 90.8331 34.4413C90.8158 34.3725 90.7986 34.3208 90.7642 34.252L90.8675 34.3036C90.8158 34.3208 90.7642 34.4069 90.747 34.4929C90.7126 34.579 90.7126 34.6823 90.6954 34.7856C90.6781 34.9921 90.6781 35.1987 90.6954 35.4052C90.6954 35.6118 90.7126 35.8183 90.7298 36.0421C90.747 36.2487 90.7642 36.4724 90.7642 36.679C90.7642 36.7306 90.7642 36.7823 90.747 36.8511C90.7298 36.92 90.7126 36.9544 90.6954 37.006C90.6609 37.1093 90.6093 37.2126 90.5404 37.3159C90.506 37.3675 90.4544 37.4192 90.3855 37.4364C90.2994 37.4536 90.2306 37.4019 90.1962 37.3675C90.1101 37.2642 90.0757 37.1782 90.0413 37.0577L90.0068 36.9028C90.0068 36.8511 90.0068 36.7823 90.0068 36.7306C90.0068 36.679 90.024 36.6274 90.024 36.5757L90.0585 36.4208C90.0929 36.3175 90.1101 36.2143 90.1273 36.111C90.1273 36.0593 90.1445 36.0077 90.1445 35.9561V35.8011L90.1617 35.9561C90.1617 36.0077 90.1617 36.0593 90.1617 36.111C90.1445 36.2143 90.1273 36.3175 90.1101 36.4208L90.0929 36.5757C90.0929 36.6274 90.0929 36.679 90.0929 36.7306C90.0929 36.7823 90.0929 36.8339 90.1101 36.8856L90.1445 37.0405C90.179 37.1265 90.2306 37.2298 90.2822 37.2815C90.3167 37.3159 90.3511 37.3331 90.3683 37.3159C90.4027 37.3159 90.4199 37.2815 90.4544 37.247C90.506 37.1782 90.5404 37.0749 90.5749 36.9716C90.5921 36.9372 90.6093 36.8683 90.6093 36.8339C90.6093 36.7823 90.6093 36.7306 90.6093 36.679C90.6093 36.2659 90.5404 35.8356 90.5232 35.4225C90.506 35.2159 90.506 34.9921 90.5232 34.7684C90.5232 34.6651 90.5404 34.5446 90.5749 34.4413C90.5921 34.3897 90.6093 34.3208 90.6437 34.2692C90.6781 34.2175 90.7298 34.1659 90.7986 34.1315C90.8331 34.1143 90.8847 34.1315 90.9019 34.1831C90.9363 34.252 90.9535 34.338 90.9708 34.4069C90.988 34.4757 91.0052 34.5446 91.0224 34.5962C91.0224 34.6134 91.0396 34.6134 91.0396 34.6307L91.0568 34.6479H91.074C91.074 34.6479 91.0912 34.6479 91.1085 34.6479C91.1257 34.6479 91.1601 34.6479 91.1945 34.6307C91.229 34.6307 91.2634 34.6134 91.2806 34.5962C91.2978 34.579 91.315 34.579 91.3494 34.5618L91.4011 34.5102C91.4355 34.4585 91.4699 34.4069 91.5044 34.3552C91.5388 34.3036 91.556 34.2348 91.5732 34.1831C91.5904 34.1315 91.6249 34.0626 91.6421 33.9938L91.6937 33.8044L91.7453 33.6151C91.7626 33.4774 91.797 33.3569 91.8142 33.2192C91.8314 33.0815 91.8486 32.961 91.8486 32.8233C91.8658 32.6856 91.8658 32.5651 91.8658 32.4274C91.9519 32.1692 91.9519 31.8938 91.9691 31.6356Z" fill="black"></path> <path d="M72.3634 2.11528C72.7249 2.11528 72.7249 1.56446 72.3634 1.56446C72.0019 1.56446 72.0019 2.11528 72.3634 2.11528Z" fill="#FB0031"></path> <path d="M72.088 1.66776C71.9159 2.06366 72.0536 2.5112 72.2085 2.88989C72.3806 3.303 72.6216 3.75054 72.9831 4.04316C73.2241 4.2325 73.5167 4.26693 73.7232 4.04316C73.8093 3.95709 73.8782 3.85382 73.9298 3.75054C73.947 3.73332 73.9987 3.68169 73.947 3.6989C73.8954 3.71611 74.0159 3.78496 74.0675 3.8366C74.2396 4.00873 74.5323 3.87103 74.5323 3.64726C74.5323 3.35464 74.5495 3.07923 74.4634 2.80382C74.3601 2.45956 73.8265 2.61448 73.9298 2.95874C73.9986 3.18251 73.9814 3.42349 73.9814 3.64726C74.1364 3.57841 74.2913 3.50956 74.4462 3.45792C74.2568 3.25136 73.9987 3.07923 73.706 3.21693C73.5167 3.303 73.4478 3.49234 73.3273 3.66447C73.2929 3.71611 73.2757 3.6989 73.3446 3.68169C73.379 3.68169 73.2929 3.64726 73.2757 3.61283C73.1724 3.45792 73.0347 3.32021 72.9314 3.14808C72.7765 2.88989 72.4151 2.28743 72.5528 1.9776C72.7077 1.61612 72.2257 1.34072 72.088 1.66776Z" fill="#FB0031"></path> <path d="M72.0879 2.63168C72.0879 2.6661 72.0879 2.71774 72.0879 2.75217C72.0879 2.88987 72.2084 3.02758 72.3633 3.02758C72.5182 3.02758 72.6387 2.90709 72.6387 2.75217C72.6387 2.71774 72.6387 2.6661 72.6387 2.63168C72.6387 2.49397 72.5182 2.35627 72.3633 2.35627C72.2084 2.37348 72.0879 2.47676 72.0879 2.63168Z" fill="#FB0031"></path> <path d="M72.1742 1.46118C72.1914 1.7538 72.2086 2.04642 72.2602 2.32183C72.3119 2.61445 72.3635 2.88986 72.4668 3.14806C72.5184 3.28576 72.5873 3.40625 72.6561 3.52674C72.6905 3.57838 72.7422 3.64723 72.7766 3.68166C72.811 3.7333 72.8799 3.78494 72.9143 3.81936C72.9832 3.871 73.0348 3.90543 73.0864 3.92264C73.1381 3.93985 73.1897 3.93985 73.2414 3.92264C73.293 3.90543 73.3446 3.85379 73.4135 3.80215C73.4823 3.75051 73.6028 3.75051 73.6889 3.76772H73.7061C73.7578 3.80215 73.8094 3.83658 73.8266 3.871C73.861 3.90543 73.8782 3.95707 73.9127 3.99149C73.9643 4.07756 73.9987 4.14641 74.0504 4.23248L74.1709 4.47346C74.2053 4.54231 74.2569 4.62838 74.2914 4.68001C74.3946 4.81772 74.5151 4.95542 74.6528 5.0587C74.6873 5.07591 74.7217 5.09313 74.7561 5.11034C74.7905 5.12755 74.825 5.12755 74.8594 5.12755C74.8938 5.12755 74.911 5.11034 74.9454 5.09313C74.9971 5.0587 74.9971 5.04149 75.0143 5.00706C75.0315 4.97264 75.0315 4.93821 75.0315 4.90378C75.0315 4.86936 75.0315 4.81772 75.0143 4.78329C74.9971 4.69723 74.9627 4.61116 74.911 4.54231C74.825 4.38739 74.7217 4.23248 74.6184 4.07756L74.5151 3.83658C74.4807 3.75051 74.4635 3.68166 74.4463 3.59559C74.4291 3.50953 74.4118 3.42346 74.4118 3.3374C74.4118 3.30297 74.4118 3.25133 74.4118 3.21691V3.09642C74.4291 2.92429 74.4463 2.76937 74.4635 2.59724C74.4807 2.42511 74.4979 2.27019 74.5151 2.09806V2.33905C74.5151 2.42511 74.5151 2.51118 74.5151 2.58003C74.5151 2.75216 74.4979 2.90707 74.4979 3.0792L74.5151 3.1997C74.5151 3.23412 74.5151 3.28576 74.5323 3.32019C74.5496 3.40625 74.5495 3.4751 74.584 3.56117C74.6184 3.63002 74.6356 3.71609 74.67 3.78494L74.7733 4.00871C74.8938 4.16362 74.9971 4.31854 75.1004 4.49067C75.152 4.57674 75.1864 4.6628 75.2209 4.76608C75.2381 4.81772 75.2381 4.86936 75.2381 4.921C75.2381 4.97264 75.2381 5.04149 75.2036 5.09313C75.2036 5.12755 75.1692 5.14477 75.152 5.17919C75.1348 5.21362 75.1176 5.21362 75.1004 5.23083C75.0659 5.26526 74.9971 5.29968 74.9282 5.3169C74.8594 5.3169 74.8077 5.3169 74.7561 5.29968C74.7045 5.28247 74.6528 5.26526 74.6184 5.23083C74.5323 5.17919 74.4463 5.11034 74.3774 5.04149C74.3086 4.97264 74.2397 4.90378 74.1881 4.81772C74.1192 4.73165 74.0848 4.6628 74.0332 4.57674L73.9127 4.33575C73.8782 4.24969 73.8266 4.18084 73.7922 4.11198C73.775 4.07756 73.7405 4.04313 73.7233 4.00871C73.7061 3.97428 73.6717 3.95707 73.6545 3.93985H73.6717C73.62 3.92264 73.5684 3.92264 73.5168 3.95707C73.4651 3.99149 73.4135 4.04313 73.3274 4.07756C73.2414 4.1292 73.1209 4.11199 73.052 4.07756C72.966 4.04313 72.8971 3.99149 72.8455 3.95707C72.7766 3.90543 72.725 3.85379 72.6733 3.78494C72.6217 3.7333 72.5873 3.66445 72.5356 3.59559C72.4668 3.45789 72.3979 3.32019 72.3463 3.18248C72.2602 2.90707 72.1914 2.61445 72.1742 2.32183C72.1742 2.04642 72.1569 1.7538 72.1742 1.46118Z" fill="black"></path> <path d="M32.7048 34.6823H28.6081L19.3992 15.0423L10.3967 34.8889H8.17627L20.3631 7.22755L32.7048 34.6823Z" fill="black"></path> <path d="M24.5113 34.6823H20.4318L11.2229 15.0423L2.22048 34.8889H0L12.1696 7.22756L24.5113 34.6823Z" fill="black"></path> </svg> 