<?xml version="1.0" encoding="UTF-8"?> <svg xmlns="http://www.w3.org/2000/svg" width="227" height="50" viewBox="0 0 227 50" fill="none"> <path d="M35.7916 0L26.8096 47.1957L75.2468 49.3699V9.93576L35.7916 0Z" fill="white"></path> <path d="M163.65 29.6558V30.5167H161.269V32.2504H163.462V33.1114H161.269V35.9057H160.447V29.6558H163.65Z" fill="black"></path> <path d="M168.057 36.0289C167.622 36.0342 167.19 35.9515 166.788 35.7858C166.398 35.6259 166.04 35.398 165.731 35.1128C165.411 34.8151 165.158 34.4541 164.986 34.0528C164.814 33.6515 164.728 33.2188 164.733 32.7824C164.728 32.3339 164.818 31.8893 164.999 31.4786C165.169 31.0904 165.417 30.7411 165.727 30.452C166.036 30.1661 166.394 29.9381 166.784 29.779C167.192 29.6134 167.628 29.5307 168.068 29.5359C168.507 29.531 168.942 29.6136 169.348 29.779C169.738 29.9381 170.096 30.1661 170.405 30.452C170.724 30.7497 170.977 31.1108 171.148 31.5122C171.319 31.9135 171.404 32.3462 171.398 32.7824H171.38C171.386 33.2186 171.3 33.6511 171.129 34.0524C170.958 34.4536 170.705 34.8148 170.387 35.1128C170.077 35.3986 169.719 35.6266 169.33 35.7858C168.926 35.952 168.494 36.0347 168.057 36.0289ZM168.036 30.4403C167.697 30.4353 167.359 30.4951 167.041 30.6165C166.747 30.7297 166.477 30.8984 166.246 31.1133C166.024 31.3277 165.844 31.5824 165.717 31.8639C165.585 32.1557 165.518 32.4719 165.518 32.7918C165.518 33.1117 165.585 33.4279 165.717 33.7197C165.843 34.0019 166.023 34.2571 166.246 34.4714C166.477 34.6864 166.747 34.855 167.041 34.9683C167.359 35.0896 167.697 35.1494 168.036 35.1445C168.376 35.1449 168.714 35.0812 169.03 34.9565C169.325 34.8439 169.595 34.6752 169.825 34.4597C170.048 34.2457 170.228 33.9909 170.355 33.7091C170.487 33.4218 170.555 33.1092 170.553 32.793V32.7836C170.553 32.4706 170.485 32.1614 170.355 31.8768C170.228 31.5951 170.048 31.3404 169.825 31.1262C169.595 30.9108 169.325 30.742 169.03 30.6294C168.714 30.5044 168.376 30.4402 168.036 30.4403Z" fill="black"></path> <path d="M173.706 35.9081H172.884V29.6569H174.881C175.13 29.6547 175.377 29.6997 175.609 29.7897C175.826 29.8737 176.025 29.9976 176.196 30.155C176.364 30.311 176.497 30.5018 176.584 30.7141C176.673 30.9467 176.718 31.1942 176.715 31.4435C176.728 31.8635 176.591 32.2743 176.329 32.6028C176.07 32.917 175.705 33.1259 175.302 33.1901L176.902 35.9045H175.898L174.341 33.223H173.706V35.9069V35.9081ZM173.706 30.5179V32.3585H174.971V32.369C175.09 32.3729 175.208 32.3501 175.317 32.3023C175.426 32.2546 175.523 32.1831 175.601 32.093C175.765 31.9119 175.855 31.6761 175.854 31.4317C175.857 31.1908 175.766 30.9582 175.601 30.7834C175.52 30.6971 175.423 30.6288 175.314 30.583C175.206 30.5372 175.089 30.515 174.971 30.5179H173.706Z" fill="black"></path> <path d="M186.61 34.8579C186.372 35.2373 186.026 35.5371 185.616 35.7189C185.128 35.9401 184.596 36.0492 184.06 36.0384C183.629 36.0397 183.202 35.96 182.801 35.8034C182.414 35.6546 182.061 35.4293 181.763 35.141C181.45 34.8356 181.203 34.4699 181.036 34.0661C180.869 33.6623 180.786 33.2288 180.791 32.7918C180.786 32.3549 180.869 31.9214 181.036 31.5176C181.203 31.1138 181.45 30.7481 181.763 30.4427C182.061 30.155 182.413 29.9301 182.8 29.7814C183.205 29.6241 183.635 29.5444 184.07 29.5465C184.617 29.5428 185.158 29.6676 185.648 29.9106C185.853 30.0084 186.043 30.135 186.212 30.2864C186.355 30.4144 186.478 30.5633 186.577 30.7281L186.324 31.4904C186.213 31.3382 186.083 31.2008 185.937 31.0816C185.777 30.9486 185.603 30.834 185.418 30.7398C185.226 30.6369 185.022 30.558 184.811 30.5049C184.59 30.4484 184.364 30.4196 184.136 30.4192C183.787 30.4146 183.44 30.4702 183.11 30.5836C182.815 30.6825 182.544 30.8426 182.315 31.0534C182.095 31.2618 181.922 31.5139 181.806 31.7934C181.682 32.1061 181.622 32.4404 181.63 32.7766C181.627 33.1169 181.691 33.4544 181.818 33.7702C181.932 34.0535 182.109 34.3068 182.337 34.5102C182.569 34.716 182.839 34.8737 183.132 34.9742C183.462 35.0882 183.81 35.1443 184.159 35.1398C184.629 35.1504 185.095 35.0447 185.515 34.8321C185.869 34.6614 186.176 34.4075 186.41 34.0921L186.654 34.8426L186.61 34.8579Z" fill="black"></path> <path d="M188.924 35.9081H188.102V29.6569H190.099C190.348 29.6547 190.595 29.6997 190.827 29.7897C191.044 29.8737 191.243 29.9976 191.414 30.155C191.582 30.311 191.715 30.5018 191.802 30.7141C191.891 30.9467 191.936 31.1942 191.933 31.4435C191.946 31.8635 191.809 32.2743 191.547 32.6028C191.288 32.917 190.923 33.1259 190.52 33.1901L192.12 35.9045H191.117L189.559 33.223H188.924V35.9069V35.9081ZM188.924 30.5179V32.3585H190.189V32.369C190.308 32.3729 190.426 32.3501 190.535 32.3023C190.644 32.2546 190.741 32.1831 190.819 32.093C190.983 31.9119 191.073 31.6761 191.072 31.4317C191.075 31.1908 190.984 30.9582 190.819 30.7834C190.738 30.6971 190.641 30.6288 190.532 30.583C190.424 30.5372 190.307 30.515 190.189 30.5179H188.924Z" fill="black"></path> <path d="M197.081 29.657V30.5179H194.38V32.2516H196.804V33.1126H194.38V35.0448H197.081V35.9057H193.558V29.657H197.081Z" fill="black"></path> <path d="M198.893 35.9069H198.009L200.582 29.657H201.487L204.06 35.9046H203.177L202.59 34.4493H199.489L198.893 35.9069ZM201.034 30.7059L199.843 33.5883H202.227L201.034 30.7059Z" fill="black"></path> <path d="M209.095 29.657V30.5179H206.981V35.9069H206.159V30.5179H204.016V29.657H209.095Z" fill="black"></path> <path d="M213.182 36.0289C212.747 36.0342 212.315 35.9515 211.913 35.7858C211.523 35.6264 211.165 35.3985 210.856 35.1128C210.536 34.8155 210.282 34.4546 210.11 34.0532C209.938 33.6518 209.853 33.2189 209.858 32.7824C209.853 32.334 209.943 31.8896 210.123 31.4786C210.293 31.0904 210.542 30.741 210.852 30.452C211.161 30.1656 211.519 29.9376 211.909 29.779C212.317 29.6133 212.753 29.5307 213.193 29.5359C213.632 29.531 214.067 29.6137 214.473 29.779C214.863 29.9377 215.222 30.1658 215.53 30.452C215.841 30.7411 216.088 31.0904 216.259 31.4786C216.439 31.8893 216.53 32.3339 216.524 32.7824H216.505C216.511 33.2186 216.425 33.6511 216.254 34.0524C216.083 34.4537 215.83 34.8148 215.512 35.1128C215.202 35.3982 214.844 35.6261 214.455 35.7858C214.051 35.9518 213.619 36.0345 213.182 36.0289ZM213.16 30.4403C212.821 30.4354 212.484 30.4952 212.166 30.6165C211.874 30.7261 211.606 30.893 211.378 31.1074C211.15 31.3218 210.967 31.5793 210.84 31.8651C210.709 32.1569 210.642 32.4731 210.642 32.793C210.642 33.1129 210.709 33.4291 210.84 33.7209C210.968 34.0029 211.148 34.258 211.371 34.4726C211.602 34.6876 211.872 34.8562 212.166 34.9695C212.484 35.0908 212.821 35.1506 213.16 35.1457C213.5 35.1461 213.837 35.0824 214.154 34.9577C214.447 34.8479 214.714 34.681 214.942 34.4666C215.169 34.2523 215.352 33.9948 215.479 33.7092C215.61 33.4216 215.678 33.1091 215.677 32.793V32.7836C215.676 32.4707 215.609 32.1615 215.479 31.8768C215.352 31.5914 215.169 31.3341 214.942 31.12C214.714 30.9058 214.446 30.7391 214.154 30.6294C213.837 30.5044 213.5 30.4402 213.16 30.4403Z" fill="black"></path> <path d="M218.83 35.9081H218.008V29.657H220.004C220.253 29.6545 220.5 29.6995 220.733 29.7897C220.949 29.8737 221.149 29.9976 221.32 30.155C221.489 30.3107 221.621 30.5016 221.707 30.7141C221.798 30.9466 221.843 31.1941 221.84 31.4435C221.852 31.8634 221.715 32.2741 221.454 32.6028C221.194 32.9173 220.829 33.1262 220.426 33.1901L222.027 35.9045H221.023L219.465 33.223H218.83V35.9069V35.9081ZM218.83 30.5179V32.3585H220.095V32.3691C220.214 32.373 220.332 32.3502 220.441 32.3025C220.55 32.2547 220.647 32.1831 220.724 32.093C220.889 31.9122 220.979 31.6762 220.978 31.4317C220.981 31.1908 220.89 30.958 220.724 30.7834C220.644 30.697 220.547 30.6287 220.438 30.5829C220.33 30.5371 220.213 30.515 220.095 30.5179H218.83Z" fill="black"></path> <path d="M226.093 32.9034C226.226 33.0209 226.347 33.1383 226.458 33.2452C226.566 33.352 226.662 33.4701 226.745 33.5976C226.825 33.7211 226.888 33.8546 226.933 33.9946C226.978 34.147 227.001 34.3054 226.999 34.4644C227.007 34.6893 226.965 34.9131 226.875 35.1194C226.785 35.3257 226.65 35.5093 226.48 35.6566C226.091 35.9716 225.6 36.1326 225.1 36.1088C224.861 36.1103 224.624 36.0766 224.395 36.009C224.186 35.9497 223.985 35.8674 223.795 35.7635C223.633 35.6743 223.484 35.5628 223.353 35.4323C223.247 35.3293 223.158 35.2099 223.09 35.0787L223.332 34.2835C223.527 34.5626 223.784 34.793 224.083 34.9566C224.399 35.1357 224.757 35.2273 225.121 35.222C225.392 35.2448 225.662 35.1702 225.883 35.0118C225.963 34.9479 226.026 34.867 226.07 34.7751C226.114 34.6832 226.137 34.5827 226.137 34.4809C226.141 34.2991 226.078 34.1222 225.96 33.984C225.83 33.8306 225.686 33.6902 225.53 33.5647C225.295 33.3873 225.109 33.2335 224.955 33.1125C224.801 32.9915 224.669 32.8776 224.557 32.7918C224.446 32.7061 224.347 32.6262 224.26 32.5569C224.174 32.4892 224.092 32.4154 224.017 32.3361C223.84 32.1658 223.683 31.9767 223.547 31.7723C223.404 31.557 223.33 31.3026 223.337 31.044C223.331 30.8302 223.375 30.6178 223.465 30.4239C223.552 30.2501 223.676 30.0977 223.829 29.9775C223.991 29.8531 224.175 29.7592 224.37 29.7003C224.588 29.633 224.815 29.5998 225.043 29.6017C225.402 29.5964 225.755 29.6838 226.07 29.8554C226.332 29.9907 226.558 30.1853 226.731 30.4239L226.543 31.2073C226.367 30.9938 226.152 30.816 225.909 30.6834C225.648 30.5393 225.354 30.4633 225.055 30.4626C224.838 30.4547 224.621 30.5003 224.426 30.5954C224.349 30.6338 224.286 30.6935 224.243 30.7673C224.199 30.8411 224.179 30.9258 224.182 31.0112C224.183 31.0957 224.202 31.179 224.239 31.2553C224.275 31.3316 224.327 31.399 224.393 31.4528C224.523 31.577 224.659 31.6946 224.801 31.8052C225.143 32.0589 225.408 32.2574 225.607 32.4007C225.807 32.544 225.982 32.6767 226.126 32.7989L226.093 32.9034Z" fill="black"></path> <path d="M166.996 18.9871L167.88 25.237H167.058L166.33 20.4776L164.446 25.237H163.623L161.689 20.4776L161.022 25.237H160.162L161.056 18.9871H161.961L164.016 24.0107L166.079 18.9871H166.996Z" fill="black"></path> <path d="M173.084 18.9871V19.848H170.382V21.5817H172.806V22.4427H170.382V24.3749H173.084V25.2358H169.56V18.9871H173.084Z" fill="black"></path> <path d="M176.827 25.2382H174.75V18.9883H176.827L176.815 18.9989C177.302 18.9924 177.786 19.0629 178.25 19.2079C178.664 19.3343 179.05 19.5389 179.387 19.8105C179.709 20.0768 179.966 20.413 180.138 20.7936C180.321 21.2111 180.411 21.6629 180.403 22.1185C180.412 22.5769 180.322 23.0317 180.138 23.4517C179.97 23.8283 179.716 24.1608 179.398 24.4231C179.062 24.6963 178.676 24.9024 178.262 25.0303C177.798 25.1749 177.313 25.2451 176.827 25.2382ZM175.556 19.861V24.3913H177.124L177.112 24.4137H177.128C177.462 24.4201 177.795 24.3606 178.106 24.2386C178.39 24.1235 178.652 23.9593 178.879 23.7535C179.098 23.5532 179.271 23.3086 179.387 23.0359C179.512 22.7542 179.576 22.4498 179.575 22.142C179.58 21.8345 179.52 21.5295 179.398 21.247C179.282 20.9748 179.109 20.7306 178.891 20.5305C178.664 20.3214 178.403 20.1544 178.118 20.0372C177.801 19.9139 177.464 19.854 177.124 19.861H175.556Z" fill="black"></path> <path d="M181.885 25.2382H182.707V18.9883H181.885V25.2382Z" fill="black"></path> <path d="M184.811 25.237H183.928L186.501 18.9871H187.406L189.979 25.2346H189.097L188.509 23.7793H185.408L184.811 25.237ZM186.953 20.036L185.762 22.9184H188.146L186.953 20.036Z" fill="black"></path> <path d="M21.5606 16.6099L24.302 36.2253H20.0853L18.5184 25.0328L14.1725 36.23H10.3962L6.11721 25.0328L4.44578 36.2253H0L2.7074 16.6099H6.98639L12.1675 29.3787L17.3485 16.6099H21.5606Z" fill="black"></path> <path d="M45.7651 33.5567C45.0489 34.6234 44.0387 35.4594 42.8568 35.9634C41.3414 36.6308 39.6962 36.9518 38.0411 36.9031C36.677 36.8975 35.3263 36.6336 34.0604 36.1255C32.8124 35.642 31.6668 34.9275 30.6835 34.0195C29.7032 33.1005 28.9089 32.0015 28.3437 30.7824C27.7351 29.4745 27.4269 28.0469 27.4417 26.6044C27.4269 25.1619 27.7352 23.7343 28.3437 22.4264C28.9197 21.1939 29.7249 20.0821 30.7164 19.1505C31.7 18.2429 32.8456 17.5285 34.0933 17.0445C35.3589 16.5392 36.7088 16.2781 38.0716 16.2751C38.9255 16.2761 39.7769 16.3658 40.6122 16.543C41.3617 16.6917 42.0911 16.9283 42.7852 17.2477C43.3927 17.5368 43.9647 17.8955 44.4895 18.3166C44.9589 18.6826 45.3652 19.123 45.6923 19.6203L44.3556 23.2944C43.7172 22.5612 42.9316 21.9705 42.0499 21.5608C40.9285 21.0065 39.6898 20.7312 38.4392 20.7585C37.5431 20.7482 36.6513 20.8838 35.7988 21.1602C35.0292 21.4158 34.3147 21.8143 33.6928 22.3348C33.0892 22.8331 32.6048 23.4603 32.2751 24.1702C31.9454 24.8802 31.7789 25.6549 31.7876 26.4376C31.7775 27.2217 31.9434 27.9981 32.2731 28.7096C32.6028 29.4211 33.088 30.0495 33.6928 30.5486C34.3147 31.0691 35.0292 31.4676 35.7988 31.7232C36.6513 31.9996 37.5431 32.1353 38.4392 32.1249C39.7124 32.1633 40.9754 31.8878 42.1169 31.3227C42.9962 30.8924 43.7716 30.2765 44.3897 29.5173L45.7651 33.323V33.5567Z" fill="black"></path> <path d="M50.5126 31.6843C50.7871 31.409 51.115 31.1929 51.4762 31.0492C51.8374 30.9056 52.2242 30.8375 52.6128 30.8492C53.0014 30.8382 53.3882 30.9066 53.7494 31.0502C54.1107 31.1939 54.4388 31.4098 54.7137 31.6847C54.9886 31.9596 55.2045 32.2877 55.3482 32.649C55.4918 33.0102 55.5602 33.397 55.5492 33.7856C55.5602 34.1742 55.4918 34.561 55.3482 34.9223C55.2045 35.2835 54.9886 35.6116 54.7137 35.8866C54.4388 36.1615 54.1107 36.3774 53.7494 36.521C53.3882 36.6647 53.0014 36.7331 52.6128 36.7221C52.2242 36.7329 51.8375 36.6644 51.4763 36.5207C51.1152 36.3769 50.7871 36.161 50.5122 35.8862C50.2374 35.6113 50.0215 35.2832 49.8777 34.9221C49.734 34.5609 49.6655 34.1742 49.6763 33.7856C49.6647 33.3968 49.7328 33.0097 49.8767 32.6483C50.0205 32.2869 50.237 31.9588 50.5126 31.6843Z" fill="black"></path> <path d="M69.4236 34.7266C68.9817 35.331 68.3959 35.8155 67.7193 36.1361C66.9169 36.523 66.0353 36.7173 65.1446 36.7034C64.3679 36.7669 63.5867 36.662 62.8543 36.3958C62.1219 36.1297 61.4556 35.7085 60.9009 35.1612C59.898 33.9431 59.3943 32.3901 59.4914 30.8152V23.5328H56.5549V22.1586L62.4713 14.6707H63.7751V19.0166H69.2239V23.5293H63.741V29.8803C63.703 30.2045 63.7406 30.5332 63.8508 30.8405C63.961 31.1478 64.141 31.4254 64.3765 31.6515C64.8067 31.9844 65.3372 32.1613 65.8811 32.1531C66.3879 32.1673 66.8911 32.0644 67.3517 31.8524C67.8039 31.611 68.2033 31.2815 68.5262 30.8834L69.4283 34.6937L69.4236 34.7266Z" fill="black"></path> <path d="M81.2926 36.7326C80.0871 36.7371 78.8933 36.4974 77.783 36.0279C76.7055 35.5755 75.7198 34.9298 74.8747 34.1227C74.0289 33.3017 73.3472 32.3271 72.8662 31.2509C72.3654 30.1139 72.1146 28.8825 72.1309 27.6402C72.1144 26.3983 72.3652 25.1673 72.8662 24.0308C73.3461 22.9535 74.027 21.9776 74.8724 21.1554C75.7178 20.3492 76.7034 19.7044 77.7806 19.2526C78.8927 18.7892 80.0855 18.5507 81.2903 18.5507C82.495 18.5507 83.6878 18.7892 84.7999 19.2526C85.8773 19.704 86.863 20.3489 87.7082 21.1554C88.5537 21.9775 89.2346 22.9534 89.7143 24.0308C90.2169 25.1669 90.4693 26.3979 90.4543 27.6402V27.6743C90.4742 28.9166 90.2233 30.1483 89.719 31.2838C89.2398 32.3514 88.5586 33.3162 87.7128 34.1251C86.868 34.9325 85.8823 35.5782 84.8046 36.0302C83.6934 36.4992 82.4987 36.7382 81.2926 36.7326ZM81.356 23.1287C80.7056 23.119 80.0593 23.2322 79.4509 23.4623C78.8835 23.6753 78.3617 23.9942 77.9133 24.4019C77.4775 24.798 77.1349 25.2858 76.9102 25.8302C76.6663 26.4143 76.5417 27.0413 76.5438 27.6743V27.7412C76.5426 28.3726 76.6672 28.9979 76.9102 29.5806C77.1342 30.1278 77.4768 30.6185 77.9133 31.0171C78.3614 31.4253 78.8832 31.7443 79.4509 31.9568C80.0592 32.1872 80.7056 32.3004 81.356 32.2904C82.6028 32.3156 83.8116 31.8611 84.7329 31.0207C85.1689 30.6142 85.5208 30.1261 85.7689 29.5842C86.0394 29.009 86.1767 28.3803 86.1706 27.7448C86.177 27.0986 86.0398 26.4591 85.7689 25.8725C85.5228 25.3195 85.1708 24.8199 84.7329 24.4019C84.2918 24.001 83.7822 23.6827 83.2283 23.4623C82.6319 23.2303 81.9959 23.117 81.356 23.1287Z" fill="black"></path> <path d="M102.013 36.7326C100.866 36.7314 99.73 36.5043 98.6704 36.0643C97.6183 35.6351 96.6636 34.9984 95.8631 34.192C95.0492 33.3654 94.403 32.389 93.9603 31.3167C93.4801 30.1512 93.2404 28.9007 93.2556 27.6402L93.2884 27.7412C93.2741 26.4809 93.5137 25.2305 93.9932 24.0648C94.4362 22.9923 95.0824 22.0156 95.896 21.1883C96.69 20.3897 97.6325 19.7541 98.6704 19.3172C99.7072 18.878 100.821 18.6508 101.947 18.6488C103.073 18.614 104.193 18.8311 105.225 19.2843C105.991 19.5979 106.627 20.1645 107.027 20.8899V11.9631H111.274V36.2981H107.163V34.4939C106.759 35.2293 106.108 35.7977 105.324 36.0984C104.28 36.5499 103.15 36.7664 102.013 36.7326ZM102.514 23.1956C101.831 23.1802 101.151 23.2934 100.51 23.5292C99.9314 23.74 99.3985 24.0589 98.9393 24.4689C98.5023 24.8676 98.1596 25.3587 97.9363 25.9066C97.6929 26.4888 97.5679 27.1137 97.5686 27.7448V27.7788C97.5677 28.4099 97.6927 29.0349 97.9363 29.6171C98.1596 30.1649 98.5023 30.656 98.9393 31.0547C99.3988 31.4642 99.9317 31.7831 100.51 31.9944C101.151 32.2298 101.831 32.3429 102.514 32.328C103.502 32.342 104.478 32.1124 105.356 31.6596C106.078 31.3376 106.661 30.767 106.998 30.0516V25.4708C106.66 24.7553 106.077 24.1848 105.354 23.8628C104.476 23.4108 103.501 23.1817 102.514 23.1956Z" fill="black"></path> <path d="M123.94 36.7362C122.793 36.7352 121.657 36.5081 120.597 36.0679C119.546 35.6383 118.591 35.0016 117.79 34.1956C116.976 33.3677 116.33 32.3901 115.887 31.3167C115.413 30.1674 115.174 28.9351 115.183 27.6919C115.173 26.4476 115.413 25.214 115.887 24.0637C116.33 22.9915 116.976 22.0151 117.789 21.1883C118.59 20.3818 119.545 19.7451 120.597 19.316C121.657 18.8758 122.793 18.6487 123.94 18.6477C125.077 18.614 126.207 18.8309 127.25 19.2831C128.034 19.5834 128.685 20.152 129.088 20.8876V19.0823H133.199V36.2969H129.088V34.4916C128.685 35.2272 128.033 35.796 127.25 36.0972C126.207 36.5502 125.077 36.7683 123.94 36.7362ZM124.41 23.198C123.727 23.1827 123.047 23.2963 122.406 23.5328C121.828 23.7436 121.294 24.0625 120.835 24.4724C120.398 24.8712 120.055 25.3623 119.832 25.9101C119.588 26.4923 119.463 27.1172 119.464 27.7483V27.7812C119.463 28.4127 119.588 29.038 119.832 29.6206C120.055 30.1682 120.398 30.6593 120.835 31.0583C121.295 31.4677 121.828 31.7866 122.406 31.998C123.047 32.2335 123.727 32.3467 124.41 32.3315C125.398 32.3453 126.374 32.1153 127.251 31.662C127.974 31.3353 128.555 30.7601 128.889 30.0411V25.4602C128.55 24.7499 127.969 24.1836 127.25 23.8628C126.372 23.4093 125.396 23.1794 124.408 23.1933L124.41 23.198Z" fill="black"></path> <path d="M140.854 19.0165L145.366 29.7134L149.877 19.0165H154.597L144.296 43.3514H139.649L143.159 35.1611L136.273 19.0165H140.854Z" fill="black"></path> </svg> 